<svg width="512" height="512" viewBox="0 0 512 512" fill="none" xmlns="http://www.w3.org/2000/svg">
<g clip-path="url(#clip0_2871_7679)">
<mask id="mask0_2871_7679" style="mask-type:alpha" maskUnits="userSpaceOnUse" x="0" y="0" width="512" height="512">
<path d="M0 204.8C0 133.113 0 97.2699 13.9512 69.8892C26.223 45.8045 45.8045 26.223 69.8892 13.9512C97.2699 0 133.113 0 204.8 0H307.2C378.887 0 414.73 0 442.111 13.9512C466.196 26.223 485.777 45.8045 498.049 69.8892C512 97.2699 512 133.113 512 204.8V307.2C512 378.887 512 414.73 498.049 442.111C485.777 466.196 466.196 485.777 442.111 498.049C414.73 512 378.887 512 307.2 512H204.8C133.113 512 97.2699 512 69.8892 498.049C45.8045 485.777 26.223 466.196 13.9512 442.111C0 414.73 0 378.887 0 307.2V204.8Z" fill="#D9D9D9"/>
</mask>
<g mask="url(#mask0_2871_7679)">
<g clip-path="url(#clip1_2871_7679)">
<rect width="512" height="512" fill="black"/>
<rect width="512" height="512" fill="#050505"/>
<g clip-path="url(#clip2_2871_7679)">
<mask id="mask1_2871_7679" style="mask-type:alpha" maskUnits="userSpaceOnUse" x="-336" y="-326" width="1137" height="1164">
<rect x="61.6328" y="837.924" width="886.962" height="826.531" transform="rotate(-116.602 61.6328 837.924)" fill="url(#paint0_linear_2871_7679)"/>
</mask>
<g mask="url(#mask1_2871_7679)">
<rect x="61.6328" y="837.924" width="886.962" height="826.531" transform="rotate(-116.602 61.6328 837.924)" fill="#0BD54B"/>
</g>
<path d="M410.557 271.693C415.623 272.673 421.175 273.336 426.667 273.549L431.828 266.75C442.779 254.404 456.33 252.769 452.648 245.849C449.2 239.368 443.537 233.422 436.044 230.139L416.46 221.142C385.106 232.63 356.218 219.986 324.115 225.147C314.153 225.914 298.108 225.674 295.609 226.067C293.109 226.459 290.56 226.869 288.959 227.68L282.07 230.854L282.855 225.727C283.1 221.088 282.921 218.188 282.07 211.878C281.687 206.676 281.517 198.427 281.474 195.059C281.389 189.132 281.644 182.95 282.155 176.938C283.134 170.074 283.603 166.139 283.475 159.36V154.457C283.475 152.197 283.262 150.065 282.836 148.061C282.623 146.91 282.24 145.716 281.857 144.565H281.942L280.154 140.216L279.047 137.615C277.515 133.138 275.982 128.406 274.62 123.886C273.683 119.324 275.125 114.378 275.04 109.134V105.126L274.103 103.847C273.337 102.824 272.187 101.8 270.57 100.692C269.378 99.839 267.802 98.901 265.801 97.8351C262.055 95.5327 257.925 93.273 253.54 91.3117C249.41 89.3078 245.281 87.6023 241.406 86.4085C237.064 84.4898 233.998 83.6371 231.657 83.6371C227.91 83.7224 224.462 84.5325 220.971 86.4085C219.225 87.3891 214.217 89.252 213.275 90.7168C211.078 94.1348 209.391 98.8157 207.815 102.184C206.368 105.766 205.346 109.603 204.75 113.44L204.452 114.762L204.92 116.084C207.858 123.204 208.034 131.433 209.439 140.6C210.801 149.937 211.865 159.786 212.674 169.848L214.931 196.551C215.654 205.377 216.489 220.602 217.426 227.68C214.129 229.392 212.766 230.069 209.268 231.107C178.527 236.133 164.447 234.788 133.376 236.165C133.376 236.165 96.5701 236.165 88.446 244.491C84.8565 248.169 76.2338 262.133 78.705 274.893C78.8015 275.392 79.0699 275.838 79.4465 276.179C82.0169 278.503 92.4021 288.065 95.6623 293.704C96.1306 294.515 96.5563 295.325 96.9821 296.177L97.8336 297.67L99.4088 298.309C107.753 301.72 117.091 301.24 124.116 299.577C126.713 299.023 129.395 298.682 131.992 298.639C136.079 298.597 139.789 298.112 144.184 298.112H145.16L150.531 297.504C154.193 296.857 157.196 297.232 162.646 296.209C167.84 294.887 172.857 293.894 178.179 293.51C189.035 292.785 200.449 293.232 208.881 290.18L218.158 285.541L216.449 310.688C215.365 313.736 215.867 317.452 214.931 324.359C214.036 331.565 214.345 336.654 214.388 343.647C214.43 349.104 214.249 355.217 214.931 360.248L215.058 360.845C216.123 365.62 215.26 371.723 217.182 376.605C218.719 380.512 218.363 394.762 218.891 399.066C218.891 399.066 219.182 408.861 221.576 415.668C223.208 420.307 236.338 429.445 245.552 429.445C250.629 429.445 249.408 429.933 258.93 425.678C263.813 422.992 272.113 410.785 283.082 409.809H286.764C292.956 392.646 290.117 366.107 288.959 354.145C288.227 346.576 286.168 342.182 283.571 331.928C281.862 330.463 282.379 309.131 283.571 301.798C284.38 296.255 285.274 294.209 286.168 288.837L286.764 283.749C305.411 282.258 325.508 279.277 344.339 279.526C364.887 279.193 379.535 280.414 381.488 276.996C387.531 268.255 401.696 269.883 410.557 271.693Z" fill="#80FF04"/>
</g>
</g>
</g>
</g>
<defs>
<linearGradient id="paint0_linear_2871_7679" x1="61.6328" y1="1251.19" x2="948.595" y2="1251.19" gradientUnits="userSpaceOnUse">
<stop stop-color="#D9D9D9" stop-opacity="0"/>
<stop offset="1" stop-color="#D9D9D9" stop-opacity="0.25"/>
</linearGradient>
<clipPath id="clip0_2871_7679">
<rect width="512" height="512" fill="white"/>
</clipPath>
<clipPath id="clip1_2871_7679">
<rect width="512" height="512" fill="white"/>
</clipPath>
<clipPath id="clip2_2871_7679">
<rect width="512" height="512" fill="white"/>
</clipPath>
</defs>
</svg>
