<svg version="1.1" id="Layer_1" xmlns="http://www.w3.org/2000/svg" xmlns:xlink="http://www.w3.org/1999/xlink" x="0px" y="0px"
	 width="100%" viewBox="0 0 1024 1024" enable-background="new 0 0 1024 1024" xml:space="preserve">
<path fill="#000000" opacity="1.000000" stroke="none" 
	d="
M208.703903,518.239258 
	C198.496460,499.864868 188.523499,481.779816 178.384750,463.788208 
	C176.833572,461.035583 176.937943,459.271179 179.678391,457.633606 
	C181.511475,456.538208 182.546768,454.373840 185.799484,453.291016 
	C206.370605,490.218109 227.025940,527.296387 247.775238,564.543335 
	C242.478470,568.098877 238.207275,570.236694 231.490555,568.780029 
	C195.887665,561.059143 159.853592,560.415161 123.663826,563.964172 
	C112.532578,565.055725 101.572258,566.909485 90.715584,569.512451 
	C88.475533,570.049500 80.201111,566.381104 79.498810,564.509583 
	C78.803368,562.656372 80.222000,561.353821 80.993774,559.959534 
	C94.866928,534.894226 108.776245,509.848999 122.684288,484.803040 
	C127.697266,475.775543 132.729889,466.758942 137.746811,457.733612 
	C138.547333,456.293518 139.124115,454.696198 140.702026,453.701263 
	C143.120682,454.137726 144.356384,456.442230 146.396622,457.471497 
	C149.396118,458.984741 149.183334,460.775055 147.657928,463.499451 
	C132.522980,490.531128 117.482376,517.616028 102.535522,544.752258 
	C100.161957,549.061462 97.198479,553.121643 95.523094,558.655762 
	C140.500916,550.595154 184.966217,550.501587 231.129532,558.972351 
	C223.308380,544.763672 216.096298,531.661438 208.703903,518.239258 
z"/>
<path fill="#000000" opacity="1.000000" stroke="none" 
	d="
M412.071716,550.219299 
	C406.459991,553.842102 400.570435,552.235474 394.811371,551.531982 
	C393.389282,551.358337 393.137421,549.214172 392.654205,547.804443 
	C391.141998,543.392822 389.521271,539.014648 388.153992,534.558594 
	C387.231842,531.553284 385.510773,530.312012 382.322815,530.356079 
	C372.494110,530.492188 362.661499,530.487488 352.832428,530.368896 
	C349.650818,530.330566 347.910431,531.555237 347.060730,534.614502 
	C345.859070,538.940979 344.437408,543.208313 343.024200,547.472656 
	C342.614380,548.709229 342.128754,550.041199 341.290985,550.986633 
	C340.088806,552.343140 324.714050,552.553894 323.130066,551.453796 
	C321.123016,550.059937 322.411865,548.434021 322.925690,546.997498 
	C329.318085,529.125854 335.761993,511.272614 342.199036,493.416931 
	C346.377075,481.827423 350.717651,470.293182 354.668915,458.627014 
	C356.104095,454.389557 358.143372,452.567993 362.875336,452.629944 
	C377.986053,452.827728 378.131989,452.582275 383.148346,466.804626 
	C392.893158,494.433105 402.459839,522.124451 412.071716,550.219299 
M362.652435,513.647766 
	C366.976624,513.640930 371.302795,513.549377 375.624359,513.652649 
	C379.459351,513.744263 380.226624,512.170837 378.977905,508.714508 
	C375.702240,499.647797 372.640106,490.504028 369.384399,481.429871 
	C369.005188,480.372894 368.969940,478.720856 366.806366,478.545654 
	C362.693604,489.961823 358.574738,501.395020 354.449524,512.845825 
	C357.406525,514.034119 359.590820,513.479553 362.652435,513.647766 
z"/>
<path fill="#000000" opacity="1.000000" stroke="none" 
	d="
M432.809814,501.000000 
	C432.816223,486.519226 432.924469,472.537292 432.767700,458.558350 
	C432.720551,454.356171 433.988708,452.580353 438.473633,452.674835 
	C449.952667,452.916626 461.444427,452.558075 472.923279,452.804138 
	C487.238922,453.110992 496.716003,459.740051 498.665649,471.726318 
	C500.182373,481.051086 500.198456,490.694214 498.562775,500.045746 
	C496.766632,510.314636 489.520111,516.367493 478.653107,518.260925 
	C471.206207,519.558411 463.713593,519.123718 456.240479,519.058716 
	C452.417450,519.025513 450.842926,520.299927 450.945557,524.252808 
	C451.139862,531.737000 450.881927,539.231934 450.999817,546.719482 
	C451.062042,550.670837 449.659576,552.408020 445.455078,552.319214 
	C430.988525,552.013428 432.924255,553.969788 432.833740,539.947144 
	C432.751007,527.131958 432.812256,514.315735 432.809814,501.000000 
M459.584442,501.900330 
	C464.234192,501.848267 468.896515,501.991913 473.530426,501.693787 
	C479.126495,501.333771 481.394073,499.026154 481.589935,493.581726 
	C481.774872,488.439911 481.780273,483.278503 481.559692,478.138763 
	C481.320618,472.567871 479.157776,470.393036 473.496155,470.126343 
	C467.528015,469.845215 461.533417,470.114441 455.566803,469.815552 
	C452.106262,469.642212 450.815155,470.734161 450.930115,474.280609 
	C451.145264,480.917511 450.999207,487.566498 450.983215,494.210388 
	C450.964813,501.853394 450.955322,501.853363 459.584442,501.900330 
z"/>
<path fill="#000000" opacity="1.000000" stroke="none" 
	d="
M584.275574,479.128967 
	C584.274597,484.610443 584.341248,489.610626 584.254333,494.608093 
	C584.026245,507.724182 576.715820,516.011353 563.715820,518.257507 
	C556.258667,519.545959 548.759033,519.136597 541.278076,519.072998 
	C537.441528,519.040405 535.895142,520.257385 536.016602,524.249695 
	C536.249634,531.907532 536.019531,539.578247 536.106262,547.242249 
	C536.146545,550.803162 534.712463,552.349121 531.041382,552.289917 
	C515.867126,552.044983 518.007324,554.026184 517.953430,539.899109 
	C517.851074,513.071716 517.899292,486.243652 517.914551,459.415863 
	C517.918274,452.899994 518.096741,452.633423 524.697205,452.777740 
	C537.503723,453.057770 550.387024,451.522034 563.106140,453.609253 
	C577.732483,456.009460 583.928589,463.650879 584.275574,479.128967 
M535.370850,483.518616 
	C535.369324,488.339661 535.384277,493.160767 535.358459,497.981689 
	C535.347778,499.984924 535.658691,501.793427 538.172302,501.780640 
	C545.314514,501.744263 552.471436,501.861816 559.592346,501.425751 
	C563.784973,501.169006 566.058350,498.452728 565.992310,494.013977 
	C565.908203,488.363525 565.927124,482.711151 565.945190,477.059723 
	C565.958984,472.765228 563.616516,470.581879 559.581787,470.264893 
	C555.777466,469.965973 551.944397,469.963745 548.123657,469.952850 
	C535.392578,469.916656 535.392517,469.937622 535.370850,483.518616 
z"/>
<path fill="#000000" opacity="1.000000" stroke="none" 
	d="
M927.547546,549.956238 
	C925.089417,553.708984 921.652649,552.427734 918.830139,551.788696 
	C916.188049,551.190491 916.915771,548.243652 916.913208,546.175781 
	C916.877625,517.180969 916.966125,488.185669 916.817627,459.191559 
	C916.793457,454.466187 918.376587,453.051422 923.130676,452.710327 
	C930.067200,452.212677 933.796509,454.547668 936.887695,460.962616 
	C947.731445,483.466187 959.275696,505.632263 970.567261,527.919739 
	C971.313477,529.392761 972.170532,530.809570 973.590271,533.352905 
	C973.782471,530.711853 973.988464,529.182495 973.990784,527.652832 
	C974.024841,504.823761 974.011658,481.994659 974.072388,459.165710 
	C974.079651,456.437225 973.515808,453.241943 977.844177,452.889496 
	C981.861084,452.562469 984.122437,453.614349 984.107178,458.251892 
	C984.009705,487.912842 984.071777,517.574280 984.050720,547.235596 
	C984.049194,549.379333 984.213806,552.129883 981.150085,552.081299 
	C977.437744,552.022461 973.049377,554.029358 970.495056,549.133057 
	C964.254761,537.170776 957.885620,525.275757 951.574524,513.350403 
	C943.807068,498.672974 936.045837,483.992218 927.863525,469.394501 
	C928.399292,496.177795 927.414917,522.874023 927.547546,549.956238 
z"/>
<path fill="#000000" opacity="1.000000" stroke="none" 
	d="
M749.624512,468.694519 
	C751.542480,473.427032 752.234070,478.010010 752.245667,482.696075 
	C752.275696,494.845703 752.269470,506.995483 752.256958,519.145203 
	C752.234924,540.498901 742.301208,551.332458 720.961365,553.177673 
	C714.101868,553.770874 707.317383,553.056396 700.722168,551.101746 
	C688.417542,547.455078 680.929810,538.619873 680.350891,525.101074 
	C679.718079,510.321777 679.642212,495.457367 680.462280,480.693298 
	C681.399048,463.826813 689.251465,455.380188 705.931763,452.366577 
	C715.121826,450.706238 724.479309,450.808197 733.499268,454.188812 
	C740.657166,456.871490 746.320312,461.162292 749.624512,468.694519 
M690.345276,500.500031 
	C690.350891,508.331635 690.206238,516.166931 690.400940,523.993835 
	C690.634460,533.380981 695.075073,539.921326 702.942932,542.536926 
	C711.567322,545.403992 720.314758,545.466797 728.982361,542.710205 
	C736.750305,540.239868 741.636353,534.919617 741.798950,526.687317 
	C742.121399,510.366913 742.082642,494.030975 741.755432,477.710205 
	C741.618408,470.874146 737.862122,465.858337 731.483398,462.961029 
	C723.200256,459.198700 714.572510,459.302155 706.046265,461.296600 
	C695.612488,463.737244 690.657715,470.283325 690.379700,481.004822 
	C690.219910,487.166077 690.348022,493.334778 690.345276,500.500031 
z"/>
<path fill="#000000" opacity="1.000000" stroke="none" 
	d="
M829.810486,478.872925 
	C832.536255,471.294617 835.107544,464.078339 837.757935,456.891266 
	C839.050720,453.385803 845.702393,451.188232 848.608215,453.326874 
	C850.647766,454.827942 849.291565,456.703918 848.719482,458.311096 
	C844.196167,471.016693 839.609070,483.699646 835.019165,496.381439 
	C828.898682,513.292236 822.642090,530.155334 816.716125,547.133972 
	C815.408997,550.879028 813.677795,552.752808 809.604980,552.303772 
	C805.561890,551.857910 801.178528,553.620300 799.084778,547.564087 
	C788.746948,517.661438 778.023315,487.892090 767.432861,458.076782 
	C766.937744,456.682892 766.126892,455.331482 766.933044,453.797302 
	C774.659424,451.553680 776.403503,452.368134 778.941772,459.476227 
	C787.789307,484.252136 796.622131,509.033325 805.475586,533.807129 
	C806.030518,535.360168 806.713440,536.867371 807.837952,539.624939 
	C815.373535,518.802612 822.531128,499.024780 829.810486,478.872925 
z"/>
<path fill="#000000" opacity="1.000000" stroke="none" 
	d="
M608.964478,548.606323 
	C608.919250,518.489319 608.945923,488.835327 608.869995,459.181580 
	C608.860168,455.334045 609.461853,452.867462 614.235168,452.829803 
	C618.762024,452.794067 620.372437,454.231018 620.339355,458.871216 
	C620.162598,483.692780 620.251892,508.516235 620.253784,533.339050 
	C620.254333,540.982422 620.260925,540.988281 627.914062,540.998169 
	C638.576172,541.012024 649.240051,541.131409 659.899536,540.969910 
	C664.409424,540.901550 665.407043,542.972839 665.474243,547.085327 
	C665.546814,551.525024 663.567566,552.354370 659.739441,552.320496 
	C644.746948,552.187988 629.752625,552.276367 614.758972,552.250122 
	C612.301208,552.245850 609.515564,552.669617 608.964478,548.606323 
z"/>
<path fill="#000000" opacity="1.000000" stroke="none" 
	d="
M139.184937,444.521912 
	C134.140671,431.096313 137.525803,418.730103 147.993866,411.355957 
	C157.748871,404.484039 171.206360,405.012390 180.366730,412.908691 
	C188.893005,420.258453 191.438416,429.834198 188.643799,440.424591 
	C185.956894,450.606720 178.703857,456.996735 168.509064,459.052765 
	C157.670837,461.238586 148.533905,457.544281 141.699310,448.687286 
	C140.792404,447.512024 140.134018,446.144989 139.184937,444.521912 
M154.898834,417.233551 
	C146.097061,422.553040 142.923859,432.012451 147.003571,440.769501 
	C150.794159,448.905975 160.283020,452.962463 168.816803,450.094727 
	C178.535599,446.828766 183.435883,436.475403 179.903336,426.670868 
	C176.493057,417.205597 165.959427,412.981903 154.898834,417.233551 
z"/>
<path fill="#000000" opacity="1.000000" stroke="none" 
	d="
M94.431015,587.888977 
	C97.187218,601.610840 88.983406,614.545166 75.320435,618.538757 
	C62.825348,622.190979 48.810181,615.131348 43.901310,602.712463 
	C38.904716,590.071655 44.404583,575.225159 56.247559,569.384705 
	C72.331757,561.452637 90.579956,570.110046 94.431015,587.888977 
M51.510624,598.504089 
	C52.458157,600.247009 53.200470,602.146179 54.388451,603.705933 
	C59.753273,610.749939 68.207916,612.736633 76.205078,608.985046 
	C83.505936,605.560120 87.721283,597.250549 86.006287,589.664429 
	C83.911301,580.397583 77.522720,575.107849 68.448502,575.126770 
	C56.340248,575.152039 49.692444,583.921509 51.510624,598.504089 
z"/>
<path fill="#000000" opacity="1.000000" stroke="none" 
	d="
M236.423325,608.444519 
	C228.877197,595.956543 230.283783,582.497314 239.830307,573.497559 
	C248.704300,565.131836 262.371399,563.958801 272.570862,570.859253 
	C281.747620,577.067810 285.559631,585.997498 284.029816,596.764648 
	C282.488983,607.609375 276.012207,614.996399 265.542297,618.196899 
	C255.482513,621.271912 246.480927,618.764771 238.922394,611.382568 
	C238.092377,610.571899 237.395981,609.624329 236.423325,608.444519 
M253.365814,575.484192 
	C252.275848,575.896790 251.149719,576.233643 250.101791,576.734253 
	C242.977905,580.137756 239.443069,586.815430 240.252289,595.259216 
	C240.934555,602.378296 246.332016,608.505554 253.596832,610.408142 
	C260.628632,612.249695 268.655029,609.089844 272.759827,602.813232 
	C276.789307,596.651733 276.973175,590.178650 273.407684,583.900269 
	C269.197540,576.486633 262.341003,574.278687 253.365814,575.484192 
z"/>
<path fill="#000000" opacity="1.000000" stroke="none" 
	d="
M880.358643,470.001953 
	C880.358643,495.620697 880.367859,520.739746 880.351196,545.858826 
	C880.347290,551.804504 877.096802,553.996033 871.442261,552.049866 
	C869.945862,551.534790 869.328918,550.510803 869.150513,549.124573 
	C869.002502,547.974854 868.982483,546.802856 868.982178,545.640686 
	C868.975586,516.861938 868.967041,488.083130 868.991089,459.304352 
	C868.996033,453.385254 869.816895,452.768646 875.621399,452.854401 
	C878.905640,452.902924 880.564453,453.978851 880.397766,457.526978 
	C880.210693,461.510559 880.357178,465.509827 880.358643,470.001953 
z"/>
</svg>