<svg version="1.1" id="Layer_1" xmlns="http://www.w3.org/2000/svg" xmlns:xlink="http://www.w3.org/1999/xlink" x="0px" y="0px"
	 width="100%" viewBox="0 0 1080 1080" enable-background="new 0 0 1080 1080" xml:space="preserve">
<path fill="#FEFEFE" opacity="1.000000" stroke="none" 
	d="
M709.000000,1081.000000 
	C472.693878,1081.000000 236.887756,1081.000000 1.040821,1081.000000 
	C1.040821,721.068787 1.040821,361.137512 1.040821,1.103134 
	C360.889648,1.103134 720.779358,1.103134 1080.834473,1.103134 
	C1080.834473,360.999939 1080.834473,720.999939 1080.834473,1081.000000 
	C957.137024,1081.000000 833.318542,1081.000000 709.000000,1081.000000 
M788.298950,482.704681 
	C807.516968,472.477386 826.503235,461.779724 846.022095,452.162994 
	C863.444153,443.579346 881.458984,436.200073 899.189697,428.238953 
	C899.979553,427.884308 901.205444,426.637115 901.107422,426.472351 
	C900.489624,425.433838 899.714722,424.315125 898.700806,423.711761 
	C881.419678,413.427765 864.141724,403.135925 846.715515,393.102020 
	C844.839661,392.021851 841.767517,391.718964 839.723022,392.424835 
	C802.730530,405.196869 766.960876,420.866730 732.205017,438.811920 
	C681.501404,464.991364 632.773010,494.526886 585.973267,527.130737 
	C556.520264,547.649658 527.811523,569.239502 498.849060,590.458313 
	C492.184875,595.340698 485.849396,600.671631 478.994965,606.086670 
	C480.679810,607.683228 481.664734,608.792480 482.818390,609.683289 
	C500.584503,623.402161 518.406006,637.049561 536.122437,650.832092 
	C539.048035,653.108154 540.980774,652.762573 543.826416,650.436829 
	C561.338806,636.124146 578.751709,621.662659 596.750244,607.977295 
	C638.713440,576.070068 682.238464,546.386902 727.159424,518.799438 
	C747.114014,506.544586 767.495056,494.984161 788.298950,482.704681 
M614.702759,376.384918 
	C526.418640,416.402374 445.458191,468.211151 368.677216,527.821228 
	C385.996216,539.791443 402.331818,550.913269 418.442505,562.351807 
	C421.885864,564.796570 424.111664,564.386841 427.178650,561.973206 
	C436.842651,554.367737 446.630280,546.912537 456.519196,539.600891 
	C512.696838,498.064392 570.756348,459.460236 632.579285,426.718781 
	C677.896179,402.718964 724.663940,382.104767 773.373596,365.977478 
	C777.952576,364.461426 782.490723,362.821930 787.991455,360.912140 
	C785.839050,359.344391 784.872253,358.418671 783.729492,357.841400 
	C768.584351,350.191437 753.449158,342.519562 738.207092,335.066650 
	C736.291626,334.130035 733.591370,333.705719 731.576355,334.245239 
	C719.867493,337.380249 707.989380,340.163208 696.662354,344.389099 
	C669.423889,354.551239 642.458862,365.446594 614.702759,376.384918 
M432.870880,367.538818 
	C375.445343,396.579559 321.443878,431.144043 268.472412,468.743744 
	C270.086029,470.020691 270.991516,470.949280 272.075409,471.562775 
	C285.653687,479.247894 299.341919,486.743896 312.800964,494.631317 
	C316.552338,496.829742 319.021881,496.526917 322.474884,493.961456 
	C359.676239,466.321747 397.531158,439.614166 437.465973,416.018036 
	C453.727692,406.409515 470.350311,397.411835 487.383392,387.812347 
	C485.969360,386.881958 484.756439,385.833923 483.355896,385.201263 
	C470.038910,379.185974 456.681946,373.259247 443.356110,367.263397 
	C440.054443,365.777832 436.813995,364.752167 432.870880,367.538818 
M337.728699,375.958679 
	C355.485962,366.633423 373.243256,357.308167 391.483887,347.729065 
	C390.254669,346.851196 389.676086,346.184937 388.960205,345.964417 
	C376.749481,342.202759 364.575653,338.300049 352.260193,334.914185 
	C349.137878,334.055786 344.955597,333.725983 342.270569,335.111267 
	C310.418518,351.544617 278.507477,367.895386 247.133606,385.212921 
	C225.497620,397.155457 204.664459,410.554108 183.517029,423.375427 
	C182.411591,424.045654 181.638641,425.353668 180.947433,426.506561 
	C180.859238,426.653595 182.113220,427.887207 182.912140,428.242096 
	C195.330765,433.758942 207.832794,439.092468 220.174591,444.774506 
	C223.011459,446.080536 224.994827,445.878723 227.444214,444.203094 
	C235.254105,438.860291 243.030792,433.442322 251.097061,428.505615 
	C279.695190,411.003052 308.408173,393.688110 337.728699,375.958679 
M437.121033,295.021393 
	C424.301819,299.997498 411.482574,304.973633 398.663361,309.949738 
	C398.734589,310.436279 398.805817,310.922821 398.877075,311.409363 
	C400.011841,311.928528 401.104614,312.585175 402.287598,312.946411 
	C423.216797,319.337433 444.484497,324.795471 465.009247,332.289490 
	C488.958496,341.033844 512.233459,351.617554 535.889221,361.185150 
	C538.086670,362.073883 541.255859,362.201874 543.402222,361.309082 
	C557.500061,355.445038 571.449036,349.221954 585.418152,343.051788 
	C586.621155,342.520416 587.618286,341.522736 589.484558,340.188751 
	C584.823181,337.882660 581.267273,335.759064 577.457092,334.299194 
	C556.861816,326.408356 536.388428,318.136383 515.513367,311.056488 
	C495.746796,304.352570 475.486603,299.116974 455.549286,292.896576 
	C449.166809,290.905243 443.502716,291.725647 437.121033,295.021393 
M526.542969,284.534119 
	C539.065979,288.456299 551.791321,291.836243 564.068726,296.416779 
	C587.546509,305.175995 610.752686,314.661926 634.130798,323.692871 
	C635.957214,324.398499 638.385315,324.410614 640.297241,323.884766 
	C649.738464,321.288269 659.101807,318.408386 668.488647,315.615082 
	C673.136658,314.231934 677.776123,312.820007 682.419434,311.421112 
	C681.232483,309.573608 680.144714,308.944977 678.989624,308.485687 
	C666.982544,303.711639 655.097229,298.589264 642.920654,294.293121 
	C621.334778,286.677155 599.595764,279.490662 577.869873,272.277771 
	C566.535156,268.514679 555.118408,264.990021 543.674194,261.573608 
	C541.558594,260.942017 538.965576,260.761505 536.881592,261.366852 
	C526.692627,264.326447 516.596802,267.608063 506.477997,270.807281 
	C502.473419,272.073395 498.494629,273.421082 494.504089,274.731628 
	C494.545715,275.181152 494.587341,275.630676 494.628967,276.080200 
	C505.015320,278.801117 515.401733,281.522003 526.542969,284.534119 
M651.801880,763.265930 
	C649.298645,753.317444 643.550842,748.228516 632.813538,750.528748 
	C632.018127,750.699158 631.148682,750.583496 630.319153,750.524048 
	C627.348511,750.310974 626.046326,751.733459 626.048401,754.645020 
	C626.062195,774.144714 626.040955,793.644348 626.056458,813.144043 
	C626.059143,816.465759 627.765686,818.001160 631.118530,817.739563 
	C632.444153,817.636169 633.794739,817.600769 635.115173,817.728699 
	C639.817810,818.184326 641.763672,816.252686 641.626648,811.406433 
	C641.372498,802.413452 641.500366,793.408386 641.556824,784.408936 
	C641.567383,782.736084 641.990417,781.065796 642.223022,779.394348 
	C642.709900,779.311890 643.196716,779.229370 643.683533,779.146912 
	C649.626648,791.397278 655.569702,803.647644 661.934998,816.768311 
	C669.575745,804.023254 673.862976,790.484131 682.103394,779.037170 
	C682.881287,780.530334 683.014038,781.765015 683.011841,782.999390 
	C682.994263,792.831970 682.982666,802.664734 682.899292,812.496948 
	C682.868530,816.128296 684.042053,818.301208 688.164856,817.731323 
	C689.473267,817.550476 690.852051,817.536987 692.156555,817.730469 
	C697.085510,818.461548 698.794678,815.984802 698.786682,811.471130 
	C698.753906,792.971497 698.717346,774.471436 698.804565,755.972168 
	C698.823792,751.889954 697.207581,750.195923 693.098206,750.503784 
	C689.949158,750.739685 686.747070,750.783691 683.607422,750.493103 
	C679.980469,750.157349 678.084534,751.928955 676.676697,754.918396 
	C672.859802,763.023438 669.004272,771.111145 665.051819,779.150574 
	C664.337402,780.603821 663.089233,781.794617 661.771423,783.520569 
	C658.295715,776.414185 655.239258,770.164795 651.801880,763.265930 
M422.655792,814.025940 
	C438.743530,804.632690 442.782684,788.825256 439.030640,773.813477 
	C435.241302,758.652344 422.901245,749.328613 406.239899,748.914246 
	C392.086761,748.562317 378.634430,754.074219 372.337646,770.173950 
	C363.309631,793.256897 378.563751,816.709961 403.018188,818.911316 
	C409.852417,819.526611 416.190155,818.013672 422.655792,814.025940 
M75.440475,757.059387 
	C72.482422,755.312073 69.634552,752.314514 66.546494,752.042419 
	C55.496895,751.068542 44.366837,750.901367 33.264072,750.810486 
	C32.218765,750.801880 30.246964,753.462708 30.231220,754.900940 
	C30.021746,774.036682 30.103996,793.175415 30.063095,812.313293 
	C30.055563,815.838379 31.666294,817.500732 35.178127,817.511292 
	C41.164890,817.529236 47.193138,818.084412 53.126583,817.551819 
	C59.305271,816.997253 65.577721,816.005066 71.468147,814.131897 
	C77.526741,812.205200 80.399155,806.868958 81.174995,800.748230 
	C81.998184,794.254028 80.267807,788.567627 74.643074,784.544312 
	C73.535011,783.751709 72.540176,782.800781 71.438583,781.877136 
	C80.897934,772.759705 81.869629,767.017151 75.440475,757.059387 
M310.960968,785.981567 
	C308.539368,783.605835 308.564545,781.491760 310.680786,778.603333 
	C316.175842,771.103210 321.287231,763.320007 326.468140,755.593689 
	C327.319550,754.323975 327.746765,752.769836 328.715698,750.558105 
	C324.530151,750.558105 321.194183,750.920959 317.968750,750.478394 
	C312.233612,749.691467 309.132843,752.411560 306.498077,757.123840 
	C303.021057,763.342651 298.955261,769.236877 295.024200,775.192505 
	C294.371490,776.181519 293.116150,776.772644 291.271973,778.235718 
	C291.271973,771.758301 291.291412,766.627563 291.268158,761.497009 
	C291.208832,748.420654 292.449005,750.961731 280.495636,750.463074 
	C275.685913,750.262451 274.616913,752.171265 274.676178,756.610229 
	C274.898621,773.272156 274.831238,789.939026 274.751373,806.603455 
	C274.693451,818.694275 274.227722,817.561584 285.811829,817.803345 
	C290.155548,817.894043 291.392059,816.120483 291.317413,812.226685 
	C291.189606,805.562988 291.222260,798.895447 291.260742,792.229919 
	C291.268402,790.901062 291.604340,789.574036 291.788910,788.246155 
	C293.896790,788.950867 294.840698,789.928284 295.564087,791.048157 
	C300.246490,798.297119 304.815643,805.619934 309.552673,812.832642 
	C312.983093,818.055847 325.323853,819.863647 331.257446,815.671936 
	C324.634399,806.009888 318.000793,796.332397 310.960968,785.981567 
M755.486206,802.984619 
	C743.930298,802.726807 745.097595,805.103149 744.964417,793.346985 
	C744.930664,790.373047 746.104614,789.169373 749.117737,789.275879 
	C753.607117,789.434570 758.111389,789.180359 762.599792,789.351501 
	C766.310547,789.492920 768.189941,788.391479 767.925781,784.249634 
	C767.682800,780.439575 768.707764,776.193054 762.722473,776.255066 
	C759.559631,776.287781 756.396240,776.281128 753.233093,776.280396 
	C744.628601,776.278503 744.692505,776.192749 744.918457,767.718323 
	C745.008728,764.333313 746.411621,763.446289 749.492981,763.554993 
	C754.315125,763.725098 759.147461,763.606445 763.975464,763.610596 
	C771.255554,763.616821 771.774536,763.036255 773.082703,755.666077 
	C773.712097,752.120117 773.140869,750.409912 769.000732,750.476013 
	C757.017029,750.667419 745.027344,750.624634 733.041992,750.490295 
	C729.352600,750.448975 727.993530,751.945129 728.006165,755.528381 
	C728.072693,774.340698 728.071533,793.153564 727.991272,811.965820 
	C727.973083,816.219055 729.715271,817.856934 734.024353,817.781372 
	C745.341736,817.582764 756.668274,817.553833 767.984131,817.791382 
	C772.436279,817.884888 774.052979,816.003784 773.924744,811.898315 
	C773.883179,810.567749 773.860657,809.231812 773.930237,807.903625 
	C774.114502,804.386414 772.787598,802.682190 768.970032,802.924927 
	C764.824646,803.188538 760.649658,802.985168 755.486206,802.984619 
M603.346008,815.023315 
	C603.229126,814.037903 603.304688,812.980469 602.966919,812.077759 
	C596.625427,795.133850 590.524963,778.091431 583.762146,761.316284 
	C578.425842,748.079956 581.730957,750.937500 567.448059,750.508850 
	C564.235413,750.412537 562.352112,751.307190 561.111206,754.649719 
	C553.954895,773.925232 546.482666,793.083313 539.305237,812.351135 
	C538.801514,813.703369 539.648499,816.998413 540.140930,817.056213 
	C544.397339,817.554932 548.847412,818.165222 552.954895,817.334473 
	C554.689636,816.983521 556.237854,813.423279 557.015137,811.042419 
	C559.663940,802.928955 559.518555,802.882019 567.777893,802.888794 
	C570.110168,802.890686 572.442383,802.890564 574.774658,802.888306 
	C582.712769,802.880615 582.712769,802.880066 584.814148,810.632202 
	C586.800110,817.958252 597.092651,820.813049 603.346008,815.023315 
M1051.277954,814.505859 
	C1044.540649,796.876709 1037.906738,779.207031 1031.028442,761.633057 
	C1026.645020,750.433594 1026.474487,750.761963 1015.627380,750.425293 
	C1011.231506,750.288879 1009.303101,752.211426 1007.977112,755.786133 
	C1001.578369,773.035889 994.983948,790.215637 988.811157,807.545715 
	C985.242737,817.564087 985.557739,817.351562 996.313477,817.844788 
	C1001.210205,818.069336 1003.299561,815.996521 1004.450195,811.891418 
	C1004.764282,810.770996 1004.996399,809.627686 1005.269775,808.495789 
	C1006.185791,804.703491 1007.977417,802.318970 1012.504944,802.805298 
	C1016.124451,803.194214 1019.858826,803.225037 1023.470032,802.800537 
	C1028.046753,802.262512 1030.292725,803.940063 1031.773560,808.306885 
	C1034.977295,817.753906 1035.197754,817.680054 1045.197021,817.702881 
	C1046.360962,817.705505 1047.657715,818.009705 1048.652588,817.596191 
	C1049.694702,817.163025 1050.447388,816.032959 1051.277954,814.505859 
M148.667328,817.733765 
	C151.665588,817.728882 154.664215,817.752014 157.662018,817.712463 
	C162.204056,817.652588 163.499725,816.056580 161.924225,811.857483 
	C155.571625,794.926147 149.272461,777.970520 142.587204,761.169617 
	C138.079300,749.840759 137.792389,749.787903 125.879425,750.707520 
	C123.977524,750.854370 121.282043,752.817139 120.582443,754.585083 
	C112.955452,773.858154 105.614311,793.245117 98.300987,812.640869 
	C97.105194,815.812256 98.163017,817.884460 101.982361,817.723633 
	C103.479111,817.660645 104.980293,817.695801 106.479439,817.697876 
	C114.285477,817.708679 114.285446,817.710022 116.468407,810.363647 
	C118.693260,802.876282 118.693275,802.877014 126.680634,802.886963 
	C129.179260,802.890076 131.677902,802.888977 134.176529,802.888123 
	C141.694519,802.885681 141.518387,802.941833 143.783844,810.007141 
	C144.650513,812.709961 146.527542,815.088806 148.667328,817.733765 
M914.656006,773.844299 
	C911.057190,786.986450 913.735107,798.937500 923.420288,808.283203 
	C933.342468,817.857544 945.710388,821.380676 959.341736,817.600464 
	C962.618591,816.691711 967.015076,814.673035 968.047974,812.045044 
	C969.539062,808.251465 968.429321,803.435486 968.429321,799.922485 
	C961.963074,801.200928 956.251709,802.932373 950.449219,803.328369 
	C942.816589,803.849243 936.945190,800.089294 933.647339,793.143982 
	C929.855103,785.157532 930.240173,777.261353 935.899048,770.195679 
	C941.588806,763.091553 951.334229,761.186646 960.421143,765.059509 
	C962.751160,766.052551 965.047241,767.125488 967.584717,768.262939 
	C968.563232,752.498840 970.195435,751.980469 955.078064,749.165833 
	C954.914429,749.135376 954.754883,749.077454 954.590393,749.057800 
	C937.413208,747.014038 919.401184,754.953247 914.656006,773.844299 
M464.464355,750.045532 
	C460.452789,750.163635 460.802155,753.038879 460.805237,755.758240 
	C460.824188,772.581177 460.815216,789.404175 460.825439,806.227112 
	C460.832947,818.623291 459.191864,817.668518 472.881378,817.787048 
	C476.730499,817.820374 478.340576,816.208496 478.260681,812.414429 
	C478.141418,806.753540 478.327362,801.084717 478.141663,795.427185 
	C478.034302,792.157410 479.354248,790.915527 482.532715,791.026489 
	C486.359192,791.160156 490.206696,790.873657 494.020508,791.132141 
	C497.316345,791.355469 498.617584,789.852722 498.740234,786.863220 
	C498.808472,785.200439 498.714569,783.531311 498.766113,781.867371 
	C498.862183,778.765808 497.549835,777.237854 494.295441,777.375305 
	C490.969849,777.515747 487.605804,777.144836 484.309570,777.487915 
	C479.377808,778.001160 477.561951,775.953369 478.155609,771.216614 
	C478.320099,769.904053 477.737549,768.301331 478.306274,767.283325 
	C479.108154,765.847839 480.565247,763.951782 481.913849,763.802490 
	C486.027710,763.346863 490.223785,763.632812 494.387848,763.631104 
	C503.177490,763.627441 503.064301,764.545166 504.852997,755.030334 
	C505.584198,751.140930 504.706268,749.917786 500.772766,749.971252 
	C488.948914,750.132141 477.121552,750.031738 464.464355,750.045532 
M886.742310,817.734741 
	C891.522156,817.928772 890.919983,814.375732 890.929199,811.486450 
	C890.982544,794.847839 890.995972,778.208801 890.927002,761.570251 
	C890.870300,747.885132 892.584656,750.445740 879.250488,749.964844 
	C874.997009,749.811462 873.829712,751.342041 873.872925,755.410706 
	C874.051453,772.213989 873.966736,789.020203 873.953918,805.825378 
	C873.942932,820.319641 873.121277,817.449158 886.742310,817.734741 
M245.254730,755.963623 
	C245.731689,751.267944 243.836990,749.072754 238.932480,749.695923 
	C236.965424,749.945923 234.934769,749.831787 232.942596,749.717346 
	C229.442581,749.516113 228.221161,751.220398 228.300903,754.546814 
	C228.428604,759.873840 228.342651,765.206055 228.344193,770.536072 
	C228.345947,776.556519 228.344604,782.577026 228.344604,788.597473 
	C220.965179,779.140686 214.232208,769.737976 208.713745,759.669617 
	C204.527756,752.032349 199.402832,748.532837 190.564072,749.594910 
	C184.234680,750.355469 183.771103,750.102234 183.765137,756.478760 
	C183.749237,773.468262 183.858749,790.458496 183.732468,807.447021 
	C183.631317,821.055847 184.762238,818.041016 194.957825,818.493408 
	C199.564392,818.697815 201.282043,816.739502 201.230072,812.346802 
	C201.125641,803.520142 201.169159,794.691345 201.209366,785.863708 
	C201.216995,784.190674 201.492020,782.518860 201.784637,779.291748 
	C203.794052,781.788208 204.891159,782.927917 205.732361,784.232605 
	C211.214783,792.735474 217.117432,801.015747 221.933823,809.884155 
	C225.678101,816.778503 230.433395,819.415283 238.179977,818.576965 
	C244.698456,817.871521 245.245697,817.967346 245.251343,811.335999 
	C245.266800,793.180542 245.253250,775.025146 245.254730,755.963623 
M843.548950,800.813049 
	C842.090759,798.401550 840.882751,795.784180 839.111084,793.630554 
	C836.899353,790.941895 837.690430,789.399170 840.169189,787.572632 
	C848.432434,781.483643 851.247070,773.586182 848.604004,764.544678 
	C846.091675,755.950317 837.908691,749.887756 827.875854,749.606812 
	C819.727234,749.378601 811.565979,749.639954 803.413208,749.506714 
	C799.576538,749.444031 798.061768,750.989319 798.124939,754.853638 
	C798.282715,764.503784 798.184570,774.158142 798.184814,783.810852 
	C798.185059,793.629944 798.229614,803.449341 798.151855,813.267883 
	C798.123108,816.893677 799.261597,818.777771 803.340027,818.694275 
	C817.368225,818.406738 816.823059,820.443481 816.679810,805.701782 
	C816.671753,804.869690 816.678711,804.037537 816.678711,803.205383 
	C816.678711,799.572937 816.678711,795.940552 816.678711,792.308105 
	C817.241272,792.205933 817.803833,792.103821 818.366455,792.001648 
	C821.280518,797.090637 824.207397,802.172363 827.106140,807.270081 
	C833.838074,819.108704 833.832581,819.111816 847.198914,818.630798 
	C851.550476,818.474243 852.726990,816.384033 850.539978,812.526978 
	C848.416199,808.781555 846.192078,805.093018 843.548950,800.813049 
M590.230225,652.835571 
	C595.464539,648.920959 596.637939,645.710144 594.684204,640.648254 
	C592.772827,635.696289 588.733704,633.558411 582.708801,634.309814 
	C578.002258,634.896729 575.091675,637.840271 574.367676,642.745667 
	C573.170593,650.855774 580.784485,656.107422 590.230225,652.835571 
z"/>
<path fill="#E31C3A" opacity="1.000000" stroke="none" 
	d="
M787.990723,482.906616 
	C767.495056,494.984161 747.114014,506.544586 727.159424,518.799438 
	C682.238464,546.386902 638.713440,576.070068 596.750244,607.977295 
	C578.751709,621.662659 561.338806,636.124146 543.826416,650.436829 
	C540.980774,652.762573 539.048035,653.108154 536.122437,650.832092 
	C518.406006,637.049561 500.584503,623.402161 482.818390,609.683289 
	C481.664734,608.792480 480.679810,607.683228 478.994965,606.086670 
	C485.849396,600.671631 492.184875,595.340698 498.849060,590.458313 
	C527.811523,569.239502 556.520264,547.649658 585.973267,527.130737 
	C632.773010,494.526886 681.501404,464.991364 732.205017,438.811920 
	C766.960876,420.866730 802.730530,405.196869 839.723022,392.424835 
	C841.767517,391.718964 844.839661,392.021851 846.715515,393.102020 
	C864.141724,403.135925 881.419678,413.427765 898.700806,423.711761 
	C899.714722,424.315125 900.489624,425.433838 901.107422,426.472351 
	C901.205444,426.637115 899.979553,427.884308 899.189697,428.238953 
	C881.458984,436.200073 863.444153,443.579346 846.022095,452.162994 
	C826.503235,461.779724 807.516968,472.477386 787.990723,482.906616 
z"/>
<path fill="#E41D3B" opacity="1.000000" stroke="none" 
	d="
M615.043152,376.215546 
	C642.458862,365.446594 669.423889,354.551239 696.662354,344.389099 
	C707.989380,340.163208 719.867493,337.380249 731.576355,334.245239 
	C733.591370,333.705719 736.291626,334.130035 738.207092,335.066650 
	C753.449158,342.519562 768.584351,350.191437 783.729492,357.841400 
	C784.872253,358.418671 785.839050,359.344391 787.991455,360.912140 
	C782.490723,362.821930 777.952576,364.461426 773.373596,365.977478 
	C724.663940,382.104767 677.896179,402.718964 632.579285,426.718781 
	C570.756348,459.460236 512.696838,498.064392 456.519196,539.600891 
	C446.630280,546.912537 436.842651,554.367737 427.178650,561.973206 
	C424.111664,564.386841 421.885864,564.796570 418.442505,562.351807 
	C402.331818,550.913269 385.996216,539.791443 368.677216,527.821228 
	C445.458191,468.211151 526.418640,416.402374 615.043152,376.215546 
z"/>
<path fill="#07266D" opacity="1.000000" stroke="none" 
	d="
M433.179016,367.327759 
	C436.813995,364.752167 440.054443,365.777832 443.356110,367.263397 
	C456.681946,373.259247 470.038910,379.185974 483.355896,385.201263 
	C484.756439,385.833923 485.969360,386.881958 487.383392,387.812347 
	C470.350311,397.411835 453.727692,406.409515 437.465973,416.018036 
	C397.531158,439.614166 359.676239,466.321747 322.474884,493.961456 
	C319.021881,496.526917 316.552338,496.829742 312.800964,494.631317 
	C299.341919,486.743896 285.653687,479.247894 272.075409,471.562775 
	C270.991516,470.949280 270.086029,470.020691 268.472412,468.743744 
	C321.443878,431.144043 375.445343,396.579559 433.179016,367.327759 
z"/>
<path fill="#09286E" opacity="1.000000" stroke="none" 
	d="
M337.403168,376.130371 
	C308.408173,393.688110 279.695190,411.003052 251.097061,428.505615 
	C243.030792,433.442322 235.254105,438.860291 227.444214,444.203094 
	C224.994827,445.878723 223.011459,446.080536 220.174591,444.774506 
	C207.832794,439.092468 195.330765,433.758942 182.912140,428.242096 
	C182.113220,427.887207 180.859238,426.653595 180.947433,426.506561 
	C181.638641,425.353668 182.411591,424.045654 183.517029,423.375427 
	C204.664459,410.554108 225.497620,397.155457 247.133606,385.212921 
	C278.507477,367.895386 310.418518,351.544617 342.270569,335.111267 
	C344.955597,333.725983 349.137878,334.055786 352.260193,334.914185 
	C364.575653,338.300049 376.749481,342.202759 388.960205,345.964417 
	C389.676086,346.184937 390.254669,346.851196 391.483887,347.729065 
	C373.243256,357.308167 355.485962,366.633423 337.403168,376.130371 
z"/>
<path fill="#E4203E" opacity="1.000000" stroke="none" 
	d="
M437.484619,294.869385 
	C443.502716,291.725647 449.166809,290.905243 455.549286,292.896576 
	C475.486603,299.116974 495.746796,304.352570 515.513367,311.056488 
	C536.388428,318.136383 556.861816,326.408356 577.457092,334.299194 
	C581.267273,335.759064 584.823181,337.882660 589.484558,340.188751 
	C587.618286,341.522736 586.621155,342.520416 585.418152,343.051788 
	C571.449036,349.221954 557.500061,355.445038 543.402222,361.309082 
	C541.255859,362.201874 538.086670,362.073883 535.889221,361.185150 
	C512.233459,351.617554 488.958496,341.033844 465.009247,332.289490 
	C444.484497,324.795471 423.216797,319.337433 402.287598,312.946411 
	C401.104614,312.585175 400.011841,311.928528 398.877075,311.409363 
	C398.805817,310.922821 398.734589,310.436279 398.663361,309.949738 
	C411.482574,304.973633 424.301819,299.997498 437.484619,294.869385 
z"/>
<path fill="#E42340" opacity="1.000000" stroke="none" 
	d="
M526.165527,284.388519 
	C515.401733,281.522003 505.015320,278.801117 494.628967,276.080200 
	C494.587341,275.630676 494.545715,275.181152 494.504089,274.731628 
	C498.494629,273.421082 502.473419,272.073395 506.477997,270.807281 
	C516.596802,267.608063 526.692627,264.326447 536.881592,261.366852 
	C538.965576,260.761505 541.558594,260.942017 543.674194,261.573608 
	C555.118408,264.990021 566.535156,268.514679 577.869873,272.277771 
	C599.595764,279.490662 621.334778,286.677155 642.920654,294.293121 
	C655.097229,298.589264 666.982544,303.711639 678.989624,308.485687 
	C680.144714,308.944977 681.232483,309.573608 682.419434,311.421112 
	C677.776123,312.820007 673.136658,314.231934 668.488647,315.615082 
	C659.101807,318.408386 649.738464,321.288269 640.297241,323.884766 
	C638.385315,324.410614 635.957214,324.398499 634.130798,323.692871 
	C610.752686,314.661926 587.546509,305.175995 564.068726,296.416779 
	C551.791321,291.836243 539.065979,288.456299 526.165527,284.388519 
z"/>
<path fill="#133174" opacity="1.000000" stroke="none" 
	d="
M651.992310,763.590698 
	C655.239258,770.164795 658.295715,776.414185 661.771423,783.520569 
	C663.089233,781.794617 664.337402,780.603821 665.051819,779.150574 
	C669.004272,771.111145 672.859802,763.023438 676.676697,754.918396 
	C678.084534,751.928955 679.980469,750.157349 683.607422,750.493103 
	C686.747070,750.783691 689.949158,750.739685 693.098206,750.503784 
	C697.207581,750.195923 698.823792,751.889954 698.804565,755.972168 
	C698.717346,774.471436 698.753906,792.971497 698.786682,811.471130 
	C698.794678,815.984802 697.085510,818.461548 692.156555,817.730469 
	C690.852051,817.536987 689.473267,817.550476 688.164856,817.731323 
	C684.042053,818.301208 682.868530,816.128296 682.899292,812.496948 
	C682.982666,802.664734 682.994263,792.831970 683.011841,782.999390 
	C683.014038,781.765015 682.881287,780.530334 682.103394,779.037170 
	C673.862976,790.484131 669.575745,804.023254 661.934998,816.768311 
	C655.569702,803.647644 649.626648,791.397278 643.683533,779.146912 
	C643.196716,779.229370 642.709900,779.311890 642.223022,779.394348 
	C641.990417,781.065796 641.567383,782.736084 641.556824,784.408936 
	C641.500366,793.408386 641.372498,802.413452 641.626648,811.406433 
	C641.763672,816.252686 639.817810,818.184326 635.115173,817.728699 
	C633.794739,817.600769 632.444153,817.636169 631.118530,817.739563 
	C627.765686,818.001160 626.059143,816.465759 626.056458,813.144043 
	C626.040955,793.644348 626.062195,774.144714 626.048401,754.645020 
	C626.046326,751.733459 627.348511,750.310974 630.319153,750.524048 
	C631.148682,750.583496 632.018127,750.699158 632.813538,750.528748 
	C643.550842,748.228516 649.298645,753.317444 651.992310,763.590698 
z"/>
<path fill="#112F72" opacity="1.000000" stroke="none" 
	d="
M422.310425,814.143188 
	C416.190155,818.013672 409.852417,819.526611 403.018188,818.911316 
	C378.563751,816.709961 363.309631,793.256897 372.337646,770.173950 
	C378.634430,754.074219 392.086761,748.562317 406.239899,748.914246 
	C422.901245,749.328613 435.241302,758.652344 439.030640,773.813477 
	C442.782684,788.825256 438.743530,804.632690 422.310425,814.143188 
M391.774506,797.625793 
	C399.378998,807.169617 412.833740,805.507019 418.164764,797.862000 
	C423.924103,789.602905 424.726654,780.586243 419.673340,771.568298 
	C416.410492,765.745605 411.387573,762.754150 404.525787,762.924561 
	C397.866455,763.089844 392.901520,766.214417 390.054779,771.921265 
	C385.844360,780.362000 385.877441,788.906677 391.774506,797.625793 
z"/>
<path fill="#122F73" opacity="1.000000" stroke="none" 
	d="
M75.701294,757.301208 
	C81.869629,767.017151 80.897934,772.759705 71.438583,781.877136 
	C72.540176,782.800781 73.535011,783.751709 74.643074,784.544312 
	C80.267807,788.567627 81.998184,794.254028 81.174995,800.748230 
	C80.399155,806.868958 77.526741,812.205200 71.468147,814.131897 
	C65.577721,816.005066 59.305271,816.997253 53.126583,817.551819 
	C47.193138,818.084412 41.164890,817.529236 35.178127,817.511292 
	C31.666294,817.500732 30.055563,815.838379 30.063095,812.313293 
	C30.103996,793.175415 30.021746,774.036682 30.231220,754.900940 
	C30.246964,753.462708 32.218765,750.801880 33.264072,750.810486 
	C44.366837,750.901367 55.496895,751.068542 66.546494,752.042419 
	C69.634552,752.314514 72.482422,755.312073 75.701294,757.301208 
M46.798702,802.453430 
	C51.152103,806.615356 61.657146,805.213196 63.724331,799.720642 
	C64.587173,797.428040 63.807991,794.002380 62.676384,791.612305 
	C61.430325,788.980469 51.702751,786.725647 48.926834,788.542847 
	C47.397385,789.544067 46.856644,792.518616 46.491653,794.707214 
	C46.116936,796.954285 46.499443,799.327515 46.798702,802.453430 
M58.286274,762.801575 
	C48.110096,759.687683 45.972481,761.148926 45.974384,771.217163 
	C45.974541,772.045776 46.007610,772.876221 45.964703,773.702698 
	C45.798706,776.900330 47.345955,778.279663 50.480644,778.049011 
	C51.967262,777.939697 53.457520,777.815979 54.946350,777.813110 
	C58.878643,777.805603 61.759335,776.042419 62.932995,772.333069 
	C64.189873,768.360779 62.749287,765.192139 58.286274,762.801575 
z"/>
<path fill="#143174" opacity="1.000000" stroke="none" 
	d="
M311.164062,786.318237 
	C318.000793,796.332397 324.634399,806.009888 331.257446,815.671936 
	C325.323853,819.863647 312.983093,818.055847 309.552673,812.832642 
	C304.815643,805.619934 300.246490,798.297119 295.564087,791.048157 
	C294.840698,789.928284 293.896790,788.950867 291.788910,788.246155 
	C291.604340,789.574036 291.268402,790.901062 291.260742,792.229919 
	C291.222260,798.895447 291.189606,805.562988 291.317413,812.226685 
	C291.392059,816.120483 290.155548,817.894043 285.811829,817.803345 
	C274.227722,817.561584 274.693451,818.694275 274.751373,806.603455 
	C274.831238,789.939026 274.898621,773.272156 274.676178,756.610229 
	C274.616913,752.171265 275.685913,750.262451 280.495636,750.463074 
	C292.449005,750.961731 291.208832,748.420654 291.268158,761.497009 
	C291.291412,766.627563 291.271973,771.758301 291.271973,778.235718 
	C293.116150,776.772644 294.371490,776.181519 295.024200,775.192505 
	C298.955261,769.236877 303.021057,763.342651 306.498077,757.123840 
	C309.132843,752.411560 312.233612,749.691467 317.968750,750.478394 
	C321.194183,750.920959 324.530151,750.558105 328.715698,750.558105 
	C327.746765,752.769836 327.319550,754.323975 326.468140,755.593689 
	C321.287231,763.320007 316.175842,771.103210 310.680786,778.603333 
	C308.564545,781.491760 308.539368,783.605835 311.164062,786.318237 
z"/>
<path fill="#143174" opacity="1.000000" stroke="none" 
	d="
M755.986877,802.984985 
	C760.649658,802.985168 764.824646,803.188538 768.970032,802.924927 
	C772.787598,802.682190 774.114502,804.386414 773.930237,807.903625 
	C773.860657,809.231812 773.883179,810.567749 773.924744,811.898315 
	C774.052979,816.003784 772.436279,817.884888 767.984131,817.791382 
	C756.668274,817.553833 745.341736,817.582764 734.024353,817.781372 
	C729.715271,817.856934 727.973083,816.219055 727.991272,811.965820 
	C728.071533,793.153564 728.072693,774.340698 728.006165,755.528381 
	C727.993530,751.945129 729.352600,750.448975 733.041992,750.490295 
	C745.027344,750.624634 757.017029,750.667419 769.000732,750.476013 
	C773.140869,750.409912 773.712097,752.120117 773.082703,755.666077 
	C771.774536,763.036255 771.255554,763.616821 763.975464,763.610596 
	C759.147461,763.606445 754.315125,763.725098 749.492981,763.554993 
	C746.411621,763.446289 745.008728,764.333313 744.918457,767.718323 
	C744.692505,776.192749 744.628601,776.278503 753.233093,776.280396 
	C756.396240,776.281128 759.559631,776.287781 762.722473,776.255066 
	C768.707764,776.193054 767.682800,780.439575 767.925781,784.249634 
	C768.189941,788.391479 766.310547,789.492920 762.599792,789.351501 
	C758.111389,789.180359 753.607117,789.434570 749.117737,789.275879 
	C746.104614,789.169373 744.930664,790.373047 744.964417,793.346985 
	C745.097595,805.103149 743.930298,802.726807 755.986877,802.984985 
z"/>
<path fill="#143174" opacity="1.000000" stroke="none" 
	d="
M603.286316,815.381226 
	C597.092651,820.813049 586.800110,817.958252 584.814148,810.632202 
	C582.712769,802.880066 582.712769,802.880615 574.774658,802.888306 
	C572.442383,802.890564 570.110168,802.890686 567.777893,802.888794 
	C559.518555,802.882019 559.663940,802.928955 557.015137,811.042419 
	C556.237854,813.423279 554.689636,816.983521 552.954895,817.334473 
	C548.847412,818.165222 544.397339,817.554932 540.140930,817.056213 
	C539.648499,816.998413 538.801514,813.703369 539.305237,812.351135 
	C546.482666,793.083313 553.954895,773.925232 561.111206,754.649719 
	C562.352112,751.307190 564.235413,750.412537 567.448059,750.508850 
	C581.730957,750.937500 578.425842,748.079956 583.762146,761.316284 
	C590.524963,778.091431 596.625427,795.133850 602.966919,812.077759 
	C603.304688,812.980469 603.229126,814.037903 603.286316,815.381226 
M573.205688,790.172852 
	C577.590759,790.569641 578.439087,788.720642 576.975281,784.795715 
	C575.472656,780.767029 574.451477,776.560852 573.102783,772.470886 
	C572.827148,771.634705 572.032898,770.969543 571.477722,770.225525 
	C570.656860,770.912537 569.415222,771.442993 569.090820,772.314758 
	C567.937012,775.414673 567.066406,778.622437 566.141602,781.804749 
	C563.709351,790.173828 563.720520,790.177063 573.205688,790.172852 
z"/>
<path fill="#143174" opacity="1.000000" stroke="none" 
	d="
M1051.302246,814.856689 
	C1050.447388,816.032959 1049.694702,817.163025 1048.652588,817.596191 
	C1047.657715,818.009705 1046.360962,817.705505 1045.197021,817.702881 
	C1035.197754,817.680054 1034.977295,817.753906 1031.773560,808.306885 
	C1030.292725,803.940063 1028.046753,802.262512 1023.470032,802.800537 
	C1019.858826,803.225037 1016.124451,803.194214 1012.504944,802.805298 
	C1007.977417,802.318970 1006.185791,804.703491 1005.269775,808.495789 
	C1004.996399,809.627686 1004.764282,810.770996 1004.450195,811.891418 
	C1003.299561,815.996521 1001.210205,818.069336 996.313477,817.844788 
	C985.557739,817.351562 985.242737,817.564087 988.811157,807.545715 
	C994.983948,790.215637 1001.578369,773.035889 1007.977112,755.786133 
	C1009.303101,752.211426 1011.231506,750.288879 1015.627380,750.425293 
	C1026.474487,750.761963 1026.645020,750.433594 1031.028442,761.633057 
	C1037.906738,779.207031 1044.540649,796.876709 1051.302246,814.856689 
M1019.477783,790.168457 
	C1025.697876,790.043640 1025.668579,790.052307 1023.903259,784.106567 
	C1022.813965,780.437500 1021.957397,776.693909 1020.729309,773.074402 
	C1020.305481,771.825256 1019.075073,770.849792 1017.703003,769.098022 
	C1015.523132,775.543274 1013.697937,780.860046 1011.931213,786.196167 
	C1010.992004,789.032959 1012.156677,790.308899 1015.069763,790.190430 
	C1016.234619,790.143005 1017.402649,790.172485 1019.477783,790.168457 
z"/>
<path fill="#133174" opacity="1.000000" stroke="none" 
	d="
M148.305725,817.674561 
	C146.527542,815.088806 144.650513,812.709961 143.783844,810.007141 
	C141.518387,802.941833 141.694519,802.885681 134.176529,802.888123 
	C131.677902,802.888977 129.179260,802.890076 126.680634,802.886963 
	C118.693275,802.877014 118.693260,802.876282 116.468407,810.363647 
	C114.285446,817.710022 114.285477,817.708679 106.479439,817.697876 
	C104.980293,817.695801 103.479111,817.660645 101.982361,817.723633 
	C98.163017,817.884460 97.105194,815.812256 98.300987,812.640869 
	C105.614311,793.245117 112.955452,773.858154 120.582443,754.585083 
	C121.282043,752.817139 123.977524,750.854370 125.879425,750.707520 
	C137.792389,749.787903 138.079300,749.840759 142.587204,761.169617 
	C149.272461,777.970520 155.571625,794.926147 161.924225,811.857483 
	C163.499725,816.056580 162.204056,817.652588 157.662018,817.712463 
	C154.664215,817.752014 151.665588,817.728882 148.305725,817.674561 
M123.223473,787.711731 
	C124.734871,789.905518 134.317993,791.608276 135.946793,789.795898 
	C136.590698,789.079468 136.945663,787.567871 136.669388,786.647217 
	C134.937057,780.874573 132.989410,775.166443 131.112991,769.437012 
	C130.622650,769.346375 130.132294,769.255676 129.641953,769.165039 
	C127.544960,775.082642 125.447983,781.000244 123.223473,787.711731 
z"/>
<path fill="#133073" opacity="1.000000" stroke="none" 
	d="
M914.780518,773.454712 
	C919.401184,754.953247 937.413208,747.014038 954.590393,749.057800 
	C954.754883,749.077454 954.914429,749.135376 955.078064,749.165833 
	C970.195435,751.980469 968.563232,752.498840 967.584717,768.262939 
	C965.047241,767.125488 962.751160,766.052551 960.421143,765.059509 
	C951.334229,761.186646 941.588806,763.091553 935.899048,770.195679 
	C930.240173,777.261353 929.855103,785.157532 933.647339,793.143982 
	C936.945190,800.089294 942.816589,803.849243 950.449219,803.328369 
	C956.251709,802.932373 961.963074,801.200928 968.429321,799.922485 
	C968.429321,803.435486 969.539062,808.251465 968.047974,812.045044 
	C967.015076,814.673035 962.618591,816.691711 959.341736,817.600464 
	C945.710388,821.380676 933.342468,817.857544 923.420288,808.283203 
	C913.735107,798.937500 911.057190,786.986450 914.780518,773.454712 
z"/>
<path fill="#173476" opacity="1.000000" stroke="none" 
	d="
M464.879944,750.039429 
	C477.121552,750.031738 488.948914,750.132141 500.772766,749.971252 
	C504.706268,749.917786 505.584198,751.140930 504.852997,755.030334 
	C503.064301,764.545166 503.177490,763.627441 494.387848,763.631104 
	C490.223785,763.632812 486.027710,763.346863 481.913849,763.802490 
	C480.565247,763.951782 479.108154,765.847839 478.306274,767.283325 
	C477.737549,768.301331 478.320099,769.904053 478.155609,771.216614 
	C477.561951,775.953369 479.377808,778.001160 484.309570,777.487915 
	C487.605804,777.144836 490.969849,777.515747 494.295441,777.375305 
	C497.549835,777.237854 498.862183,778.765808 498.766113,781.867371 
	C498.714569,783.531311 498.808472,785.200439 498.740234,786.863220 
	C498.617584,789.852722 497.316345,791.355469 494.020508,791.132141 
	C490.206696,790.873657 486.359192,791.160156 482.532715,791.026489 
	C479.354248,790.915527 478.034302,792.157410 478.141663,795.427185 
	C478.327362,801.084717 478.141418,806.753540 478.260681,812.414429 
	C478.340576,816.208496 476.730499,817.820374 472.881378,817.787048 
	C459.191864,817.668518 460.832947,818.623291 460.825439,806.227112 
	C460.815216,789.404175 460.824188,772.581177 460.805237,755.758240 
	C460.802155,753.038879 460.452789,750.163635 464.879944,750.039429 
z"/>
<path fill="#163475" opacity="1.000000" stroke="none" 
	d="
M886.330811,817.730591 
	C873.121277,817.449158 873.942932,820.319641 873.953918,805.825378 
	C873.966736,789.020203 874.051453,772.213989 873.872925,755.410706 
	C873.829712,751.342041 874.997009,749.811462 879.250488,749.964844 
	C892.584656,750.445740 890.870300,747.885132 890.927002,761.570251 
	C890.995972,778.208801 890.982544,794.847839 890.929199,811.486450 
	C890.919983,814.375732 891.522156,817.928772 886.330811,817.730591 
z"/>
<path fill="#5D71A0" opacity="1.000000" stroke="none" 
	d="
M245.252960,756.416626 
	C245.253250,775.025146 245.266800,793.180542 245.251343,811.335999 
	C245.245697,817.967346 244.698456,817.871521 238.179977,818.576965 
	C230.433395,819.415283 225.678101,816.778503 221.933823,809.884155 
	C217.117432,801.015747 211.214783,792.735474 205.732361,784.232605 
	C204.891159,782.927917 203.794052,781.788208 201.784637,779.291748 
	C201.492020,782.518860 201.216995,784.190674 201.209366,785.863708 
	C201.169159,794.691345 201.125641,803.520142 201.230072,812.346802 
	C201.282043,816.739502 199.564392,818.697815 194.957825,818.493408 
	C184.762238,818.041016 183.631317,821.055847 183.732468,807.447021 
	C183.858749,790.458496 183.749237,773.468262 183.765137,756.478760 
	C183.771103,750.102234 184.234680,750.355469 190.564072,749.594910 
	C199.402832,748.532837 204.527756,752.032349 208.713745,759.669617 
	C214.232208,769.737976 220.965179,779.140686 228.344604,788.597473 
	C228.344604,782.577026 228.345947,776.556519 228.344193,770.536072 
	C228.342651,765.206055 228.428604,759.873840 228.300903,754.546814 
	C228.221161,751.220398 229.442581,749.516113 232.942596,749.717346 
	C234.934769,749.831787 236.965424,749.945923 238.932480,749.695923 
	C243.836990,749.072754 245.731689,751.267944 245.252960,756.416626 
M185.865265,781.500000 
	C185.865280,789.990784 185.864777,798.481628 185.865494,806.972412 
	C185.866104,814.342590 185.877304,814.077698 193.051331,814.364441 
	C197.417511,814.539001 198.338196,812.841736 198.240341,808.875305 
	C197.993988,798.892029 198.102127,788.898743 198.171371,778.910156 
	C198.183990,777.088623 198.684998,775.270508 198.960556,773.450806 
	C199.411591,773.315063 199.862640,773.179260 200.313675,773.043518 
	C201.613037,774.571350 203.089142,775.983032 204.182709,777.646179 
	C210.687378,787.538879 217.607773,797.208984 223.356018,807.528931 
	C226.678665,813.494141 230.826370,814.701843 236.906448,814.411987 
	C240.885910,814.222351 242.406342,813.377686 242.348511,809.088684 
	C242.119583,792.110229 242.140015,775.125488 242.336929,758.146240 
	C242.383591,754.123169 241.377930,752.753540 237.117599,752.627930 
	C232.103088,752.480225 230.034286,753.812256 230.766022,759.014282 
	C231.156418,761.789612 230.829224,764.665039 230.837067,767.495300 
	C230.857834,774.986938 230.974503,782.480408 230.818497,789.968262 
	C230.793228,791.181274 229.702042,792.493652 228.793121,793.471375 
	C228.594681,793.684814 226.681229,792.908875 226.209229,792.171509 
	C219.966232,782.418152 213.184937,772.927734 207.896500,762.671326 
	C203.844986,754.813843 198.839767,751.375183 190.064514,752.652039 
	C186.928299,753.108337 185.727859,753.765564 185.805481,757.026917 
	C185.991638,764.847290 185.865234,772.675171 185.865265,781.500000 
z"/>
<path fill="#7486AD" opacity="1.000000" stroke="none" 
	d="
M843.780518,801.096313 
	C846.192078,805.093018 848.416199,808.781555 850.539978,812.526978 
	C852.726990,816.384033 851.550476,818.474243 847.198914,818.630798 
	C833.832581,819.111816 833.838074,819.108704 827.106140,807.270081 
	C824.207397,802.172363 821.280518,797.090637 818.366455,792.001648 
	C817.803833,792.103821 817.241272,792.205933 816.678711,792.308105 
	C816.678711,795.940552 816.678711,799.572937 816.678711,803.205383 
	C816.678711,804.037537 816.671753,804.869690 816.679810,805.701782 
	C816.823059,820.443481 817.368225,818.406738 803.340027,818.694275 
	C799.261597,818.777771 798.123108,816.893677 798.151855,813.267883 
	C798.229614,803.449341 798.185059,793.629944 798.184814,783.810852 
	C798.184570,774.158142 798.282715,764.503784 798.124939,754.853638 
	C798.061768,750.989319 799.576538,749.444031 803.413208,749.506714 
	C811.565979,749.639954 819.727234,749.378601 827.875854,749.606812 
	C837.908691,749.887756 846.091675,755.950317 848.604004,764.544678 
	C851.247070,773.586182 848.432434,781.483643 840.169189,787.572632 
	C837.690430,789.399170 836.899353,790.941895 839.111084,793.630554 
	C840.882751,795.784180 842.090759,798.401550 843.780518,801.096313 
M811.669006,752.637329 
	C809.518372,752.483337 807.359436,752.402405 805.219238,752.157104 
	C802.419739,751.836121 800.750244,752.543823 800.760132,755.804016 
	C800.816589,774.448853 800.723450,793.094666 800.940857,811.737122 
	C800.954590,812.912842 803.014893,814.320374 804.407776,815.130859 
	C805.278809,815.637634 806.700317,815.100220 807.846008,815.250549 
	C812.523865,815.864624 814.577881,814.165710 814.189575,809.185181 
	C813.815430,804.386414 813.915344,799.524475 814.211365,794.715271 
	C814.301941,793.244080 815.691772,790.701782 816.550171,790.674805 
	C818.204773,790.622864 820.618896,791.560608 821.460327,792.886292 
	C824.818726,798.177246 827.799011,803.719604 830.719482,809.273926 
	C833.969421,815.454773 841.339233,817.504517 847.978882,813.901123 
	C847.978882,813.555237 848.102478,813.155640 847.960815,812.907410 
	C844.108398,806.157410 840.292236,799.385254 836.318176,792.707092 
	C834.998962,790.490173 833.791565,788.083069 836.807617,786.890076 
	C845.397461,783.492432 846.702698,776.756226 846.353455,768.688232 
	C845.952820,759.432678 840.607178,753.275818 831.484253,752.819519 
	C825.206787,752.505493 818.904968,752.680298 811.669006,752.637329 
z"/>
<path fill="#EE7587" opacity="1.000000" stroke="none" 
	d="
M589.934204,653.057007 
	C580.784485,656.107422 573.170593,650.855774 574.367676,642.745667 
	C575.091675,637.840271 578.002258,634.896729 582.708801,634.309814 
	C588.733704,633.558411 592.772827,635.696289 594.684204,640.648254 
	C596.637939,645.710144 595.464539,648.920959 589.934204,653.057007 
M583.905884,650.611389 
	C584.995544,649.985901 586.085144,649.360474 587.064209,648.798523 
	C583.892273,646.305969 581.442932,644.381287 577.773804,641.498047 
	C578.542114,643.843140 578.709717,645.396362 579.500061,646.506104 
	C580.510620,647.925049 582.023376,648.986389 583.905884,650.611389 
z"/>
<path fill="#F2F4F7" opacity="1.000000" stroke="none" 
	d="
M391.574951,797.312073 
	C385.877441,788.906677 385.844360,780.362000 390.054779,771.921265 
	C392.901520,766.214417 397.866455,763.089844 404.525787,762.924561 
	C411.387573,762.754150 416.410492,765.745605 419.673340,771.568298 
	C424.726654,780.586243 423.924103,789.602905 418.164764,797.862000 
	C412.833740,805.507019 399.378998,807.169617 391.574951,797.312073 
z"/>
<path fill="#E3E7EF" opacity="1.000000" stroke="none" 
	d="
M46.674629,802.049500 
	C46.499443,799.327515 46.116936,796.954285 46.491653,794.707214 
	C46.856644,792.518616 47.397385,789.544067 48.926834,788.542847 
	C51.702751,786.725647 61.430325,788.980469 62.676384,791.612305 
	C63.807991,794.002380 64.587173,797.428040 63.724331,799.720642 
	C61.657146,805.213196 51.152103,806.615356 46.674629,802.049500 
z"/>
<path fill="#A3AFC9" opacity="1.000000" stroke="none" 
	d="
M58.651901,762.988892 
	C62.749287,765.192139 64.189873,768.360779 62.932995,772.333069 
	C61.759335,776.042419 58.878643,777.805603 54.946350,777.813110 
	C53.457520,777.815979 51.967262,777.939697 50.480644,778.049011 
	C47.345955,778.279663 45.798706,776.900330 45.964703,773.702698 
	C46.007610,772.876221 45.974541,772.045776 45.974384,771.217163 
	C45.972481,761.148926 48.110096,759.687683 58.651901,762.988892 
M59.493332,774.193298 
	C61.512508,771.447998 62.158512,767.844421 59.375839,766.171814 
	C56.323837,764.337341 52.198345,764.288818 48.251141,763.396606 
	C48.251141,768.484009 48.251141,772.068542 48.251141,776.362183 
	C52.073662,775.750549 55.438583,775.212097 59.493332,774.193298 
z"/>
<path fill="#D8DDE8" opacity="1.000000" stroke="none" 
	d="
M572.755371,790.171814 
	C563.720520,790.177063 563.709351,790.173828 566.141602,781.804749 
	C567.066406,778.622437 567.937012,775.414673 569.090820,772.314758 
	C569.415222,771.442993 570.656860,770.912537 571.477722,770.225525 
	C572.032898,770.969543 572.827148,771.634705 573.102783,772.470886 
	C574.451477,776.560852 575.472656,780.767029 576.975281,784.795715 
	C578.439087,788.720642 577.590759,790.569641 572.755371,790.171814 
z"/>
<path fill="#D8DDE8" opacity="1.000000" stroke="none" 
	d="
M1019.023499,790.167725 
	C1017.402649,790.172485 1016.234619,790.143005 1015.069763,790.190430 
	C1012.156677,790.308899 1010.992004,789.032959 1011.931213,786.196167 
	C1013.697937,780.860046 1015.523132,775.543274 1017.703003,769.098022 
	C1019.075073,770.849792 1020.305481,771.825256 1020.729309,773.074402 
	C1021.957397,776.693909 1022.813965,780.437500 1023.903259,784.106567 
	C1025.668579,790.052307 1025.697876,790.043640 1019.023499,790.167725 
z"/>
<path fill="#D8DDE8" opacity="1.000000" stroke="none" 
	d="
M123.287231,787.314819 
	C125.447983,781.000244 127.544960,775.082642 129.641953,769.165039 
	C130.132294,769.255676 130.622650,769.346375 131.112991,769.437012 
	C132.989410,775.166443 134.937057,780.874573 136.669388,786.647217 
	C136.945663,787.567871 136.590698,789.079468 135.946793,789.795898 
	C134.317993,791.608276 124.734871,789.905518 123.287231,787.314819 
z"/>
<path fill="#04236B" opacity="1.000000" stroke="none" 
	d="
M185.865112,781.000000 
	C185.865234,772.675171 185.991638,764.847290 185.805481,757.026917 
	C185.727859,753.765564 186.928299,753.108337 190.064514,752.652039 
	C198.839767,751.375183 203.844986,754.813843 207.896500,762.671326 
	C213.184937,772.927734 219.966232,782.418152 226.209229,792.171509 
	C226.681229,792.908875 228.594681,793.684814 228.793121,793.471375 
	C229.702042,792.493652 230.793228,791.181274 230.818497,789.968262 
	C230.974503,782.480408 230.857834,774.986938 230.837067,767.495300 
	C230.829224,764.665039 231.156418,761.789612 230.766022,759.014282 
	C230.034286,753.812256 232.103088,752.480225 237.117599,752.627930 
	C241.377930,752.753540 242.383591,754.123169 242.336929,758.146240 
	C242.140015,775.125488 242.119583,792.110229 242.348511,809.088684 
	C242.406342,813.377686 240.885910,814.222351 236.906448,814.411987 
	C230.826370,814.701843 226.678665,813.494141 223.356018,807.528931 
	C217.607773,797.208984 210.687378,787.538879 204.182709,777.646179 
	C203.089142,775.983032 201.613037,774.571350 200.313675,773.043518 
	C199.862640,773.179260 199.411591,773.315063 198.960556,773.450806 
	C198.684998,775.270508 198.183990,777.088623 198.171371,778.910156 
	C198.102127,788.898743 197.993988,798.892029 198.240341,808.875305 
	C198.338196,812.841736 197.417511,814.539001 193.051331,814.364441 
	C185.877304,814.077698 185.866104,814.342590 185.865494,806.972412 
	C185.864777,798.481628 185.865280,789.990784 185.865112,781.000000 
z"/>
<path fill="#08276D" opacity="1.000000" stroke="none" 
	d="
M812.141479,752.636963 
	C818.904968,752.680298 825.206787,752.505493 831.484253,752.819519 
	C840.607178,753.275818 845.952820,759.432678 846.353455,768.688232 
	C846.702698,776.756226 845.397461,783.492432 836.807617,786.890076 
	C833.791565,788.083069 834.998962,790.490173 836.318176,792.707092 
	C840.292236,799.385254 844.108398,806.157410 847.960815,812.907410 
	C848.102478,813.155640 847.978882,813.555237 847.978882,813.901123 
	C841.339233,817.504517 833.969421,815.454773 830.719482,809.273926 
	C827.799011,803.719604 824.818726,798.177246 821.460327,792.886292 
	C820.618896,791.560608 818.204773,790.622864 816.550171,790.674805 
	C815.691772,790.701782 814.301941,793.244080 814.211365,794.715271 
	C813.915344,799.524475 813.815430,804.386414 814.189575,809.185181 
	C814.577881,814.165710 812.523865,815.864624 807.846008,815.250549 
	C806.700317,815.100220 805.278809,815.637634 804.407776,815.130859 
	C803.014893,814.320374 800.954590,812.912842 800.940857,811.737122 
	C800.723450,793.094666 800.816589,774.448853 800.760132,755.804016 
	C800.750244,752.543823 802.419739,751.836121 805.219238,752.157104 
	C807.359436,752.402405 809.518372,752.483337 812.141479,752.636963 
M831.618469,770.673340 
	C829.789490,764.639465 823.058411,760.637207 817.382019,762.832458 
	C815.965027,763.380432 814.594604,766.492615 814.786560,768.253540 
	C815.198914,772.035828 811.993835,777.257507 817.124939,779.403015 
	C823.497620,782.067688 829.731201,778.227356 831.618469,770.673340 
z"/>
<path fill="#D8DDE8" opacity="1.000000" stroke="none" 
	d="
M583.612793,650.406616 
	C582.023376,648.986389 580.510620,647.925049 579.500061,646.506104 
	C578.709717,645.396362 578.542114,643.843140 577.773804,641.498047 
	C581.442932,644.381287 583.892273,646.305969 587.064209,648.798523 
	C586.085144,649.360474 584.995544,649.985901 583.612793,650.406616 
z"/>
<path fill="#FEFEFE" opacity="1.000000" stroke="none" 
	d="
M59.148422,774.433472 
	C55.438583,775.212097 52.073662,775.750549 48.251141,776.362183 
	C48.251141,772.068542 48.251141,768.484009 48.251141,763.396606 
	C52.198345,764.288818 56.323837,764.337341 59.375839,766.171814 
	C62.158512,767.844421 61.512508,771.447998 59.148422,774.433472 
z"/>
<path fill="#E3E7EF" opacity="1.000000" stroke="none" 
	d="
M831.634766,771.046204 
	C829.731201,778.227356 823.497620,782.067688 817.124939,779.403015 
	C811.993835,777.257507 815.198914,772.035828 814.786560,768.253540 
	C814.594604,766.492615 815.965027,763.380432 817.382019,762.832458 
	C823.058411,760.637207 829.789490,764.639465 831.634766,771.046204 
z"/>
</svg>