<svg xmlns="http://www.w3.org/2000/svg" xmlns:xlink="http://www.w3.org/1999/xlink" height="800" width="1200" viewBox="-36 -8.98325 312 53.8995"><defs><symbol id="e" overflow="visible"><path d="M1.3594 0h5.9531c1.625 0 2.7656-.0625 3.8281-.5156 1.7657-.7813 2.3438-2.3281 2.3438-3.4219 0-.7969-.2813-1.5781-.7813-2.125-.7812-.875-1.9218-1.0625-2.7812-1.2031.7656-.1563 2.125-.4375 2.7656-1.875.0469-.1407.25-.5938.25-1.3594 0-1.3438-.7031-2.7188-2.4375-3.2813-.8594-.2812-2.2031-.3437-3.6875-.3437H1.3594zM7.625-11.4844c.6719 0 1.8594.0625 1.8594 1.4219 0 1.4688-1.2969 1.5-2.1094 1.5156H4.7187v-2.9375zm.1563 5.5c.7187.0313 2.125.0469 2.125 1.75 0 1.6094-1.547 1.6563-2.7188 1.6719H4.7187v-3.4219z"/></symbol><symbol id="f" overflow="visible"><path d="M4.3125-10.4531h-3V0h3.0938v-5.875c0-1.3281.4375-1.5469 1.9062-1.8125l1.0313-.1563v-2.7187c-1.6094.1563-2.3438.625-3.0313 1.2031z"/></symbol><symbol id="g" overflow="visible"><path d="M6.6563-10.7656c-4-.2188-6.0157 2.3281-6.0157 5.5312C.6406-1.375 3.3125.297 6.2656.297c4.0781 0 5.5938-2.8906 5.5938-5.5313 0-1.9062-.9375-5.2812-5.2032-5.5312zM6.078-8.3125c.4375-.0469 1.1563-.0313 1.7969.5781.5781.5469.8594 1.4531.8594 2.6094 0 1.6406-.8125 2.9844-2.4688 2.9844-1.7187 0-2.5312-1.4531-2.5312-3.125 0-.7188.1406-1.4375.5312-2.0313.4219-.6562.9375-.9687 1.8125-1.0156z"/></symbol><symbol id="h" overflow="visible"><path d="M1.3438 0h3v-3.2656L5.6563-4.5 8.3438 0h3.5625L7.8438-6.7188l3.5937-3.7187H7.7344l-3.375 3.5781v-7.2656H1.3438z"/></symbol><symbol id="a" overflow="visible"><path d="M1.8594-10.2031H.203v1.8906h1.6406V0h3.0625v-8.3125h2.0313v-1.8906H4.875c-.0156-1.3907.0469-1.6407 1.2031-1.6407h.7656v-2.2968c-.625-.0782-1.25-.1719-1.8593-.1719-1.4688 0-2.2969.5313-2.6875 1.0469-.3906.5625-.4219 1.25-.4375 1.7812zm6.625-1.5313h3.0312v-2.4062H8.4844zM8.4844 0h3.0312v-10.4375H8.4844z"/></symbol><symbol id="b" overflow="visible"><path d="M8.7969-3.8438C8.4219-3.0938 7.8437-2 6.1562-2 4.5-2 3.7656-3.2969 3.7813-4.5938h7.4532c-.0313-1.1875-.1094-3.2187-1.4688-4.6875-1.3437-1.4375-3.1406-1.5-3.7656-1.5-4.125 0-5.3594 3.2344-5.3594 5.7657C.6406-1.5937 2.8125.375 5.922.375c1.6719 0 3.0312-.6406 3.9375-1.4688.5468-.5.9062-1.0312 1.2656-1.5624zm-5-2.6718c.1094-.4375.2031-.9219.625-1.3906.2969-.3125.8125-.672 1.5625-.672.5312 0 1.1094.2032 1.5.5782.4375.4531.5156 1.0469.5781 1.4844z"/></symbol><symbol id="c" overflow="visible"><path d="M1.3594-14.125V0h3.0781v-14.125z"/></symbol><symbol id="d" overflow="visible"><path d="M7.7344-14.125v4.4688c-.5469-.422-1.375-1.0625-2.75-1.0625-2.1094 0-4.3438 1.625-4.3438 5.5625 0 .6718 0 2.7812 1.5156 4.2343C2.9844-.125 4.0625.2812 5.0938.2812 6.6407.2813 7.4375-.5 7.922-.9844V0h2.7969v-14.125zM6.7188-2.2969c-.297.2031-.6563.3125-1 .3125-1.5625 0-1.9532-1.7812-1.9532-3.2344 0-.4687 0-3.203 2.1719-3.203.625 0 1.0625.4374 1.2031.625.6563.7968.6563 2.0937.6563 2.578 0 .5782 0 2.172-1.0781 2.922z"/></symbol></defs><use xlink:href="#a" height="792" width="612" y="45.0075" x="88.5723" transform="translate(-330.4514 -41.537)" fill="#6e6e73"/><use xlink:href="#a" height="792" width="612" y="45.0075" x="123.5163" transform="translate(-330.4514 -41.537)" fill="#6e6e73"/><use xlink:href="#a" height="792" width="612" y="45.0075" x="198.8123" transform="translate(-330.4514 -41.537)" fill="#6e6e73"/><use xlink:href="#b" height="792" width="612" y="157.0653" x="100.419" transform="translate(-330.4514 -41.537)" fill="#bf5c26"/><use xlink:href="#b" height="792" width="612" y="157.0653" x="103.469" transform="translate(-330.4514 -41.537)" fill="#bf5c26"/><use xlink:href="#b" height="792" width="612" y="157.0653" x="117.069" transform="translate(-330.4514 -41.537)" fill="#bf5c26"/><use xlink:href="#c" height="792" width="612" y="176.2653" x="42.279" transform="translate(-330.4514 -41.537)"/><use xlink:href="#c" height="792" width="612" y="176.2653" x="44.871" transform="translate(-330.4514 -41.537)"/><use xlink:href="#c" height="792" width="612" y="176.2653" x="47.463" transform="translate(-330.4514 -41.537)"/><use xlink:href="#d" height="792" width="612" y="176.2653" x="74.76" transform="translate(-330.4514 -41.537)"/><use xlink:href="#d" height="792" width="612" y="176.2653" x="111.813" transform="translate(-330.4514 -41.537)"/><use xlink:href="#d" height="792" width="612" y="176.2653" x="129.426" transform="translate(-330.4514 -41.537)"/><use xlink:href="#d" height="792" width="612" y="176.2653" x="166.389" transform="translate(-330.4514 -41.537)"/><use xlink:href="#d" height="792" width="612" y="176.2653" x="176.901" transform="translate(-330.4514 -41.537)"/><use xlink:href="#d" height="792" width="612" y="176.2653" x="197.601" transform="translate(-330.4514 -41.537)"/><use xlink:href="#c" height="792" width="612" y="176.2653" x="228.795" transform="translate(-330.4514 -41.537)"/><use xlink:href="#c" height="792" width="612" y="176.2653" x="247.164" transform="translate(-330.4514 -41.537)"/><use xlink:href="#c" height="792" width="612" y="176.2653" x="256.938" transform="translate(-330.4514 -41.537)"/><use xlink:href="#c" height="792" width="612" y="176.2653" x="271.806" transform="translate(-330.4514 -41.537)"/><use xlink:href="#c" height="792" width="612" y="176.2653" x="300.021" transform="translate(-330.4514 -41.537)"/><use xlink:href="#c" height="792" width="612" y="176.2653" x="325.563" transform="translate(-330.4514 -41.537)"/><use xlink:href="#c" height="792" width="612" y="176.2653" x="328.245" transform="translate(-330.4514 -41.537)"/><use xlink:href="#c" height="792" width="612" y="188.2623" x="85.677" transform="translate(-330.4514 -41.537)"/><use xlink:href="#c" height="792" width="612" y="188.2623" x="95.451" transform="translate(-330.4514 -41.537)"/><use xlink:href="#c" height="792" width="612" y="188.2623" x="112.398" transform="translate(-330.4514 -41.537)"/><use xlink:href="#c" height="792" width="612" y="188.2623" x="139.02" transform="translate(-330.4514 -41.537)"/><use xlink:href="#c" height="792" width="612" y="188.2623" x="157.479" transform="translate(-330.4514 -41.537)"/><use xlink:href="#c" height="792" width="612" y="188.2623" x="176.424" transform="translate(-330.4514 -41.537)"/><use xlink:href="#c" height="792" width="612" y="188.2623" x="199.392" transform="translate(-330.4514 -41.537)"/><use xlink:href="#c" height="792" width="612" y="188.2623" x="225.114" transform="translate(-330.4514 -41.537)"/><use xlink:href="#c" height="792" width="612" y="188.2623" x="250.665" transform="translate(-330.4514 -41.537)"/><use xlink:href="#c" height="792" width="612" y="188.2623" x="306.663" transform="translate(-330.4514 -41.537)"/><use xlink:href="#c" height="792" width="612" y="188.2623" x="309.345" transform="translate(-330.4514 -41.537)"/><use xlink:href="#c" height="792" width="612" y="200.2593" x="61.818" transform="translate(-330.4514 -41.537)"/><use xlink:href="#c" height="792" width="612" y="200.2593" x="90.042" transform="translate(-330.4514 -41.537)"/><use xlink:href="#c" height="792" width="612" y="200.2593" x="132.45" transform="translate(-330.4514 -41.537)"/><use xlink:href="#c" height="792" width="612" y="200.2593" x="163.005" transform="translate(-330.4514 -41.537)"/><use xlink:href="#c" height="792" width="612" y="200.2593" x="217.86" transform="translate(-330.4514 -41.537)"/><use xlink:href="#c" height="792" width="612" y="200.2593" x="235.23" transform="translate(-330.4514 -41.537)"/><use xlink:href="#c" height="792" width="612" y="200.2593" x="263.949" transform="translate(-330.4514 -41.537)"/><use xlink:href="#c" height="792" width="612" y="219.4563" x="42.279" transform="translate(-330.4514 -41.537)"/><use xlink:href="#c" height="792" width="612" y="219.4563" x="44.871" transform="translate(-330.4514 -41.537)"/><use xlink:href="#c" height="792" width="612" y="219.4563" x="47.463" transform="translate(-330.4514 -41.537)"/><use xlink:href="#d" height="792" width="612" y="219.4563" x="89.871" transform="translate(-330.4514 -41.537)"/><use xlink:href="#c" height="792" width="612" y="219.4563" x="129.75" transform="translate(-330.4514 -41.537)"/><use xlink:href="#c" height="792" width="612" y="219.4563" x="146.616" transform="translate(-330.4514 -41.537)"/><use xlink:href="#c" height="792" width="612" y="219.4563" x="174.336" transform="translate(-330.4514 -41.537)"/><use xlink:href="#c" height="792" width="612" y="219.4563" x="195.288" transform="translate(-330.4514 -41.537)"/><use xlink:href="#c" height="792" width="612" y="219.4563" x="245.967" transform="translate(-330.4514 -41.537)"/><use xlink:href="#c" height="792" width="612" y="219.4563" x="281.949" transform="translate(-330.4514 -41.537)"/><use xlink:href="#c" height="792" width="612" y="219.4563" x="291.723" transform="translate(-330.4514 -41.537)"/><use xlink:href="#c" height="792" width="612" y="219.4563" x="316.851" transform="translate(-330.4514 -41.537)"/><use xlink:href="#c" height="792" width="612" y="219.4563" x="335.31" transform="translate(-330.4514 -41.537)"/><use xlink:href="#c" height="792" width="612" y="219.4563" x="346.992" transform="translate(-330.4514 -41.537)"/><use xlink:href="#c" height="792" width="612" y="231.4533" x="77.604" transform="translate(-330.4514 -41.537)"/><use xlink:href="#c" height="792" width="612" y="231.4533" x="110.328" transform="translate(-330.4514 -41.537)"/><use xlink:href="#c" height="792" width="612" y="231.4533" x="133.458" transform="translate(-330.4514 -41.537)"/><use xlink:href="#c" height="792" width="612" y="231.4533" x="163.77" transform="translate(-330.4514 -41.537)"/><use xlink:href="#c" height="792" width="612" y="231.4533" x="181.14" transform="translate(-330.4514 -41.537)"/><use xlink:href="#c" height="792" width="612" y="231.4533" x="209.859" transform="translate(-330.4514 -41.537)"/><use xlink:href="#c" height="792" width="612" y="231.4533" x="234.411" transform="translate(-330.4514 -41.537)"/><use xlink:href="#c" height="792" width="612" y="231.4533" x="262.032" transform="translate(-330.4514 -41.537)"/><use xlink:href="#c" height="792" width="612" y="231.4533" x="277.395" transform="translate(-330.4514 -41.537)"/><use xlink:href="#c" height="792" width="612" y="231.4533" x="294.342" transform="translate(-330.4514 -41.537)"/><use xlink:href="#c" height="792" width="612" y="231.4533" x="316.878" transform="translate(-330.4514 -41.537)"/><use xlink:href="#c" height="792" width="612" y="250.6503" x="42.279" transform="translate(-330.4514 -41.537)"/><use xlink:href="#c" height="792" width="612" y="250.6503" x="44.871" transform="translate(-330.4514 -41.537)"/><use xlink:href="#c" height="792" width="612" y="250.6503" x="47.463" transform="translate(-330.4514 -41.537)"/><use xlink:href="#d" height="792" width="612" y="250.6503" x="79.107" transform="translate(-330.4514 -41.537)"/><use xlink:href="#d" height="792" width="612" y="250.6503" x="107.493" transform="translate(-330.4514 -41.537)"/><use xlink:href="#c" height="792" width="612" y="250.6503" x="151.98" transform="translate(-330.4514 -41.537)"/><use xlink:href="#c" height="792" width="612" y="250.6503" x="193.983" transform="translate(-330.4514 -41.537)"/><use xlink:href="#c" height="792" width="612" y="250.6503" x="241.566" transform="translate(-330.4514 -41.537)"/><use xlink:href="#c" height="792" width="612" y="250.6503" x="280.473" transform="translate(-330.4514 -41.537)"/><use xlink:href="#c" height="792" width="612" y="250.6503" x="297.843" transform="translate(-330.4514 -41.537)"/><use xlink:href="#c" height="792" width="612" y="250.6503" x="333.159" transform="translate(-330.4514 -41.537)"/><use xlink:href="#c" height="792" width="612" y="250.6503" x="359.106" transform="translate(-330.4514 -41.537)"/><use xlink:href="#c" height="792" width="612" y="262.6473" x="63.33" transform="translate(-330.4514 -41.537)"/><use xlink:href="#c" height="792" width="612" y="262.6473" x="93.984" transform="translate(-330.4514 -41.537)"/><use xlink:href="#c" height="792" width="612" y="262.6473" x="132.891" transform="translate(-330.4514 -41.537)"/><use xlink:href="#c" height="792" width="612" y="262.6473" x="176.784" transform="translate(-330.4514 -41.537)"/><use xlink:href="#c" height="792" width="612" y="262.6473" x="194.154" transform="translate(-330.4514 -41.537)"/><use xlink:href="#c" height="792" width="612" y="262.6473" x="212.028" transform="translate(-330.4514 -41.537)"/><use xlink:href="#c" height="792" width="612" y="262.6473" x="257.019" transform="translate(-330.4514 -41.537)"/><use xlink:href="#c" height="792" width="612" y="262.6473" x="310.272" transform="translate(-330.4514 -41.537)"/><use xlink:href="#c" height="792" width="612" y="262.6473" x="320.046" transform="translate(-330.4514 -41.537)"/><use xlink:href="#c" height="792" width="612" y="262.6473" x="338.991" transform="translate(-330.4514 -41.537)"/><use xlink:href="#c" height="792" width="612" y="262.6473" x="351.681" transform="translate(-330.4514 -41.537)"/><use xlink:href="#c" height="792" width="612" y="262.6473" x="354.363" transform="translate(-330.4514 -41.537)"/><use xlink:href="#c" height="792" width="612" y="293.8413" x="42.279" transform="translate(-330.4514 -41.537)"/><use xlink:href="#c" height="792" width="612" y="293.8413" x="44.871" transform="translate(-330.4514 -41.537)"/><use xlink:href="#c" height="792" width="612" y="293.8413" x="47.463" transform="translate(-330.4514 -41.537)"/><use xlink:href="#d" height="792" width="612" y="293.8413" x="73.5" transform="translate(-330.4514 -41.537)"/><use xlink:href="#d" height="792" width="612" y="293.8413" x="97.458" transform="translate(-330.4514 -41.537)"/><use xlink:href="#d" height="792" width="612" y="293.8413" x="128.337" transform="translate(-330.4514 -41.537)"/><use xlink:href="#d" height="792" width="612" y="293.8413" x="138.849" transform="translate(-330.4514 -41.537)"/><use xlink:href="#c" height="792" width="612" y="293.8413" x="195" transform="translate(-330.4514 -41.537)"/><use xlink:href="#c" height="792" width="612" y="293.8413" x="211.866" transform="translate(-330.4514 -41.537)"/><use xlink:href="#c" height="792" width="612" y="293.8413" x="248.766" transform="translate(-330.4514 -41.537)"/><use xlink:href="#c" height="792" width="612" y="293.8413" x="257.532" transform="translate(-330.4514 -41.537)"/><use xlink:href="#c" height="792" width="612" y="293.8413" x="267.306" transform="translate(-330.4514 -41.537)"/><use xlink:href="#c" height="792" width="612" y="293.8413" x="299.526" transform="translate(-330.4514 -41.537)"/><use xlink:href="#c" height="792" width="612" y="293.8413" x="306.708" transform="translate(-330.4514 -41.537)"/><use xlink:href="#c" height="792" width="612" y="293.8413" x="340.764" transform="translate(-330.4514 -41.537)"/><use xlink:href="#c" height="792" width="612" y="293.8413" x="343.446" transform="translate(-330.4514 -41.537)"/><use xlink:href="#c" height="792" width="612" y="305.8383" x="89.871" transform="translate(-330.4514 -41.537)"/><use xlink:href="#c" height="792" width="612" y="305.8383" x="116.007" transform="translate(-330.4514 -41.537)"/><use xlink:href="#c" height="792" width="612" y="305.8383" x="128.868" transform="translate(-330.4514 -41.537)"/><use xlink:href="#c" height="792" width="612" y="305.8383" x="181.536" transform="translate(-330.4514 -41.537)"/><use xlink:href="#c" height="792" width="612" y="305.8383" x="200.481" transform="translate(-330.4514 -41.537)"/><use xlink:href="#c" height="792" width="612" y="305.8383" x="215.349" transform="translate(-330.4514 -41.537)"/><use xlink:href="#c" height="792" width="612" y="305.8383" x="234.303" transform="translate(-330.4514 -41.537)"/><use xlink:href="#c" height="792" width="612" y="305.8383" x="257.343" transform="translate(-330.4514 -41.537)"/><use xlink:href="#c" height="792" width="612" y="305.8383" x="274.209" transform="translate(-330.4514 -41.537)"/><use xlink:href="#c" height="792" width="612" y="305.8383" x="302.334" transform="translate(-330.4514 -41.537)"/><use xlink:href="#c" height="792" width="612" y="305.8383" x="323.286" transform="translate(-330.4514 -41.537)"/><use xlink:href="#c" height="792" width="612" y="305.8383" x="364.605" transform="translate(-330.4514 -41.537)"/><use xlink:href="#c" height="792" width="612" y="317.8353" x="57.147" transform="translate(-330.4514 -41.537)"/><use xlink:href="#c" height="792" width="612" y="317.8353" x="107.727" transform="translate(-330.4514 -41.537)"/><use xlink:href="#c" height="792" width="612" y="317.8353" x="128.598" transform="translate(-330.4514 -41.537)"/><use xlink:href="#c" height="792" width="612" y="317.8353" x="172.923" transform="translate(-330.4514 -41.537)"/><use xlink:href="#c" height="792" width="612" y="317.8353" x="202.065" transform="translate(-330.4514 -41.537)"/><use xlink:href="#c" height="792" width="612" y="317.8353" x="228.201" transform="translate(-330.4514 -41.537)"/><use xlink:href="#c" height="792" width="612" y="317.8353" x="247.146" transform="translate(-330.4514 -41.537)"/><use xlink:href="#c" height="792" width="612" y="317.8353" x="262.014" transform="translate(-330.4514 -41.537)"/><use xlink:href="#c" height="792" width="612" y="317.8353" x="277.962" transform="translate(-330.4514 -41.537)"/><use xlink:href="#c" height="792" width="612" y="317.8353" x="290.742" transform="translate(-330.4514 -41.537)"/><use xlink:href="#c" height="792" width="612" y="317.8353" x="316.275" transform="translate(-330.4514 -41.537)"/><use xlink:href="#c" height="792" width="612" y="337.0323" x="42.279" transform="translate(-330.4514 -41.537)"/><use xlink:href="#c" height="792" width="612" y="337.0323" x="44.871" transform="translate(-330.4514 -41.537)"/><use xlink:href="#d" height="792" width="612" y="337.0323" x="47.463" transform="translate(-330.4514 -41.537)"/><use xlink:href="#d" height="792" width="612" y="337.0323" x="90.375" transform="translate(-330.4514 -41.537)"/><use xlink:href="#d" height="792" width="612" y="337.0323" x="134.025" transform="translate(-330.4514 -41.537)"/><use xlink:href="#d" height="792" width="612" y="337.0323" x="144.537" transform="translate(-330.4514 -41.537)"/><use xlink:href="#c" height="792" width="612" y="337.0323" x="185.001" transform="translate(-330.4514 -41.537)"/><use xlink:href="#c" height="792" width="612" y="337.0323" x="199.608" transform="translate(-330.4514 -41.537)"/><use xlink:href="#c" height="792" width="612" y="337.0323" x="214.467" transform="translate(-330.4514 -41.537)"/><use xlink:href="#c" height="792" width="612" y="337.0323" x="229.335" transform="translate(-330.4514 -41.537)"/><use xlink:href="#c" height="792" width="612" y="337.0323" x="257.55" transform="translate(-330.4514 -41.537)"/><use xlink:href="#c" height="792" width="612" y="337.0323" x="282.678" transform="translate(-330.4514 -41.537)"/><use xlink:href="#c" height="792" width="612" y="337.0323" x="315.483" transform="translate(-330.4514 -41.537)"/><use xlink:href="#c" height="792" width="612" y="337.0323" x="325.257" transform="translate(-330.4514 -41.537)"/><use xlink:href="#c" height="792" width="612" y="337.0323" x="346.713" transform="translate(-330.4514 -41.537)"/><use xlink:href="#c" height="792" width="612" y="337.0323" x="356.397" transform="translate(-330.4514 -41.537)"/><use xlink:href="#c" height="792" width="612" y="337.0323" x="359.079" transform="translate(-330.4514 -41.537)"/><use xlink:href="#c" height="792" width="612" y="349.0293" x="60.234" transform="translate(-330.4514 -41.537)"/><use xlink:href="#c" height="792" width="612" y="349.0293" x="84.786" transform="translate(-330.4514 -41.537)"/><use xlink:href="#c" height="792" width="612" y="349.0293" x="102.156" transform="translate(-330.4514 -41.537)"/><use xlink:href="#c" height="792" width="612" y="349.0293" x="141.639" transform="translate(-330.4514 -41.537)"/><use xlink:href="#c" height="792" width="612" y="349.0293" x="181.959" transform="translate(-330.4514 -41.537)"/><use xlink:href="#c" height="792" width="612" y="349.0293" x="199.329" transform="translate(-330.4514 -41.537)"/><use xlink:href="#c" height="792" width="612" y="349.0293" x="214.197" transform="translate(-330.4514 -41.537)"/><use xlink:href="#c" height="792" width="612" y="349.0293" x="267.693" transform="translate(-330.4514 -41.537)"/><use xlink:href="#c" height="792" width="612" y="349.0293" x="289.644" transform="translate(-330.4514 -41.537)"/><use xlink:href="#c" height="792" width="612" y="349.0293" x="307.014" transform="translate(-330.4514 -41.537)"/><use xlink:href="#c" height="792" width="612" y="349.0293" x="343.41" transform="translate(-330.4514 -41.537)"/><use xlink:href="#c" height="792" width="612" y="349.0293" x="361.689" transform="translate(-330.4514 -41.537)"/><use xlink:href="#c" height="792" width="612" y="361.0263" x="101.625" transform="translate(-330.4514 -41.537)"/><use xlink:href="#c" height="792" width="612" y="361.0263" x="122.496" transform="translate(-330.4514 -41.537)"/><use xlink:href="#c" height="792" width="612" y="361.0263" x="132.27" transform="translate(-330.4514 -41.537)"/><use xlink:href="#b" height="792" width="612" y="403.1103" x="81.3833" transform="translate(-330.4514 -41.537)" fill="#2e5e73"/><use xlink:href="#b" height="792" width="612" y="403.1103" x="134.7333" transform="translate(-330.4514 -41.537)" fill="#2e5e73"/><use xlink:href="#b" height="792" width="612" y="403.1103" x="137.7833" transform="translate(-330.4514 -41.537)" fill="#2e5e73"/><use xlink:href="#b" height="792" width="612" y="403.1103" x="174.7233" transform="translate(-330.4514 -41.537)" fill="#bf5c26"/><use xlink:href="#b" height="792" width="612" y="403.1103" x="196.6733" transform="translate(-330.4514 -41.537)" fill="#bf5c26"/><use xlink:href="#c" height="792" width="612" y="418.7103" x="56.3083" transform="translate(-330.4514 -41.537)" fill="#2e5e73"/><use xlink:href="#c" height="792" width="612" y="418.7103" x="71.4913" transform="translate(-330.4514 -41.537)" fill="#2e5e73"/><use xlink:href="#c" height="792" width="612" y="418.7103" x="96.8083" transform="translate(-330.4514 -41.537)" fill="#2e5e73"/><use xlink:href="#c" height="792" width="612" y="418.7103" x="121.0813" transform="translate(-330.4514 -41.537)" fill="#2e5e73"/><use xlink:href="#c" height="792" width="612" y="418.7103" x="130.7203" transform="translate(-330.4514 -41.537)" fill="#2e5e73"/><use xlink:href="#c" height="792" width="612" y="418.7103" x="161.1313" transform="translate(-330.4514 -41.537)" fill="#2e5e73"/><use xlink:href="#c" height="792" width="612" y="418.7103" x="178.3213" transform="translate(-330.4514 -41.537)" fill="#2e5e73"/><use xlink:href="#c" height="792" width="612" y="418.7103" x="209.6863" transform="translate(-330.4514 -41.537)" fill="#2e5e73"/><use xlink:href="#c" height="792" width="612" y="418.7103" x="228.9193" transform="translate(-330.4514 -41.537)" fill="#2e5e73"/><use xlink:href="#c" height="792" width="612" y="418.7103" x="256.7833" transform="translate(-330.4514 -41.537)" fill="#2e5e73"/><use xlink:href="#c" height="792" width="612" y="418.7103" x="273.5053" transform="translate(-330.4514 -41.537)" fill="#2e5e73"/><use xlink:href="#c" height="792" width="612" y="418.7103" x="299.8123" transform="translate(-330.4514 -41.537)" fill="#2e5e73"/><use xlink:href="#c" height="792" width="612" y="418.7103" x="309.4513" transform="translate(-330.4514 -41.537)" fill="#2e5e73"/><use xlink:href="#c" height="792" width="612" y="418.7103" x="351.9493" transform="translate(-330.4514 -41.537)" fill="#2e5e73"/><use xlink:href="#c" height="792" width="612" y="418.7103" x="395.4913" transform="translate(-330.4514 -41.537)" fill="#2e5e73"/><use xlink:href="#c" height="792" width="612" y="418.7103" x="426.3613" transform="translate(-330.4514 -41.537)" fill="#2e5e73"/><use xlink:href="#c" height="792" width="612" y="418.7103" x="448.5913" transform="translate(-330.4514 -41.537)" fill="#2e5e73"/><use xlink:href="#c" height="792" width="612" y="418.7103" x="460.7323" transform="translate(-330.4514 -41.537)" fill="#2e5e73"/><use xlink:href="#c" height="792" width="612" y="418.7103" x="467.8243" transform="translate(-330.4514 -41.537)" fill="#2e5e73"/><use xlink:href="#c" height="792" width="612" y="418.7103" x="509.8183" transform="translate(-330.4514 -41.537)" fill="#2e5e73"/><use xlink:href="#c" height="792" width="612" y="418.7103" x="541.7143" transform="translate(-330.4514 -41.537)" fill="#2e5e73"/><use xlink:href="#c" height="792" width="612" y="418.7103" x="563.9353" transform="translate(-330.4514 -41.537)" fill="#2e5e73"/><use xlink:href="#c" height="792" width="612" y="430.7073" x="47.1463" transform="translate(-330.4514 -41.537)" fill="#2e5e73"/><use xlink:href="#c" height="792" width="612" y="430.7073" x="83.0203" transform="translate(-330.4514 -41.537)" fill="#2e5e73"/><use xlink:href="#c" height="792" width="612" y="430.7073" x="97.7083" transform="translate(-330.4514 -41.537)" fill="#2e5e73"/><use xlink:href="#c" height="792" width="612" y="430.7073" x="118.4353" transform="translate(-330.4514 -41.537)" fill="#2e5e73"/><use xlink:href="#c" height="792" width="612" y="430.7073" x="140.2063" transform="translate(-330.4514 -41.537)" fill="#2e5e73"/><use xlink:href="#c" height="792" width="612" y="430.7073" x="157.3963" transform="translate(-330.4514 -41.537)" fill="#2e5e73"/><use xlink:href="#c" height="792" width="612" y="430.7073" x="184.2073" transform="translate(-330.4514 -41.537)" fill="#2e5e73"/><use xlink:href="#c" height="792" width="612" y="430.7073" x="193.8463" transform="translate(-330.4514 -41.537)" fill="#2e5e73"/><use xlink:href="#c" height="792" width="612" y="430.7073" x="217.1203" transform="translate(-330.4514 -41.537)" fill="#2e5e73"/><use xlink:href="#c" height="792" width="612" y="430.7073" x="243.4273" transform="translate(-330.4514 -41.537)" fill="#2e5e73"/><use xlink:href="#c" height="792" width="612" y="430.7073" x="275.8003" transform="translate(-330.4514 -41.537)" fill="#2e5e73"/><use xlink:href="#c" height="792" width="612" y="430.7073" x="290.9833" transform="translate(-330.4514 -41.537)" fill="#2e5e73"/><use xlink:href="#c" height="792" width="612" y="430.7073" x="321.3493" transform="translate(-330.4514 -41.537)" fill="#2e5e73"/><use xlink:href="#c" height="792" width="612" y="430.7073" x="359.8063" transform="translate(-330.4514 -41.537)" fill="#2e5e73"/><use xlink:href="#c" height="792" width="612" y="430.7073" x="398.2543" transform="translate(-330.4514 -41.537)" fill="#2e5e73"/><use xlink:href="#c" height="792" width="612" y="430.7073" x="407.8933" transform="translate(-330.4514 -41.537)" fill="#2e5e73"/><use xlink:href="#c" height="792" width="612" y="430.7073" x="427.6213" transform="translate(-330.4514 -41.537)" fill="#2e5e73"/><use xlink:href="#c" height="792" width="612" y="430.7073" x="460.5703" transform="translate(-330.4514 -41.537)" fill="#2e5e73"/><use xlink:href="#c" height="792" width="612" y="430.7073" x="500.6113" transform="translate(-330.4514 -41.537)" fill="#2e5e73"/><use xlink:href="#c" height="792" width="612" y="430.7073" x="540.0583" transform="translate(-330.4514 -41.537)" fill="#2e5e73"/><use xlink:href="#c" height="792" width="612" y="430.7073" x="558.7873" transform="translate(-330.4514 -41.537)" fill="#2e5e73"/><use xlink:href="#c" height="792" width="612" y="442.7043" x="59.8183" transform="translate(-330.4514 -41.537)" fill="#2e5e73"/><use xlink:href="#c" height="792" width="612" y="442.7043" x="72.4993" transform="translate(-330.4514 -41.537)" fill="#2e5e73"/><use xlink:href="#c" height="792" width="612" y="442.7043" x="87.1873" transform="translate(-330.4514 -41.537)" fill="#2e5e73"/><use xlink:href="#c" height="792" width="612" y="442.7043" x="116.0593" transform="translate(-330.4514 -41.537)" fill="#2e5e73"/><use xlink:href="#c" height="792" width="612" y="442.7043" x="125.6983" transform="translate(-330.4514 -41.537)" fill="#2e5e73"/><use xlink:href="#c" height="792" width="612" y="442.7043" x="140.8813" transform="translate(-330.4514 -41.537)" fill="#2e5e73"/><use xlink:href="#c" height="792" width="612" y="442.7043" x="175.2883" transform="translate(-330.4514 -41.537)" fill="#2e5e73"/><use xlink:href="#c" height="792" width="612" y="442.7043" x="192.4783" transform="translate(-330.4514 -41.537)" fill="#2e5e73"/><use xlink:href="#c" height="792" width="612" y="459.2013" x="37.9483" transform="translate(-330.4514 -41.537)"/><use xlink:href="#c" height="792" width="612" y="459.2013" x="44.5003" transform="translate(-330.4514 -41.537)"/><use xlink:href="#i" height="792" width="612" y="459.2013" x="67.7293" transform="translate(-330.4514 -41.537)"/><use xlink:href="#i" height="792" width="612" y="459.2013" x="79.8703" transform="translate(-330.4514 -41.537)"/><use xlink:href="#i" height="792" width="612" y="459.2013" x="99.1033" transform="translate(-330.4514 -41.537)"/><use xlink:href="#i" height="792" width="612" y="459.2013" x="126.9673" transform="translate(-330.4514 -41.537)"/><use xlink:href="#i" height="792" width="612" y="459.2013" x="145.6963" transform="translate(-330.4514 -41.537)"/><use xlink:href="#i" height="792" width="612" y="459.2013" x="161.9683" transform="translate(-330.4514 -41.537)"/><use xlink:href="#i" height="792" width="612" y="459.2013" x="182.6953" transform="translate(-330.4514 -41.537)"/><use xlink:href="#i" height="792" width="612" y="459.2013" x="200.4253" transform="translate(-330.4514 -41.537)"/><use xlink:href="#i" height="792" width="612" y="459.2013" x="243.4273" transform="translate(-330.4514 -41.537)"/><use xlink:href="#c" height="792" width="612" y="459.2013" x="269.7343" transform="translate(-330.4514 -41.537)"/><use xlink:href="#c" height="792" width="612" y="459.2013" x="286.9693" transform="translate(-330.4514 -41.537)"/><use xlink:href="#c" height="792" width="612" y="459.2013" x="316.8313" transform="translate(-330.4514 -41.537)"/><use xlink:href="#c" height="792" width="612" y="459.2013" x="350.1853" transform="translate(-330.4514 -41.537)"/><use xlink:href="#c" height="792" width="612" y="459.2013" x="391.6843" transform="translate(-330.4514 -41.537)"/><use xlink:href="#c" height="792" width="612" y="459.2013" x="419.5483" transform="translate(-330.4514 -41.537)"/><use xlink:href="#c" height="792" width="612" y="459.2013" x="471.6403" transform="translate(-330.4514 -41.537)"/><use xlink:href="#c" height="792" width="612" y="459.2013" x="489.8743" transform="translate(-330.4514 -41.537)"/><use xlink:href="#c" height="792" width="612" y="459.2013" x="513.0943" transform="translate(-330.4514 -41.537)"/><use xlink:href="#c" height="792" width="612" y="459.2013" x="533.3173" transform="translate(-330.4514 -41.537)"/><use xlink:href="#c" height="792" width="612" y="459.2013" x="542.9113" transform="translate(-330.4514 -41.537)"/><use xlink:href="#c" height="792" width="612" y="471.1983" x="73.8493" transform="translate(-330.4514 -41.537)"/><use xlink:href="#c" height="792" width="612" y="471.1983" x="83.4883" transform="translate(-330.4514 -41.537)"/><use xlink:href="#c" height="792" width="612" y="471.1983" x="105.2593" transform="translate(-330.4514 -41.537)"/><use xlink:href="#c" height="792" width="612" y="471.1983" x="122.4493" transform="translate(-330.4514 -41.537)"/><use xlink:href="#c" height="792" width="612" y="471.1983" x="180.6613" transform="translate(-330.4514 -41.537)"/><use xlink:href="#c" height="792" width="612" y="471.1983" x="197.8963" transform="translate(-330.4514 -41.537)"/><use xlink:href="#c" height="792" width="612" y="471.1983" x="216.6253" transform="translate(-330.4514 -41.537)"/><use xlink:href="#c" height="792" width="612" y="471.1983" x="226.2643" transform="translate(-330.4514 -41.537)"/><use xlink:href="#c" height="792" width="612" y="471.1983" x="276.3583" transform="translate(-330.4514 -41.537)"/><use xlink:href="#c" height="792" width="612" y="471.1983" x="285.9973" transform="translate(-330.4514 -41.537)"/><use xlink:href="#c" height="792" width="612" y="471.1983" x="300.6853" transform="translate(-330.4514 -41.537)"/><use xlink:href="#c" height="792" width="612" y="471.1983" x="323.4553" transform="translate(-330.4514 -41.537)"/><use xlink:href="#c" height="792" width="612" y="471.1983" x="333.0943" transform="translate(-330.4514 -41.537)"/><use xlink:href="#c" height="792" width="612" y="471.1983" x="356.3683" transform="translate(-330.4514 -41.537)"/><use xlink:href="#c" height="792" width="612" y="471.1983" x="382.6753" transform="translate(-330.4514 -41.537)"/><use xlink:href="#c" height="792" width="612" y="471.1983" x="401.3953" transform="translate(-330.4514 -41.537)"/><use xlink:href="#c" height="792" width="612" y="487.6953" x="37.9483" transform="translate(-330.4514 -41.537)"/><use xlink:href="#c" height="792" width="612" y="487.6953" x="44.5003" transform="translate(-330.4514 -41.537)"/><use xlink:href="#i" height="792" width="612" y="487.6953" x="78.8533" transform="translate(-330.4514 -41.537)"/><use xlink:href="#i" height="792" width="612" y="487.6953" x="94.0363" transform="translate(-330.4514 -41.537)"/><use xlink:href="#i" height="792" width="612" y="487.6953" x="132.4933" transform="translate(-330.4514 -41.537)"/><use xlink:href="#c" height="792" width="612" y="487.6953" x="170.9413" transform="translate(-330.4514 -41.537)"/><use xlink:href="#c" height="792" width="612" y="487.6953" x="180.5803" transform="translate(-330.4514 -41.537)"/><use xlink:href="#c" height="792" width="612" y="487.6953" x="206.8963" transform="translate(-330.4514 -41.537)"/><use xlink:href="#c" height="792" width="612" y="487.6953" x="255.0283" transform="translate(-330.4514 -41.537)"/><use xlink:href="#c" height="792" width="612" y="487.6953" x="277.7983" transform="translate(-330.4514 -41.537)"/><use xlink:href="#c" height="792" width="612" y="487.6953" x="292.9813" transform="translate(-330.4514 -41.537)"/><use xlink:href="#c" height="792" width="612" y="487.6953" x="311.2063" transform="translate(-330.4514 -41.537)"/><use xlink:href="#c" height="792" width="612" y="487.6953" x="320.8453" transform="translate(-330.4514 -41.537)"/><use xlink:href="#c" height="792" width="612" y="487.6953" x="348.7093" transform="translate(-330.4514 -41.537)"/><use xlink:href="#c" height="792" width="612" y="487.6953" x="365.8993" transform="translate(-330.4514 -41.537)"/><use xlink:href="#c" height="792" width="612" y="487.6953" x="401.7733" transform="translate(-330.4514 -41.537)"/><use xlink:href="#c" height="792" width="612" y="487.6953" x="422.5003" transform="translate(-330.4514 -41.537)"/><use xlink:href="#c" height="792" width="612" y="506.8923" x="37.9483" transform="translate(-330.4514 -41.537)"/><use xlink:href="#c" height="792" width="612" y="506.8923" x="44.5003" transform="translate(-330.4514 -41.537)"/><use xlink:href="#i" height="792" width="612" y="506.8923" x="75.3253" transform="translate(-330.4514 -41.537)"/><use xlink:href="#i" height="792" width="612" y="506.8923" x="101.6323" transform="translate(-330.4514 -41.537)"/><use xlink:href="#i" height="792" width="612" y="506.8923" x="113.7733" transform="translate(-330.4514 -41.537)"/><use xlink:href="#i" height="792" width="612" y="506.8923" x="120.8653" transform="translate(-330.4514 -41.537)"/><use xlink:href="#i" height="792" width="612" y="506.8923" x="173.4883" transform="translate(-330.4514 -41.537)"/><use xlink:href="#i" height="792" width="612" y="506.8923" x="212.9353" transform="translate(-330.4514 -41.537)"/><use xlink:href="#c" height="792" width="612" y="506.8923" x="235.2013" transform="translate(-330.4514 -41.537)"/><use xlink:href="#c" height="792" width="612" y="506.8923" x="247.8823" transform="translate(-330.4514 -41.537)"/><use xlink:href="#c" height="792" width="612" y="506.8923" x="286.7983" transform="translate(-330.4514 -41.537)"/><use xlink:href="#c" height="792" width="612" y="506.8923" x="327.8023" transform="translate(-330.4514 -41.537)"/><use xlink:href="#c" height="792" width="612" y="506.8923" x="360.1753" transform="translate(-330.4514 -41.537)"/><use xlink:href="#c" height="792" width="612" y="506.8923" x="400.0813" transform="translate(-330.4514 -41.537)"/><use xlink:href="#c" height="792" width="612" y="506.8923" x="428.8903" transform="translate(-330.4514 -41.537)"/><use xlink:href="#c" height="792" width="612" y="526.0893" x="37.9483" transform="translate(-330.4514 -41.537)"/><use xlink:href="#c" height="792" width="612" y="526.0893" x="44.5003" transform="translate(-330.4514 -41.537)"/><use xlink:href="#i" height="792" width="612" y="526.0893" x="73.8493" transform="translate(-330.4514 -41.537)"/><use xlink:href="#i" height="792" width="612" y="526.0893" x="107.1673" transform="translate(-330.4514 -41.537)"/><use xlink:href="#i" height="792" width="612" y="526.0893" x="122.3503" transform="translate(-330.4514 -41.537)"/><use xlink:href="#c" height="792" width="612" y="526.0893" x="150.2143" transform="translate(-330.4514 -41.537)"/><use xlink:href="#c" height="792" width="612" y="526.0893" x="161.8513" transform="translate(-330.4514 -41.537)"/><use xlink:href="#c" height="792" width="612" y="526.0893" x="209.3983" transform="translate(-330.4514 -41.537)"/><use xlink:href="#c" height="792" width="612" y="526.0893" x="216.4903" transform="translate(-330.4514 -41.537)"/><use xlink:href="#c" height="792" width="612" y="526.0893" x="235.7233" transform="translate(-330.4514 -41.537)"/><use xlink:href="#c" height="792" width="612" y="526.0893" x="255.4873" transform="translate(-330.4514 -41.537)"/><use xlink:href="#c" height="792" width="612" y="526.0893" x="265.1263" transform="translate(-330.4514 -41.537)"/><use xlink:href="#c" height="792" width="612" y="526.0893" x="300.0823" transform="translate(-330.4514 -41.537)"/><use xlink:href="#c" height="792" width="612" y="526.0893" x="335.0833" transform="translate(-330.4514 -41.537)"/><use xlink:href="#c" height="792" width="612" y="526.0893" x="378.1213" transform="translate(-330.4514 -41.537)"/><use xlink:href="#c" height="792" width="612" y="526.0893" x="395.3113" transform="translate(-330.4514 -41.537)"/><use xlink:href="#c" height="792" width="612" y="526.0893" x="460.6243" transform="translate(-330.4514 -41.537)"/><use xlink:href="#c" height="792" width="612" y="526.0893" x="500.1163" transform="translate(-330.4514 -41.537)"/><use xlink:href="#c" height="792" width="612" y="526.0893" x="527.9803" transform="translate(-330.4514 -41.537)"/><use xlink:href="#c" height="792" width="612" y="526.0893" x="556.7083" transform="translate(-330.4514 -41.537)"/><use xlink:href="#c" height="792" width="612" y="538.0863" x="57.1363" transform="translate(-330.4514 -41.537)"/><use xlink:href="#c" height="792" width="612" y="538.0863" x="102.1273" transform="translate(-330.4514 -41.537)"/><use xlink:href="#c" height="792" width="612" y="538.0863" x="111.7663" transform="translate(-330.4514 -41.537)"/><use xlink:href="#c" height="792" width="612" y="538.0863" x="146.6683" transform="translate(-330.4514 -41.537)"/><use xlink:href="#c" height="792" width="612" y="538.0863" x="179.0773" transform="translate(-330.4514 -41.537)"/><use xlink:href="#c" height="792" width="612" y="538.0863" x="196.2673" transform="translate(-330.4514 -41.537)"/><use xlink:href="#c" height="792" width="612" y="538.0863" x="232.7173" transform="translate(-330.4514 -41.537)"/><use xlink:href="#c" height="792" width="612" y="538.0863" x="242.3563" transform="translate(-330.4514 -41.537)"/><use xlink:href="#c" height="792" width="612" y="538.0863" x="265.6213" transform="translate(-330.4514 -41.537)"/><use xlink:href="#c" height="792" width="612" y="538.0863" x="275.2603" transform="translate(-330.4514 -41.537)"/><use xlink:href="#c" height="792" width="612" y="538.0863" x="307.1563" transform="translate(-330.4514 -41.537)"/><use xlink:href="#c" height="792" width="612" y="538.0863" x="324.3463" transform="translate(-330.4514 -41.537)"/><use xlink:href="#c" height="792" width="612" y="538.0863" x="333.9853" transform="translate(-330.4514 -41.537)"/><use xlink:href="#c" height="792" width="612" y="538.0863" x="368.8423" transform="translate(-330.4514 -41.537)"/><use xlink:href="#c" height="792" width="612" y="538.0863" x="407.8393" transform="translate(-330.4514 -41.537)"/><use xlink:href="#c" height="792" width="612" y="538.0863" x="433.1203" transform="translate(-330.4514 -41.537)"/><use xlink:href="#c" height="792" width="612" y="538.0863" x="459.9313" transform="translate(-330.4514 -41.537)"/><use xlink:href="#b" height="792" width="612" y="576.5103" x="83.0533" transform="translate(-330.4514 -41.537)" fill="#2e5e73"/><use xlink:href="#b" height="792" width="612" y="576.5103" x="140.2733" transform="translate(-330.4514 -41.537)" fill="#2e5e73"/><use xlink:href="#b" height="792" width="612" y="576.5103" x="143.3233" transform="translate(-330.4514 -41.537)" fill="#2e5e73"/><use xlink:href="#b" height="792" width="612" y="576.5103" x="185.4133" transform="translate(-330.4514 -41.537)" fill="#bf5c26"/><use xlink:href="#b" height="792" width="612" y="576.5103" x="249.5733" transform="translate(-330.4514 -41.537)" fill="#bf5c26"/><use xlink:href="#b" height="792" width="612" y="576.5103" x="259.4933" transform="translate(-330.4514 -41.537)" fill="#bf5c26"/><use xlink:href="#b" height="792" width="612" y="576.5103" x="310.7733" transform="translate(-330.4514 -41.537)" fill="#bf5c26"/><use xlink:href="#b" height="792" width="612" y="576.5103" x="333.1233" transform="translate(-330.4514 -41.537)" fill="#bf5c26"/><use xlink:href="#c" height="792" width="612" y="595.7103" x="44.3382" transform="translate(-330.4514 -41.537)" fill="#2e5e73"/><use xlink:href="#c" height="792" width="612" y="595.7103" x="79.8432" transform="translate(-330.4514 -41.537)" fill="#2e5e73"/><use xlink:href="#c" height="792" width="612" y="595.7103" x="86.8452" transform="translate(-330.4514 -41.537)" fill="#2e5e73"/><use xlink:href="#c" height="792" width="612" y="595.7103" x="130.3512" transform="translate(-330.4514 -41.537)" fill="#2e5e73"/><use xlink:href="#c" height="792" width="612" y="595.7103" x="174.3522" transform="translate(-330.4514 -41.537)" fill="#2e5e73"/><use xlink:href="#c" height="792" width="612" y="595.7103" x="198.3552" transform="translate(-330.4514 -41.537)" fill="#2e5e73"/><use xlink:href="#c" height="792" width="612" y="595.7103" x="232.8612" transform="translate(-330.4514 -41.537)" fill="#2e5e73"/><use xlink:href="#c" height="792" width="612" y="595.7103" x="258.8622" transform="translate(-330.4514 -41.537)" fill="#2e5e73"/><use xlink:href="#c" height="792" width="612" y="595.7103" x="268.3662" transform="translate(-330.4514 -41.537)" fill="#2e5e73"/><use xlink:href="#c" height="792" width="612" y="595.7103" x="298.8672" transform="translate(-330.4514 -41.537)" fill="#2e5e73"/><use xlink:href="#c" height="792" width="612" y="595.7103" x="329.8632" transform="translate(-330.4514 -41.537)" fill="#2e5e73"/><use xlink:href="#c" height="792" width="612" y="595.7103" x="373.8822" transform="translate(-330.4514 -41.537)" fill="#2e5e73"/><use xlink:href="#c" height="792" width="612" y="595.7103" x="413.3832" transform="translate(-330.4514 -41.537)" fill="#2e5e73"/><use xlink:href="#c" height="792" width="612" y="595.7103" x="439.3752" transform="translate(-330.4514 -41.537)" fill="#2e5e73"/><use xlink:href="#c" height="792" width="612" y="595.7103" x="456.3852" transform="translate(-330.4514 -41.537)" fill="#2e5e73"/><use xlink:href="#c" height="792" width="612" y="595.7103" x="490.3872" transform="translate(-330.4514 -41.537)" fill="#2e5e73"/><use xlink:href="#c" height="792" width="612" y="595.7103" x="542.3982" transform="translate(-330.4514 -41.537)" fill="#2e5e73"/><use xlink:href="#c" height="792" width="612" y="607.7073" x="77.9982" transform="translate(-330.4514 -41.537)" fill="#2e5e73"/><use xlink:href="#c" height="792" width="612" y="607.7073" x="87.5022" transform="translate(-330.4514 -41.537)" fill="#2e5e73"/><use xlink:href="#c" height="792" width="612" y="607.7073" x="119.0022" transform="translate(-330.4514 -41.537)" fill="#2e5e73"/><use xlink:href="#c" height="792" width="612" y="607.7073" x="152.5002" transform="translate(-330.4514 -41.537)" fill="#2e5e73"/><use xlink:href="#c" height="792" width="612" y="624.2043" x="37.9032" transform="translate(-330.4514 -41.537)"/><use xlink:href="#c" height="792" width="612" y="624.2043" x="84.0102" transform="translate(-330.4514 -41.537)"/><use xlink:href="#c" height="792" width="612" y="624.2043" x="118.5162" transform="translate(-330.4514 -41.537)"/><use xlink:href="#c" height="792" width="612" y="624.2043" x="138.5322" transform="translate(-330.4514 -41.537)"/><use xlink:href="#c" height="792" width="612" y="624.2043" x="163.5342" transform="translate(-330.4514 -41.537)"/><use xlink:href="#c" height="792" width="612" y="624.2043" x="182.5332" transform="translate(-330.4514 -41.537)"/><use xlink:href="#c" height="792" width="612" y="624.2043" x="214.5372" transform="translate(-330.4514 -41.537)"/><use xlink:href="#c" height="792" width="612" y="624.2043" x="231.5472" transform="translate(-330.4514 -41.537)"/><use xlink:href="#c" height="792" width="612" y="624.2043" x="251.5632" transform="translate(-330.4514 -41.537)"/><use xlink:href="#c" height="792" width="612" y="624.2043" x="276.5652" transform="translate(-330.4514 -41.537)"/><use xlink:href="#c" height="792" width="612" y="624.2043" x="286.0692" transform="translate(-330.4514 -41.537)"/><use xlink:href="#c" height="792" width="612" y="624.2043" x="330.0792" transform="translate(-330.4514 -41.537)"/><use xlink:href="#c" height="792" width="612" y="624.2043" x="353.0832" transform="translate(-330.4514 -41.537)"/><use xlink:href="#c" height="792" width="612" y="643.4013" x="37.9032" transform="translate(-330.4514 -41.537)"/><use xlink:href="#c" height="792" width="612" y="643.4013" x="40.4052" transform="translate(-330.4514 -41.537)"/><use xlink:href="#c" height="792" width="612" y="643.4013" x="96.8982" transform="translate(-330.4514 -41.537)"/><use xlink:href="#c" height="792" width="612" y="643.4013" x="114.4122" transform="translate(-330.4514 -41.537)"/><use xlink:href="#c" height="792" width="612" y="643.4013" x="139.4142" transform="translate(-330.4514 -41.537)"/><use xlink:href="#c" height="792" width="612" y="643.4013" x="183.4242" transform="translate(-330.4514 -41.537)"/><use xlink:href="#c" height="792" width="612" y="643.4013" x="208.9302" transform="translate(-330.4514 -41.537)"/><use xlink:href="#c" height="792" width="612" y="643.4013" x="236.4342" transform="translate(-330.4514 -41.537)"/><use xlink:href="#c" height="792" width="612" y="662.5983" x="37.9032" transform="translate(-330.4514 -41.537)"/><use xlink:href="#c" height="792" width="612" y="662.5983" x="63.0042" transform="translate(-330.4514 -41.537)"/><use xlink:href="#c" height="792" width="612" y="662.5983" x="93.5052" transform="translate(-330.4514 -41.537)"/><use xlink:href="#c" height="792" width="612" y="662.5983" x="112.5132" transform="translate(-330.4514 -41.537)"/><use xlink:href="#c" height="792" width="612" y="662.5983" x="123.5112" transform="translate(-330.4514 -41.537)"/><use xlink:href="#c" height="792" width="612" y="662.5983" x="128.5152" transform="translate(-330.4514 -41.537)"/><use xlink:href="#c" height="792" width="612" y="662.5983" x="162.1752" transform="translate(-330.4514 -41.537)"/><use xlink:href="#c" height="792" width="612" y="662.5983" x="184.6842" transform="translate(-330.4514 -41.537)"/><use xlink:href="#c" height="792" width="612" y="662.5983" x="189.6882" transform="translate(-330.4514 -41.537)"/><use xlink:href="#c" height="792" width="612" y="662.5983" x="211.1982" transform="translate(-330.4514 -41.537)"/><use xlink:href="#c" height="792" width="612" y="662.5983" x="231.7092" transform="translate(-330.4514 -41.537)"/><use xlink:href="#c" height="792" width="612" y="662.5983" x="236.7132" transform="translate(-330.4514 -41.537)"/><use xlink:href="#c" height="792" width="612" y="662.5983" x="262.2282" transform="translate(-330.4514 -41.537)"/><use xlink:href="#c" height="792" width="612" y="681.7953" x="37.9032" transform="translate(-330.4514 -41.537)"/><use xlink:href="#c" height="792" width="612" y="681.7953" x="44.5002" transform="translate(-330.4514 -41.537)"/><use xlink:href="#c" height="792" width="612" y="681.7953" x="92.4882" transform="translate(-330.4514 -41.537)"/><use xlink:href="#c" height="792" width="612" y="681.7953" x="144.4902" transform="translate(-330.4514 -41.537)"/><use xlink:href="#c" height="792" width="612" y="681.7953" x="186.4842" transform="translate(-330.4514 -41.537)"/><use xlink:href="#c" height="792" width="612" y="681.7953" x="225.9852" transform="translate(-330.4514 -41.537)"/><use xlink:href="#c" height="792" width="612" y="681.7953" x="246.4962" transform="translate(-330.4514 -41.537)"/><use xlink:href="#c" height="792" width="612" y="681.7953" x="265.1802" transform="translate(-330.4514 -41.537)"/><use xlink:href="#c" height="792" width="612" y="681.7953" x="318.6852" transform="translate(-330.4514 -41.537)"/><use xlink:href="#c" height="792" width="612" y="681.7953" x="339.1962" transform="translate(-330.4514 -41.537)"/><use xlink:href="#c" height="792" width="612" y="681.7953" x="358.5372" transform="translate(-330.4514 -41.537)"/><use xlink:href="#c" height="792" width="612" y="700.9923" x="37.9032" transform="translate(-330.4514 -41.537)"/><use xlink:href="#c" height="792" width="612" y="700.9923" x="40.4052" transform="translate(-330.4514 -41.537)"/><use xlink:href="#c" height="792" width="612" y="700.9923" x="42.9072" transform="translate(-330.4514 -41.537)"/><use xlink:href="#c" height="792" width="612" y="700.9923" x="66.4152" transform="translate(-330.4514 -41.537)"/><use xlink:href="#c" height="792" width="612" y="700.9923" x="103.9272" transform="translate(-330.4514 -41.537)"/><use xlink:href="#c" height="792" width="612" y="700.9923" x="138.4242" transform="translate(-330.4514 -41.537)"/><use xlink:href="#c" height="792" width="612" y="700.9923" x="170.9142" transform="translate(-330.4514 -41.537)"/><use xlink:href="#c" height="792" width="612" y="700.9923" x="180.4182" transform="translate(-330.4514 -41.537)"/><use xlink:href="#c" height="792" width="612" y="700.9923" x="199.9302" transform="translate(-330.4514 -41.537)"/><use xlink:href="#c" height="792" width="612" y="700.9923" x="208.4262" transform="translate(-330.4514 -41.537)"/><use xlink:href="#c" height="792" width="612" y="700.9923" x="263.9292" transform="translate(-330.4514 -41.537)"/><use xlink:href="#c" height="792" width="612" y="700.9923" x="284.4312" transform="translate(-330.4514 -41.537)"/><use xlink:href="#c" height="792" width="612" y="700.9923" x="303.9342" transform="translate(-330.4514 -41.537)"/><use xlink:href="#c" height="792" width="612" y="700.9923" x="321.9432" transform="translate(-330.4514 -41.537)"/><use xlink:href="#c" height="792" width="612" y="700.9923" x="333.9492" transform="translate(-330.4514 -41.537)"/><use xlink:href="#c" height="792" width="612" y="700.9923" x="365.9442" transform="translate(-330.4514 -41.537)"/><use xlink:href="#c" height="792" width="612" y="700.9923" x="368.4462" transform="translate(-330.4514 -41.537)"/><use xlink:href="#c" height="792" width="612" y="712.9893" x="73.9032" transform="translate(-330.4514 -41.537)"/><use xlink:href="#c" height="792" width="612" y="712.9893" x="83.4072" transform="translate(-330.4514 -41.537)"/><use xlink:href="#c" height="792" width="612" y="712.9893" x="95.8992" transform="translate(-330.4514 -41.537)"/><use xlink:href="#j" height="792" width="612" y="186.8008" x="538.4223" transform="translate(-330.4514 -41.537)" fill="#2e5e73"/><use xlink:href="#j" height="792" width="612" y="186.8008" x="567.9743" transform="translate(-330.4514 -41.537)" fill="#2e5e73"/><use xlink:href="#j" height="792" width="612" y="186.8008" x="570.4143" transform="translate(-330.4514 -41.537)" fill="#2e5e73"/><use xlink:href="#j" height="792" width="612" y="710.7558" x="516.7583" transform="translate(-330.4514 -41.537)" fill="#2e5e73"/><use xlink:href="#j" height="792" width="612" y="710.7558" x="540.9823" transform="translate(-330.4514 -41.537)" fill="#2e5e73"/><use xlink:href="#j" height="792" width="612" y="710.7558" x="543.4223" transform="translate(-330.4514 -41.537)" fill="#2e5e73"/><use xlink:href="#k" height="792" width="612" y="94.2693" x="111.2713" transform="translate(-330.4514 -41.537)" fill="#fff"/><use xlink:href="#k" height="792" width="612" y="94.2693" x="154.6153" transform="translate(-330.4514 -41.537)" fill="#fff"/><g transform="translate(-1163.4088 -83.0464) scale(2.4465)" fill="#074a78"><use xlink:href="#e" height="792" width="612" y="48.2575" x="474.1809"/><use xlink:href="#f" height="792" width="612" y="48.2575" x="488.3409"/><use xlink:href="#g" height="792" width="612" y="48.2575" x="495.8409"/><use xlink:href="#g" height="792" width="612" y="48.2575" x="508.3409"/><use xlink:href="#h" height="792" width="612" y="48.2575" x="520.8409"/><use xlink:href="#a" height="792" width="612" y="48.2575" x="532.5009"/><use xlink:href="#b" height="792" width="612" y="48.2575" x="545.4209"/><use xlink:href="#c" height="792" width="612" y="48.2575" x="557.0809"/><use xlink:href="#d" height="792" width="612" y="48.2575" x="562.9209"/></g><use xlink:href="#j" height="792" width="612" y="621.4941" x="510.9823" transform="translate(-330.4514 -41.537)" fill="#2e5e73"/><use xlink:href="#j" height="792" width="612" y="665.4941" x="540.3263" transform="translate(-330.4514 -41.537)" fill="#2e5e73"/><use xlink:href="#j" height="792" width="612" y="665.4941" x="542.7663" transform="translate(-330.4514 -41.537)" fill="#2e5e73"/><use xlink:href="#j" height="792" width="612" y="675.0941" x="521.2063" transform="translate(-330.4514 -41.537)" fill="#2e5e73"/><use xlink:href="#j" height="792" width="612" y="675.0941" x="533.4303" transform="translate(-330.4514 -41.537)" fill="#2e5e73"/><use xlink:href="#j" height="792" width="612" y="324.2808" x="558.4223" transform="translate(-330.4514 -41.537)" fill="#2e5e73"/><use xlink:href="#j" height="792" width="612" y="324.2808" x="560.8623" transform="translate(-330.4514 -41.537)" fill="#2e5e73"/><use xlink:href="#j" height="792" width="612" y="333.8808" x="523.7583" transform="translate(-330.4514 -41.537)" fill="#2e5e73"/><use xlink:href="#j" height="792" width="612" y="253.0008" x="523.7583" transform="translate(-330.4514 -41.537)" fill="#2e5e73"/><use xlink:href="#j" height="792" width="612" y="253.0008" x="560.4223" transform="translate(-330.4514 -41.537)" fill="#2e5e73"/></svg>