<svg version="1.1" id="Layer_1" xmlns="http://www.w3.org/2000/svg" xmlns:xlink="http://www.w3.org/1999/xlink" x="0px" y="0px"
	 width="100%" viewBox="0 0 1080 1080" enable-background="new 0 0 1080 1080" xml:space="preserve">
<path fill="#FFFFFF" opacity="1.000000" stroke="none" 
	d="
M1008.000000,1081.000000 
	C672.000000,1081.000000 336.500000,1081.000000 1.000000,1081.000000 
	C1.000000,721.000000 1.000000,361.000000 1.000000,1.000000 
	C361.000000,1.000000 721.000000,1.000000 1081.000000,1.000000 
	C1081.000000,361.000000 1081.000000,721.000000 1081.000000,1081.000000 
	C1056.833374,1081.000000 1032.666626,1081.000000 1008.000000,1081.000000 
M1060.655273,513.867920 
	C1060.985474,513.066162 1061.315796,512.264404 1061.705566,510.694824 
	C1061.706177,506.803009 1062.411133,502.746674 1061.548950,499.056427 
	C1060.112305,492.907410 1052.597778,488.748230 1045.888062,489.521667 
	C1038.935791,490.323059 1032.852417,496.495728 1032.313599,503.295624 
	C1031.731201,510.645691 1035.240234,516.243103 1042.062622,518.850769 
	C1044.350952,519.162170 1046.639160,519.473633 1049.590576,519.828125 
	C1050.010620,519.703186 1050.430542,519.578247 1051.471191,519.662476 
	C1052.381470,519.134583 1053.291626,518.606628 1054.543213,518.075378 
	C1054.543213,518.075378 1054.884521,518.066284 1055.423462,518.031799 
	C1055.602539,518.013794 1055.781494,517.995850 1056.661255,517.936768 
	C1057.753174,516.595703 1058.845093,515.254639 1060.003418,513.979309 
	C1060.003418,513.979309 1059.917603,513.942017 1060.655273,513.867920 
M862.201477,581.481201 
	C862.198059,584.480896 862.451233,587.508423 862.130432,590.473755 
	C861.662415,594.799927 863.436218,595.831177 867.560669,595.816284 
	C906.722351,595.674866 945.884827,595.755676 985.046875,595.683472 
	C988.688965,595.676758 992.420776,595.451904 995.952393,594.639343 
	C1003.279053,592.953552 1009.709839,589.374634 1011.441284,581.494568 
	C1014.301025,568.480103 1015.530945,555.834656 1001.627380,547.106201 
	C995.572144,543.304871 995.801086,542.204285 1001.710815,537.668823 
	C1009.091675,532.004333 1013.740173,525.989319 1013.107727,515.626648 
	C1012.112854,499.325073 1004.809143,490.875702 988.401550,490.817505 
	C947.906677,490.673828 907.410889,490.781250 866.915894,490.665894 
	C863.249084,490.655457 862.080200,491.697784 862.102234,495.497925 
	C862.266113,523.827087 862.198059,552.157593 862.201477,581.481201 
M656.680176,595.719727 
	C694.821228,595.720215 732.962402,595.741699 771.103333,595.685669 
	C774.583557,595.680603 778.095337,595.390930 781.536682,594.866943 
	C791.796326,593.304810 798.204468,586.481201 799.309631,576.248962 
	C800.578857,564.497192 799.657532,553.932495 787.956299,546.809875 
	C782.043152,543.210510 782.551025,542.263245 787.930908,537.825745 
	C788.829041,537.084961 789.657776,536.234314 790.634888,535.619324 
	C797.914368,531.037720 800.666748,524.456970 799.427612,516.055542 
	C799.331299,515.403015 799.411377,514.724915 799.404541,514.058716 
	C799.274414,501.363678 794.961975,495.395020 782.816772,491.874908 
	C779.683411,490.966766 776.249390,490.803009 772.952576,490.796722 
	C733.312622,490.721436 693.672180,490.819153 654.032959,490.627899 
	C649.412109,490.605621 648.601013,492.163055 648.624939,496.368652 
	C648.800293,527.180359 648.727905,557.993408 648.730591,588.806091 
	C648.731201,595.747070 648.725647,595.747070 656.680176,595.719727 
M163.861557,595.112305 
	C164.225876,589.404358 164.590195,583.696411 164.983200,577.539062 
	C162.016083,577.407593 159.901962,577.233215 157.787781,577.232300 
	C121.129311,577.216125 84.470108,577.109314 47.813175,577.347290 
	C42.556450,577.381348 41.407730,575.649048 41.471748,570.797668 
	C41.711376,552.638245 41.565811,534.473755 41.569107,516.311157 
	C41.570370,509.345245 41.575790,509.334900 48.350445,509.333832 
	C76.177567,509.329468 104.004692,509.332336 131.831818,509.331726 
	C141.329697,509.331512 150.830338,509.441803 160.322510,509.208160 
	C161.782684,509.172241 164.363815,507.645844 164.447647,506.643311 
	C164.872070,501.566864 164.642975,496.435760 164.642975,490.738281 
	C162.050797,490.738281 160.095108,490.738281 158.139404,490.738281 
	C122.147438,490.738190 86.155472,490.735382 50.163509,490.743622 
	C47.498119,490.744232 44.822693,490.690948 42.169094,490.890747 
	C30.421125,491.775146 21.766146,500.311981 21.609596,512.038818 
	C21.331596,532.863525 21.335079,553.697510 21.624006,574.521973 
	C21.779314,585.715759 29.244047,593.529541 40.310390,595.058289 
	C43.266911,595.466736 46.274372,595.688904 49.258369,595.688171 
	C87.243500,595.678772 125.228622,595.613159 163.861557,595.112305 
M225.237823,490.763214 
	C224.311508,492.155731 222.583115,493.544495 222.576569,494.941284 
	C222.425797,527.096375 222.490433,559.252380 222.417358,591.408020 
	C222.410645,594.360962 223.232971,595.673523 226.374939,595.526917 
	C229.859573,595.364319 233.387146,595.392700 236.853027,595.752258 
	C240.706772,596.152039 242.269501,595.016052 242.188232,590.880859 
	C241.965668,579.555786 242.215927,568.221924 242.051224,556.894836 
	C242.002014,553.509460 243.005463,552.114929 246.533676,552.123474 
	C279.022430,552.201904 311.511536,552.195251 344.000397,552.135498 
	C347.268158,552.129517 348.339081,553.449158 348.289886,556.625977 
	C348.148102,565.783508 348.217285,574.944641 348.239380,584.104309 
	C348.265839,595.081299 348.281830,595.081421 359.428864,595.491150 
	C361.089081,595.552124 362.749237,595.651184 364.409790,595.660522 
	C367.028503,595.675232 368.182495,594.586304 368.175293,591.716431 
	C368.093903,559.227600 368.106323,526.738525 368.175995,494.249664 
	C368.181641,491.619873 367.210510,490.665222 364.678131,490.723206 
	C360.681671,490.814728 356.670532,490.924835 352.686035,490.686218 
	C349.065552,490.469360 348.116577,492.030945 348.165131,495.405365 
	C348.320953,506.232819 348.052948,517.068298 348.323059,527.891296 
	C348.429779,532.169067 347.276154,533.712341 342.768372,533.688477 
	C310.946716,533.520020 279.123413,533.529480 247.301559,533.677917 
	C243.018799,533.697876 241.947083,532.159912 242.030960,528.140686 
	C242.260330,517.149170 241.978271,506.147156 242.190125,495.154938 
	C242.259247,491.569153 241.042084,490.455383 237.598328,490.679474 
	C233.782318,490.927734 229.937912,490.739838 225.237823,490.763214 
M531.500000,577.224487 
	C506.588654,577.224487 481.677307,577.224487 456.335266,577.224487 
	C456.335266,574.428467 456.335327,572.445251 456.335236,570.462097 
	C456.334503,548.802307 456.381805,527.142273 456.295380,505.482819 
	C456.276428,500.733704 457.539551,494.103943 455.023834,491.754852 
	C452.376617,489.282959 445.895294,491.049194 441.109650,490.691467 
	C437.575043,490.427277 436.540314,491.760101 436.558319,495.249695 
	C436.690826,520.907593 436.577667,546.566772 436.729462,572.224426 
	C436.749664,575.642090 437.225586,579.302124 438.520111,582.422791 
	C443.050079,593.342896 452.559784,595.698425 463.118347,595.710266 
	C493.442047,595.744263 523.766113,595.789185 554.089172,595.640564 
	C558.189941,595.620483 562.508545,595.147888 566.341064,593.794250 
	C577.230896,589.948120 580.445618,581.162659 580.400269,570.435059 
	C580.307312,548.442383 580.370605,526.449097 580.370117,504.456055 
	C580.369812,490.695129 580.363647,490.956970 566.588928,490.608276 
	C561.301208,490.474457 560.308838,492.245300 560.357300,497.145142 
	C560.604370,522.134766 560.408997,547.128418 560.525146,572.119995 
	C560.542603,575.886047 559.594604,577.477295 555.489136,577.312012 
	C547.837280,577.003845 540.164246,577.224792 531.500000,577.224487 
z"/>
<path fill="#2D292A" opacity="1.000000" stroke="none" 
	d="
M862.202087,580.984436 
	C862.198059,552.157593 862.266113,523.827087 862.102234,495.497925 
	C862.080200,491.697784 863.249084,490.655457 866.915894,490.665894 
	C907.410889,490.781250 947.906677,490.673828 988.401550,490.817505 
	C1004.809143,490.875702 1012.112854,499.325073 1013.107727,515.626648 
	C1013.740173,525.989319 1009.091675,532.004333 1001.710815,537.668823 
	C995.801086,542.204285 995.572144,543.304871 1001.627380,547.106201 
	C1015.530945,555.834656 1014.301025,568.480103 1011.441284,581.494568 
	C1009.709839,589.374634 1003.279053,592.953552 995.952393,594.639343 
	C992.420776,595.451904 988.688965,595.676758 985.046875,595.683472 
	C945.884827,595.755676 906.722351,595.674866 867.560669,595.816284 
	C863.436218,595.831177 861.662415,594.799927 862.130432,590.473755 
	C862.451233,587.508423 862.198059,584.480896 862.202087,580.984436 
M930.500000,578.277588 
	C949.303528,578.277466 968.108582,578.148132 986.909485,578.371887 
	C991.382019,578.425171 992.732727,576.956238 992.485596,572.639465 
	C992.162720,567.000244 992.304871,561.326050 992.446106,555.671875 
	C992.526001,552.472351 991.308167,551.250610 988.061646,551.257141 
	C954.115662,551.325562 920.169373,551.325928 886.223450,551.250000 
	C882.922729,551.242676 881.796875,552.577637 881.858459,555.712402 
	C881.972778,561.534241 882.079468,567.368286 881.823059,573.181152 
	C881.646851,577.177429 883.225647,578.370422 887.068054,578.328308 
	C901.210571,578.173401 915.355774,578.273682 930.500000,578.277588 
M988.158813,508.424744 
	C954.528015,508.424927 920.897034,508.484772 887.266785,508.346710 
	C883.250854,508.330231 881.546082,509.280365 881.813538,513.590027 
	C882.153198,519.063293 881.972961,524.574463 881.875244,530.066833 
	C881.822815,533.014282 882.990295,534.262756 886.002686,534.258301 
	C920.132812,534.208069 954.263000,534.211548 988.393188,534.245789 
	C990.991821,534.248352 992.477661,533.530273 992.430176,530.593872 
	C992.327820,524.268921 992.551025,517.933594 992.241760,511.622101 
	C992.187256,510.509613 990.193481,509.492157 988.158813,508.424744 
z"/>
<path fill="#2C2829" opacity="1.000000" stroke="none" 
	d="
M656.213867,595.719604 
	C648.725647,595.747070 648.731201,595.747070 648.730591,588.806091 
	C648.727905,557.993408 648.800293,527.180359 648.624939,496.368652 
	C648.601013,492.163055 649.412109,490.605621 654.032959,490.627899 
	C693.672180,490.819153 733.312622,490.721436 772.952576,490.796722 
	C776.249390,490.803009 779.683411,490.966766 782.816772,491.874908 
	C794.961975,495.395020 799.274414,501.363678 799.404541,514.058716 
	C799.411377,514.724915 799.331299,515.403015 799.427612,516.055542 
	C800.666748,524.456970 797.914368,531.037720 790.634888,535.619324 
	C789.657776,536.234314 788.829041,537.084961 787.930908,537.825745 
	C782.551025,542.263245 782.043152,543.210510 787.956299,546.809875 
	C799.657532,553.932495 800.578857,564.497192 799.309631,576.248962 
	C798.204468,586.481201 791.796326,593.304810 781.536682,594.866943 
	C778.095337,595.390930 774.583557,595.680603 771.103333,595.685669 
	C732.962402,595.741699 694.821228,595.720215 656.213867,595.719604 
M676.676514,551.285095 
	C668.199646,551.266724 668.198975,551.266724 668.193420,559.687866 
	C668.190430,564.186829 668.399536,568.698486 668.126221,573.180908 
	C667.880371,577.212463 669.566833,578.421692 673.382629,578.340820 
	C681.876770,578.160645 690.377441,578.289429 698.875427,578.289062 
	C723.869568,578.287964 748.864197,578.203064 773.857300,578.363831 
	C778.046326,578.390808 779.443359,577.059265 779.189026,572.917053 
	C778.872986,567.770935 778.821411,562.569763 779.194641,557.431519 
	C779.539734,552.680115 778.040100,551.137268 773.114258,551.170105 
	C741.289795,551.382568 709.463318,551.283447 676.676514,551.285095 
M668.225403,511.050537 
	C668.214600,516.709534 668.468628,522.385254 668.111633,528.022278 
	C667.809875,532.785400 669.378296,534.396851 674.277710,534.347717 
	C696.911499,534.120483 719.548889,534.241760 742.184937,534.241272 
	C753.003662,534.241089 763.824341,534.348938 774.638733,534.134583 
	C776.131897,534.105042 778.830811,532.553223 778.874512,531.608948 
	C779.224731,524.049500 779.070190,516.466797 779.070190,508.876678 
	C777.676086,508.648376 777.034790,508.451782 776.393372,508.451416 
	C741.773499,508.431824 707.153625,508.408386 672.533997,508.497528 
	C671.122986,508.501160 669.714783,509.581909 668.225403,511.050537 
z"/>
<path fill="#2C2829" opacity="1.000000" stroke="none" 
	d="
M163.537659,595.337036 
	C125.228622,595.613159 87.243500,595.678772 49.258369,595.688171 
	C46.274372,595.688904 43.266911,595.466736 40.310390,595.058289 
	C29.244047,593.529541 21.779314,585.715759 21.624006,574.521973 
	C21.335079,553.697510 21.331596,532.863525 21.609596,512.038818 
	C21.766146,500.311981 30.421125,491.775146 42.169094,490.890747 
	C44.822693,490.690948 47.498119,490.744232 50.163509,490.743622 
	C86.155472,490.735382 122.147438,490.738190 158.139404,490.738281 
	C160.095108,490.738281 162.050797,490.738281 164.642975,490.738281 
	C164.642975,496.435760 164.872070,501.566864 164.447647,506.643311 
	C164.363815,507.645844 161.782684,509.172241 160.322510,509.208160 
	C150.830338,509.441803 141.329697,509.331512 131.831818,509.331726 
	C104.004692,509.332336 76.177567,509.329468 48.350445,509.333832 
	C41.575790,509.334900 41.570370,509.345245 41.569107,516.311157 
	C41.565811,534.473755 41.711376,552.638245 41.471748,570.797668 
	C41.407730,575.649048 42.556450,577.381348 47.813175,577.347290 
	C84.470108,577.109314 121.129311,577.216125 157.787781,577.232300 
	C159.901962,577.233215 162.016083,577.407593 164.983200,577.539062 
	C164.590195,583.696411 164.225876,589.404358 163.537659,595.337036 
z"/>
<path fill="#2C2829" opacity="1.000000" stroke="none" 
	d="
M225.671844,490.752533 
	C229.937912,490.739838 233.782318,490.927734 237.598328,490.679474 
	C241.042084,490.455383 242.259247,491.569153 242.190125,495.154938 
	C241.978271,506.147156 242.260330,517.149170 242.030960,528.140686 
	C241.947083,532.159912 243.018799,533.697876 247.301559,533.677917 
	C279.123413,533.529480 310.946716,533.520020 342.768372,533.688477 
	C347.276154,533.712341 348.429779,532.169067 348.323059,527.891296 
	C348.052948,517.068298 348.320953,506.232819 348.165131,495.405365 
	C348.116577,492.030945 349.065552,490.469360 352.686035,490.686218 
	C356.670532,490.924835 360.681671,490.814728 364.678131,490.723206 
	C367.210510,490.665222 368.181641,491.619873 368.175995,494.249664 
	C368.106323,526.738525 368.093903,559.227600 368.175293,591.716431 
	C368.182495,594.586304 367.028503,595.675232 364.409790,595.660522 
	C362.749237,595.651184 361.089081,595.552124 359.428864,595.491150 
	C348.281830,595.081421 348.265839,595.081299 348.239380,584.104309 
	C348.217285,574.944641 348.148102,565.783508 348.289886,556.625977 
	C348.339081,553.449158 347.268158,552.129517 344.000397,552.135498 
	C311.511536,552.195251 279.022430,552.201904 246.533676,552.123474 
	C243.005463,552.114929 242.002014,553.509460 242.051224,556.894836 
	C242.215927,568.221924 241.965668,579.555786 242.188232,590.880859 
	C242.269501,595.016052 240.706772,596.152039 236.853027,595.752258 
	C233.387146,595.392700 229.859573,595.364319 226.374939,595.526917 
	C223.232971,595.673523 222.410645,594.360962 222.417358,591.408020 
	C222.490433,559.252380 222.425797,527.096375 222.576569,494.941284 
	C222.583115,493.544495 224.311508,492.155731 225.671844,490.752533 
z"/>
<path fill="#2B2829" opacity="1.000000" stroke="none" 
	d="
M532.000000,577.224976 
	C540.164246,577.224792 547.837280,577.003845 555.489136,577.312012 
	C559.594604,577.477295 560.542603,575.886047 560.525146,572.119995 
	C560.408997,547.128418 560.604370,522.134766 560.357300,497.145142 
	C560.308838,492.245300 561.301208,490.474457 566.588928,490.608276 
	C580.363647,490.956970 580.369812,490.695129 580.370117,504.456055 
	C580.370605,526.449097 580.307312,548.442383 580.400269,570.435059 
	C580.445618,581.162659 577.230896,589.948120 566.341064,593.794250 
	C562.508545,595.147888 558.189941,595.620483 554.089172,595.640564 
	C523.766113,595.789185 493.442047,595.744263 463.118347,595.710266 
	C452.559784,595.698425 443.050079,593.342896 438.520111,582.422791 
	C437.225586,579.302124 436.749664,575.642090 436.729462,572.224426 
	C436.577667,546.566772 436.690826,520.907593 436.558319,495.249695 
	C436.540314,491.760101 437.575043,490.427277 441.109650,490.691467 
	C445.895294,491.049194 452.376617,489.282959 455.023834,491.754852 
	C457.539551,494.103943 456.276428,500.733704 456.295380,505.482819 
	C456.381805,527.142273 456.334503,548.802307 456.335236,570.462097 
	C456.335327,572.445251 456.335266,574.428467 456.335266,577.224487 
	C481.677307,577.224487 506.588654,577.224487 532.000000,577.224976 
z"/>
<path fill="#939393" opacity="1.000000" stroke="none" 
	d="
M1041.694580,518.259766 
	C1035.240234,516.243103 1031.731201,510.645691 1032.313599,503.295624 
	C1032.852417,496.495728 1038.935791,490.323059 1045.888062,489.521667 
	C1052.597778,488.748230 1060.112305,492.907410 1061.548950,499.056427 
	C1062.411133,502.746674 1061.706177,506.803009 1061.398193,511.239319 
	C1060.699829,512.503174 1060.308716,513.222595 1059.917603,513.942017 
	C1059.917603,513.942017 1060.003418,513.979309 1059.609131,513.947510 
	C1058.502808,513.812378 1057.790527,513.708923 1057.097900,513.382202 
	C1057.121460,512.859924 1057.115601,512.561218 1057.378418,511.979340 
	C1059.853149,505.940582 1060.210571,500.499115 1054.800293,495.697693 
	C1050.504272,492.741699 1046.336548,491.495453 1041.648682,494.998901 
	C1039.707153,497.571442 1037.423096,499.879303 1036.671021,502.609192 
	C1035.187500,507.994965 1037.449341,512.000305 1041.800781,513.697632 
	C1042.521240,514.701660 1043.260498,515.409241 1043.959961,516.466919 
	C1043.178345,517.297913 1042.436401,517.778870 1041.694580,518.259766 
z"/>
<path fill="#B2B1B2" opacity="1.000000" stroke="none" 
	d="
M1057.100098,512.262695 
	C1057.115601,512.561218 1057.121460,512.859924 1056.816650,513.663635 
	C1056.330811,515.438232 1056.145630,516.708069 1055.960571,517.977905 
	C1055.781494,517.995850 1055.602539,518.013794 1055.119385,517.854858 
	C1054.610962,517.811523 1054.406494,517.945129 1054.201904,518.078735 
	C1053.291626,518.606628 1052.381470,519.134583 1051.189453,519.247070 
	C1050.910889,517.974670 1050.914185,517.117737 1051.231934,516.139648 
	C1052.022339,515.380371 1052.498535,514.742310 1053.002441,513.790527 
	C1053.364380,512.980347 1053.698730,512.483948 1054.416626,512.016235 
	C1055.566895,512.117554 1056.333496,512.190125 1057.100098,512.262695 
z"/>
<path fill="#B2B1B2" opacity="1.000000" stroke="none" 
	d="
M1041.878662,518.555298 
	C1042.436401,517.778870 1043.178345,517.297913 1043.960938,516.357727 
	C1044.001587,515.898438 1044.012207,515.680359 1044.430420,515.777100 
	C1046.258301,516.059937 1047.667969,516.245972 1048.999756,516.712769 
	C1048.216919,517.524536 1047.511963,518.055664 1046.812866,518.582397 
	C1047.542725,518.997498 1048.235107,519.391296 1048.927490,519.785095 
	C1046.639160,519.473633 1044.350952,519.162170 1041.878662,518.555298 
z"/>
<path fill="#ECEBEB" opacity="1.000000" stroke="none" 
	d="
M1056.310913,517.957336 
	C1056.145630,516.708069 1056.330811,515.438232 1056.797119,513.886963 
	C1057.790527,513.708923 1058.502808,513.812378 1059.575928,513.914673 
	C1058.845093,515.254639 1057.753174,516.595703 1056.310913,517.957336 
z"/>
<path fill="#939393" opacity="1.000000" stroke="none" 
	d="
M1049.259033,519.806641 
	C1048.235107,519.391296 1047.542725,518.997498 1046.812866,518.582397 
	C1047.511963,518.055664 1048.216919,517.524536 1049.301025,516.631775 
	C1050.092529,516.267029 1050.505127,516.263916 1050.917603,516.260803 
	C1050.914185,517.117737 1050.910889,517.974670 1050.879150,519.142456 
	C1050.430542,519.578247 1050.010620,519.703186 1049.259033,519.806641 
z"/>
<path fill="#ECEBEB" opacity="1.000000" stroke="none" 
	d="
M1060.286377,513.904968 
	C1060.308716,513.222595 1060.699829,512.503174 1061.368408,511.623199 
	C1061.315796,512.264404 1060.985474,513.066162 1060.286377,513.904968 
z"/>
<path fill="#ECEBEB" opacity="1.000000" stroke="none" 
	d="
M1054.372559,518.077026 
	C1054.406494,517.945129 1054.610962,517.811523 1054.849976,517.872070 
	C1054.884521,518.066284 1054.543213,518.075378 1054.372559,518.077026 
z"/>
<path fill="#F6F6F6" opacity="1.000000" stroke="none" 
	d="
M930.000000,578.277710 
	C915.355774,578.273682 901.210571,578.173401 887.068054,578.328308 
	C883.225647,578.370422 881.646851,577.177429 881.823059,573.181152 
	C882.079468,567.368286 881.972778,561.534241 881.858459,555.712402 
	C881.796875,552.577637 882.922729,551.242676 886.223450,551.250000 
	C920.169373,551.325928 954.115662,551.325562 988.061646,551.257141 
	C991.308167,551.250610 992.526001,552.472351 992.446106,555.671875 
	C992.304871,561.326050 992.162720,567.000244 992.485596,572.639465 
	C992.732727,576.956238 991.382019,578.425171 986.909485,578.371887 
	C968.108582,578.148132 949.303528,578.277466 930.000000,578.277710 
z"/>
<path fill="#F6F6F6" opacity="1.000000" stroke="none" 
	d="
M988.627075,508.427795 
	C990.193481,509.492157 992.187256,510.509613 992.241760,511.622101 
	C992.551025,517.933594 992.327820,524.268921 992.430176,530.593872 
	C992.477661,533.530273 990.991821,534.248352 988.393188,534.245789 
	C954.263000,534.211548 920.132812,534.208069 886.002686,534.258301 
	C882.990295,534.262756 881.822815,533.014282 881.875244,530.066833 
	C881.972961,524.574463 882.153198,519.063293 881.813538,513.590027 
	C881.546082,509.280365 883.250854,508.330231 887.266785,508.346710 
	C920.897034,508.484772 954.528015,508.424927 988.627075,508.427795 
z"/>
<path fill="#F5F5F5" opacity="1.000000" stroke="none" 
	d="
M677.156982,551.285767 
	C709.463318,551.283447 741.289795,551.382568 773.114258,551.170105 
	C778.040100,551.137268 779.539734,552.680115 779.194641,557.431519 
	C778.821411,562.569763 778.872986,567.770935 779.189026,572.917053 
	C779.443359,577.059265 778.046326,578.390808 773.857300,578.363831 
	C748.864197,578.203064 723.869568,578.287964 698.875427,578.289062 
	C690.377441,578.289429 681.876770,578.160645 673.382629,578.340820 
	C669.566833,578.421692 667.880371,577.212463 668.126221,573.180908 
	C668.399536,568.698486 668.190430,564.186829 668.193420,559.687866 
	C668.198975,551.266724 668.199646,551.266724 677.156982,551.285767 
z"/>
<path fill="#F5F5F5" opacity="1.000000" stroke="none" 
	d="
M668.265320,510.605713 
	C669.714783,509.581909 671.122986,508.501160 672.533997,508.497528 
	C707.153625,508.408386 741.773499,508.431824 776.393372,508.451416 
	C777.034790,508.451782 777.676086,508.648376 779.070190,508.876678 
	C779.070190,516.466797 779.224731,524.049500 778.874512,531.608948 
	C778.830811,532.553223 776.131897,534.105042 774.638733,534.134583 
	C763.824341,534.348938 753.003662,534.241089 742.184937,534.241272 
	C719.548889,534.241760 696.911499,534.120483 674.277710,534.347717 
	C669.378296,534.396851 667.809875,532.785400 668.111633,528.022278 
	C668.468628,522.385254 668.214600,516.709534 668.265320,510.605713 
z"/>
<path fill="#F5F5F5" opacity="1.000000" stroke="none" 
	d="
M1041.819702,513.401184 
	C1037.449341,512.000305 1035.187500,507.994965 1036.671021,502.609192 
	C1037.423096,499.879303 1039.707153,497.571442 1041.639893,495.271149 
	C1042.138916,495.977020 1042.296509,496.484528 1042.422852,497.334839 
	C1042.696411,498.222504 1043.001343,498.767334 1042.983887,499.470673 
	C1042.456665,504.080231 1042.251831,508.531311 1041.966797,513.074341 
	C1041.886475,513.166382 1041.819702,513.401184 1041.819702,513.401184 
z"/>
<path fill="#ECEBEB" opacity="1.000000" stroke="none" 
	d="
M1057.378418,511.979340 
	C1056.333496,512.190125 1055.566895,512.117554 1054.391846,511.648071 
	C1053.494873,508.999908 1053.006592,506.748596 1052.806396,504.376831 
	C1053.404175,503.507202 1053.713867,502.758057 1054.296387,501.849609 
	C1054.093018,500.373810 1053.617065,499.057312 1053.131348,497.551331 
	C1053.121826,497.361847 1053.084106,496.984314 1053.329834,496.878784 
	C1054.043457,496.519379 1054.511475,496.265503 1054.979370,496.011658 
	C1060.210571,500.499115 1059.853149,505.940582 1057.378418,511.979340 
z"/>
<path fill="#DDDDDD" opacity="1.000000" stroke="none" 
	d="
M1054.800293,495.697662 
	C1054.511475,496.265503 1054.043457,496.519379 1052.857666,496.835083 
	C1048.911133,496.928619 1045.682617,496.960327 1042.454102,496.992035 
	C1042.296509,496.484528 1042.138916,495.977020 1041.990112,495.197266 
	C1046.336548,491.495453 1050.504272,492.741699 1054.800293,495.697662 
z"/>
<path fill="#DDDDDD" opacity="1.000000" stroke="none" 
	d="
M1044.000732,516.007568 
	C1043.260498,515.409241 1042.521240,514.701660 1041.800781,513.697632 
	C1041.819702,513.401184 1041.886475,513.166382 1042.296387,513.067932 
	C1043.145752,512.995361 1043.585449,513.021240 1044.029297,513.377380 
	C1044.026611,514.365234 1044.019409,515.022766 1044.012207,515.680359 
	C1044.012207,515.680359 1044.001587,515.898438 1044.000732,516.007568 
z"/>
<path fill="#9F9F9F" opacity="1.000000" stroke="none" 
	d="
M1044.025146,513.047119 
	C1043.585449,513.021240 1043.145752,512.995361 1042.376587,512.975952 
	C1042.251831,508.531311 1042.456665,504.080231 1043.475830,499.408112 
	C1044.616943,499.179382 1044.943604,499.171692 1045.181641,499.527374 
	C1044.891724,505.105377 1047.895630,503.871399 1051.051025,503.101135 
	C1051.678101,503.801117 1052.098267,504.149170 1052.518311,504.497253 
	C1053.006592,506.748596 1053.494873,508.999908 1054.008057,511.619385 
	C1053.698730,512.483948 1053.364380,512.980347 1052.684570,513.636902 
	C1050.358154,511.446198 1048.377197,509.095398 1045.960205,506.227173 
	C1045.092163,509.286407 1044.558594,511.166779 1044.025146,513.047119 
z"/>
<path fill="#F6F6F6" opacity="1.000000" stroke="none" 
	d="
M1044.029419,513.377380 
	C1044.558594,511.166779 1045.092163,509.286407 1045.960205,506.227173 
	C1048.377197,509.095398 1050.358154,511.446198 1052.656982,513.950623 
	C1052.498535,514.742310 1052.022339,515.380371 1051.231934,516.139648 
	C1050.505127,516.263916 1050.092529,516.267029 1049.378906,516.351074 
	C1047.667969,516.245972 1046.258301,516.059937 1044.430420,515.777100 
	C1044.019409,515.022766 1044.026611,514.365234 1044.029419,513.377380 
z"/>
<path fill="#939393" opacity="1.000000" stroke="none" 
	d="
M1052.806396,504.376801 
	C1052.098267,504.149170 1051.678101,503.801117 1051.080200,502.719055 
	C1050.931396,497.238770 1047.485962,499.428894 1045.270264,499.164032 
	C1044.943604,499.171692 1044.616943,499.179382 1043.798340,499.249603 
	C1043.001343,498.767334 1042.696411,498.222504 1042.422852,497.334839 
	C1045.682617,496.960327 1048.911133,496.928619 1052.611816,496.940613 
	C1053.084106,496.984314 1053.121826,497.361847 1053.095703,497.942871 
	C1053.387451,499.685577 1053.705566,500.847260 1054.023560,502.008911 
	C1053.713867,502.758057 1053.404175,503.507202 1052.806396,504.376801 
z"/>
<path fill="#9F9F9F" opacity="1.000000" stroke="none" 
	d="
M1054.296387,501.849609 
	C1053.705566,500.847260 1053.387451,499.685577 1053.105225,498.132355 
	C1053.617065,499.057312 1054.093018,500.373810 1054.296387,501.849609 
z"/>
<path fill="#ECEBEB" opacity="1.000000" stroke="none" 
	d="
M1045.181641,499.527374 
	C1047.485962,499.428894 1050.931396,497.238770 1050.873291,502.367188 
	C1047.895630,503.871399 1044.891724,505.105377 1045.181641,499.527374 
z"/>
</svg>