<svg xmlns="http://www.w3.org/2000/svg" height="800" width="1200" viewBox="-39.68745 -66.14575 343.9579 396.8745"><g transform="translate(-1812.514 -1549.278) scale(4.45614)"><path d="M466.12 377.36c0 16.387-13.3 29.687-29.688 29.687-16.387 0-29.687-13.3-29.687-29.687 0-16.388 13.3-29.688 29.687-29.688 16.388 0 29.688 13.3 29.688 29.688z" fill="#a81612"/><path d="M454.43 377.36c0 9.934-8.063 17.997-17.998 17.997-9.934 0-17.997-8.063-17.997-17.997 0-9.935 8.063-17.997 17.997-17.997 9.935 0 17.997 8.062 17.997 17.997z" fill="#fff"/><path d="M453.096 377.36c0 9.198-7.465 16.664-16.664 16.664-9.198 0-16.664-7.466-16.664-16.664 0-9.199 7.466-16.664 16.664-16.664 9.199 0 16.664 7.465 16.664 16.664z" fill="#451400"/><path d="M418.036 369.827a3.508 3.508 0 01-2.005 1.822c-.421.148-.866.21-1.334.187a3.684 3.684 0 01-1.37-.342l-.017-.008a3.592 3.592 0 01-1.14-.812 3.482 3.482 0 01-.712-1.129 3.31 3.31 0 01-.215-1.327c.017-.47.138-.94.363-1.413a4.54 4.54 0 01.445-.751 3.63 3.63 0 01.504-.554 3.14 3.14 0 01.558-.394c.196-.109.4-.2.609-.275l.598 1.322a3.663 3.663 0 00-.866.493c-.243.19-.438.44-.586.75a1.844 1.844 0 00-.04 1.541c.104.24.252.458.445.653.193.196.424.355.691.478l.018.008c.267.123.541.196.82.218.28.021.546-.004.798-.077a1.902 1.902 0 001.191-1.016c.167-.35.243-.677.228-.98a3.755 3.755 0 00-.19-.968l1.291-.452c.097.237.174.471.23.704a3.132 3.132 0 01-.005 1.482 4.349 4.349 0 01-.309.84zm-3.013-8.952l1.052-1.092 2.28 2.279 2.185-2.259-2.279-2.313.947-.881 4.856 4.783-.771.986-1.852-1.71-2.22 2.154 1.816 1.744-1.053 1.092zm8.222-7.036l1.14-.617 3.247 6.078-1.14.617zm8.644.558c.385-.073.7-.226.872-.458a.921.921 0 00.167-.773l-.004-.018c-.07-.327-.235-.554-.493-.682-.26-.127-.617-.154-1.003-.081l-1.186.225.431 2.018 1.216-.231zm-3.461-2.806l2.85-.541c.419-.08.804-.096 1.157-.048.352.047.7.15.972.307.273.158.5.365.683.621.182.257.31.555.382.894l.004.019c.082.383.08.733-.004 1.05a2.058 2.058 0 01-.448.84c-.214.244-.518.447-.839.61-.321.162-.678.28-1.07.355l-1.382.293.387 2.088-1.319.22-1.374-6.708zm12.914.619a2.13 2.13 0 00-.872-.053 1.87 1.87 0 00-.755.285 2.087 2.087 0 00-.573.566c-.158.23-.27.49-.334.782l-.004.02c-.065.291-.075.58-.031.867a2.211 2.211 0 00.843 1.43c.23.181.497.311.798.39.308.081.601.1.878.056a1.87 1.87 0 00.75-.288c.224-.147.415-.335.573-.565a2.2 2.2 0 00.335-.782l.004-.02c.064-.292.074-.58.03-.867a2.213 2.213 0 00-.282-.795 2.286 2.286 0 00-.556-.635 2.16 2.16 0 00-.803-.39zm.326-1.376c.531.14 1 .36 1.404.662.405.301.735.652.99 1.052a3.617 3.617 0 01.479 2.746l-.004.02a3.39 3.39 0 01-1.588 2.214 3.487 3.487 0 01-1.329.454c-.49.067-1 .031-1.531-.108a4.035 4.035 0 01-1.404-.662 3.978 3.978 0 01-.99-1.052 3.617 3.617 0 01-.479-2.746l.004-.02a3.39 3.39 0 011.588-2.214 3.487 3.487 0 011.328-.454 3.897 3.897 0 011.532.108zm7.667 4.138l-2.05-1.215.662-.998 4.994 2.968-.662 1.034-1.726-1.107-2.993 4.845-1.181-.683zm6.473 3.316l.927 1.057-4.324 3.653 2.408 2.723-1.09.814-3.119-3.671zm5.188 7.182l1.855 4.715-1.124.405-1.4-3.435-1.816.71 1.065 2.753-1.196.405-1.065-2.753-1.214.475 1.49 3.554-1.196.405-1.872-4.834z" fill="#fff"/><circle r="15.39" cy="398.738" cx="45.265" transform="translate(410.755 359.695) scale(.0452)" fill="#fff"/><circle r="15.39" cy="398.738" cx="45.265" transform="translate(458.307 359.695) scale(.0452)" fill="#fff"/><path d="M415.745 383.236l.318.85-1.162 1.51 1.868.374.318.85-3.583 1.342-.294-.783 2.34-.876-1.909-.436-.008-.02 1.142-1.566-2.324.87-.29-.772 3.584-1.343zm2.287 5.3l1.623 2.386-.62.422-1.152-1.696-.642.437 1.015 1.492-.62.42-1.014-1.49-.665.451 1.169 1.718-.62.42-1.638-2.408zm2.396 5.905l.32-2.252.728.663-.241 1.458 1.433-.373.708.644-2.205.522-.33 2.345-.728-.663.248-1.547-1.522.388-.707-.644zm4.504 1.306l.715.445-2.022 3.249-.715-.445zm2.975 5.75a1.98 1.98 0 01-.687-.402 1.923 1.923 0 01-.45-.601 1.903 1.903 0 01-.18-.726c-.014-.26.025-.519.115-.776l.004-.01a1.996 1.996 0 01.988-1.135 1.92 1.92 0 01.734-.195c.265-.017.536.023.815.12.168.06.318.127.447.204a1.794 1.794 0 01.593.532c.072.102.135.21.189.32l-.71.407a2.025 2.025 0 00-.326-.45 1.163 1.163 0 00-.455-.281 1.066 1.066 0 00-.869.066c-.129.07-.243.165-.342.283a1.29 1.29 0 00-.23.409l-.004.01c-.054.155-.08.31-.076.466.003.155.033.3.088.436a1.057 1.057 0 00.638.6c.206.072.394.095.563.07.17-.026.348-.08.535-.161l.326.688a2.788 2.788 0 01-.383.167 1.813 1.813 0 01-.833.082 2.49 2.49 0 01-.49-.122zm6.44-.29l-.358-1.292-.652 1.172zm-.612-2.34l.77.091 1.171 4.021-.873-.104-.246-.894-1.607-.192-.449.81-.852-.101 2.086-3.632zm4.08.236l.772-.077 2.017 2.168-.233-2.345.827-.082.378 3.808-.712.07-2.085-2.237.24 2.42-.826.083-.378-3.808zm9.726 1.579a2.182 2.182 0 01-.806.198 1.884 1.884 0 01-.746-.116 1.853 1.853 0 01-.63-.4 2.06 2.06 0 01-.456-.66l-.004-.01a1.964 1.964 0 011.026-2.624c.157-.07.304-.122.442-.158.137-.036.27-.058.398-.067.127-.009.253-.005.376.012s.247.044.371.08l-.224.8a2.12 2.12 0 00-.266-.06 1.335 1.335 0 00-.52.016c-.09.02-.186.053-.286.097a.98.98 0 00-.353.262 1.16 1.16 0 00-.276.818c.007.154.044.306.111.456l.004.01c.071.16.163.296.275.407.111.112.237.197.376.254.14.058.286.086.438.083a1.17 1.17 0 00.464-.107c.286-.128.496-.306.63-.533l-.222-.5-.774.346-.296-.664 1.517-.677.677 1.518a2.793 2.793 0 01-.467.678c-.2.218-.459.4-.778.542zm3.979-4.864c.164-.128.26-.264.287-.41a.499.499 0 00-.11-.413l-.007-.01c-.112-.143-.242-.215-.39-.216-.148 0-.304.063-.468.19l-.66.514.674.868.673-.524zm-2.479-.428l1.381-1.073c.383-.298.756-.424 1.12-.378.306.038.571.202.795.49l.007.008c.19.245.285.49.285.737s-.068.481-.205.703l1.577.506-.777.604-1.399-.464-.009.007-.514.399.752.967-.665.516-2.348-3.022zm3.922-3.355l.55-.637 2.898 2.5-.55.637zm1.868-2.414l.426-.726 2.64 1.548.965-1.646.66.387-1.39 2.372zm2.055-4.013l.264-.8 2.907.96.597-1.812.727.24-.86 2.61z" fill="#fff"/><path d="M432.94 384.307c.007-.169-.204-.595-.353-.743-.117-.118-.254-.353-.351-.547-.156-.311-.381-.542-.508-.86-.145-.58-.421-1.23-.704-1.876-.024-.36-.19-.74-.234-1.094a5.752 5.752 0 01-.04-.743c0-.249.04-.522.04-.781v-1.055c0-.331.156-.609.156-.938 0-.226.388-.542.469-.704.941-.185 1.677-.484 2.658-.586 1.294.037 1.37.168 2.032.234.608.118.882.487 1.368.782.237.118-.103.491-.157.703-.025.189-.165.362-.24.527-.254.555-.627 1.014-.776 1.623-.24.515-.353.646-.586 1.29-.087.174-.185.472-.276.653-.099.198-.05.973.002 1.184.07.276.048.549.157.82.03.077.052.157.078.235.048.2.1.393.156.581.206.701.454 1.326.704 1.881.174.406.41.548-.09.423-.218-.054-.192-.118-.301-.228-.124-.123-.28-.2-.43-.312-.154-.116-.237-.276-.352-.391-.228-.228-.281-.477-.547-.743-.149-.767-.749-1.552-1.133-2.345-.156-.311-.363-.57-.509-.86-.11-.22-.256-.363-.312-.586-.081-.324-.04-.803-.04-1.172-.07-.615-.123-1.039.079-1.602.04-.795.643-.632 1.172-.587.347 0 .51-.019.743.157.535.401.274.344.274.938 0 .28-.055.546-.196.781-.16.267-.279.597-.43.9-.023.045-.039-.433-.039-.548 0-.296-.249-.474-.469-.43-.346.07-.367.233-.508.586-.086.215.074.604.117.821.114.55.54.967 1.055.743.156-.156.313-.38.313-.587 0-.272.169-.558.274-.82.125-.312.267-.668.43-.938.178-.5.499-.99.195-1.603-.202-.47-.415-.839-.899-.977-.185-.037-.83-.03-1.016 0-.617.018-1.116.217-1.72.352-.195.049-.184.31-.234.508-.07.278-.087.58-.156.86-.088.349.052.807-.079 1.133-.099.248-.09.837.04 1.095.155.31.21.684.43.977.381.509.471 1.078.86 1.563.267.335.327.617.507.977l.078.156c.206.412.655.919.86 1.33.143.285.449.619.665.78.241.182.434.427.625.665 1.243.803 2.112.92 2.54.547.208-.207-.234-.533-.312-.586-.362-.342-.631-.863-.821-1.446-.105-.418-.318-.83-.508-1.212-.206-.61-.403-1.226-.43-1.876 0-.349-.027-.605.04-.938.08-.78.814-1.479.94-2.066.187-.25.313-.45.388-.747.563-.483 1.009-1.34 1.26-2.113.053-.214-.284-.469-.361-.623-.08-.16-.38-.38-.547-.547-.165-.165-.201-.357-.352-.508-.154-.155-.442-.365-.625-.274-.225.112-.27.352-.548.352h-.664c-.37 0-.77-.123-1.133-.196-.258-.051-.788-.198-1.017-.312-.205-.103-.525-.012-.781.039-1.302.286-2.658-.21-2.736 1.368-.118.662-.302 1.247-.344 1.913-.055.883.014 1.848-.008 2.737 0 .356.07.662.196.978.17.427.45.81.625 1.25.7 1.032 1.322 1.817 1.915 2.462.214.16.038-.196.43.196z" fill="#fff" fill-rule="evenodd"/><path d="M434.72 371.686l-1.86-1.529-.206.041c-.665.168-1.936.054-2.48.414-.904.515-1.499 1.428-2.15 2.066-.21.105-.117.604-.206.827-.154.385-.127.835-.29 1.24-.172.432-.165 1.087-.165 1.57 0 .719.042 1.434.042 2.15 0 .506.125 1.452.248 1.942-.011 1.356 3.056 4.509 4.794 7.521.248.497.418.504.868.579.096.016.193.028.29.041.627.09.97.455 1.61.455.335 0 .68.17.993.248.32.08.82.041 1.157.041.552 0 1.136-.041 1.694-.041.3 0 .613.064.868 0 .266-.067.644 0 .91 0 .277 0 .642-.124.95-.124.2 0 .556-.504.744-.579.45-.18.674-.683.91-1.074.17-.286.332-.587.413-.91.08-.32.003-.619-.331-.702-.296-.074-.34-.22-.62-.29-.286-.07-.448-.087-.661-.247-.373-.28-.826-.57-1.199-.868a6.97 6.97 0 00-1.24-.786c-.285-.142-.308-.305-.578-.248-.262.056-.403-.626-.29-1.157.084-.39-.092-.458-.206-.744-.27-.658-.593-.313.082-.909.44-.33.803-1.24 1.075-1.694.446-.666 1.057-1.429 1.075-2.108.22-.369.472-1.208.372-1.612-.032-.482-.556-1.39-.992-2.19-.706-.426-.791-1.671-1.488-1.984-.181-.036-.462.012-.579.041-.18.045-.433.661-.62.661.65.685 1.122 1.423 1.612 2.108.37.75.797 1.21.744 2.067-.107 1.136-.906 2.24-1.199 2.727-.04.083-.454.62-.495.703-.165.33-.21.294-.331.537-.115.229-.305.487-.413.703-.11.22-.01.949.04 1.198.074.365.363.293.456.662.074.295 0 .727 0 1.033 0 .264.04.758.04 1.033 0 .272.403.07.62.124.372.093.46.542.91.703.397.141 1.188.86 1.53 1.115.331.25.025-.144-.084.29-1.16.838-2.674.927-4.091.826-2.815-.237-3.008.033-4.092-1.24-1.376-1.923-2.802-3.762-4.174-5.95a48.79 48.79 0 01.083-4.464c0-.8.207-.942.207-1.736.197-1.12 1.167-1.815 2.025-2.108 1.213-.332 2.437-.372 3.678-.372z" fill="#fff" fill-rule="evenodd"/><path d="M432.134 369.629c-.46-.216-1.013-.141-1.488-.064-.147-.029.413-.294.507-.411.186-.233.51-.303.791-.443.414.049 1.042.254 1.456.411.382.096.896.254 1.298.254 1.432-1.32 3.109-2.656 4.748-3.894.257-.1 2.467-.419 3.07-.411.412.206.874.022 1.108.411.412.589 1.378 1.428 1.234 1.9-.008.59-.186 1.193-.348 1.804-.009.018-.898.063-.95.063h-.6c-.249 0-.328-.042-.38-.095.388-.274.62-.488.98-.918.114-.113-.026-.428-.063-.538-.172-.49-.496-.86-.633-1.361-.706.04-1.64.015-2.342.19-.254.101-.497.195-.728.38-.405.432-.527.449-1.171 1.107.068.623-.3 1.213-.222 1.868.335.715.188.525 1.33.633.21.024.531-.022.644.036.044.022.057.06.02.122-.045.079-.025.44-.348.602-.296.148-.997.25-1.33.316l-.157.032c-.217.043-.324.083-.539.126-.652.076-.855.527-1.252.782-.263.17-.81.136-1.248.105-.247 0-.311-.045-.475-.127-.12-.06-.158-.316-.19-.443-.03-.12-.322-.354-.411-.443-.138-.138-.284-.157-.443-.317a5.059 5.059 0 00-.602-.538c-.144-.108-.204-.236-.348-.38-.31-.345-.46-.605-.918-.76z" fill="#fff" fill-rule="evenodd"/></g></svg>