<svg version="1.1" id="Layer_1" xmlns="http://www.w3.org/2000/svg" xmlns:xlink="http://www.w3.org/1999/xlink" x="0px" y="0px"
	 width="100%" viewBox="0 0 1080 1080" enable-background="new 0 0 1080 1080" xml:space="preserve">
<path fill="#FFFFFF" opacity="1.000000" stroke="none" 
	d="
M1.000000,384.000000 
	C1.000000,256.014709 1.000000,128.529419 1.000000,1.022069 
	C360.943726,1.022069 720.887451,1.022069 1080.915527,1.022069 
	C1080.915527,360.902191 1080.915527,720.804443 1080.915527,1080.853271 
	C721.000061,1080.853271 361.000031,1080.853271 1.000000,1080.853271 
	C1.000000,848.778748 1.000000,616.639343 1.000000,384.000000 
M53.278080,578.124329 
	C56.878754,601.807556 59.348896,625.730347 64.305984,649.126160 
	C76.086357,704.725769 98.139305,756.319214 128.820602,804.122742 
	C168.674469,866.217651 219.885574,916.929810 282.519928,956.038269 
	C350.944794,998.762329 425.525024,1022.781433 505.840515,1028.754639 
	C561.470276,1032.892090 616.302368,1027.433105 670.151245,1012.681274 
	C737.129944,994.332703 797.487000,963.097107 851.088684,918.995361 
	C911.716553,869.112671 957.822876,808.160095 989.367249,736.209534 
	C1011.785889,685.074097 1024.687378,631.586853 1028.791138,575.993835 
	C1031.685547,536.783447 1029.615845,497.764404 1023.075500,458.959747 
	C1015.414307,413.505035 1001.654480,369.993835 981.534302,328.571991 
	C947.614197,258.739624 899.890686,200.011887 838.235840,152.781250 
	C772.561707,102.471626 698.770935,70.834763 617.051147,57.933826 
	C574.206909,51.170094 531.201355,50.196850 488.023010,54.907925 
	C436.103851,60.572674 386.374603,74.059334 338.867767,95.663368 
	C283.527802,120.829552 234.452652,155.059082 192.018448,198.610977 
	C119.397934,273.144226 74.691574,361.854401 57.971611,464.566162 
	C51.896065,501.888580 50.619614,539.473145 53.278080,578.124329 
z"/>
<path fill="#AC2419" opacity="1.000000" stroke="none" 
	d="
M53.241364,577.658081 
	C50.619614,539.473145 51.896065,501.888580 57.971611,464.566162 
	C74.691574,361.854401 119.397934,273.144226 192.018448,198.610977 
	C234.452652,155.059082 283.527802,120.829552 338.867767,95.663368 
	C386.374603,74.059334 436.103851,60.572674 488.023010,54.907925 
	C531.201355,50.196850 574.206909,51.170094 617.051147,57.933826 
	C698.770935,70.834763 772.561707,102.471626 838.235840,152.781250 
	C899.890686,200.011887 947.614197,258.739624 981.534302,328.571991 
	C1001.654480,369.993835 1015.414307,413.505035 1023.075500,458.959747 
	C1029.615845,497.764404 1031.685547,536.783447 1028.791138,575.993835 
	C1024.687378,631.586853 1011.785889,685.074097 989.367249,736.209534 
	C957.822876,808.160095 911.716553,869.112671 851.088684,918.995361 
	C797.487000,963.097107 737.129944,994.332703 670.151245,1012.681274 
	C616.302368,1027.433105 561.470276,1032.892090 505.840515,1028.754639 
	C425.525024,1022.781433 350.944794,998.762329 282.519928,956.038269 
	C219.885574,916.929810 168.674469,866.217651 128.820602,804.122742 
	C98.139305,756.319214 76.086357,704.725769 64.305984,649.126160 
	C59.348896,625.730347 56.878754,601.807556 53.241364,577.658081 
M835.282410,564.879517 
	C834.892090,545.259277 835.725830,525.521606 833.857666,506.043152 
	C829.907593,464.857513 816.420349,426.528839 795.257263,390.978241 
	C734.860779,289.521759 623.235718,234.241776 506.278900,247.897675 
	C450.457642,254.415375 400.627716,275.444519 356.698029,310.440674 
	C268.247833,380.903625 227.742493,496.407227 253.152939,606.479858 
	C268.950500,674.911560 304.502441,731.265442 360.076599,774.048584 
	C429.383087,827.403259 507.978149,846.420715 594.044983,831.282532 
	C662.446716,819.251465 719.484192,785.924500 764.828369,733.362610 
	C806.339966,685.243408 829.591675,629.147827 835.282410,564.879517 
M570.944214,115.429298 
	C554.375366,131.523621 548.485901,151.096634 553.913757,173.321869 
	C559.278748,195.289795 574.033264,208.993256 595.777161,214.504440 
	C619.255798,220.455307 639.815063,214.685394 655.738953,196.124146 
	C671.147888,178.163040 673.464294,152.070480 663.096008,131.514313 
	C647.071960,99.745193 600.208984,89.251862 570.944214,115.429298 
M222.261398,275.236755 
	C215.951172,269.062927 209.569229,262.959991 203.364426,256.681976 
	C200.712906,253.999191 198.457092,253.631348 195.832230,256.584869 
	C193.843048,258.823151 191.761200,261.001495 189.538330,263.004242 
	C186.522659,265.721252 186.468185,268.060211 189.527954,270.889404 
	C194.785461,275.750732 199.802795,280.871582 204.928818,285.875366 
	C223.882248,304.376831 242.887665,322.825500 261.745453,341.423920 
	C264.820068,344.456238 267.097443,344.837555 269.903198,341.318756 
	C271.659760,339.115814 273.712769,337.111298 275.832947,335.245209 
	C278.970032,332.484161 278.693665,330.140472 275.746857,327.361450 
	C268.839417,320.847382 262.267273,313.970734 255.235397,307.598450 
	C251.541946,304.251465 251.965118,301.928986 255.241486,298.658936 
	C266.087189,287.834045 276.818115,276.888763 287.365662,265.773834 
	C290.626587,262.337463 292.988281,262.682739 296.028259,265.823730 
	C300.891968,270.849091 305.984833,275.652924 310.991577,280.539398 
	C321.664032,290.955566 319.145142,290.740784 329.396240,280.352875 
	C333.832825,275.857117 333.799377,275.250458 329.200989,270.755798 
	C307.162659,249.214615 285.152039,227.644775 263.040619,206.178818 
	C252.504761,195.950577 255.330505,195.853973 244.701599,206.641144 
	C240.339478,211.068207 240.334717,211.513626 244.698090,215.794968 
	C254.685883,225.594971 264.671570,235.397919 274.753693,245.100357 
	C277.233093,247.486374 277.912720,249.443069 275.203796,252.186646 
	C263.734161,263.802917 252.371063,275.524475 240.989853,287.227783 
	C238.808945,289.470428 236.769104,289.473389 234.550964,287.259796 
	C230.660004,283.376831 226.692200,279.570831 222.261398,275.236755 
M878.183105,438.288055 
	C873.514099,425.829590 868.967773,413.322968 864.107605,400.939545 
	C862.474670,396.778839 863.635010,394.753693 867.660828,393.501373 
	C871.309509,392.366455 874.945068,391.091736 878.413086,389.500916 
	C882.152466,387.785614 884.248718,388.671082 885.653992,392.534149 
	C889.348938,402.691315 893.379578,412.727203 897.018555,422.903625 
	C901.644104,435.839203 900.858093,433.282196 911.419067,429.713257 
	C917.164124,427.771790 917.441223,427.007965 915.328247,421.395782 
	C911.050903,410.035126 906.739990,398.686737 902.540527,387.297272 
	C900.472107,381.687103 900.856445,381.068085 906.580444,378.945679 
	C913.909485,376.228119 921.333069,373.733734 928.528076,370.697968 
	C932.864258,368.868408 934.723022,369.973175 936.265259,374.269897 
	C941.433960,388.669434 946.856140,402.980713 952.370667,417.252563 
	C956.635071,428.288788 956.727783,428.152832 967.693726,423.923431 
	C971.620544,422.408905 972.582336,420.494781 970.985596,416.346710 
	C962.443054,394.153778 954.090942,371.885742 945.911072,349.556519 
	C944.310730,345.188110 942.244934,344.385468 938.048828,345.981689 
	C907.119019,357.747925 876.127502,369.352203 845.166748,381.037354 
	C839.079956,383.334625 838.869324,383.705658 841.116211,389.717957 
	C848.684448,409.968658 856.451172,430.145874 863.914734,450.434814 
	C869.095581,464.518433 867.289124,461.791473 880.526184,457.410034 
	C883.509460,456.422577 884.364563,454.569275 883.202271,451.618622 
	C881.557129,447.442139 880.039307,443.215515 878.183105,438.288055 
M424.737305,193.869659 
	C425.875427,199.578751 426.892426,205.315216 428.175232,210.991623 
	C431.537598,225.870560 427.987915,224.272873 444.139832,221.635620 
	C448.670929,220.895782 449.984161,218.804779 449.010803,214.445068 
	C447.198700,206.328598 445.705475,198.141449 443.982941,190.004181 
	C443.194214,186.278061 444.454590,184.487900 448.312561,183.841049 
	C454.705231,182.769165 461.056488,181.393631 467.366791,179.899353 
	C479.266663,177.081436 489.995758,171.976257 498.347504,162.771347 
	C508.957153,151.077911 510.362793,134.584244 501.311157,121.799072 
	C490.875122,107.058434 475.501221,102.643723 458.581940,104.742447 
	C443.267029,106.642174 428.185425,110.421379 412.999908,113.366592 
	C409.262268,114.091507 408.951324,116.307472 409.648560,119.670380 
	C414.714691,144.104996 419.612152,168.574554 424.737305,193.869659 
M135.835754,353.354401 
	C133.695755,357.108002 131.238098,360.717865 129.464554,364.637329 
	C110.338615,406.904755 143.086807,448.736755 185.804169,446.588654 
	C227.765274,444.478607 245.594162,402.609070 239.587524,374.883606 
	C237.345520,364.534943 237.269928,364.427826 227.430130,367.427521 
	C226.952530,367.573090 226.480240,367.736450 226.001114,367.876617 
	C218.429382,370.091858 218.429184,370.091309 220.294815,377.713898 
	C227.124008,405.616669 207.805725,428.651917 179.762207,426.045227 
	C162.689713,424.458313 147.608948,411.834198 143.378860,395.588715 
	C139.702194,381.468750 146.528442,365.179443 160.029129,355.668701 
	C163.331970,353.342010 168.479294,351.281464 169.184814,348.259521 
	C169.940796,345.021393 166.403976,340.814514 164.837189,336.990845 
	C163.371216,333.413208 161.215057,332.797852 157.756927,334.566925 
	C149.143585,338.973236 141.852203,344.856567 135.835754,353.354401 
M764.639648,188.150543 
	C765.129456,187.279892 765.606384,186.401749 766.111023,185.539780 
	C769.375183,179.965195 769.839111,179.833633 775.309387,183.071838 
	C780.035095,185.869263 784.726562,188.724716 789.464722,191.500656 
	C802.269104,199.002258 799.083130,198.955612 806.890015,186.788116 
	C808.899658,183.655930 808.493530,181.499542 805.067200,179.476257 
	C784.004639,167.038528 763.050842,154.416656 742.029846,141.908264 
	C729.644165,134.538193 732.358704,134.569336 724.867432,146.365372 
	C722.463745,150.150421 723.334717,152.255554 726.995361,154.319656 
	C734.096558,158.323792 740.993713,162.688721 748.071777,166.735458 
	C751.431763,168.656448 751.867981,170.813126 749.908447,174.077072 
	C737.060669,195.477127 724.270203,216.911804 711.528442,238.375214 
	C703.453796,251.977173 703.067627,248.894104 715.873047,256.998779 
	C720.170227,259.718536 722.346985,259.165314 724.902954,254.811050 
	C737.874939,232.712097 751.109497,210.767258 764.639648,188.150543 
M818.013306,350.500763 
	C825.851379,359.447815 824.096069,359.932861 833.520691,351.869934 
	C838.571655,347.548889 838.581421,346.743500 834.367249,341.859375 
	C824.362549,330.264282 814.471313,318.569000 804.315430,307.108093 
	C801.223328,303.618622 801.644775,301.386963 805.044067,298.496246 
	C823.813354,282.535187 842.474548,266.446655 861.124939,250.346329 
	C873.502502,239.661179 873.169434,242.876465 862.156677,229.782303 
	C860.000305,227.218369 858.089600,226.941589 855.456909,229.214401 
	C829.623718,251.517059 803.758911,273.783417 777.818481,295.961182 
	C774.743652,298.589996 775.028503,300.529907 777.506409,303.379852 
	C790.941589,318.832703 804.226196,334.416473 818.013306,350.500763 
M201.792908,650.422852 
	C200.128677,646.151001 198.464432,641.879211 196.707794,637.370239 
	C177.069748,644.701416 157.969330,651.831909 138.536346,659.086548 
	C140.197708,663.496155 141.686127,667.446777 143.255035,671.610962 
	C155.518494,667.093872 167.260147,662.768921 179.001801,658.444031 
	C179.202118,658.758179 179.402420,659.072327 179.602737,659.386475 
	C173.948441,667.227966 168.294159,675.069397 162.370316,683.284668 
	C172.707489,685.702087 182.164536,687.913696 191.621582,690.125305 
	C191.674637,690.441467 191.727692,690.757629 191.780746,691.073792 
	C179.795685,695.609924 167.810608,700.146118 155.474228,704.815247 
	C157.248764,709.343567 158.787781,713.270935 160.419403,717.434570 
	C180.078735,710.090759 199.161285,702.962463 218.532410,695.726379 
	C217.330841,692.360229 216.147202,689.610901 215.378006,686.750061 
	C214.351044,682.930603 212.220840,681.232239 208.151215,680.618774 
	C200.043915,679.396729 192.048660,677.431335 183.326904,675.632690 
	C189.825241,667.016174 195.803482,659.089294 201.792908,650.422852 
M605.053223,912.538940 
	C605.814087,918.882141 606.574951,925.225342 607.335876,931.568604 
	C606.734802,932.010620 606.133789,932.452698 605.532776,932.894775 
	C604.824829,931.587280 604.365662,930.039062 603.370117,929.009888 
	C594.461975,919.802246 585.487366,910.658020 576.447388,901.579773 
	C575.372681,900.500488 573.774109,899.228577 572.444153,899.256836 
	C569.007751,899.329956 565.585754,900.080811 561.462830,900.658325 
	C564.027954,921.323853 566.553772,941.672913 569.119446,962.343079 
	C573.722046,961.727844 577.783691,961.184937 582.501465,960.554321 
	C580.979248,947.781860 579.492676,935.308655 578.144104,923.992981 
	C587.575806,932.920715 597.892273,941.676392 606.915710,951.606995 
	C612.298584,957.531006 617.462646,956.805603 624.035950,955.030029 
	C621.505615,934.651855 618.993591,914.420593 616.424561,893.729980 
	C611.711609,894.313110 607.503540,894.833740 603.051636,895.384583 
	C603.726746,901.109924 604.347900,906.377625 605.053223,912.538940 
M793.515137,856.311157 
	C799.835205,858.374878 806.133057,860.512024 812.494324,862.439880 
	C813.752136,862.821106 815.619629,862.921082 816.578247,862.251770 
	C820.216614,859.711365 823.597290,856.801880 827.711304,853.522766 
	C818.870300,850.676147 810.802856,848.078552 802.567444,845.426880 
	C802.973450,844.231445 803.166016,843.615479 803.390381,843.011292 
	C806.935059,833.463379 804.931824,825.229004 797.456604,818.637695 
	C790.864075,812.824890 782.416565,811.816833 773.913452,817.439514 
	C764.550903,823.630554 755.943726,830.963928 746.892212,837.887756 
	C760.041687,854.499512 772.715881,870.510864 785.622864,886.816345 
	C789.307922,883.897034 792.658752,881.242493 796.280273,878.373535 
	C792.130676,873.000244 788.196350,867.905701 784.044312,862.529419 
	C787.161438,860.284790 789.971252,858.261475 793.515137,856.311157 
M367.705536,193.769135 
	C360.450165,179.934601 353.163818,166.116211 345.949310,152.260422 
	C340.141724,141.106689 340.180298,141.086655 329.263580,146.631439 
	C322.964783,149.830719 322.734802,150.286545 325.915192,156.396744 
	C339.957184,183.374283 353.980835,210.361847 368.162933,237.265778 
	C375.483398,251.153015 372.268829,250.413712 387.139343,242.957977 
	C391.064606,240.989944 391.340454,238.889130 389.276459,235.083450 
	C381.988220,221.644928 375.075958,208.002502 367.705536,193.769135 
M704.765930,862.088745 
	C701.624939,863.171448 698.389282,864.039062 695.358948,865.373230 
	C680.555176,871.890930 672.854248,887.499573 676.810913,902.698181 
	C681.025208,918.886597 694.537354,928.759888 710.950928,926.974182 
	C724.518555,925.497986 734.215210,917.838074 740.881348,906.181030 
	C741.461548,905.166382 741.801941,903.486328 741.369690,902.504700 
	C737.968262,894.780762 734.351440,887.151794 730.697998,879.271545 
	C722.369751,883.129639 714.458862,886.794434 706.259033,890.593079 
	C708.074707,894.492981 709.645142,897.866028 711.210022,901.227173 
	C715.645203,899.255615 719.533691,897.527100 723.353394,895.829163 
	C728.256165,904.218933 727.634399,906.627258 719.638611,911.124146 
	C712.516418,915.129700 705.230286,915.657776 698.533020,910.588989 
	C691.619080,905.356262 688.648804,898.066589 690.366333,889.436707 
	C691.932678,881.566345 697.350830,876.983276 704.930542,875.477295 
	C708.876648,874.693237 713.106873,875.339172 717.565186,875.339172 
	C718.564941,871.567688 719.620056,867.587158 721.023804,862.291443 
	C715.628967,862.176392 710.606995,862.069336 704.765930,862.088745 
M225.523621,754.938049 
	C224.629272,753.561768 223.734924,752.185547 222.643158,750.505432 
	C226.053970,748.149719 229.282532,745.919922 232.852249,743.454529 
	C239.200958,752.648193 245.391418,761.612732 251.780563,770.865051 
	C255.239014,768.481995 258.326721,766.354431 261.806793,763.956482 
	C252.841934,750.895264 244.155563,738.239807 235.242950,725.254700 
	C217.879044,737.146912 201.039886,748.679749 183.871429,760.438049 
	C192.880173,773.589233 201.670059,786.420837 210.727432,799.643005 
	C214.259018,797.122131 217.400787,794.879517 220.644165,792.564331 
	C214.168961,783.062134 208.022217,774.041931 201.702835,764.768372 
	C205.507050,762.185303 208.866531,759.904175 212.393463,757.509399 
	C218.109787,765.771301 223.472839,773.522644 229.061752,781.600403 
	C232.522247,779.223450 235.618790,777.096436 239.025543,774.756409 
	C234.505295,768.110168 230.224991,761.816772 225.523621,754.938049 
M479.616730,921.070007 
	C473.209808,932.201660 466.802856,943.333313 460.074310,955.023743 
	C464.386505,955.541138 467.676208,956.192078 470.969849,956.212524 
	C472.409210,956.221436 474.839935,955.232971 475.148254,954.198792 
	C478.235992,943.841309 485.362946,942.610657 494.384216,945.159058 
	C494.859131,945.293274 495.374512,945.282654 495.870453,945.344421 
	C507.203003,946.755554 507.132202,946.776611 510.346466,957.674988 
	C510.780579,959.146790 512.143005,961.105591 513.424988,961.421814 
	C517.071106,962.320862 520.897888,962.487061 524.581604,962.932983 
	C524.798645,962.247498 525.036011,961.911255 524.964905,961.663452 
	C519.047546,941.041626 513.138855,920.416931 507.074249,899.838318 
	C506.756531,898.760193 505.223175,897.660278 504.036102,897.305603 
	C502.155396,896.743591 500.005493,897.088196 498.119629,896.536316 
	C494.914612,895.598206 493.331879,896.859131 491.849121,899.610718 
	C488.059998,906.642334 483.966949,913.510132 479.616730,921.070007 
M310.184082,827.605591 
	C314.021729,826.721497 317.859406,825.837402 322.350037,824.802917 
	C319.560699,822.177795 317.118408,820.177979 315.041931,817.851624 
	C312.270996,814.747192 309.447144,814.213318 305.414154,815.599060 
	C299.874542,817.502502 294.025574,818.505554 287.663635,820.051208 
	C288.899597,812.807617 290.073151,806.291748 291.076782,799.749878 
	C291.283234,798.404236 291.390503,796.441711 290.625977,795.653625 
	C287.430847,792.359924 283.886078,789.405396 279.871521,785.787781 
	C278.151337,797.296936 276.683044,807.975342 274.833405,818.587158 
	C274.551727,820.203186 272.753174,822.363770 271.227448,822.811584 
	C265.176300,824.587524 258.949005,825.758301 252.798462,827.202271 
	C247.872040,828.358826 242.962219,829.585999 238.045364,830.781677 
	C243.904678,839.875488 251.007507,843.046448 260.944000,838.392151 
	C264.506836,836.723267 268.759674,836.527527 273.304840,835.525574 
	C271.994995,843.332458 270.754272,850.181580 269.764618,857.066772 
	C269.556061,858.517761 269.754425,860.585144 270.649628,861.535217 
	C273.700104,864.772827 277.145630,867.638306 280.785950,870.961243 
	C281.232025,868.819702 281.649963,867.226135 281.887238,865.606140 
	C283.285736,856.058044 284.787750,846.521118 285.927948,836.941528 
	C286.290710,833.893677 287.504211,832.690125 290.405914,832.118469 
	C296.765137,830.865723 303.056122,829.266541 310.184082,827.605591 
M399.725250,875.934875 
	C377.448425,882.776672 371.122437,909.362366 381.983978,925.081421 
	C391.487427,938.835266 412.350250,943.975159 424.875549,935.076172 
	C423.327332,931.703308 421.758423,928.285461 420.235657,924.968079 
	C404.322784,927.967285 395.760132,924.997864 392.204041,915.480286 
	C388.706207,906.118713 392.803436,894.674194 401.375671,889.861877 
	C410.470795,884.755920 418.594360,887.933594 429.028534,900.826965 
	C432.698608,898.822693 436.405243,896.798462 440.062836,894.801025 
	C433.132324,879.758240 416.826935,872.096008 399.725250,875.934875 
M931.244568,671.725830 
	C930.416321,674.154846 929.588135,676.583862 928.767822,678.989685 
	C912.793152,673.545044 897.424316,668.306885 881.606140,662.915527 
	C880.157410,667.372986 878.809875,671.519165 877.368347,675.954529 
	C897.324951,682.761780 916.575806,689.328247 936.161255,696.008789 
	C941.080383,681.587097 945.780151,667.808350 950.618164,653.624451 
	C946.425720,652.249146 942.743469,651.041260 938.820984,649.754517 
	C936.258484,657.197449 933.884338,664.093384 931.244568,671.725830 
M872.938660,760.517029 
	C880.377502,764.928955 887.816406,769.340820 895.518494,773.908875 
	C903.173157,761.060608 910.713074,748.404907 918.420593,735.468018 
	C914.639832,733.277527 911.374207,731.385559 907.718933,729.267822 
	C902.313538,738.210327 897.098938,746.837158 891.755005,755.677979 
	C877.422668,747.175659 863.445068,738.883789 849.066223,730.353943 
	C846.682007,734.344666 844.511536,737.977600 842.093750,742.024475 
	C852.390259,748.197632 862.351013,754.169556 872.938660,760.517029 
M821.171814,790.319702 
	C833.240112,800.798950 845.308411,811.278259 857.732178,822.066162 
	C860.715149,818.605408 863.588806,815.271423 866.670593,811.695923 
	C850.754333,797.883972 835.311829,784.483032 819.657227,770.898071 
	C816.581116,774.496704 813.726379,777.836426 810.764343,781.301697 
	C814.347961,784.413513 817.486572,787.138916 821.171814,790.319702 
M327.585083,902.266907 
	C328.375946,901.524475 329.372528,900.910217 329.926910,900.020447 
	C338.373627,886.463318 346.768311,872.873718 355.160309,859.282593 
	C357.043701,856.232422 358.870422,853.147156 360.902924,849.780396 
	C356.781708,847.268677 353.169678,845.067261 349.329956,842.727051 
	C338.284088,860.543335 327.522095,877.901733 316.608612,895.504456 
	C320.246643,897.793823 323.608795,899.909607 327.585083,902.266907 
M933.387207,534.665344 
	C923.629150,535.756409 918.715393,544.656555 923.827148,551.980957 
	C926.769714,556.197266 931.880554,557.973267 936.517151,556.390747 
	C941.234314,554.780640 944.342529,550.272034 944.150452,545.318115 
	C943.938477,539.848145 940.438232,536.151245 933.387207,534.665344 
M156.389664,553.963074 
	C160.028061,550.510803 161.544632,546.040894 159.074966,541.835266 
	C157.349197,538.896484 153.944550,536.184387 150.705704,535.072754 
	C145.936127,533.435669 141.141022,536.470337 138.890106,541.060059 
	C136.707901,545.509705 137.827454,550.746826 141.688065,554.148560 
	C145.739670,557.718567 150.255005,557.822510 156.389664,553.963074 
z"/>
<path fill="#FDFBFB" opacity="1.000000" stroke="none" 
	d="
M835.238892,565.337280 
	C829.591675,629.147827 806.339966,685.243408 764.828369,733.362610 
	C719.484192,785.924500 662.446716,819.251465 594.044983,831.282532 
	C507.978149,846.420715 429.383087,827.403259 360.076599,774.048584 
	C304.502441,731.265442 268.950500,674.911560 253.152939,606.479858 
	C227.742493,496.407227 268.247833,380.903625 356.698029,310.440674 
	C400.627716,275.444519 450.457642,254.415375 506.278900,247.897675 
	C623.235718,234.241776 734.860779,289.521759 795.257263,390.978241 
	C816.420349,426.528839 829.907593,464.857513 833.857666,506.043152 
	C835.725830,525.521606 834.892090,545.259277 835.238892,565.337280 
M438.081696,796.515930 
	C480.974945,813.664673 525.439148,819.918945 571.306274,814.745789 
	C632.183350,807.879517 685.563171,783.796814 729.728027,741.341370 
	C793.788391,679.760681 822.369202,604.062195 815.076965,515.403137 
	C810.586609,460.809052 790.700989,411.900177 756.273987,369.368805 
	C705.766663,306.971771 640.038879,272.272491 560.038696,266.323700 
	C498.299744,261.732849 440.785858,276.529755 389.383911,311.302612 
	C314.615204,361.882874 273.425201,432.842834 266.301086,522.795654 
	C262.564209,569.979675 271.333069,615.393738 291.884003,658.192444 
	C322.822479,722.623901 371.382843,768.636292 438.081696,796.515930 
z"/>
<path fill="#FDFAFA" opacity="1.000000" stroke="none" 
	d="
M571.194580,115.178650 
	C600.208984,89.251862 647.071960,99.745193 663.096008,131.514313 
	C673.464294,152.070480 671.147888,178.163040 655.738953,196.124146 
	C639.815063,214.685394 619.255798,220.455307 595.777161,214.504440 
	C574.033264,208.993256 559.278748,195.289795 553.913757,173.321869 
	C548.485901,151.096634 554.375366,131.523621 571.194580,115.178650 
M605.010986,119.050873 
	C582.482300,122.912682 569.757935,144.793213 573.253296,166.500916 
	C577.174805,190.854523 603.253662,205.274704 625.089294,195.545746 
	C643.020386,187.556488 652.334595,167.324509 647.367615,147.153412 
	C642.782471,128.532623 626.749207,117.630661 605.010986,119.050873 
z"/>
<path fill="#FDFAFA" opacity="1.000000" stroke="none" 
	d="
M222.509003,275.484680 
	C226.692200,279.570831 230.660004,283.376831 234.550964,287.259796 
	C236.769104,289.473389 238.808945,289.470428 240.989853,287.227783 
	C252.371063,275.524475 263.734161,263.802917 275.203796,252.186646 
	C277.912720,249.443069 277.233093,247.486374 274.753693,245.100357 
	C264.671570,235.397919 254.685883,225.594971 244.698090,215.794968 
	C240.334717,211.513626 240.339478,211.068207 244.701599,206.641144 
	C255.330505,195.853973 252.504761,195.950577 263.040619,206.178818 
	C285.152039,227.644775 307.162659,249.214615 329.200989,270.755798 
	C333.799377,275.250458 333.832825,275.857117 329.396240,280.352875 
	C319.145142,290.740784 321.664032,290.955566 310.991577,280.539398 
	C305.984833,275.652924 300.891968,270.849091 296.028259,265.823730 
	C292.988281,262.682739 290.626587,262.337463 287.365662,265.773834 
	C276.818115,276.888763 266.087189,287.834045 255.241486,298.658936 
	C251.965118,301.928986 251.541946,304.251465 255.235397,307.598450 
	C262.267273,313.970734 268.839417,320.847382 275.746857,327.361450 
	C278.693665,330.140472 278.970032,332.484161 275.832947,335.245209 
	C273.712769,337.111298 271.659760,339.115814 269.903198,341.318756 
	C267.097443,344.837555 264.820068,344.456238 261.745453,341.423920 
	C242.887665,322.825500 223.882248,304.376831 204.928818,285.875366 
	C199.802795,280.871582 194.785461,275.750732 189.527954,270.889404 
	C186.468185,268.060211 186.522659,265.721252 189.538330,263.004242 
	C191.761200,261.001495 193.843048,258.823151 195.832230,256.584869 
	C198.457092,253.631348 200.712906,253.999191 203.364426,256.681976 
	C209.569229,262.959991 215.951172,269.062927 222.509003,275.484680 
z"/>
<path fill="#FCFAFA" opacity="1.000000" stroke="none" 
	d="
M878.325073,438.649200 
	C880.039307,443.215515 881.557129,447.442139 883.202271,451.618622 
	C884.364563,454.569275 883.509460,456.422577 880.526184,457.410034 
	C867.289124,461.791473 869.095581,464.518433 863.914734,450.434814 
	C856.451172,430.145874 848.684448,409.968658 841.116211,389.717957 
	C838.869324,383.705658 839.079956,383.334625 845.166748,381.037354 
	C876.127502,369.352203 907.119019,357.747925 938.048828,345.981689 
	C942.244934,344.385468 944.310730,345.188110 945.911072,349.556519 
	C954.090942,371.885742 962.443054,394.153778 970.985596,416.346710 
	C972.582336,420.494781 971.620544,422.408905 967.693726,423.923431 
	C956.727783,428.152832 956.635071,428.288788 952.370667,417.252563 
	C946.856140,402.980713 941.433960,388.669434 936.265259,374.269897 
	C934.723022,369.973175 932.864258,368.868408 928.528076,370.697968 
	C921.333069,373.733734 913.909485,376.228119 906.580444,378.945679 
	C900.856445,381.068085 900.472107,381.687103 902.540527,387.297272 
	C906.739990,398.686737 911.050903,410.035126 915.328247,421.395782 
	C917.441223,427.007965 917.164124,427.771790 911.419067,429.713257 
	C900.858093,433.282196 901.644104,435.839203 897.018555,422.903625 
	C893.379578,412.727203 889.348938,402.691315 885.653992,392.534149 
	C884.248718,388.671082 882.152466,387.785614 878.413086,389.500916 
	C874.945068,391.091736 871.309509,392.366455 867.660828,393.501373 
	C863.635010,394.753693 862.474670,396.778839 864.107605,400.939545 
	C868.967773,413.322968 873.514099,425.829590 878.325073,438.649200 
z"/>
<path fill="#FDFAFA" opacity="1.000000" stroke="none" 
	d="
M424.650116,193.451355 
	C419.612152,168.574554 414.714691,144.104996 409.648560,119.670380 
	C408.951324,116.307472 409.262268,114.091507 412.999908,113.366592 
	C428.185425,110.421379 443.267029,106.642174 458.581940,104.742447 
	C475.501221,102.643723 490.875122,107.058434 501.311157,121.799072 
	C510.362793,134.584244 508.957153,151.077911 498.347504,162.771347 
	C489.995758,171.976257 479.266663,177.081436 467.366791,179.899353 
	C461.056488,181.393631 454.705231,182.769165 448.312561,183.841049 
	C444.454590,184.487900 443.194214,186.278061 443.982941,190.004181 
	C445.705475,198.141449 447.198700,206.328598 449.010803,214.445068 
	C449.984161,218.804779 448.670929,220.895782 444.139832,221.635620 
	C427.987915,224.272873 431.537598,225.870560 428.175232,210.991623 
	C426.892426,205.315216 425.875427,199.578751 424.650116,193.451355 
M474.143738,157.722778 
	C478.868103,154.091660 481.750916,149.458176 481.955627,143.367737 
	C482.383148,130.648712 473.830078,121.921593 460.609131,122.855698 
	C452.059387,123.459763 443.610779,125.632065 435.148346,127.264923 
	C431.909241,127.889915 431.757599,130.239960 432.372955,133.058014 
	C434.319702,141.973022 436.124084,150.919403 437.946564,159.861176 
	C439.476044,167.365295 439.539825,167.719086 446.984711,165.869904 
	C455.927002,163.648773 464.702576,160.756378 474.143738,157.722778 
z"/>
<path fill="#FCFAFA" opacity="1.000000" stroke="none" 
	d="
M136.030151,353.054504 
	C141.852203,344.856567 149.143585,338.973236 157.756927,334.566925 
	C161.215057,332.797852 163.371216,333.413208 164.837189,336.990845 
	C166.403976,340.814514 169.940796,345.021393 169.184814,348.259521 
	C168.479294,351.281464 163.331970,353.342010 160.029129,355.668701 
	C146.528442,365.179443 139.702194,381.468750 143.378860,395.588715 
	C147.608948,411.834198 162.689713,424.458313 179.762207,426.045227 
	C207.805725,428.651917 227.124008,405.616669 220.294815,377.713898 
	C218.429184,370.091309 218.429382,370.091858 226.001114,367.876617 
	C226.480240,367.736450 226.952530,367.573090 227.430130,367.427521 
	C237.269928,364.427826 237.345520,364.534943 239.587524,374.883606 
	C245.594162,402.609070 227.765274,444.478607 185.804169,446.588654 
	C143.086807,448.736755 110.338615,406.904755 129.464554,364.637329 
	C131.238098,360.717865 133.695755,357.108002 136.030151,353.054504 
z"/>
<path fill="#FCFAFA" opacity="1.000000" stroke="none" 
	d="
M764.445801,188.459488 
	C751.109497,210.767258 737.874939,232.712097 724.902954,254.811050 
	C722.346985,259.165314 720.170227,259.718536 715.873047,256.998779 
	C703.067627,248.894104 703.453796,251.977173 711.528442,238.375214 
	C724.270203,216.911804 737.060669,195.477127 749.908447,174.077072 
	C751.867981,170.813126 751.431763,168.656448 748.071777,166.735458 
	C740.993713,162.688721 734.096558,158.323792 726.995361,154.319656 
	C723.334717,152.255554 722.463745,150.150421 724.867432,146.365372 
	C732.358704,134.569336 729.644165,134.538193 742.029846,141.908264 
	C763.050842,154.416656 784.004639,167.038528 805.067200,179.476257 
	C808.493530,181.499542 808.899658,183.655930 806.890015,186.788116 
	C799.083130,198.955612 802.269104,199.002258 789.464722,191.500656 
	C784.726562,188.724716 780.035095,185.869263 775.309387,183.071838 
	C769.839111,179.833633 769.375183,179.965195 766.111023,185.539780 
	C765.606384,186.401749 765.129456,187.279892 764.445801,188.459488 
z"/>
<path fill="#FCFAFA" opacity="1.000000" stroke="none" 
	d="
M817.787964,350.227966 
	C804.226196,334.416473 790.941589,318.832703 777.506409,303.379852 
	C775.028503,300.529907 774.743652,298.589996 777.818481,295.961182 
	C803.758911,273.783417 829.623718,251.517059 855.456909,229.214401 
	C858.089600,226.941589 860.000305,227.218369 862.156677,229.782303 
	C873.169434,242.876465 873.502502,239.661179 861.124939,250.346329 
	C842.474548,266.446655 823.813354,282.535187 805.044067,298.496246 
	C801.644775,301.386963 801.223328,303.618622 804.315430,307.108093 
	C814.471313,318.569000 824.362549,330.264282 834.367249,341.859375 
	C838.581421,346.743500 838.571655,347.548889 833.520691,351.869934 
	C824.096069,359.932861 825.851379,359.447815 817.787964,350.227966 
z"/>
<path fill="#FCF9F8" opacity="1.000000" stroke="none" 
	d="
M201.787308,650.792603 
	C195.803482,659.089294 189.825241,667.016174 183.326904,675.632690 
	C192.048660,677.431335 200.043915,679.396729 208.151215,680.618774 
	C212.220840,681.232239 214.351044,682.930603 215.378006,686.750061 
	C216.147202,689.610901 217.330841,692.360229 218.532410,695.726379 
	C199.161285,702.962463 180.078735,710.090759 160.419403,717.434570 
	C158.787781,713.270935 157.248764,709.343567 155.474228,704.815247 
	C167.810608,700.146118 179.795685,695.609924 191.780746,691.073792 
	C191.727692,690.757629 191.674637,690.441467 191.621582,690.125305 
	C182.164536,687.913696 172.707489,685.702087 162.370316,683.284668 
	C168.294159,675.069397 173.948441,667.227966 179.602737,659.386475 
	C179.402420,659.072327 179.202118,658.758179 179.001801,658.444031 
	C167.260147,662.768921 155.518494,667.093872 143.255035,671.610962 
	C141.686127,667.446777 140.197708,663.496155 138.536346,659.086548 
	C157.969330,651.831909 177.069748,644.701416 196.707794,637.370239 
	C198.464432,641.879211 200.128677,646.151001 201.787308,650.792603 
z"/>
<path fill="#FCF9F8" opacity="1.000000" stroke="none" 
	d="
M605.011108,912.092102 
	C604.347900,906.377625 603.726746,901.109924 603.051636,895.384583 
	C607.503540,894.833740 611.711609,894.313110 616.424561,893.729980 
	C618.993591,914.420593 621.505615,934.651855 624.035950,955.030029 
	C617.462646,956.805603 612.298584,957.531006 606.915710,951.606995 
	C597.892273,941.676392 587.575806,932.920715 578.144104,923.992981 
	C579.492676,935.308655 580.979248,947.781860 582.501465,960.554321 
	C577.783691,961.184937 573.722046,961.727844 569.119446,962.343079 
	C566.553772,941.672913 564.027954,921.323853 561.462830,900.658325 
	C565.585754,900.080811 569.007751,899.329956 572.444153,899.256836 
	C573.774109,899.228577 575.372681,900.500488 576.447388,901.579773 
	C585.487366,910.658020 594.461975,919.802246 603.370117,929.009888 
	C604.365662,930.039062 604.824829,931.587280 605.532776,932.894775 
	C606.133789,932.452698 606.734802,932.010620 607.335876,931.568604 
	C606.574951,925.225342 605.814087,918.882141 605.011108,912.092102 
z"/>
<path fill="#FCF9F8" opacity="1.000000" stroke="none" 
	d="
M793.148071,856.274658 
	C789.971252,858.261475 787.161438,860.284790 784.044312,862.529419 
	C788.196350,867.905701 792.130676,873.000244 796.280273,878.373535 
	C792.658752,881.242493 789.307922,883.897034 785.622864,886.816345 
	C772.715881,870.510864 760.041687,854.499512 746.892212,837.887756 
	C755.943726,830.963928 764.550903,823.630554 773.913452,817.439514 
	C782.416565,811.816833 790.864075,812.824890 797.456604,818.637695 
	C804.931824,825.229004 806.935059,833.463379 803.390381,843.011292 
	C803.166016,843.615479 802.973450,844.231445 802.567444,845.426880 
	C810.802856,848.078552 818.870300,850.676147 827.711304,853.522766 
	C823.597290,856.801880 820.216614,859.711365 816.578247,862.251770 
	C815.619629,862.921082 813.752136,862.821106 812.494324,862.439880 
	C806.133057,860.512024 799.835205,858.374878 793.148071,856.274658 
M780.000244,850.451355 
	C783.387939,847.522522 787.130676,844.907227 790.067627,841.580505 
	C793.274109,837.948669 792.702454,833.929504 789.364319,830.363647 
	C786.269531,827.057739 782.467468,826.746460 778.939819,829.031738 
	C774.261230,832.062500 769.977234,835.702332 765.393677,839.178955 
	C769.323303,844.127014 772.827576,848.539551 776.394104,853.030396 
	C777.554810,852.220642 778.504883,851.557861 780.000244,850.451355 
z"/>
<path fill="#FCFAFA" opacity="1.000000" stroke="none" 
	d="
M367.863312,194.103271 
	C375.075958,208.002502 381.988220,221.644928 389.276459,235.083450 
	C391.340454,238.889130 391.064606,240.989944 387.139343,242.957977 
	C372.268829,250.413712 375.483398,251.153015 368.162933,237.265778 
	C353.980835,210.361847 339.957184,183.374283 325.915192,156.396744 
	C322.734802,150.286545 322.964783,149.830719 329.263580,146.631439 
	C340.180298,141.086655 340.141724,141.106689 345.949310,152.260422 
	C353.163818,166.116211 360.450165,179.934601 367.863312,194.103271 
z"/>
<path fill="#FCF8F8" opacity="1.000000" stroke="none" 
	d="
M705.175476,862.025513 
	C710.606995,862.069336 715.628967,862.176392 721.023804,862.291443 
	C719.620056,867.587158 718.564941,871.567688 717.565186,875.339172 
	C713.106873,875.339172 708.876648,874.693237 704.930542,875.477295 
	C697.350830,876.983276 691.932678,881.566345 690.366333,889.436707 
	C688.648804,898.066589 691.619080,905.356262 698.533020,910.588989 
	C705.230286,915.657776 712.516418,915.129700 719.638611,911.124146 
	C727.634399,906.627258 728.256165,904.218933 723.353394,895.829163 
	C719.533691,897.527100 715.645203,899.255615 711.210022,901.227173 
	C709.645142,897.866028 708.074707,894.492981 706.259033,890.593079 
	C714.458862,886.794434 722.369751,883.129639 730.697998,879.271545 
	C734.351440,887.151794 737.968262,894.780762 741.369690,902.504700 
	C741.801941,903.486328 741.461548,905.166382 740.881348,906.181030 
	C734.215210,917.838074 724.518555,925.497986 710.950928,926.974182 
	C694.537354,928.759888 681.025208,918.886597 676.810913,902.698181 
	C672.854248,887.499573 680.555176,871.890930 695.358948,865.373230 
	C698.389282,864.039062 701.624939,863.171448 705.175476,862.025513 
z"/>
<path fill="#FCF8F8" opacity="1.000000" stroke="none" 
	d="
M225.734146,755.230713 
	C230.224991,761.816772 234.505295,768.110168 239.025543,774.756409 
	C235.618790,777.096436 232.522247,779.223450 229.061752,781.600403 
	C223.472839,773.522644 218.109787,765.771301 212.393463,757.509399 
	C208.866531,759.904175 205.507050,762.185303 201.702835,764.768372 
	C208.022217,774.041931 214.168961,783.062134 220.644165,792.564331 
	C217.400787,794.879517 214.259018,797.122131 210.727432,799.643005 
	C201.670059,786.420837 192.880173,773.589233 183.871429,760.438049 
	C201.039886,748.679749 217.879044,737.146912 235.242950,725.254700 
	C244.155563,738.239807 252.841934,750.895264 261.806793,763.956482 
	C258.326721,766.354431 255.239014,768.481995 251.780563,770.865051 
	C245.391418,761.612732 239.200958,752.648193 232.852249,743.454529 
	C229.282532,745.919922 226.053970,748.149719 222.643158,750.505432 
	C223.734924,752.185547 224.629272,753.561768 225.734146,755.230713 
z"/>
<path fill="#FCF9F8" opacity="1.000000" stroke="none" 
	d="
M479.806091,920.756714 
	C483.966949,913.510132 488.059998,906.642334 491.849121,899.610718 
	C493.331879,896.859131 494.914612,895.598206 498.119629,896.536316 
	C500.005493,897.088196 502.155396,896.743591 504.036102,897.305603 
	C505.223175,897.660278 506.756531,898.760193 507.074249,899.838318 
	C513.138855,920.416931 519.047546,941.041626 524.964905,961.663452 
	C525.036011,961.911255 524.798645,962.247498 524.581604,962.932983 
	C520.897888,962.487061 517.071106,962.320862 513.424988,961.421814 
	C512.143005,961.105591 510.780579,959.146790 510.346466,957.674988 
	C507.132202,946.776611 507.203003,946.755554 495.870453,945.344421 
	C495.374512,945.282654 494.859131,945.293274 494.384216,945.159058 
	C485.362946,942.610657 478.235992,943.841309 475.148254,954.198792 
	C474.839935,955.232971 472.409210,956.221436 470.969849,956.212524 
	C467.676208,956.192078 464.386505,955.541138 460.074310,955.023743 
	C466.802856,943.333313 473.209808,932.201660 479.806091,920.756714 
M494.768463,919.255249 
	C492.461456,923.347717 490.154419,927.440186 487.562042,932.038818 
	C493.376282,932.809937 498.408173,933.477356 503.947571,934.212036 
	C502.000458,927.116638 500.220062,920.628723 498.150970,913.088867 
	C496.684814,915.722961 495.885132,917.159607 494.768463,919.255249 
z"/>
<path fill="#FCF8F7" opacity="1.000000" stroke="none" 
	d="
M309.779541,827.707153 
	C303.056122,829.266541 296.765137,830.865723 290.405914,832.118469 
	C287.504211,832.690125 286.290710,833.893677 285.927948,836.941528 
	C284.787750,846.521118 283.285736,856.058044 281.887238,865.606140 
	C281.649963,867.226135 281.232025,868.819702 280.785950,870.961243 
	C277.145630,867.638306 273.700104,864.772827 270.649628,861.535217 
	C269.754425,860.585144 269.556061,858.517761 269.764618,857.066772 
	C270.754272,850.181580 271.994995,843.332458 273.304840,835.525574 
	C268.759674,836.527527 264.506836,836.723267 260.944000,838.392151 
	C251.007507,843.046448 243.904678,839.875488 238.045364,830.781677 
	C242.962219,829.585999 247.872040,828.358826 252.798462,827.202271 
	C258.949005,825.758301 265.176300,824.587524 271.227448,822.811584 
	C272.753174,822.363770 274.551727,820.203186 274.833405,818.587158 
	C276.683044,807.975342 278.151337,797.296936 279.871521,785.787781 
	C283.886078,789.405396 287.430847,792.359924 290.625977,795.653625 
	C291.390503,796.441711 291.283234,798.404236 291.076782,799.749878 
	C290.073151,806.291748 288.899597,812.807617 287.663635,820.051208 
	C294.025574,818.505554 299.874542,817.502502 305.414154,815.599060 
	C309.447144,814.213318 312.270996,814.747192 315.041931,817.851624 
	C317.118408,820.177979 319.560699,822.177795 322.350037,824.802917 
	C317.859406,825.837402 314.021729,826.721497 309.779541,827.707153 
z"/>
<path fill="#FCF8F8" opacity="1.000000" stroke="none" 
	d="
M400.133057,875.835571 
	C416.826935,872.096008 433.132324,879.758240 440.062836,894.801025 
	C436.405243,896.798462 432.698608,898.822693 429.028534,900.826965 
	C418.594360,887.933594 410.470795,884.755920 401.375671,889.861877 
	C392.803436,894.674194 388.706207,906.118713 392.204041,915.480286 
	C395.760132,924.997864 404.322784,927.967285 420.235657,924.968079 
	C421.758423,928.285461 423.327332,931.703308 424.875549,935.076172 
	C412.350250,943.975159 391.487427,938.835266 381.983978,925.081421 
	C371.122437,909.362366 377.448425,882.776672 400.133057,875.835571 
z"/>
<path fill="#FCF8F8" opacity="1.000000" stroke="none" 
	d="
M931.377380,671.357605 
	C933.884338,664.093384 936.258484,657.197449 938.820984,649.754517 
	C942.743469,651.041260 946.425720,652.249146 950.618164,653.624451 
	C945.780151,667.808350 941.080383,681.587097 936.161255,696.008789 
	C916.575806,689.328247 897.324951,682.761780 877.368347,675.954529 
	C878.809875,671.519165 880.157410,667.372986 881.606140,662.915527 
	C897.424316,668.306885 912.793152,673.545044 928.767822,678.989685 
	C929.588135,676.583862 930.416321,674.154846 931.377380,671.357605 
z"/>
<path fill="#FCF8F8" opacity="1.000000" stroke="none" 
	d="
M872.625244,760.329224 
	C862.351013,754.169556 852.390259,748.197632 842.093750,742.024475 
	C844.511536,737.977600 846.682007,734.344666 849.066223,730.353943 
	C863.445068,738.883789 877.422668,747.175659 891.755005,755.677979 
	C897.098938,746.837158 902.313538,738.210327 907.718933,729.267822 
	C911.374207,731.385559 914.639832,733.277527 918.420593,735.468018 
	C910.713074,748.404907 903.173157,761.060608 895.518494,773.908875 
	C887.816406,769.340820 880.377502,764.928955 872.625244,760.329224 
z"/>
<path fill="#FCF7F7" opacity="1.000000" stroke="none" 
	d="
M820.898438,790.091980 
	C817.486572,787.138916 814.347961,784.413513 810.764343,781.301697 
	C813.726379,777.836426 816.581116,774.496704 819.657227,770.898071 
	C835.311829,784.483032 850.754333,797.883972 866.670593,811.695923 
	C863.588806,815.271423 860.715149,818.605408 857.732178,822.066162 
	C845.308411,811.278259 833.240112,800.798950 820.898438,790.091980 
z"/>
<path fill="#FCF8F7" opacity="1.000000" stroke="none" 
	d="
M327.278015,902.146118 
	C323.608795,899.909607 320.246643,897.793823 316.608612,895.504456 
	C327.522095,877.901733 338.284088,860.543335 349.329956,842.727051 
	C353.169678,845.067261 356.781708,847.268677 360.902924,849.780396 
	C358.870422,853.147156 357.043701,856.232422 355.160309,859.282593 
	C346.768311,872.873718 338.373627,886.463318 329.926910,900.020447 
	C329.372528,900.910217 328.375946,901.524475 327.278015,902.146118 
z"/>
<path fill="#FCF8F8" opacity="1.000000" stroke="none" 
	d="
M933.758545,534.699829 
	C940.438232,536.151245 943.938477,539.848145 944.150452,545.318115 
	C944.342529,550.272034 941.234314,554.780640 936.517151,556.390747 
	C931.880554,557.973267 926.769714,556.197266 923.827148,551.980957 
	C918.715393,544.656555 923.629150,535.756409 933.758545,534.699829 
z"/>
<path fill="#FCF9F8" opacity="1.000000" stroke="none" 
	d="
M156.104614,554.218506 
	C150.255005,557.822510 145.739670,557.718567 141.688065,554.148560 
	C137.827454,550.746826 136.707901,545.509705 138.890106,541.060059 
	C141.141022,536.470337 145.936127,533.435669 150.705704,535.072754 
	C153.944550,536.184387 157.349197,538.896484 159.074966,541.835266 
	C161.544632,546.040894 160.028061,550.510803 156.104614,554.218506 
z"/>
<path fill="#451601" opacity="1.000000" stroke="none" 
	d="
M437.743347,796.329895 
	C371.382843,768.636292 322.822479,722.623901 291.884003,658.192444 
	C271.333069,615.393738 262.564209,569.979675 266.301086,522.795654 
	C273.425201,432.842834 314.615204,361.882874 389.383911,311.302612 
	C440.785858,276.529755 498.299744,261.732849 560.038696,266.323700 
	C640.038879,272.272491 705.766663,306.971771 756.273987,369.368805 
	C790.700989,411.900177 810.586609,460.809052 815.076965,515.403137 
	C822.369202,604.062195 793.788391,679.760681 729.728027,741.341370 
	C685.563171,783.796814 632.183350,807.879517 571.306274,814.745789 
	C525.439148,819.918945 480.974945,813.664673 437.743347,796.329895 
M432.429749,651.097534 
	C442.623444,665.100220 452.640778,679.236084 463.076691,693.055847 
	C469.387848,701.413452 475.051392,711.130432 483.324005,716.930237 
	C495.410034,725.403687 508.881348,732.654724 524.649170,732.934875 
	C530.125488,733.032227 535.592529,733.909607 541.054565,734.513794 
	C565.267090,737.192139 589.522949,739.005737 613.870911,736.892639 
	C623.720581,736.037781 633.744629,734.373413 640.945557,726.905579 
	C646.448792,721.198425 651.407227,714.719299 655.401123,707.878967 
	C658.770081,702.108887 660.733826,695.424683 662.676636,688.952148 
	C663.776062,685.289490 662.692200,682.369324 657.708313,681.719727 
	C653.500549,681.171265 649.132263,679.789856 645.439209,677.706299 
	C627.633789,667.660339 610.104309,657.126099 592.327454,647.028198 
	C584.128906,642.371094 579.952454,635.454529 579.797913,626.323547 
	C579.640869,617.044312 579.201233,608.055847 572.001526,601.033813 
	C571.914551,600.948975 571.975952,600.711914 571.928223,599.699524 
	C584.817017,595.518250 587.335510,583.044556 592.460205,572.369446 
	C595.331970,566.387329 597.944946,559.944336 602.206848,555.040833 
	C609.571411,546.567688 614.045471,536.973267 616.611145,526.354126 
	C620.054138,512.103333 622.979492,497.792816 611.157471,485.490326 
	C610.265442,484.561981 609.814514,483.200470 609.194641,482.021362 
	C604.471069,473.035828 599.977112,463.919617 594.947510,455.109100 
	C592.373108,450.599487 588.845032,446.634338 586.006287,442.774323 
	C587.336426,442.613281 589.995850,442.410736 592.609314,441.948944 
	C597.419250,441.099060 602.257568,440.079926 604.693420,435.130951 
	C605.374329,433.747589 606.053223,431.621490 605.451172,430.570343 
	C604.916870,429.637573 602.614014,429.463013 601.075134,429.406006 
	C595.433411,429.197174 589.713501,429.707184 584.155640,428.960052 
	C576.044067,427.869690 570.322083,418.881989 572.213745,411.138824 
	C574.148804,403.218323 576.095154,395.298370 578.228516,387.430237 
	C578.726624,385.593292 579.607178,383.513733 580.983215,382.319519 
	C587.893188,376.322571 594.891235,370.408173 602.127014,364.812134 
	C607.102905,360.963806 612.942017,359.141083 619.358582,359.141937 
	C627.355713,359.143036 635.356750,358.982544 643.347717,358.673828 
	C646.053955,358.569275 647.566956,359.387360 648.743408,361.894012 
	C651.853577,368.520844 655.268188,375.004395 658.533752,381.558868 
	C662.470825,389.461060 662.390503,389.904755 655.662964,395.860382 
	C651.749512,399.324768 647.773926,402.718933 643.183960,406.702087 
	C653.783630,406.702087 663.306335,406.702087 673.013367,406.702087 
	C675.493530,397.618378 678.215393,388.692413 680.216614,379.607697 
	C680.736023,377.249939 679.603638,374.002533 678.192322,371.841278 
	C673.461365,364.596130 667.978027,357.838928 663.309448,350.557251 
	C656.866638,340.508362 646.617004,338.601135 636.454041,339.145081 
	C623.039917,339.863098 609.724548,342.584900 596.400146,344.659363 
	C594.246826,344.994598 591.953979,346.053955 590.252869,347.430267 
	C565.518127,367.442047 540.888977,387.584534 516.166138,407.611176 
	C514.737000,408.768799 512.773132,409.697815 510.968506,409.889435 
	C500.149078,411.038269 489.835693,409.456818 480.256439,403.880859 
	C477.256744,402.134766 473.937653,400.877686 470.652344,399.713959 
	C469.480652,399.298859 467.699493,399.366364 466.670410,399.992493 
	C461.055786,403.408630 455.588898,407.067566 450.071198,410.643005 
	C463.003479,408.929901 474.342499,411.925995 483.388123,422.306152 
	C481.364319,422.842621 479.187256,423.660645 476.939758,423.975098 
	C465.233978,425.612976 453.496338,427.028595 441.805481,428.762115 
	C439.644348,429.082550 437.198273,430.032379 435.646149,431.498749 
	C424.868683,441.680756 414.175079,451.959686 403.753204,462.502777 
	C401.718689,464.560913 400.070007,467.824310 399.805237,470.676819 
	C397.805634,492.216583 396.302643,513.801819 394.425415,535.353821 
	C393.272095,548.594666 390.692871,561.745056 394.088074,575.073120 
	C395.726807,581.506165 396.429291,588.173096 397.720734,594.701538 
	C398.193970,597.093811 398.667419,599.700012 399.951202,601.684265 
	C410.528259,618.032593 421.296021,634.257446 432.429749,651.097534 
z"/>
<path fill="#AD251A" opacity="1.000000" stroke="none" 
	d="
M605.459473,119.006592 
	C626.749207,117.630661 642.782471,128.532623 647.367615,147.153412 
	C652.334595,167.324509 643.020386,187.556488 625.089294,195.545746 
	C603.253662,205.274704 577.174805,190.854523 573.253296,166.500916 
	C569.757935,144.793213 582.482300,122.912682 605.459473,119.006592 
z"/>
<path fill="#AD261C" opacity="1.000000" stroke="none" 
	d="
M473.847046,157.938705 
	C464.702576,160.756378 455.927002,163.648773 446.984711,165.869904 
	C439.539825,167.719086 439.476044,167.365295 437.946564,159.861176 
	C436.124084,150.919403 434.319702,141.973022 432.372955,133.058014 
	C431.757599,130.239960 431.909241,127.889915 435.148346,127.264923 
	C443.610779,125.632065 452.059387,123.459763 460.609131,122.855698 
	C473.830078,121.921593 482.383148,130.648712 481.955627,143.367737 
	C481.750916,149.458176 478.868103,154.091660 473.847046,157.938705 
z"/>
<path fill="#AE291F" opacity="1.000000" stroke="none" 
	d="
M779.727600,850.673218 
	C778.504883,851.557861 777.554810,852.220642 776.394104,853.030396 
	C772.827576,848.539551 769.323303,844.127014 765.393677,839.178955 
	C769.977234,835.702332 774.261230,832.062500 778.939819,829.031738 
	C782.467468,826.746460 786.269531,827.057739 789.364319,830.363647 
	C792.702454,833.929504 793.274109,837.948669 790.067627,841.580505 
	C787.130676,844.907227 783.387939,847.522522 779.727600,850.673218 
z"/>
<path fill="#B13026" opacity="1.000000" stroke="none" 
	d="
M494.926971,918.925781 
	C495.885132,917.159607 496.684814,915.722961 498.150970,913.088867 
	C500.220062,920.628723 502.000458,927.116638 503.947571,934.212036 
	C498.408173,933.477356 493.376282,932.809937 487.562042,932.038818 
	C490.154419,927.440186 492.461456,923.347717 494.926971,918.925781 
z"/>
<path fill="#FBFAFA" opacity="1.000000" stroke="none" 
	d="
M432.217834,650.808655 
	C421.296021,634.257446 410.528259,618.032593 399.951202,601.684265 
	C398.667419,599.700012 398.193970,597.093811 397.720734,594.701538 
	C396.429291,588.173096 395.726807,581.506165 394.088074,575.073120 
	C390.692871,561.745056 393.272095,548.594666 394.425415,535.353821 
	C396.302643,513.801819 397.805634,492.216583 399.805237,470.676819 
	C400.070007,467.824310 401.718689,464.560913 403.753204,462.502777 
	C414.175079,451.959686 424.868683,441.680756 435.646149,431.498749 
	C437.198273,430.032379 439.644348,429.082550 441.805481,428.762115 
	C453.496338,427.028595 465.233978,425.612976 476.939758,423.975098 
	C479.187256,423.660645 481.364319,422.842621 483.388123,422.306152 
	C474.342499,411.925995 463.003479,408.929901 450.071198,410.643005 
	C455.588898,407.067566 461.055786,403.408630 466.670410,399.992493 
	C467.699493,399.366364 469.480652,399.298859 470.652344,399.713959 
	C473.937653,400.877686 477.256744,402.134766 480.256439,403.880859 
	C489.835693,409.456818 500.149078,411.038269 510.968506,409.889435 
	C512.773132,409.697815 514.737000,408.768799 516.166138,407.611176 
	C540.888977,387.584534 565.518127,367.442047 590.252869,347.430267 
	C591.953979,346.053955 594.246826,344.994598 596.400146,344.659363 
	C609.724548,342.584900 623.039917,339.863098 636.454041,339.145081 
	C646.617004,338.601135 656.866638,340.508362 663.309448,350.557251 
	C667.978027,357.838928 673.461365,364.596130 678.192322,371.841278 
	C679.603638,374.002533 680.736023,377.249939 680.216614,379.607697 
	C678.215393,388.692413 675.493530,397.618378 673.013367,406.702087 
	C663.306335,406.702087 653.783630,406.702087 643.183960,406.702087 
	C647.773926,402.718933 651.749512,399.324768 655.662964,395.860382 
	C662.390503,389.904755 662.470825,389.461060 658.533752,381.558868 
	C655.268188,375.004395 651.853577,368.520844 648.743408,361.894012 
	C647.566956,359.387360 646.053955,358.569275 643.347717,358.673828 
	C635.356750,358.982544 627.355713,359.143036 619.358582,359.141937 
	C612.942017,359.141083 607.102905,360.963806 602.127014,364.812134 
	C594.891235,370.408173 587.893188,376.322571 580.983215,382.319519 
	C579.607178,383.513733 578.726624,385.593292 578.228516,387.430237 
	C576.095154,395.298370 574.148804,403.218323 572.213745,411.138824 
	C570.322083,418.881989 576.044067,427.869690 584.155640,428.960052 
	C589.713501,429.707184 595.433411,429.197174 601.075134,429.406006 
	C602.614014,429.463013 604.916870,429.637573 605.451172,430.570343 
	C606.053223,431.621490 605.374329,433.747589 604.693420,435.130951 
	C602.257568,440.079926 597.419250,441.099060 592.609314,441.948944 
	C589.995850,442.410736 587.336426,442.613281 586.006287,442.774323 
	C588.845032,446.634338 592.373108,450.599487 594.947510,455.109100 
	C599.977112,463.919617 604.471069,473.035828 609.194641,482.021362 
	C609.814514,483.200470 610.265442,484.561981 611.157471,485.490326 
	C622.979492,497.792816 620.054138,512.103333 616.611145,526.354126 
	C614.045471,536.973267 609.571411,546.567688 602.206848,555.040833 
	C597.944946,559.944336 595.331970,566.387329 592.460205,572.369446 
	C587.335510,583.044556 584.817017,595.518250 571.928223,599.699524 
	C571.975952,600.711914 571.914551,600.948975 572.001526,601.033813 
	C579.201233,608.055847 579.640869,617.044312 579.797913,626.323547 
	C579.952454,635.454529 584.128906,642.371094 592.327454,647.028198 
	C610.104309,657.126099 627.633789,667.660339 645.439209,677.706299 
	C649.132263,679.789856 653.500549,681.171265 657.708313,681.719727 
	C662.692200,682.369324 663.776062,685.289490 662.676636,688.952148 
	C660.733826,695.424683 658.770081,702.108887 655.401123,707.878967 
	C651.407227,714.719299 646.448792,721.198425 640.945557,726.905579 
	C633.744629,734.373413 623.720581,736.037781 613.870911,736.892639 
	C589.522949,739.005737 565.267090,737.192139 541.054565,734.513794 
	C535.592529,733.909607 530.125488,733.032227 524.649170,732.934875 
	C508.881348,732.654724 495.410034,725.403687 483.324005,716.930237 
	C475.051392,711.130432 469.387848,701.413452 463.076691,693.055847 
	C452.640778,679.236084 442.623444,665.100220 432.217834,650.808655 
M585.411499,479.130066 
	C577.601929,468.841339 569.792419,458.552582 561.684753,447.871094 
	C556.862366,451.172028 551.902222,453.418457 548.540588,457.117676 
	C542.354309,463.925232 535.017456,463.914703 527.085327,462.764862 
	C518.065796,461.457397 515.950073,459.437866 514.445618,450.289642 
	C514.029541,447.759644 513.238708,446.457611 510.318878,446.659485 
	C491.876404,447.934509 473.426056,449.099884 454.973846,450.228333 
	C447.212952,450.702942 440.503540,452.685455 435.738770,459.686615 
	C430.876740,466.830750 425.176636,473.399872 420.025848,480.355804 
	C418.917816,481.852112 418.171722,483.882416 417.974976,485.742493 
	C416.994171,495.014679 415.900726,504.296783 415.495300,513.603638 
	C414.466705,537.215759 413.570923,560.839233 413.155670,584.467468 
	C413.078979,588.831482 414.694946,593.721802 416.955933,597.520081 
	C420.852539,604.066162 426.038849,609.828430 430.386108,616.125183 
	C447.598602,641.056641 464.780457,666.010376 481.782684,691.085266 
	C486.742371,698.399841 493.281677,702.729248 501.814453,704.741089 
	C529.218262,711.202393 557.118164,713.312256 585.101868,713.159363 
	C597.551758,713.091431 608.329468,706.476929 617.212891,697.687683 
	C621.349304,693.595032 620.645752,690.617432 615.772766,687.083313 
	C607.956909,681.415100 600.170166,675.706726 592.360046,670.030518 
	C585.327026,664.919067 579.231934,657.875854 568.407715,659.473694 
	C569.171631,656.615295 569.827026,654.645813 570.210083,652.624695 
	C570.914551,648.907654 572.651367,644.875366 571.840027,641.480469 
	C569.644836,632.294556 567.229797,622.958496 563.260254,614.447632 
	C557.551270,602.207397 560.336365,592.011353 567.821350,582.020569 
	C570.910217,577.897705 574.010193,573.756775 576.734070,569.392456 
	C581.755310,561.347473 586.243530,552.962158 591.429443,545.029480 
	C597.883667,535.156494 601.121155,524.287048 602.472412,512.768982 
	C602.702881,510.804779 602.026733,508.454346 601.051819,506.675720 
	C596.093750,497.630280 590.899475,488.714294 585.411499,479.130066 
z"/>
<path fill="#471804" opacity="1.000000" stroke="none" 
	d="
M585.599731,479.441528 
	C590.899475,488.714294 596.093750,497.630280 601.051819,506.675720 
	C602.026733,508.454346 602.702881,510.804779 602.472412,512.768982 
	C601.121155,524.287048 597.883667,535.156494 591.429443,545.029480 
	C586.243530,552.962158 581.755310,561.347473 576.734070,569.392456 
	C574.010193,573.756775 570.910217,577.897705 567.821350,582.020569 
	C560.336365,592.011353 557.551270,602.207397 563.260254,614.447632 
	C567.229797,622.958496 569.644836,632.294556 571.840027,641.480469 
	C572.651367,644.875366 570.914551,648.907654 570.210083,652.624695 
	C569.827026,654.645813 569.171631,656.615295 568.407715,659.473694 
	C579.231934,657.875854 585.327026,664.919067 592.360046,670.030518 
	C600.170166,675.706726 607.956909,681.415100 615.772766,687.083313 
	C620.645752,690.617432 621.349304,693.595032 617.212891,697.687683 
	C608.329468,706.476929 597.551758,713.091431 585.101868,713.159363 
	C557.118164,713.312256 529.218262,711.202393 501.814453,704.741089 
	C493.281677,702.729248 486.742371,698.399841 481.782684,691.085266 
	C464.780457,666.010376 447.598602,641.056641 430.386108,616.125183 
	C426.038849,609.828430 420.852539,604.066162 416.955933,597.520081 
	C414.694946,593.721802 413.078979,588.831482 413.155670,584.467468 
	C413.570923,560.839233 414.466705,537.215759 415.495300,513.603638 
	C415.900726,504.296783 416.994171,495.014679 417.974976,485.742493 
	C418.171722,483.882416 418.917816,481.852112 420.025848,480.355804 
	C425.176636,473.399872 430.876740,466.830750 435.738770,459.686615 
	C440.503540,452.685455 447.212952,450.702942 454.973846,450.228333 
	C473.426056,449.099884 491.876404,447.934509 510.318878,446.659485 
	C513.238708,446.457611 514.029541,447.759644 514.445618,450.289642 
	C515.950073,459.437866 518.065796,461.457397 527.085327,462.764862 
	C535.017456,463.914703 542.354309,463.925232 548.540588,457.117676 
	C551.902222,453.418457 556.862366,451.172028 561.684753,447.871094 
	C569.792419,458.552582 577.601929,468.841339 585.599731,479.441528 
M520.016479,570.524963 
	C523.536499,560.302673 527.231323,550.136414 530.532288,539.843933 
	C534.666931,526.952209 524.532898,512.399048 510.853333,511.972321 
	C502.736755,511.719086 494.548035,512.241333 486.457153,513.060791 
	C474.146027,514.307678 471.443359,516.813354 468.883331,528.923767 
	C465.549561,544.694397 465.217255,560.684082 466.691803,576.671936 
	C467.030731,580.346558 468.471313,584.148193 470.260986,587.423645 
	C482.629913,610.060852 494.612793,632.943787 507.929932,655.017700 
	C519.938232,674.922058 535.669006,690.974731 560.697815,693.404236 
	C563.829834,693.708191 568.493652,693.400879 570.044495,691.458191 
	C572.724304,688.101379 569.695557,684.319885 567.335144,681.239014 
	C566.735291,680.456116 565.839294,679.905579 565.198242,679.147705 
	C563.070801,676.632751 560.415222,674.359558 558.994751,671.483643 
	C546.664429,646.520264 536.905884,620.762329 537.441711,592.339539 
	C537.525146,587.910950 538.819641,583.063232 540.972412,579.199646 
	C547.045227,568.301025 554.070557,557.937561 560.316956,547.130005 
	C566.723633,536.045227 572.801453,524.760620 578.648804,513.371338 
	C579.651733,511.417847 579.735718,507.878296 578.602234,506.145416 
	C574.785583,500.310333 570.470337,494.747437 565.868164,489.499329 
	C562.837158,486.042938 559.133789,483.110260 555.448425,480.316498 
	C552.929382,478.406952 550.031006,478.646606 547.834290,481.200409 
	C544.474426,485.106354 540.057434,486.064789 535.233643,486.046753 
	C521.640625,485.995911 508.988007,482.228210 496.821167,476.434692 
	C495.252838,475.687958 493.325073,474.907867 491.718292,475.153503 
	C477.743927,477.289948 463.780121,479.519928 449.867767,482.025238 
	C444.527802,482.986908 441.093964,486.355530 439.975586,491.960510 
	C438.869232,497.505280 437.370483,502.970490 436.158234,508.495728 
	C434.484253,516.125610 431.948090,523.727661 431.540039,531.434753 
	C430.978424,542.042542 432.522186,552.745483 432.333832,563.393005 
	C432.028992,580.623840 436.719421,596.669678 445.480225,610.922668 
	C454.063477,624.886719 464.828552,637.529663 474.936584,650.518433 
	C476.767548,652.871216 480.049347,654.094910 482.661346,655.839844 
	C482.394196,653.407227 481.393799,651.755920 480.309875,650.161316 
	C454.301575,611.901489 440.884583,570.389343 447.722595,523.681274 
	C448.394806,519.089661 449.297974,514.506836 450.475037,510.019897 
	C452.417145,502.616547 456.554352,497.772583 465.014160,497.543793 
	C469.467438,497.423401 473.939636,496.420990 478.319641,495.442383 
	C498.717743,490.884796 519.032532,490.967194 539.008911,497.233337 
	C545.089661,499.140717 550.749817,502.594574 556.331726,505.810333 
	C559.785522,507.800049 561.047852,510.684448 558.887207,515.047058 
	C552.538025,527.866821 546.709778,540.943909 540.622437,553.894348 
	C532.615295,570.929077 521.954529,587.281494 527.042480,607.622742 
	C527.082153,607.781372 527.064087,607.954529 527.071594,608.121033 
	C527.703735,622.050415 530.280090,635.471924 536.470581,648.151001 
	C539.528320,654.413757 541.838074,661.052063 544.289124,667.594299 
	C544.994934,669.478210 545.014709,671.619080 545.418213,674.060486 
	C543.589905,673.868835 542.471924,674.054016 541.694946,673.623596 
	C533.526123,669.098999 525.350037,664.507141 520.443176,656.071960 
	C511.068665,639.956726 501.568146,623.908936 492.535095,607.603088 
	C486.685089,597.043152 479.799988,586.730530 480.364655,573.772766 
	C480.893829,561.629883 481.267120,549.480286 481.744141,537.335022 
	C481.802795,535.841370 482.049072,534.352112 482.258850,532.867920 
	C482.811707,528.956360 484.888611,526.222778 488.932373,525.956116 
	C495.374786,525.531250 501.982361,524.645020 508.252350,525.640442 
	C512.258423,526.276306 516.177673,529.506653 519.410950,532.387390 
	C522.641785,535.265930 523.421509,539.099060 521.506470,543.689331 
	C518.630615,550.582581 516.671814,557.853638 514.168030,564.909058 
	C513.049927,568.059692 511.555145,571.076660 510.231293,574.154297 
	C508.762665,570.557190 508.297943,567.315857 507.998474,564.059265 
	C507.587097,559.586060 503.829346,559.732971 500.936707,559.225098 
	C499.352051,558.946777 496.255585,559.733398 495.989502,560.658081 
	C493.345367,569.846252 492.395447,579.094727 498.728577,587.349976 
	C503.299927,593.308777 510.813538,592.441162 513.978455,585.607666 
	C516.142883,580.934326 517.861267,576.054382 520.016479,570.524963 
z"/>
<path fill="#F9F8F8" opacity="1.000000" stroke="none" 
	d="
M519.897766,570.895874 
	C517.861267,576.054382 516.142883,580.934326 513.978455,585.607666 
	C510.813538,592.441162 503.299927,593.308777 498.728577,587.349976 
	C492.395447,579.094727 493.345367,569.846252 495.989502,560.658081 
	C496.255585,559.733398 499.352051,558.946777 500.936707,559.225098 
	C503.829346,559.732971 507.587097,559.586060 507.998474,564.059265 
	C508.297943,567.315857 508.762665,570.557190 510.231293,574.154297 
	C511.555145,571.076660 513.049927,568.059692 514.168030,564.909058 
	C516.671814,557.853638 518.630615,550.582581 521.506470,543.689331 
	C523.421509,539.099060 522.641785,535.265930 519.410950,532.387390 
	C516.177673,529.506653 512.258423,526.276306 508.252350,525.640442 
	C501.982361,524.645020 495.374786,525.531250 488.932373,525.956116 
	C484.888611,526.222778 482.811707,528.956360 482.258850,532.867920 
	C482.049072,534.352112 481.802795,535.841370 481.744141,537.335022 
	C481.267120,549.480286 480.893829,561.629883 480.364655,573.772766 
	C479.799988,586.730530 486.685089,597.043152 492.535095,607.603088 
	C501.568146,623.908936 511.068665,639.956726 520.443176,656.071960 
	C525.350037,664.507141 533.526123,669.098999 541.694946,673.623596 
	C542.471924,674.054016 543.589905,673.868835 545.418213,674.060486 
	C545.014709,671.619080 544.994934,669.478210 544.289124,667.594299 
	C541.838074,661.052063 539.528320,654.413757 536.470581,648.151001 
	C530.280090,635.471924 527.703735,622.050415 527.071594,608.121033 
	C527.064087,607.954529 527.082153,607.781372 527.042480,607.622742 
	C521.954529,587.281494 532.615295,570.929077 540.622437,553.894348 
	C546.709778,540.943909 552.538025,527.866821 558.887207,515.047058 
	C561.047852,510.684448 559.785522,507.800049 556.331726,505.810333 
	C550.749817,502.594574 545.089661,499.140717 539.008911,497.233337 
	C519.032532,490.967194 498.717743,490.884796 478.319641,495.442383 
	C473.939636,496.420990 469.467438,497.423401 465.014160,497.543793 
	C456.554352,497.772583 452.417145,502.616547 450.475037,510.019897 
	C449.297974,514.506836 448.394806,519.089661 447.722595,523.681274 
	C440.884583,570.389343 454.301575,611.901489 480.309875,650.161316 
	C481.393799,651.755920 482.394196,653.407227 482.661346,655.839844 
	C480.049347,654.094910 476.767548,652.871216 474.936584,650.518433 
	C464.828552,637.529663 454.063477,624.886719 445.480225,610.922668 
	C436.719421,596.669678 432.028992,580.623840 432.333832,563.393005 
	C432.522186,552.745483 430.978424,542.042542 431.540039,531.434753 
	C431.948090,523.727661 434.484253,516.125610 436.158234,508.495728 
	C437.370483,502.970490 438.869232,497.505280 439.975586,491.960510 
	C441.093964,486.355530 444.527802,482.986908 449.867767,482.025238 
	C463.780121,479.519928 477.743927,477.289948 491.718292,475.153503 
	C493.325073,474.907867 495.252838,475.687958 496.821167,476.434692 
	C508.988007,482.228210 521.640625,485.995911 535.233643,486.046753 
	C540.057434,486.064789 544.474426,485.106354 547.834290,481.200409 
	C550.031006,478.646606 552.929382,478.406952 555.448425,480.316498 
	C559.133789,483.110260 562.837158,486.042938 565.868164,489.499329 
	C570.470337,494.747437 574.785583,500.310333 578.602234,506.145416 
	C579.735718,507.878296 579.651733,511.417847 578.648804,513.371338 
	C572.801453,524.760620 566.723633,536.045227 560.316956,547.130005 
	C554.070557,557.937561 547.045227,568.301025 540.972412,579.199646 
	C538.819641,583.063232 537.525146,587.910950 537.441711,592.339539 
	C536.905884,620.762329 546.664429,646.520264 558.994751,671.483643 
	C560.415222,674.359558 563.070801,676.632751 565.198242,679.147705 
	C565.839294,679.905579 566.735291,680.456116 567.335144,681.239014 
	C569.695557,684.319885 572.724304,688.101379 570.044495,691.458191 
	C568.493652,693.400879 563.829834,693.708191 560.697815,693.404236 
	C535.669006,690.974731 519.938232,674.922058 507.929932,655.017700 
	C494.612793,632.943787 482.629913,610.060852 470.260986,587.423645 
	C468.471313,584.148193 467.030731,580.346558 466.691803,576.671936 
	C465.217255,560.684082 465.549561,544.694397 468.883331,528.923767 
	C471.443359,516.813354 474.146027,514.307678 486.457153,513.060791 
	C494.548035,512.241333 502.736755,511.719086 510.853333,511.972321 
	C524.532898,512.399048 534.666931,526.952209 530.532288,539.843933 
	C527.231323,550.136414 523.536499,560.302673 519.897766,570.895874 
z"/>
</svg>