<svg version="1.1" id="Layer_1" xmlns="http://www.w3.org/2000/svg" xmlns:xlink="http://www.w3.org/1999/xlink" x="0px" y="0px"
	 width="100%" viewBox="0 0 1080 1080" enable-background="new 0 0 1080 1080" xml:space="preserve">
<path fill="#FEFEFF" opacity="1.000000" stroke="none" 
	d="
M1.000000,395.000000 
	C1.000000,263.348480 1.000000,132.196945 1.000000,1.045408 
	C1.151512,1.030272 1.303023,1.001867 1.454535,1.001867 
	C361.246338,0.999994 721.038147,1.000000 1080.915039,1.000000 
	C1080.915039,360.901764 1080.915039,720.803528 1080.915039,1080.852661 
	C721.000061,1080.852661 361.000031,1080.852661 1.000000,1080.852661 
	C1.000000,852.446228 1.000000,623.973083 1.000000,395.000000 
M895.029114,286.623962 
	C888.014099,289.015717 880.999084,291.407440 873.199036,293.771301 
	C865.067261,296.578613 856.935486,299.385925 847.986633,302.234039 
	C839.323669,305.145569 830.660767,308.057098 821.249390,311.034424 
	C815.107117,313.222229 808.964783,315.410034 802.049133,317.637604 
	C798.320557,318.946014 794.592041,320.254425 790.076111,321.642914 
	C786.045410,323.030823 782.014648,324.418732 777.199585,325.796936 
	C770.461243,328.134796 763.722961,330.472626 756.199768,332.800140 
	C754.769958,333.240509 753.330566,333.652374 751.911621,334.125366 
	C683.574402,356.906464 615.241150,379.699432 546.893250,402.448517 
	C544.720032,403.171844 542.398560,403.449860 539.537476,403.506256 
	C524.390808,398.550171 509.244110,393.594055 493.511749,388.147217 
	C488.015259,386.409912 482.518738,384.672638 476.491852,382.458344 
	C470.994629,380.718048 465.497375,378.977753 459.407104,376.771942 
	C454.373169,375.458282 449.339264,374.144592 443.933807,372.135712 
	C438.672577,370.310303 433.411316,368.484894 427.625946,366.186554 
	C422.750702,364.799622 417.875458,363.412689 412.272156,361.829071 
	C409.566101,360.772766 406.860046,359.716431 403.624725,358.190674 
	C401.782074,357.674500 399.939453,357.158325 397.551483,356.161316 
	C394.082214,355.329681 390.612946,354.498047 386.750519,353.020447 
	C378.840912,350.325134 370.931305,347.629852 362.495178,344.453766 
	C351.063843,340.745117 339.632507,337.036499 327.698151,332.887817 
	C317.470612,329.570435 307.243103,326.253052 296.480133,322.451508 
	C289.658905,320.278717 282.837708,318.105927 275.489777,315.455780 
	C268.074982,313.092041 260.660217,310.728271 252.723877,307.917236 
	C242.492477,304.589233 232.261093,301.261261 221.504593,297.449921 
	C175.668243,282.143341 129.831894,266.836731 83.555351,251.383133 
	C83.417763,253.655045 83.270126,254.959595 83.269699,256.264160 
	C83.255600,299.528992 83.252182,342.793793 83.269661,386.058624 
	C83.270187,387.373688 83.510239,388.688690 83.374382,390.907684 
	C83.467819,400.935822 83.561256,410.963928 83.378944,421.895294 
	C83.471077,429.274200 83.563217,436.653076 83.379822,444.922882 
	C83.472275,451.959717 83.564728,458.996521 83.382507,466.924530 
	C83.472954,476.629486 83.563408,486.334412 83.385406,496.931610 
	C83.476105,508.286011 83.566803,519.640381 83.385910,531.896118 
	C83.557823,539.936951 83.729736,547.977844 84.123398,556.712585 
	C97.340637,561.249878 110.524269,565.888000 123.780266,570.309082 
	C261.576782,616.265869 399.383636,662.191711 537.202637,708.080994 
	C539.181335,708.739746 541.596680,709.601501 543.393005,709.040039 
	C552.752136,706.114746 561.976624,702.758667 572.030090,699.513672 
	C578.352722,697.334412 584.675354,695.155090 591.754456,692.994507 
	C599.176086,690.371277 606.597656,687.748047 614.800781,685.225037 
	C616.234802,684.794067 617.681274,684.400269 619.101135,683.926880 
	C668.854431,667.337524 718.602783,650.733093 768.357056,634.146667 
	C843.699341,609.030212 919.030884,583.880920 994.427551,558.928467 
	C998.894775,557.450012 1000.229065,555.470886 1000.109192,550.871521 
	C999.766602,537.724792 1000.005798,524.563293 999.985229,511.407623 
	C999.940247,482.602325 999.876160,453.797028 999.950806,424.068451 
	C999.905029,419.377350 999.859192,414.686279 999.949829,409.095642 
	C999.905640,406.063416 999.861511,403.031158 999.956604,399.118622 
	C999.910278,396.743927 999.863953,394.369202 999.955444,391.074860 
	C999.910217,386.714233 999.864990,382.353607 999.955139,377.066772 
	C999.908569,371.375183 999.862000,365.683594 999.952332,359.065948 
	C999.906372,353.374969 999.860413,347.683990 999.953857,341.069214 
	C999.907837,336.044037 999.861816,331.018829 999.956360,325.067902 
	C999.908142,319.375397 999.859924,313.682892 999.953247,307.063904 
	C999.953247,288.727264 999.953247,270.390656 999.953247,251.230698 
	C973.400818,260.277496 947.664490,269.046204 921.151306,277.776733 
	C912.707275,280.719543 904.263184,283.662354 895.029114,286.623962 
M299.227020,678.803284 
	C297.006195,678.230408 294.785370,677.657532 292.100800,676.542480 
	C288.741882,675.339294 285.382935,674.136108 281.488922,672.460632 
	C275.667969,670.617310 269.847015,668.773987 263.490082,666.459473 
	C203.667618,646.488708 143.845154,626.517944 83.294617,606.304138 
	C83.294617,608.866211 83.294388,610.486389 83.294647,612.106628 
	C83.307716,695.415833 83.318764,778.725098 83.348976,862.034302 
	C83.349571,863.684448 83.574608,865.334473 83.408936,867.883606 
	C83.507690,876.582947 83.606438,885.282227 83.416458,894.868896 
	C83.516350,899.597961 83.616249,904.327087 83.469818,909.732117 
	C83.596405,910.180664 83.722992,910.629272 84.010445,911.771484 
	C85.324974,912.223511 86.639496,912.675537 88.510269,913.573975 
	C238.446457,963.569824 388.381805,1013.568176 538.330017,1063.527954 
	C539.844666,1064.032593 541.724060,1064.624268 543.101624,1064.170044 
	C553.498779,1060.740723 563.812744,1057.059570 574.947205,1053.417725 
	C580.992859,1051.356567 587.038513,1049.295288 593.856628,1047.263062 
	C597.572205,1045.884766 601.287720,1044.506470 605.719360,1043.267212 
	C607.862732,1042.477539 610.006104,1041.687866 612.960999,1040.870361 
	C616.022888,1039.733154 619.084778,1038.596069 622.927490,1037.421021 
	C625.953247,1036.323975 628.979004,1035.226929 632.774414,1034.259277 
	C635.849365,1033.159668 638.924377,1032.060059 642.750793,1030.982178 
	C646.576721,1029.613281 650.402710,1028.244385 655.043884,1026.843140 
	C660.754761,1024.859009 666.465637,1022.874756 672.998901,1020.856079 
	C685.049561,1016.764709 697.100220,1012.673401 709.949890,1008.555969 
	C805.393066,976.748413 900.829651,944.920959 996.307434,913.217590 
	C999.599731,912.124329 1000.059692,910.393799 1000.051147,907.410645 
	C999.962830,876.594788 1000.015076,845.778442 999.989502,814.962280 
	C999.976257,798.975037 999.885925,782.987732 999.975830,766.073059 
	C999.927429,752.715454 999.879028,739.357788 999.975769,725.072693 
	C999.927307,715.381470 999.878845,705.690186 999.975159,695.071655 
	C999.927063,686.048035 999.878967,677.024414 999.976868,667.073364 
	C999.976868,647.060791 999.976868,627.048157 999.976868,606.585632 
	C997.491089,607.337646 995.745605,607.820496 994.029541,608.391846 
	C974.616882,614.854675 955.199219,621.302795 935.804382,627.818909 
	C928.729797,630.195801 921.712402,632.743164 913.888428,635.240417 
	C901.591309,639.457703 889.294128,643.674988 876.217224,647.779114 
	C861.762817,652.674316 847.308411,657.569580 832.054016,662.458740 
	C816.456055,667.623718 800.846680,672.754883 785.267761,677.976624 
	C781.209412,679.336975 777.245728,680.979553 772.505127,682.353088 
	C770.280334,683.044434 768.042480,683.696533 765.832642,684.432739 
	C692.845581,708.750488 619.863037,733.081726 546.867737,757.374878 
	C544.683472,758.101868 542.370728,758.442627 539.729797,758.488586 
	C539.149353,758.381470 538.568909,758.274353 537.381836,757.745972 
	C471.227814,735.679138 405.074249,713.611084 338.915405,691.558655 
	C337.984009,691.248230 336.986603,691.135864 335.487915,690.456421 
	C329.666718,688.615601 323.845551,686.774780 317.493103,684.462463 
	C313.994080,683.384338 310.495056,682.306152 306.415710,680.768921 
	C304.277130,680.180420 302.138580,679.591919 299.227020,678.803284 
M232.389297,198.498779 
	C232.389297,204.618057 232.389297,210.737320 232.389297,217.104797 
	C245.656387,217.104797 258.370056,217.104797 271.291443,217.104797 
	C271.391205,215.492447 271.540955,214.191483 271.541809,212.890427 
	C271.556458,190.230515 271.536896,167.570572 271.573456,144.910721 
	C271.578003,142.085220 271.617188,139.222122 272.054871,136.441711 
	C273.658630,126.254242 281.577271,119.047577 291.353485,118.658653 
	C301.811768,118.242592 308.449127,123.500580 311.149414,134.538086 
	C311.777527,137.105392 312.235565,139.786118 312.256775,142.418808 
	C312.442108,165.407928 312.510864,188.397980 312.612091,211.387756 
	C312.620544,213.312820 312.613190,215.237946 312.613190,216.982849 
	C326.095184,216.982849 338.808624,216.982849 351.494293,216.982849 
	C351.494293,189.222382 351.637115,161.909103 351.379089,134.599579 
	C351.324646,128.837891 350.286163,122.966850 348.861389,117.359573 
	C344.974762,102.063820 336.966888,89.912926 320.481873,86.411766 
	C302.798157,82.656029 287.118835,87.022362 274.426117,100.382202 
	C273.805450,101.035500 273.762482,102.237648 273.450500,103.184219 
	C272.784302,102.747726 272.118103,102.311226 271.451904,101.874733 
	C271.451904,81.875275 271.451904,61.875816 271.451904,41.166756 
	C259.793365,45.194824 249.034073,49.125126 238.123047,52.575596 
	C233.850800,53.926636 232.223785,55.721249 232.248703,60.540733 
	C232.484848,106.192558 232.389420,151.846115 232.389297,198.498779 
M110.063103,63.557919 
	C96.762726,75.566559 88.559593,90.485687 84.671883,107.893578 
	C81.735771,121.040474 81.433929,134.249878 82.978752,147.619186 
	C86.888954,181.459106 109.676979,209.062424 142.205673,218.512085 
	C163.038483,224.564072 184.035141,224.157425 204.928467,218.671219 
	C214.621170,216.126099 214.619232,215.914093 212.879028,205.961624 
	C211.342712,197.175217 209.674622,188.411850 208.038483,179.495209 
	C181.118469,191.581787 150.811996,185.994629 137.273376,167.797485 
	C123.963867,149.908279 122.995903,117.427002 135.500244,98.681625 
	C140.940399,90.526253 148.301682,84.657997 157.496445,81.314079 
	C174.458694,75.145332 191.164383,76.810692 208.086685,83.928558 
	C210.124542,72.421234 212.191589,61.330711 213.900528,50.185287 
	C214.068542,49.089603 212.244019,46.821316 210.996353,46.515091 
	C202.306320,44.382214 193.599136,41.567230 184.758026,40.941738 
	C157.405533,39.006607 132.056549,44.805889 110.063103,63.557919 
M392.173859,207.343857 
	C419.409546,230.609116 467.773682,223.435272 487.869720,213.377274 
	C488.722412,212.950516 489.867401,211.641373 489.742096,210.948395 
	C488.035522,201.510178 486.128510,192.108215 484.195251,182.313843 
	C482.143158,183.230652 480.670197,183.904678 479.184753,184.549835 
	C467.203827,189.753326 454.648315,192.569534 441.680878,190.951782 
	C434.909119,190.106979 427.987274,187.938248 421.891968,184.863419 
	C414.889618,181.331070 411.394318,174.630081 410.836670,166.038971 
	C413.109192,166.038971 414.909119,166.038971 416.709076,166.038971 
	C441.535492,166.038940 466.361908,166.035294 491.188324,166.044754 
	C493.542938,166.045654 495.755127,166.430054 495.999207,162.792938 
	C496.875610,149.734756 496.465698,136.828064 492.486389,124.236244 
	C486.271637,104.570610 474.057404,90.811310 453.521851,85.818245 
	C438.396240,82.140572 423.359741,83.132866 408.827118,88.813332 
	C392.606964,95.153419 381.419006,106.662918 374.881195,122.797493 
	C369.738831,135.488159 368.912811,148.736115 370.171661,162.097366 
	C371.816620,179.556793 377.991577,195.063293 392.173859,207.343857 
M782.126343,221.416763 
	C789.257385,221.794724 796.433411,222.878036 803.511658,222.427307 
	C832.537720,220.578964 853.738525,203.781036 860.349792,176.165070 
	C862.860779,165.676178 863.342896,154.366028 862.764343,143.536270 
	C861.061707,111.664284 839.637878,88.572868 808.419678,84.730103 
	C799.630920,83.648254 790.333496,83.871338 781.629700,85.464500 
	C756.881714,89.994461 740.667297,105.030869 734.305298,129.269302 
	C731.690979,139.229446 730.963745,150.009827 731.291321,160.356537 
	C732.291870,191.963745 751.473755,214.771973 782.126343,221.416763 
M999.477539,130.098709 
	C999.310120,128.608490 999.152832,127.117035 998.973572,125.628235 
	C996.427246,104.478882 985.296082,90.030502 968.148865,86.379211 
	C950.194702,82.556091 934.897949,87.677101 922.431030,101.151192 
	C920.800049,102.913971 919.336914,104.832047 917.267029,107.312080 
	C916.831177,100.872414 916.454163,95.301834 916.063416,89.527733 
	C903.845337,89.527733 891.938049,89.527733 880.598633,89.527733 
	C880.598633,132.241272 880.598633,174.638184 880.598633,217.106064 
	C894.158325,217.106064 906.761475,217.106064 919.925659,217.106064 
	C919.925659,215.085434 919.925354,213.299255 919.925720,211.513077 
	C919.930176,188.516129 919.968628,165.519104 919.919067,142.522278 
	C919.903992,135.535324 921.856018,129.379181 926.919678,124.424599 
	C937.848816,113.730858 954.870483,117.903564 959.018494,132.570572 
	C960.443909,137.610580 960.860046,143.067337 960.911011,148.341705 
	C961.115356,169.503586 960.995728,190.668625 960.995789,211.832489 
	C960.995789,213.599487 960.995789,215.366486 960.995789,217.103638 
	C974.304199,217.103638 986.912598,217.103638 999.620117,217.103638 
	C999.620117,188.243637 999.620117,159.625244 999.477539,130.098709 
M619.698059,129.228378 
	C624.101929,116.050377 628.505737,102.872383 633.018433,89.368744 
	C618.349854,89.368744 604.380615,89.368744 590.007385,89.368744 
	C582.245972,119.269119 574.495667,149.126541 566.745361,178.983963 
	C565.426819,177.927490 565.099854,177.023712 564.859985,176.097382 
	C557.858215,149.054321 550.746643,122.038559 543.985291,94.935440 
	C542.837524,90.334259 541.000793,88.908112 536.287231,89.086235 
	C525.639282,89.488640 514.965576,89.200249 504.302490,89.227798 
	C502.885681,89.231453 501.469391,89.438477 499.830658,89.569016 
	C499.962402,90.624916 499.936066,91.294189 500.135590,91.887497 
	C513.864197,132.706436 527.631287,173.512466 541.307373,214.348969 
	C542.163635,216.905807 543.573242,217.491791 546.059265,217.472366 
	C559.387451,217.368271 572.718262,217.320084 586.044800,217.500702 
	C589.118835,217.542358 590.306580,216.494049 591.251709,213.648895 
	C600.530212,185.717804 609.974060,157.841660 619.698059,129.228378 
M692.419067,131.930710 
	C701.855957,122.289062 713.796875,122.760147 725.881836,124.391014 
	C725.881836,111.555351 725.881836,99.457779 725.881836,87.122536 
	C703.867493,83.287888 689.286255,91.979401 680.737610,112.613731 
	C679.838745,105.843506 679.984314,99.405647 679.716125,92.985069 
	C679.662354,91.698273 678.056885,89.409248 677.126770,89.388550 
	C665.858337,89.137794 654.582397,89.225952 643.837524,89.225952 
	C643.837524,132.199356 643.837524,174.572128 643.837524,217.039703 
	C657.403809,217.039703 670.103027,217.039703 683.063110,217.039703 
	C683.063110,214.836304 683.062866,213.015381 683.063171,211.194458 
	C683.066040,193.205292 683.038574,175.216064 683.084656,157.227005 
	C683.108398,147.947784 685.461792,139.454071 692.419067,131.930710 
z"/>
<path fill="#2FA1D3" opacity="1.000000" stroke="none" 
	d="
M999.819824,424.991730 
	C999.876160,453.797028 999.940247,482.602325 999.985229,511.407623 
	C1000.005798,524.563293 999.766602,537.724792 1000.109192,550.871521 
	C1000.229065,555.470886 998.894775,557.450012 994.427551,558.928467 
	C919.030884,583.880920 843.699341,609.030212 768.357056,634.146667 
	C718.602783,650.733093 668.854431,667.337524 619.101135,683.926880 
	C617.681274,684.400269 616.234802,684.794067 614.370117,684.809387 
	C612.159912,683.044128 610.573059,681.188416 608.570007,680.425354 
	C593.211853,674.574524 577.768433,668.947876 562.359863,663.229248 
	C539.170654,654.622925 515.981506,646.016235 492.804504,637.377197 
	C459.826599,625.084900 426.863647,612.752563 393.886780,600.457458 
	C367.910004,590.772278 341.913483,581.139954 315.940643,571.444153 
	C277.369568,557.045166 238.795395,542.654053 200.271317,528.130310 
	C196.020966,526.527832 192.089523,524.079590 188.344757,521.871094 
	C197.457870,518.490540 206.236420,515.262512 215.405060,512.027222 
	C231.863037,506.680298 247.930908,501.340637 264.346497,495.876495 
	C267.515106,494.840088 270.349274,493.967072 273.154633,493.009521 
	C286.772491,488.361420 300.382690,483.690765 314.374908,478.999634 
	C330.503815,473.635162 346.253357,468.299072 362.393494,462.989532 
	C372.888214,459.725189 383.021515,456.520599 393.086761,453.114746 
	C400.452484,450.622375 407.728760,447.865570 415.444214,445.186584 
	C416.970856,444.904175 418.127930,444.754883 419.221039,444.405518 
	C435.605927,439.168793 452.013367,433.999939 468.353302,428.625977 
	C490.540466,421.328918 512.679993,413.886597 534.821106,406.450500 
	C536.669250,405.829865 538.374573,404.783813 540.146240,403.935425 
	C542.398560,403.449860 544.720032,403.171844 546.893250,402.448517 
	C615.241150,379.699432 683.574402,356.906464 751.911621,334.125366 
	C753.330566,333.652374 754.769958,333.240509 756.602783,333.193542 
	C758.788635,335.046082 760.345581,337.107452 762.388306,337.873322 
	C789.702148,348.114258 817.113220,358.095581 844.442200,368.296570 
	C890.404480,385.452728 936.308044,402.766144 982.285706,419.880859 
	C987.976074,421.999023 993.967773,423.307892 999.819824,424.991730 
z"/>
<path fill="#E5192F" opacity="1.000000" stroke="none" 
	d="
M999.830444,767.000488 
	C999.885925,782.987732 999.976257,798.975037 999.989502,814.962280 
	C1000.015076,845.778442 999.962830,876.594788 1000.051147,907.410645 
	C1000.059692,910.393799 999.599731,912.124329 996.307434,913.217590 
	C900.829651,944.920959 805.393066,976.748413 709.493042,1008.163208 
	C707.420471,1006.572571 705.973450,1004.926025 704.163208,1004.244751 
	C681.183105,995.595825 658.136536,987.123657 635.134827,978.531616 
	C594.570496,963.379333 554.035889,948.147644 513.468994,933.002136 
	C481.761353,921.164124 450.014648,909.430847 418.301941,897.606384 
	C379.437958,883.115356 340.579651,868.608887 301.750000,854.026184 
	C296.050781,851.885803 290.523895,849.286499 285.000641,846.551270 
	C286.670563,845.430908 288.193420,844.468140 289.852753,843.914001 
	C371.702789,816.579041 453.567139,789.287109 535.406799,761.921204 
	C537.115723,761.349792 538.553528,759.967468 540.117859,758.963440 
	C542.370728,758.442627 544.683472,758.101868 546.867737,757.374878 
	C619.863037,733.081726 692.845581,708.750488 765.832642,684.432739 
	C768.042480,683.696533 770.280334,683.044434 773.238770,682.643982 
	C779.907043,685.429932 785.767090,688.123474 791.788635,690.387390 
	C827.169312,703.688904 862.590759,716.881592 897.992188,730.127808 
	C925.009583,740.236938 951.990417,750.444885 979.049011,760.442261 
	C985.854797,762.956848 992.896912,764.831604 999.830444,767.000488 
z"/>
<path fill="#9E1B36" opacity="1.000000" stroke="none" 
	d="
M336.020020,690.930969 
	C336.986603,691.135864 337.984009,691.248230 338.915405,691.558655 
	C405.074249,713.611084 471.227814,735.679138 537.605103,758.298950 
	C536.232117,759.606018 534.694153,760.534302 533.031433,761.089111 
	C449.031281,789.118164 365.018372,817.109070 281.025238,845.158997 
	C279.226318,845.759644 277.640961,846.999695 275.623535,847.963013 
	C274.511200,848.302429 273.731293,848.620300 272.707550,848.955933 
	C272.463715,848.973755 271.975586,849.002441 271.656586,849.011841 
	C270.912140,849.029114 270.486694,849.037048 269.677979,849.066711 
	C235.196945,860.387451 201.099182,871.686401 167.036041,882.633911 
	C167.883194,880.854370 168.472870,879.227722 169.541916,878.028259 
	C183.994217,861.812683 198.508499,845.652344 213.016937,829.486816 
	C224.756775,816.406067 236.508148,803.335571 248.256699,790.262634 
	C263.109406,773.735596 277.928894,757.178528 292.828888,740.694214 
	C306.288086,725.803955 319.866821,711.021545 333.295807,696.104248 
	C334.559753,694.700195 335.128510,692.670288 336.020020,690.930969 
z"/>
<path fill="#E51B30" opacity="1.000000" stroke="none" 
	d="
M83.694946,866.984558 
	C83.574608,865.334473 83.349571,863.684448 83.348976,862.034302 
	C83.318764,778.725098 83.307716,695.415833 83.294647,612.106628 
	C83.294388,610.486389 83.294617,608.866211 83.294617,606.304138 
	C143.845154,626.517944 203.667618,646.488708 263.718567,667.048828 
	C259.080353,673.476440 254.355759,679.440857 249.313278,685.123230 
	C241.930206,693.443298 234.244553,701.494324 226.822083,709.780151 
	C213.651886,724.482361 200.631424,739.318665 187.455017,754.015198 
	C177.371506,765.262085 167.098999,776.339294 156.991852,787.565247 
	C142.782669,803.347229 128.619629,819.171021 114.495216,835.028992 
	C107.658524,842.704773 101.110115,850.643188 94.118988,858.172852 
	C91.045807,861.482849 87.193504,864.069519 83.694946,866.984558 
z"/>
<path fill="#1674B2" opacity="1.000000" stroke="none" 
	d="
M571.247925,699.552429 
	C561.976624,702.758667 552.752136,706.114746 543.393005,709.040039 
	C541.596680,709.601501 539.181335,708.739746 537.202637,708.080994 
	C399.383636,662.191711 261.576782,616.265869 123.780266,570.309082 
	C110.524269,565.888000 97.340637,561.249878 84.357964,556.226868 
	C87.732193,554.494934 90.871857,553.248657 94.401825,551.995483 
	C106.542534,546.968262 119.088783,545.120605 130.316086,537.338623 
	C174.635010,506.619873 219.967270,477.364990 264.863861,447.477356 
	C308.381683,418.507568 351.833405,389.438477 395.266357,360.341614 
	C396.487823,359.523376 397.165527,357.893524 398.096802,356.642120 
	C399.939453,357.158325 401.782074,357.674500 403.742676,358.759033 
	C402.393524,360.650330 401.057190,362.166931 399.436005,363.261719 
	C393.381409,367.350677 387.207458,371.262329 381.124695,375.310272 
	C332.442444,407.707275 283.759277,440.102966 235.100250,472.534882 
	C205.525375,492.246918 175.978577,512.001282 146.491974,531.844788 
	C145.276031,532.663086 144.802307,534.584167 144.035202,536.339722 
	C145.816193,537.859009 147.397873,539.414490 149.296677,540.140320 
	C163.867157,545.710144 178.502991,551.108704 193.111496,556.579224 
	C225.125107,568.567444 257.120544,580.604492 289.150330,592.549316 
	C313.406525,601.595215 337.726624,610.469788 361.978241,619.527832 
	C396.177979,632.301636 430.320129,645.229431 464.525024,657.989258 
	C497.176147,670.169373 529.893921,682.171021 562.525818,694.402161 
	C565.639221,695.569214 568.350159,697.810059 571.247925,699.552429 
z"/>
<path fill="#A41E3A" opacity="1.000000" stroke="none" 
	d="
M574.152771,1053.457153 
	C563.812744,1057.059570 553.498779,1060.740723 543.101624,1064.170044 
	C541.724060,1064.624268 539.844666,1064.032593 538.330017,1063.527954 
	C388.381805,1013.568176 238.446457,963.569824 88.157585,913.045898 
	C88.646469,911.800903 89.374023,910.746704 90.346794,910.417786 
	C104.148781,905.750305 117.944366,901.056335 131.829727,896.646545 
	C137.778351,894.757446 143.930374,893.508728 150.154327,892.288147 
	C155.210190,894.577271 160.064270,896.646851 164.999191,898.501221 
	C199.346405,911.407410 233.695862,924.307861 268.073395,937.132996 
	C297.941620,948.275879 327.865570,959.269409 357.732727,970.415039 
	C398.332062,985.565613 438.897705,1000.806335 479.483643,1015.992676 
	C509.806244,1027.338745 540.147766,1038.634399 570.436707,1050.069580 
	C571.893982,1050.619751 572.923889,1052.302002 574.152771,1053.457153 
z"/>
<path fill="#0459A4" opacity="1.000000" stroke="none" 
	d="
M232.389389,197.998962 
	C232.389420,151.846115 232.484848,106.192558 232.248703,60.540733 
	C232.223785,55.721249 233.850800,53.926636 238.123047,52.575596 
	C249.034073,49.125126 259.793365,45.194824 271.451904,41.166756 
	C271.451904,61.875816 271.451904,81.875275 271.451904,101.874733 
	C272.118103,102.311226 272.784302,102.747726 273.450500,103.184219 
	C273.762482,102.237648 273.805450,101.035500 274.426117,100.382202 
	C287.118835,87.022362 302.798157,82.656029 320.481873,86.411766 
	C336.966888,89.912926 344.974762,102.063820 348.861389,117.359573 
	C350.286163,122.966850 351.324646,128.837891 351.379089,134.599579 
	C351.637115,161.909103 351.494293,189.222382 351.494293,216.982849 
	C338.808624,216.982849 326.095184,216.982849 312.613190,216.982849 
	C312.613190,215.237946 312.620544,213.312820 312.612091,211.387756 
	C312.510864,188.397980 312.442108,165.407928 312.256775,142.418808 
	C312.235565,139.786118 311.777527,137.105392 311.149414,134.538086 
	C308.449127,123.500580 301.811768,118.242592 291.353485,118.658653 
	C281.577271,119.047577 273.658630,126.254242 272.054871,136.441711 
	C271.617188,139.222122 271.578003,142.085220 271.573456,144.910721 
	C271.536896,167.570572 271.556458,190.230515 271.541809,212.890427 
	C271.540955,214.191483 271.391205,215.492447 271.291443,217.104797 
	C258.370056,217.104797 245.656387,217.104797 232.389297,217.104797 
	C232.389297,210.737320 232.389297,204.618057 232.389389,197.998962 
z"/>
<path fill="#0358A3" opacity="1.000000" stroke="none" 
	d="
M110.331055,63.327469 
	C132.056549,44.805889 157.405533,39.006607 184.758026,40.941738 
	C193.599136,41.567230 202.306320,44.382214 210.996353,46.515091 
	C212.244019,46.821316 214.068542,49.089603 213.900528,50.185287 
	C212.191589,61.330711 210.124542,72.421234 208.086685,83.928558 
	C191.164383,76.810692 174.458694,75.145332 157.496445,81.314079 
	C148.301682,84.657997 140.940399,90.526253 135.500244,98.681625 
	C122.995903,117.427002 123.963867,149.908279 137.273376,167.797485 
	C150.811996,185.994629 181.118469,191.581787 208.038483,179.495209 
	C209.674622,188.411850 211.342712,197.175217 212.879028,205.961624 
	C214.619232,215.914093 214.621170,216.126099 204.928467,218.671219 
	C184.035141,224.157425 163.038483,224.564072 142.205673,218.512085 
	C109.676979,209.062424 86.888954,181.459106 82.978752,147.619186 
	C81.433929,134.249878 81.735771,121.040474 84.671883,107.893578 
	C88.559593,90.485687 96.762726,75.566559 110.331055,63.327469 
z"/>
<path fill="#0358A3" opacity="1.000000" stroke="none" 
	d="
M391.904419,207.111084 
	C377.991577,195.063293 371.816620,179.556793 370.171661,162.097366 
	C368.912811,148.736115 369.738831,135.488159 374.881195,122.797493 
	C381.419006,106.662918 392.606964,95.153419 408.827118,88.813332 
	C423.359741,83.132866 438.396240,82.140572 453.521851,85.818245 
	C474.057404,90.811310 486.271637,104.570610 492.486389,124.236244 
	C496.465698,136.828064 496.875610,149.734756 495.999207,162.792938 
	C495.755127,166.430054 493.542938,166.045654 491.188324,166.044754 
	C466.361908,166.035294 441.535492,166.038940 416.709076,166.038971 
	C414.909119,166.038971 413.109192,166.038971 410.836670,166.038971 
	C411.394318,174.630081 414.889618,181.331070 421.891968,184.863419 
	C427.987274,187.938248 434.909119,190.106979 441.680878,190.951782 
	C454.648315,192.569534 467.203827,189.753326 479.184753,184.549835 
	C480.670197,183.904678 482.143158,183.230652 484.195251,182.313843 
	C486.128510,192.108215 488.035522,201.510178 489.742096,210.948395 
	C489.867401,211.641373 488.722412,212.950516 487.869720,213.377274 
	C467.773682,223.435272 419.409546,230.609116 391.904419,207.111084 
M413.085175,138.214523 
	C427.660950,138.214523 442.236725,138.214523 456.742157,138.214523 
	C458.790039,120.226547 442.860046,107.383057 426.626556,113.325378 
	C418.163208,116.423409 410.594727,127.218903 410.699829,136.239365 
	C410.707520,136.896545 411.692780,137.542358 413.085175,138.214523 
z"/>
<path fill="#0358A3" opacity="1.000000" stroke="none" 
	d="
M781.708496,221.327255 
	C751.473755,214.771973 732.291870,191.963745 731.291321,160.356537 
	C730.963745,150.009827 731.690979,139.229446 734.305298,129.269302 
	C740.667297,105.030869 756.881714,89.994461 781.629700,85.464500 
	C790.333496,83.871338 799.630920,83.648254 808.419678,84.730103 
	C839.637878,88.572868 861.061707,111.664284 862.764343,143.536270 
	C863.342896,154.366028 862.860779,165.676178 860.349792,176.165070 
	C853.738525,203.781036 832.537720,220.578964 803.511658,222.427307 
	C796.433411,222.878036 789.257385,221.794724 781.708496,221.327255 
M819.161011,130.484467 
	C814.070374,118.967812 806.653259,113.815567 795.937866,114.352798 
	C785.722900,114.864937 778.143982,120.883621 774.537476,132.351440 
	C769.971741,146.869370 769.962952,161.570267 775.167664,175.941452 
	C779.509949,187.931274 789.028137,193.651688 800.770752,191.949188 
	C811.102356,190.451294 816.834412,183.590881 819.792969,174.330551 
	C824.373291,159.994049 824.235474,145.539627 819.161011,130.484467 
z"/>
<path fill="#D31A32" opacity="1.000000" stroke="none" 
	d="
M272.951355,848.938110 
	C273.731293,848.620300 274.511200,848.302429 276.034821,847.967712 
	C279.491486,847.600464 282.204376,847.250000 284.917297,846.899536 
	C290.523895,849.286499 296.050781,851.885803 301.750000,854.026184 
	C340.579651,868.608887 379.437958,883.115356 418.301941,897.606384 
	C450.014648,909.430847 481.761353,921.164124 513.468994,933.002136 
	C554.035889,948.147644 594.570496,963.379333 635.134827,978.531616 
	C658.136536,987.123657 681.183105,995.595825 704.163208,1004.244751 
	C705.973450,1004.926025 707.420471,1006.572571 709.093567,1008.176270 
	C697.100220,1012.673401 685.049561,1016.764709 672.536682,1020.454285 
	C670.467957,1018.766174 669.057068,1016.958374 667.225769,1016.271118 
	C635.671448,1004.429688 604.068848,992.716919 572.469604,980.995422 
	C539.779968,968.869446 507.057587,956.831543 474.395050,944.633118 
	C434.734253,929.821045 395.137817,914.836670 355.482361,900.010193 
	C321.270203,887.218689 287.004089,874.571350 252.806458,861.741394 
	C250.989319,861.059692 249.586914,859.272522 248.329041,857.851440 
	C254.413330,855.763245 260.192352,853.911743 265.885345,851.825439 
	C267.411926,851.266052 268.676422,849.991333 270.061249,849.044983 
	C270.486694,849.037048 270.912140,849.029114 271.753357,849.175964 
	C272.429871,849.199890 272.690613,849.069031 272.951355,848.938110 
z"/>
<path fill="#0257A3" opacity="1.000000" stroke="none" 
	d="
M999.548828,130.552780 
	C999.620117,159.625244 999.620117,188.243637 999.620117,217.103638 
	C986.912598,217.103638 974.304199,217.103638 960.995789,217.103638 
	C960.995789,215.366486 960.995789,213.599487 960.995789,211.832489 
	C960.995728,190.668625 961.115356,169.503586 960.911011,148.341705 
	C960.860046,143.067337 960.443909,137.610580 959.018494,132.570572 
	C954.870483,117.903564 937.848816,113.730858 926.919678,124.424599 
	C921.856018,129.379181 919.903992,135.535324 919.919067,142.522278 
	C919.968628,165.519104 919.930176,188.516129 919.925720,211.513077 
	C919.925354,213.299255 919.925659,215.085434 919.925659,217.106064 
	C906.761475,217.106064 894.158325,217.106064 880.598633,217.106064 
	C880.598633,174.638184 880.598633,132.241272 880.598633,89.527733 
	C891.938049,89.527733 903.845337,89.527733 916.063416,89.527733 
	C916.454163,95.301834 916.831177,100.872414 917.267029,107.312080 
	C919.336914,104.832047 920.800049,102.913971 922.431030,101.151192 
	C934.897949,87.677101 950.194702,82.556091 968.148865,86.379211 
	C985.296082,90.030502 996.427246,104.478882 998.973572,125.628235 
	C999.152832,127.117035 999.310120,128.608490 999.548828,130.552780 
z"/>
<path fill="#32A2D3" opacity="1.000000" stroke="none" 
	d="
M83.638626,390.003723 
	C83.510239,388.688690 83.270187,387.373688 83.269661,386.058624 
	C83.252182,342.793793 83.255600,299.528992 83.269699,256.264160 
	C83.270126,254.959595 83.417763,253.655045 83.555351,251.383133 
	C129.831894,266.836731 175.668243,282.143341 221.621017,298.001526 
	C220.240158,299.846069 218.861176,301.316528 217.227631,302.404968 
	C197.187988,315.757294 177.104950,329.044464 157.045425,342.367004 
	C134.354065,357.437500 111.685936,372.543030 88.967812,387.573029 
	C87.359383,388.637146 85.422676,389.205078 83.638626,390.003723 
z"/>
<path fill="#0358A3" opacity="1.000000" stroke="none" 
	d="
M619.534485,129.589142 
	C609.974060,157.841660 600.530212,185.717804 591.251709,213.648895 
	C590.306580,216.494049 589.118835,217.542358 586.044800,217.500702 
	C572.718262,217.320084 559.387451,217.368271 546.059265,217.472366 
	C543.573242,217.491791 542.163635,216.905807 541.307373,214.348969 
	C527.631287,173.512466 513.864197,132.706436 500.135590,91.887497 
	C499.936066,91.294189 499.962402,90.624916 499.830658,89.569016 
	C501.469391,89.438477 502.885681,89.231453 504.302490,89.227798 
	C514.965576,89.200249 525.639282,89.488640 536.287231,89.086235 
	C541.000793,88.908112 542.837524,90.334259 543.985291,94.935440 
	C550.746643,122.038559 557.858215,149.054321 564.859985,176.097382 
	C565.099854,177.023712 565.426819,177.927490 566.745361,178.983963 
	C574.495667,149.126541 582.245972,119.269119 590.007385,89.368744 
	C604.380615,89.368744 618.349854,89.368744 633.018433,89.368744 
	C628.505737,102.872383 624.101929,116.050377 619.534485,129.589142 
z"/>
<path fill="#1E80BB" opacity="1.000000" stroke="none" 
	d="
M328.201202,333.327881 
	C339.632507,337.036499 351.063843,340.745117 362.719116,345.047607 
	C361.528809,346.961243 360.266998,348.510040 358.678284,349.567841 
	C289.150543,395.861725 219.590195,442.106628 150.043045,488.371429 
	C129.993805,501.708771 109.992294,515.118042 89.905838,528.398987 
	C88.058533,529.620422 85.751205,530.146057 83.657494,530.994812 
	C83.566803,519.640381 83.476105,508.286011 83.848534,496.461304 
	C86.258057,495.086792 88.361694,494.419067 90.128235,493.244415 
	C168.297607,441.265076 246.440979,389.246613 324.551971,337.179565 
	C325.986725,336.223236 326.994324,334.626038 328.201202,333.327881 
z"/>
<path fill="#D21A32" opacity="1.000000" stroke="none" 
	d="
M999.903137,766.536743 
	C992.896912,764.831604 985.854797,762.956848 979.049011,760.442261 
	C951.990417,750.444885 925.009583,740.236938 897.992188,730.127808 
	C862.590759,716.881592 827.169312,703.688904 791.788635,690.387390 
	C785.767090,688.123474 779.907043,685.429932 773.605469,682.713623 
	C777.245728,680.979553 781.209412,679.336975 785.267761,677.976624 
	C800.846680,672.754883 816.456055,667.623718 832.518738,662.854919 
	C834.074646,664.146301 835.026855,665.410034 836.277710,665.881897 
	C857.968445,674.063965 879.701538,682.133728 901.413757,690.258850 
	C925.608826,699.313049 949.760376,708.484985 973.998230,717.423035 
	C982.506348,720.560547 991.214050,723.156799 999.830627,726.000183 
	C999.879028,739.357788 999.927429,752.715454 999.903137,766.536743 
z"/>
<path fill="#2691C7" opacity="1.000000" stroke="none" 
	d="
M188.010162,522.023682 
	C192.089523,524.079590 196.020966,526.527832 200.271317,528.130310 
	C238.795395,542.654053 277.369568,557.045166 315.940643,571.444153 
	C341.913483,581.139954 367.910004,590.772278 393.886780,600.457458 
	C426.863647,612.752563 459.826599,625.084900 492.804504,637.377197 
	C515.981506,646.016235 539.170654,654.622925 562.359863,663.229248 
	C577.768433,668.947876 593.211853,674.574524 608.570007,680.425354 
	C610.573059,681.188416 612.159912,683.044128 613.979370,684.759277 
	C606.597656,687.748047 599.176086,690.371277 591.332275,692.631958 
	C588.623779,690.807556 586.502869,688.917908 584.022095,687.958557 
	C573.806580,684.007996 563.463806,680.388184 553.200378,676.559326 
	C517.125061,663.101135 481.068481,649.592590 444.994354,636.131104 
	C419.339050,626.557495 393.661224,617.044250 368.003662,607.476807 
	C332.549561,594.256409 297.099365,581.025635 261.658386,567.770142 
	C234.765884,557.711914 207.969406,547.388611 180.955826,537.667847 
	C173.546341,535.001587 166.508514,529.296021 157.682953,532.631287 
	C157.548355,532.682190 157.218674,532.216797 157.216049,531.720215 
	C162.303696,529.646545 167.155319,527.844971 172.398315,526.026489 
	C177.863174,524.680908 182.936676,523.352295 188.010162,522.023682 
z"/>
<path fill="#1A79B6" opacity="1.000000" stroke="none" 
	d="
M83.521698,531.445435 
	C85.751205,530.146057 88.058533,529.620422 89.905838,528.398987 
	C109.992294,515.118042 129.993805,501.708771 150.043045,488.371429 
	C219.590195,442.106628 289.150543,395.861725 358.678284,349.567841 
	C360.266998,348.510040 361.528809,346.961243 362.982391,345.287994 
	C370.931305,347.629852 378.840912,350.325134 386.802185,353.677124 
	C385.604706,355.396484 384.448395,356.599152 383.091187,357.498749 
	C375.347351,362.631531 367.519958,367.638519 359.785736,372.785553 
	C272.609070,430.800598 185.437958,488.824005 98.320595,546.927979 
	C96.545647,548.111816 95.433083,550.288757 94.011513,552.002441 
	C90.871857,553.248657 87.732193,554.494934 84.247086,555.879883 
	C83.729736,547.977844 83.557823,539.936951 83.521698,531.445435 
z"/>
<path fill="#2289C1" opacity="1.000000" stroke="none" 
	d="
M327.949677,333.107849 
	C326.994324,334.626038 325.986725,336.223236 324.551971,337.179565 
	C246.440979,389.246613 168.297607,441.265076 90.128235,493.244415 
	C88.361694,494.419067 86.258057,495.086792 83.982758,496.015167 
	C83.563408,486.334412 83.472954,476.629486 83.845673,466.455811 
	C88.130043,463.695679 92.053329,461.557526 95.757362,459.090210 
	C161.521866,415.282806 227.266342,371.445282 292.964874,327.539062 
	C294.607147,326.441559 295.678162,324.489258 297.015594,322.935669 
	C307.243103,326.253052 317.470612,329.570435 327.949677,333.107849 
z"/>
<path fill="#0358A3" opacity="1.000000" stroke="none" 
	d="
M692.169922,132.189056 
	C685.461792,139.454071 683.108398,147.947784 683.084656,157.227005 
	C683.038574,175.216064 683.066040,193.205292 683.063171,211.194458 
	C683.062866,213.015381 683.063110,214.836304 683.063110,217.039703 
	C670.103027,217.039703 657.403809,217.039703 643.837524,217.039703 
	C643.837524,174.572128 643.837524,132.199356 643.837524,89.225952 
	C654.582397,89.225952 665.858337,89.137794 677.126770,89.388550 
	C678.056885,89.409248 679.662354,91.698273 679.716125,92.985069 
	C679.984314,99.405647 679.838745,105.843506 680.737610,112.613731 
	C689.286255,91.979401 703.867493,83.287888 725.881836,87.122536 
	C725.881836,99.457779 725.881836,111.555351 725.881836,124.391014 
	C713.796875,122.760147 701.855957,122.289062 692.169922,132.189056 
z"/>
<path fill="#1D81BC" opacity="1.000000" stroke="none" 
	d="
M156.980042,531.992371 
	C157.218674,532.216797 157.548355,532.682190 157.682953,532.631287 
	C166.508514,529.296021 173.546341,535.001587 180.955826,537.667847 
	C207.969406,547.388611 234.765884,557.711914 261.658386,567.770142 
	C297.099365,581.025635 332.549561,594.256409 368.003662,607.476807 
	C393.661224,617.044250 419.339050,626.557495 444.994354,636.131104 
	C481.068481,649.592590 517.125061,663.101135 553.200378,676.559326 
	C563.463806,680.388184 573.806580,684.007996 584.022095,687.958557 
	C586.502869,688.917908 588.623779,690.807556 590.954041,692.622620 
	C584.675354,695.155090 578.352722,697.334412 571.639038,699.533081 
	C568.350159,697.810059 565.639221,695.569214 562.525818,694.402161 
	C529.893921,682.171021 497.176147,670.169373 464.525024,657.989258 
	C430.320129,645.229431 396.177979,632.301636 361.978241,619.527832 
	C337.726624,610.469788 313.406525,601.595215 289.150330,592.549316 
	C257.120544,580.604492 225.125107,568.567444 193.111496,556.579224 
	C178.502991,551.108704 163.867157,545.710144 149.296677,540.140320 
	C147.397873,539.414490 145.816193,537.859009 144.375977,536.195923 
	C148.769577,534.466797 152.874802,533.229614 156.980042,531.992371 
z"/>
<path fill="#AD1C37" opacity="1.000000" stroke="none" 
	d="
M574.549988,1053.437500 
	C572.923889,1052.302002 571.893982,1050.619751 570.436707,1050.069580 
	C540.147766,1038.634399 509.806244,1027.338745 479.483643,1015.992676 
	C438.897705,1000.806335 398.332062,985.565613 357.732727,970.415039 
	C327.865570,959.269409 297.941620,948.275879 268.073395,937.132996 
	C233.695862,924.307861 199.346405,911.407410 164.999191,898.501221 
	C160.064270,896.646851 155.210190,894.577271 150.325745,891.975830 
	C156.554245,889.224915 162.775681,887.105347 169.202209,885.267944 
	C171.366745,886.434631 173.283981,887.431519 175.292328,888.185913 
	C192.530136,894.661255 209.784729,901.091980 227.033707,907.537720 
	C262.774536,920.893616 298.509949,934.263916 334.257172,947.602722 
	C360.212311,957.287659 386.188293,966.916504 412.144958,976.597351 
	C447.738556,989.872375 483.317596,1003.186401 518.912537,1016.457886 
	C542.228210,1025.151001 565.583801,1033.738159 588.839783,1042.587646 
	C590.590454,1043.253784 591.684814,1045.644897 593.084229,1047.234131 
	C587.038513,1049.295288 580.992859,1051.356567 574.549988,1053.437500 
z"/>
<path fill="#C91A33" opacity="1.000000" stroke="none" 
	d="
M247.991455,858.000000 
	C249.586914,859.272522 250.989319,861.059692 252.806458,861.741394 
	C287.004089,874.571350 321.270203,887.218689 355.482361,900.010193 
	C395.137817,914.836670 434.734253,929.821045 474.395050,944.633118 
	C507.057587,956.831543 539.779968,968.869446 572.469604,980.995422 
	C604.068848,992.716919 635.671448,1004.429688 667.225769,1016.271118 
	C669.057068,1016.958374 670.467957,1018.766174 672.125488,1020.471558 
	C666.465637,1022.874756 660.754761,1024.859009 654.519043,1026.458740 
	C652.859680,1025.163086 651.862915,1023.890320 650.569092,1023.397217 
	C638.788147,1018.907898 626.959045,1014.544373 615.136902,1010.163452 
	C591.026672,1001.228943 566.894592,992.353210 542.803406,983.367920 
	C508.298859,970.498718 473.835419,957.519409 439.330566,944.651062 
	C412.284790,934.564453 385.185394,924.621643 358.141357,914.530518 
	C323.016327,901.424194 287.906433,888.276917 252.827194,875.048767 
	C244.472229,871.898254 236.264694,868.356812 228.221436,864.720215 
	C234.966156,862.296875 241.478806,860.148438 247.991455,858.000000 
z"/>
<path fill="#D41A31" opacity="1.000000" stroke="none" 
	d="
M83.551941,867.434082 
	C87.193504,864.069519 91.045807,861.482849 94.118988,858.172852 
	C101.110115,850.643188 107.658524,842.704773 114.495216,835.028992 
	C128.619629,819.171021 142.782669,803.347229 156.991852,787.565247 
	C167.098999,776.339294 177.371506,765.262085 187.455017,754.015198 
	C200.631424,739.318665 213.651886,724.482361 226.822083,709.780151 
	C234.244553,701.494324 241.930206,693.443298 249.313278,685.123230 
	C254.355759,679.440857 259.080353,673.476440 263.986572,667.284363 
	C269.847015,668.773987 275.667969,670.617310 281.746399,673.066589 
	C281.566010,674.711365 281.365631,675.962952 280.654480,676.756897 
	C271.132446,687.387451 261.542480,697.957275 251.962128,708.535583 
	C245.277176,715.916870 238.527313,723.240173 231.901489,730.674133 
	C218.990860,745.159424 206.207642,759.758728 193.256104,774.207153 
	C182.952545,785.701538 172.396713,796.969788 162.098282,808.468689 
	C149.263977,822.798889 136.615295,837.295288 123.818954,851.659790 
	C112.231888,864.666870 100.592125,877.627747 88.864594,890.507874 
	C87.508636,891.997070 85.442200,892.839355 83.705177,893.981567 
	C83.606438,885.282227 83.507690,876.582947 83.551941,867.434082 
z"/>
<path fill="#AF1A35" opacity="1.000000" stroke="none" 
	d="
M335.753967,690.693726 
	C335.128510,692.670288 334.559753,694.700195 333.295807,696.104248 
	C319.866821,711.021545 306.288086,725.803955 292.828888,740.694214 
	C277.928894,757.178528 263.109406,773.735596 248.256699,790.262634 
	C236.508148,803.335571 224.756775,816.406067 213.016937,829.486816 
	C198.508499,845.652344 183.994217,861.812683 169.541916,878.028259 
	C168.472870,879.227722 167.883194,880.854370 166.700729,882.787231 
	C155.221146,886.865601 144.111496,890.439087 133.005249,893.646423 
	C133.338715,892.368347 133.435577,891.249390 134.033875,890.575684 
	C142.838577,880.660522 151.681061,870.778381 160.573273,860.941528 
	C170.691757,849.747864 180.916245,838.649841 191.008865,827.433044 
	C205.086441,811.787415 219.069183,796.056396 233.123306,780.389587 
	C239.766510,772.984070 246.518082,765.675598 253.155640,758.265015 
	C266.865143,742.959045 280.570190,727.648621 294.200256,712.271973 
	C302.217865,703.226868 310.087952,694.050964 318.024384,684.933899 
	C323.845551,686.774780 329.666718,688.615601 335.753967,690.693726 
z"/>
<path fill="#2B99CD" opacity="1.000000" stroke="none" 
	d="
M83.506500,390.455688 
	C85.422676,389.205078 87.359383,388.637146 88.967812,387.573029 
	C111.685936,372.543030 134.354065,357.437500 157.045425,342.367004 
	C177.104950,329.044464 197.187988,315.757294 217.227631,302.404968 
	C218.861176,301.316528 220.240158,299.846069 221.883575,298.243164 
	C232.261093,301.261261 242.492477,304.589233 252.842575,308.507202 
	C251.613205,310.287109 250.382065,311.652222 248.900162,312.641754 
	C195.817307,348.087219 142.719116,383.509735 89.571465,418.857910 
	C87.876038,419.985504 85.639160,420.299042 83.654694,420.992065 
	C83.561256,410.963928 83.467819,400.935822 83.506500,390.455688 
z"/>
<path fill="#C21B34" opacity="1.000000" stroke="none" 
	d="
M999.903198,725.536438 
	C991.214050,723.156799 982.506348,720.560547 973.998230,717.423035 
	C949.760376,708.484985 925.608826,699.313049 901.413757,690.258850 
	C879.701538,682.133728 857.968445,674.063965 836.277710,665.881897 
	C835.026855,665.410034 834.074646,664.146301 832.918701,662.857971 
	C847.308411,657.569580 861.762817,652.674316 876.614746,648.218262 
	C878.225098,649.784302 879.245667,651.413940 880.679749,651.962585 
	C901.698181,660.003540 922.733276,668.004700 943.843750,675.800110 
	C962.454590,682.672302 981.164368,689.276428 999.830383,695.998901 
	C999.878845,705.690186 999.927307,715.381470 999.903198,725.536438 
z"/>
<path fill="#258EC5" opacity="1.000000" stroke="none" 
	d="
M296.747864,322.693573 
	C295.678162,324.489258 294.607147,326.441559 292.964874,327.539062 
	C227.266342,371.445282 161.521866,415.282806 95.757362,459.090210 
	C92.053329,461.557526 88.130043,463.695679 83.983002,466.010193 
	C83.564728,458.996521 83.472275,451.959717 83.859573,444.465912 
	C86.014122,443.375214 87.881706,443.031738 89.335960,442.065948 
	C150.389633,401.517670 211.412964,360.923615 272.389130,320.258942 
	C273.891602,319.256897 274.820221,317.394348 276.016479,315.933136 
	C282.837708,318.105927 289.658905,320.278717 296.747864,322.693573 
z"/>
<path fill="#2892C8" opacity="1.000000" stroke="none" 
	d="
M275.753113,315.694458 
	C274.820221,317.394348 273.891602,319.256897 272.389130,320.258942 
	C211.412964,360.923615 150.389633,401.517670 89.335960,442.065948 
	C87.881706,443.031738 86.014122,443.375214 83.997330,444.020447 
	C83.563217,436.653076 83.471077,429.274200 83.516815,421.443665 
	C85.639160,420.299042 87.876038,419.985504 89.571465,418.857910 
	C142.719116,383.509735 195.817307,348.087219 248.900162,312.641754 
	C250.382065,311.652222 251.613205,310.287109 253.103348,308.730835 
	C260.660217,310.728271 268.074982,313.092041 275.753113,315.694458 
z"/>
<path fill="#2A97CB" opacity="1.000000" stroke="none" 
	d="
M999.885315,424.530090 
	C993.967773,423.307892 987.976074,421.999023 982.285706,419.880859 
	C936.308044,402.766144 890.404480,385.452728 844.442200,368.296570 
	C817.113220,358.095581 789.702148,348.114258 762.388306,337.873322 
	C760.345581,337.107452 758.788635,335.046082 756.995239,333.198730 
	C763.722961,330.472626 770.461243,328.134796 777.629028,326.175415 
	C779.546753,327.704681 780.870483,329.272400 782.551147,329.935974 
	C791.028931,333.283264 799.597534,336.401001 808.138428,339.588318 
	C840.905396,351.816467 873.679993,364.023926 906.439697,376.271362 
	C930.660767,385.326508 954.833130,394.513153 979.093140,403.462341 
	C985.879639,405.965790 992.900208,407.834991 999.813354,409.995178 
	C999.859192,414.686279 999.905029,419.377350 999.885315,424.530090 
z"/>
<path fill="#C51B33" opacity="1.000000" stroke="none" 
	d="
M227.989349,864.995117 
	C236.264694,868.356812 244.472229,871.898254 252.827194,875.048767 
	C287.906433,888.276917 323.016327,901.424194 358.141357,914.530518 
	C385.185394,924.621643 412.284790,934.564453 439.330566,944.651062 
	C473.835419,957.519409 508.298859,970.498718 542.803406,983.367920 
	C566.894592,992.353210 591.026672,1001.228943 615.136902,1010.163452 
	C626.959045,1014.544373 638.788147,1018.907898 650.569092,1023.397217 
	C651.862915,1023.890320 652.859680,1025.163086 654.111450,1026.474854 
	C650.402710,1028.244385 646.576721,1029.613281 642.367065,1030.598877 
	C639.031433,1028.445435 636.266907,1026.178101 633.097961,1024.984131 
	C608.402100,1015.679443 583.611633,1006.626648 558.883301,997.407471 
	C527.002808,985.521790 495.165894,973.519409 463.286011,961.632080 
	C436.225525,951.541748 409.113617,941.589294 382.055511,931.492615 
	C349.711151,919.423340 317.399567,907.266113 285.074188,895.145935 
	C263.939178,887.221436 242.791962,879.328918 221.698608,871.294983 
	C220.257172,870.745911 219.222183,869.129700 218.333847,867.861206 
	C221.776138,866.806763 224.882751,865.900940 227.989349,864.995117 
z"/>
<path fill="#1570AF" opacity="1.000000" stroke="none" 
	d="
M188.344757,521.871094 
	C182.936676,523.352295 177.863174,524.680908 172.429718,525.673584 
	C173.016235,524.240112 173.789291,522.895630 174.939484,522.088257 
	C179.686691,518.755737 184.541290,515.575623 189.368820,512.358154 
	C229.156006,485.840393 268.925323,459.295776 308.741577,432.821777 
	C340.260498,411.864716 371.862183,391.032043 403.355133,370.036163 
	C406.813232,367.730652 409.796631,364.713043 413.000183,362.025757 
	C417.875458,363.412689 422.750702,364.799622 427.741882,366.757996 
	C426.608215,368.393036 425.452393,369.597961 424.094788,370.498749 
	C407.355316,381.605469 390.549744,392.612823 373.831909,403.751862 
	C323.255524,437.450775 272.693268,471.170990 222.199188,504.992889 
	C219.460815,506.827087 217.394241,509.664215 215.014954,512.034485 
	C206.236420,515.262512 197.457870,518.490540 188.344757,521.871094 
z"/>
<path fill="#136CAC" opacity="1.000000" stroke="none" 
	d="
M215.405060,512.027222 
	C217.394241,509.664215 219.460815,506.827087 222.199188,504.992889 
	C272.693268,471.170990 323.255524,437.450775 373.831909,403.751862 
	C390.549744,392.612823 407.355316,381.605469 424.094788,370.498749 
	C425.452393,369.597961 426.608215,368.393036 428.003937,366.994446 
	C433.411316,368.484894 438.672577,370.310303 443.793091,372.637390 
	C442.334534,374.142944 441.069122,375.226013 439.690979,376.138824 
	C419.763794,389.337952 399.785309,402.459930 379.890472,415.707581 
	C342.306702,440.733978 304.752716,465.805420 267.269989,490.982635 
	C265.744354,492.007416 265.069855,494.299408 263.998779,496.000946 
	C247.930908,501.340637 231.863037,506.680298 215.405060,512.027222 
z"/>
<path fill="#B31B36" opacity="1.000000" stroke="none" 
	d="
M593.470459,1047.248535 
	C591.684814,1045.644897 590.590454,1043.253784 588.839783,1042.587646 
	C565.583801,1033.738159 542.228210,1025.151001 518.912537,1016.457886 
	C483.317596,1003.186401 447.738556,989.872375 412.144958,976.597351 
	C386.188293,966.916504 360.212311,957.287659 334.257172,947.602722 
	C298.509949,934.263916 262.774536,920.893616 227.033707,907.537720 
	C209.784729,901.091980 192.530136,894.661255 175.292328,888.185913 
	C173.283981,887.431519 171.366745,886.434631 169.433167,884.994873 
	C173.304672,883.288269 177.150299,882.136963 181.050537,881.337097 
	C186.473572,884.101196 191.729721,886.812866 197.228348,888.879089 
	C239.024948,904.585266 280.868011,920.167847 322.698486,935.783752 
	C372.770142,954.476135 422.830353,973.199219 472.920624,991.841553 
	C513.676819,1007.010010 554.488708,1022.029297 595.213745,1037.280762 
	C598.715698,1038.592285 601.751099,1041.149658 605.003296,1043.128174 
	C601.287720,1044.506470 597.572205,1045.884766 593.470459,1047.248535 
z"/>
<path fill="#1875B3" opacity="1.000000" stroke="none" 
	d="
M94.401810,551.995483 
	C95.433083,550.288757 96.545647,548.111816 98.320595,546.927979 
	C185.437958,488.824005 272.609070,430.800598 359.785736,372.785553 
	C367.519958,367.638519 375.347351,362.631531 383.091187,357.498749 
	C384.448395,356.599152 385.604706,355.396484 386.998749,354.000122 
	C390.612946,354.498047 394.082214,355.329681 397.824158,356.401733 
	C397.165527,357.893524 396.487823,359.523376 395.266357,360.341614 
	C351.833405,389.438477 308.381683,418.507568 264.863861,447.477356 
	C219.967270,477.364990 174.635010,506.619873 130.316086,537.338623 
	C119.088783,545.120605 106.542534,546.968262 94.401810,551.995483 
z"/>
<path fill="#C01B34" opacity="1.000000" stroke="none" 
	d="
M217.998169,868.009766 
	C219.222183,869.129700 220.257172,870.745911 221.698608,871.294983 
	C242.791962,879.328918 263.939178,887.221436 285.074188,895.145935 
	C317.399567,907.266113 349.711151,919.423340 382.055511,931.492615 
	C409.113617,941.589294 436.225525,951.541748 463.286011,961.632080 
	C495.165894,973.519409 527.002808,985.521790 558.883301,997.407471 
	C583.611633,1006.626648 608.402100,1015.679443 633.097961,1024.984131 
	C636.266907,1026.178101 639.031433,1028.445435 641.991333,1030.587891 
	C638.924377,1032.060059 635.849365,1033.159668 632.341919,1033.834473 
	C630.466919,1032.385010 629.159119,1031.011475 627.559509,1030.394043 
	C619.041260,1027.106079 610.447266,1024.014771 601.884460,1020.842102 
	C574.634888,1010.745544 547.368164,1000.695068 520.144470,990.529297 
	C488.566681,978.737793 457.047882,966.788147 425.465637,955.008728 
	C395.437958,943.809204 365.341339,932.794678 335.311401,921.601257 
	C297.347046,907.450378 259.400452,893.251160 221.498993,878.933105 
	C216.505219,877.046570 211.823288,874.334595 207.225769,871.729370 
	C210.969116,870.305786 214.483643,869.157776 217.998169,868.009766 
z"/>
<path fill="#1D7FBA" opacity="1.000000" stroke="none" 
	d="
M999.815430,359.992004 
	C999.862000,365.683594 999.908569,371.375183 999.540894,377.576416 
	C997.071472,377.878845 994.859375,378.095367 992.984558,377.401123 
	C962.478088,366.104919 932.021301,354.674591 901.538757,343.313568 
	C876.034119,333.807831 850.497009,324.388824 825.034912,314.770874 
	C823.729980,314.277954 822.997009,312.270782 821.997803,310.968628 
	C830.660767,308.057098 839.323669,305.145569 848.456177,302.629333 
	C850.396362,304.226593 851.681763,305.916534 853.366028,306.555969 
	C872.882446,313.965240 892.463318,321.204681 912.018860,328.511261 
	C935.920532,337.441620 959.788696,346.462799 983.731750,355.280701 
	C988.961914,357.206909 994.447510,358.439819 999.815430,359.992004 
z"/>
<path fill="#CA1932" opacity="1.000000" stroke="none" 
	d="
M83.560806,894.425171 
	C85.442200,892.839355 87.508636,891.997070 88.864594,890.507874 
	C100.592125,877.627747 112.231888,864.666870 123.818954,851.659790 
	C136.615295,837.295288 149.263977,822.798889 162.098282,808.468689 
	C172.396713,796.969788 182.952545,785.701538 193.256104,774.207153 
	C206.207642,759.758728 218.990860,745.159424 231.901489,730.674133 
	C238.527313,723.240173 245.277176,715.916870 251.962128,708.535583 
	C261.542480,697.957275 271.132446,687.387451 280.654480,676.756897 
	C281.365631,675.962952 281.566010,674.711365 282.013916,673.302734 
	C285.382935,674.136108 288.741882,675.339294 292.135406,677.187256 
	C291.386871,679.104004 290.778748,680.534119 289.794189,681.624207 
	C276.554474,696.282837 263.261353,710.893188 249.983627,725.517517 
	C243.288696,732.891357 236.543808,740.220703 229.917282,747.655518 
	C217.005157,762.142639 204.221313,776.744385 191.268387,791.194702 
	C180.963760,802.690552 170.433838,813.984192 160.098999,825.453247 
	C145.882904,841.229492 131.733856,857.066284 117.600945,872.917114 
	C110.428032,880.961975 103.479591,889.210510 96.183144,897.140137 
	C92.298737,901.361755 87.888832,905.099792 83.716133,909.056152 
	C83.616249,904.327087 83.516350,899.597961 83.560806,894.425171 
z"/>
<path fill="#B71B35" opacity="1.000000" stroke="none" 
	d="
M999.902771,695.535278 
	C981.164368,689.276428 962.454590,682.672302 943.843750,675.800110 
	C922.733276,668.004700 901.698181,660.003540 880.679749,651.962585 
	C879.245667,651.413940 878.225098,649.784302 877.004639,648.274902 
	C889.294128,643.674988 901.591309,639.457703 914.429199,635.611877 
	C916.763916,637.064880 918.443787,638.444885 920.369751,639.181274 
	C938.197693,645.998047 956.027344,652.814514 973.943665,659.393921 
	C982.475647,662.527161 991.195862,665.147888 999.830811,668.000854 
	C999.878967,677.024414 999.927063,686.048035 999.902771,695.535278 
z"/>
<path fill="#BA1A33" opacity="1.000000" stroke="none" 
	d="
M317.758728,684.698181 
	C310.087952,694.050964 302.217865,703.226868 294.200256,712.271973 
	C280.570190,727.648621 266.865143,742.959045 253.155640,758.265015 
	C246.518082,765.675598 239.766510,772.984070 233.123306,780.389587 
	C219.069183,796.056396 205.086441,811.787415 191.008865,827.433044 
	C180.916245,838.649841 170.691757,849.747864 160.573273,860.941528 
	C151.681061,870.778381 142.838577,880.660522 134.033875,890.575684 
	C133.435577,891.249390 133.338715,892.368347 132.774109,893.920044 
	C126.027069,896.702026 119.514557,898.844177 113.036438,900.634644 
	C113.657303,899.100037 114.021767,897.721008 114.865730,896.765503 
	C121.011810,889.807007 127.239975,882.920715 133.470169,876.036926 
	C140.369965,868.413452 147.349442,860.861633 154.205383,853.199158 
	C167.575531,838.256165 180.848358,823.226074 194.231796,808.295166 
	C201.427444,800.267395 208.845108,792.438354 216.028793,784.400146 
	C231.929642,766.607727 247.693497,748.692871 263.615631,730.919617 
	C273.906342,719.432495 284.479279,708.197388 294.721588,696.668030 
	C299.081726,691.759949 302.920380,686.388672 306.996033,681.227966 
	C310.495056,682.306152 313.994080,683.384338 317.758728,684.698181 
z"/>
<path fill="#BD1B35" opacity="1.000000" stroke="none" 
	d="
M206.996948,872.004883 
	C211.823288,874.334595 216.505219,877.046570 221.498993,878.933105 
	C259.400452,893.251160 297.347046,907.450378 335.311401,921.601257 
	C365.341339,932.794678 395.437958,943.809204 425.465637,955.008728 
	C457.047882,966.788147 488.566681,978.737793 520.144470,990.529297 
	C547.368164,1000.695068 574.634888,1010.745544 601.884460,1020.842102 
	C610.447266,1024.014771 619.041260,1027.106079 627.559509,1030.394043 
	C629.159119,1031.011475 630.466919,1032.385010 631.957031,1033.769775 
	C628.979004,1035.226929 625.953247,1036.323975 622.469238,1037.056885 
	C620.625732,1035.612793 619.394653,1034.146606 617.828064,1033.521118 
	C611.667664,1031.061523 605.395325,1028.883545 599.176025,1026.570312 
	C575.697083,1017.837524 552.213806,1009.116150 528.748596,1000.346741 
	C499.222351,989.312134 469.726074,978.197266 440.190613,967.187378 
	C416.096588,958.205750 391.947998,949.370544 367.852692,940.392212 
	C338.627686,929.502625 309.441681,918.508301 280.223083,907.601379 
	C254.267807,897.912720 228.278915,888.313843 202.352219,878.549500 
	C200.692108,877.924316 199.440384,876.214844 198.226166,874.733582 
	C201.301437,873.639893 204.149200,872.822388 206.996948,872.004883 
z"/>
<path fill="#1168A9" opacity="1.000000" stroke="none" 
	d="
M264.346497,495.876495 
	C265.069855,494.299408 265.744354,492.007416 267.269989,490.982635 
	C304.752716,465.805420 342.306702,440.733978 379.890472,415.707581 
	C399.785309,402.459930 419.763794,389.337952 439.690979,376.138824 
	C441.069122,375.226013 442.334534,374.142944 443.978821,372.984985 
	C449.339264,374.144592 454.373169,375.458282 459.658203,377.336151 
	C457.937927,379.601440 456.120789,381.533173 453.972504,382.969666 
	C409.255066,412.869659 364.481964,442.686493 319.804138,472.645477 
	C317.484406,474.201019 315.914520,476.874847 313.995544,479.028015 
	C300.382690,483.690765 286.772491,488.361420 273.154633,493.009521 
	C270.349274,493.967072 267.515106,494.840088 264.346497,495.876495 
z"/>
<path fill="#B91B35" opacity="1.000000" stroke="none" 
	d="
M197.998688,875.009766 
	C199.440384,876.214844 200.692108,877.924316 202.352219,878.549500 
	C228.278915,888.313843 254.267807,897.912720 280.223083,907.601379 
	C309.441681,918.508301 338.627686,929.502625 367.852692,940.392212 
	C391.947998,949.370544 416.096588,958.205750 440.190613,967.187378 
	C469.726074,978.197266 499.222351,989.312134 528.748596,1000.346741 
	C552.213806,1009.116150 575.697083,1017.837524 599.176025,1026.570312 
	C605.395325,1028.883545 611.667664,1031.061523 617.828064,1033.521118 
	C619.394653,1034.146606 620.625732,1035.612793 622.078857,1037.075684 
	C619.084778,1038.596069 616.022888,1039.733154 612.512451,1040.464844 
	C610.461792,1038.770874 609.035950,1037.093262 607.222412,1036.272461 
	C602.994629,1034.359009 598.595093,1032.818237 594.239380,1031.195557 
	C545.854004,1013.171082 497.472076,995.137390 449.072174,977.151855 
	C408.298767,962.000427 367.486725,946.952759 326.721405,931.779663 
	C282.221161,915.216309 237.746750,898.583435 193.301498,881.873413 
	C191.328995,881.131775 189.757645,879.323120 188.370026,877.967529 
	C191.826630,876.952393 194.912659,875.981079 197.998688,875.009766 
z"/>
<path fill="#AA1E38" opacity="1.000000" stroke="none" 
	d="
M999.903809,667.537109 
	C991.195862,665.147888 982.475647,662.527161 973.943665,659.393921 
	C956.027344,652.814514 938.197693,645.998047 920.369751,639.181274 
	C918.443787,638.444885 916.763916,637.064880 914.819458,635.598083 
	C921.712402,632.743164 928.729797,630.195801 935.804382,627.818909 
	C955.199219,621.302795 974.616882,614.854675 994.029541,608.391846 
	C995.745605,607.820496 997.491089,607.337646 999.976868,606.585632 
	C999.976868,627.048157 999.976868,647.060791 999.903809,667.537109 
z"/>
<path fill="#1875B3" opacity="1.000000" stroke="none" 
	d="
M999.883911,359.528992 
	C994.447510,358.439819 988.961914,357.206909 983.731750,355.280701 
	C959.788696,346.462799 935.920532,337.441620 912.018860,328.511261 
	C892.463318,321.204681 872.882446,313.965240 853.366028,306.555969 
	C851.681763,305.916534 850.396362,304.226593 848.864746,302.608948 
	C856.935486,299.385925 865.067261,296.578613 873.602905,294.175293 
	C875.198425,295.726318 876.188965,297.404114 877.610962,297.942566 
	C912.138977,311.016663 946.683838,324.048279 981.306702,336.868622 
	C987.288269,339.083527 993.635864,340.309967 999.814392,341.993011 
	C999.860413,347.683990 999.906372,353.374969 999.883911,359.528992 
z"/>
<path fill="#2289C1" opacity="1.000000" stroke="none" 
	d="
M821.623596,311.001526 
	C822.997009,312.270782 823.729980,314.277954 825.034912,314.770874 
	C850.497009,324.388824 876.034119,333.807831 901.538757,343.313568 
	C932.021301,354.674591 962.478088,366.104919 992.984558,377.401123 
	C994.859375,378.095367 997.071472,377.878845 999.473267,378.039551 
	C999.864990,382.353607 999.910217,386.714233 999.496826,391.535217 
	C997.591187,391.680542 996.081909,391.533691 994.706421,391.025238 
	C974.492554,383.553436 954.287292,376.058044 934.098083,368.519775 
	C895.427307,354.080902 856.744873,339.672546 818.131165,325.082520 
	C812.840820,323.083618 807.916382,320.116608 802.822510,317.597839 
	C808.964783,315.410034 815.107117,313.222229 821.623596,311.001526 
z"/>
<path fill="#1672B1" opacity="1.000000" stroke="none" 
	d="
M412.636169,361.927399 
	C409.796631,364.713043 406.813232,367.730652 403.355133,370.036163 
	C371.862183,391.032043 340.260498,411.864716 308.741577,432.821777 
	C268.925323,459.295776 229.156006,485.840393 189.368820,512.358154 
	C184.541290,515.575623 179.686691,518.755737 174.939484,522.088257 
	C173.789291,522.895630 173.016235,524.240112 172.038361,525.690552 
	C167.155319,527.844971 162.303696,529.646545 157.216034,531.720215 
	C152.874802,533.229614 148.769577,534.466797 144.323578,535.847778 
	C144.802307,534.584167 145.276031,532.663086 146.491974,531.844788 
	C175.978577,512.001282 205.525375,492.246918 235.100250,472.534882 
	C283.759277,440.102966 332.442444,407.707275 381.124695,375.310272 
	C387.207458,371.262329 393.381409,367.350677 399.436005,363.261719 
	C401.057190,362.166931 402.393524,360.650330 404.007294,358.993744 
	C406.860046,359.716431 409.566101,360.772766 412.636169,361.927399 
z"/>
<path fill="#B71B35" opacity="1.000000" stroke="none" 
	d="
M187.999451,878.011353 
	C189.757645,879.323120 191.328995,881.131775 193.301498,881.873413 
	C237.746750,898.583435 282.221161,915.216309 326.721405,931.779663 
	C367.486725,946.952759 408.298767,962.000427 449.072174,977.151855 
	C497.472076,995.137390 545.854004,1013.171082 594.239380,1031.195557 
	C598.595093,1032.818237 602.994629,1034.359009 607.222412,1036.272461 
	C609.035950,1037.093262 610.461792,1038.770874 612.106689,1040.478760 
	C610.006104,1041.687866 607.862732,1042.477539 605.361328,1043.197754 
	C601.751099,1041.149658 598.715698,1038.592285 595.213745,1037.280762 
	C554.488708,1022.029297 513.676819,1007.010010 472.920624,991.841553 
	C422.830353,973.199219 372.770142,954.476135 322.698486,935.783752 
	C280.868011,920.167847 239.024948,904.585266 197.228348,888.879089 
	C191.729721,886.812866 186.473572,884.101196 181.269928,881.071045 
	C183.622955,879.639526 185.811203,878.825439 187.999451,878.011353 
z"/>
<path fill="#09599E" opacity="1.000000" stroke="none" 
	d="
M921.928223,277.814880 
	C947.664490,269.046204 973.400818,260.277496 999.953247,251.230698 
	C999.953247,270.390656 999.953247,288.727264 999.492920,307.528076 
	C997.746216,307.718353 996.402893,307.598877 995.182129,307.147644 
	C972.159363,298.637207 949.136353,290.126404 926.170593,281.464203 
	C924.530945,280.845764 923.332031,279.058624 921.928223,277.814880 
z"/>
<path fill="#0E64A6" opacity="1.000000" stroke="none" 
	d="
M314.374878,478.999634 
	C315.914520,476.874847 317.484406,474.201019 319.804138,472.645477 
	C364.481964,442.686493 409.255066,412.869659 453.972504,382.969666 
	C456.120789,381.533173 457.937927,379.601440 459.954712,377.568909 
	C465.497375,378.977753 470.994629,380.718048 476.705566,383.041504 
	C475.555756,384.778351 474.289795,386.077942 472.814484,387.064331 
	C437.246948,410.844757 401.645294,434.574066 366.108612,458.400360 
	C364.460999,459.505066 363.358978,461.423523 362.002869,462.962982 
	C346.253357,468.299072 330.503815,473.635162 314.374878,478.999634 
z"/>
<path fill="#C41932" opacity="1.000000" stroke="none" 
	d="
M83.592972,909.394165 
	C87.888832,905.099792 92.298737,901.361755 96.183144,897.140137 
	C103.479591,889.210510 110.428032,880.961975 117.600945,872.917114 
	C131.733856,857.066284 145.882904,841.229492 160.098999,825.453247 
	C170.433838,813.984192 180.963760,802.690552 191.268387,791.194702 
	C204.221313,776.744385 217.005157,762.142639 229.917282,747.655518 
	C236.543808,740.220703 243.288696,732.891357 249.983627,725.517517 
	C263.261353,710.893188 276.554474,696.282837 289.794189,681.624207 
	C290.778748,680.534119 291.386871,679.104004 292.367279,677.458313 
	C294.785370,677.657532 297.006195,678.230408 299.578308,679.250366 
	C293.293152,687.302124 286.719055,694.962219 280.007233,702.499756 
	C265.889832,718.354004 251.712296,734.154724 237.534775,749.955322 
	C230.996811,757.241699 224.368408,764.447021 217.838165,771.740234 
	C204.121124,787.059937 190.465973,802.435059 176.736923,817.743896 
	C169.867767,825.403503 162.848572,832.928528 155.973648,840.583008 
	C141.899734,856.252991 127.796928,871.898376 113.877357,887.704834 
	C108.995613,893.248352 104.616272,899.234314 99.775063,905.291138 
	C94.311584,907.401917 89.080574,909.239868 83.849579,911.077820 
	C83.722992,910.629272 83.596405,910.180664 83.592972,909.394165 
z"/>
<path fill="#2691C7" opacity="1.000000" stroke="none" 
	d="
M999.881592,409.545410 
	C992.900208,407.834991 985.879639,405.965790 979.093140,403.462341 
	C954.833130,394.513153 930.660767,385.326508 906.439697,376.271362 
	C873.679993,364.023926 840.905396,351.816467 808.138428,339.588318 
	C799.597534,336.401001 791.028931,333.283264 782.551147,329.935974 
	C780.870483,329.272400 779.546753,327.704681 778.021240,326.180298 
	C782.014648,324.418732 786.045410,323.030823 790.538696,321.989807 
	C792.115723,323.211182 793.105469,324.396027 794.367615,324.903290 
	C798.521301,326.572845 802.790649,327.951782 806.985535,329.522400 
	C839.301086,341.621857 871.607605,353.745453 903.920898,365.850952 
	C927.533691,374.696960 951.105713,383.654968 974.794250,392.293579 
	C982.982971,395.279816 991.467773,397.453888 999.817383,399.998932 
	C999.861511,403.031158 999.905640,406.063416 999.881592,409.545410 
z"/>
<path fill="#0C5CA1" opacity="1.000000" stroke="none" 
	d="
M539.841858,403.720825 
	C538.374573,404.783813 536.669250,405.829865 534.821106,406.450500 
	C512.679993,413.886597 490.540466,421.328918 468.353302,428.625977 
	C452.013367,433.999939 435.605927,439.168793 419.221039,444.405518 
	C418.127930,444.754883 416.970856,444.904175 415.467224,444.822815 
	C417.741486,442.325562 420.233704,439.915802 423.067749,438.015930 
	C445.382599,423.056671 467.782410,408.224030 490.082520,393.242981 
	C491.715210,392.146179 492.772614,390.193024 494.097443,388.637970 
	C509.244110,393.594055 524.390808,398.550171 539.841858,403.720825 
z"/>
<path fill="#C01B34" opacity="1.000000" stroke="none" 
	d="
M100.007553,905.018311 
	C104.616272,899.234314 108.995613,893.248352 113.877357,887.704834 
	C127.796928,871.898376 141.899734,856.252991 155.973648,840.583008 
	C162.848572,832.928528 169.867767,825.403503 176.736923,817.743896 
	C190.465973,802.435059 204.121124,787.059937 217.838165,771.740234 
	C224.368408,764.447021 230.996811,757.241699 237.534775,749.955322 
	C251.712296,734.154724 265.889832,718.354004 280.007233,702.499756 
	C286.719055,694.962219 293.293152,687.302124 299.964813,679.350464 
	C302.138580,679.591919 304.277130,680.180420 306.705872,680.998413 
	C302.920380,686.388672 299.081726,691.759949 294.721588,696.668030 
	C284.479279,708.197388 273.906342,719.432495 263.615631,730.919617 
	C247.693497,748.692871 231.929642,766.607727 216.028793,784.400146 
	C208.845108,792.438354 201.427444,800.267395 194.231796,808.295166 
	C180.848358,823.226074 167.575531,838.256165 154.205383,853.199158 
	C147.349442,860.861633 140.369965,868.413452 133.470169,876.036926 
	C127.239975,882.920715 121.011810,889.807007 114.865730,896.765503 
	C114.021767,897.721008 113.657303,899.100037 112.700943,900.786865 
	C108.223221,902.533203 104.115387,903.775757 100.007553,905.018311 
z"/>
<path fill="#136CAC" opacity="1.000000" stroke="none" 
	d="
M999.884155,341.531128 
	C993.635864,340.309967 987.288269,339.083527 981.306702,336.868622 
	C946.683838,324.048279 912.138977,311.016663 877.610962,297.942566 
	C876.188965,297.404114 875.198425,295.726318 873.995483,294.189270 
	C880.999084,291.407440 888.014099,289.015717 895.580383,286.958252 
	C897.931885,288.432983 899.599731,289.924652 901.552368,290.660858 
	C928.583069,300.852631 955.627075,311.010712 982.734314,320.996338 
	C988.288147,323.042236 994.114807,324.347168 999.815796,325.993652 
	C999.861816,331.018829 999.907837,336.044037 999.884155,341.531128 
z"/>
<path fill="#0D61A4" opacity="1.000000" stroke="none" 
	d="
M493.804596,388.392578 
	C492.772614,390.193024 491.715210,392.146179 490.082520,393.242981 
	C467.782410,408.224030 445.382599,423.056671 423.067749,438.015930 
	C420.233704,439.915802 417.741486,442.325562 415.067932,444.862854 
	C407.728760,447.865570 400.452484,450.622375 393.086761,453.114746 
	C383.021515,456.520599 372.888214,459.725189 362.393494,462.989502 
	C363.358978,461.423523 364.460999,459.505066 366.108612,458.400360 
	C401.645294,434.574066 437.246948,410.844757 472.814484,387.064331 
	C474.289795,386.077942 475.555756,384.778351 476.970764,383.280029 
	C482.518738,384.672638 488.015259,386.409912 493.804596,388.392578 
z"/>
<path fill="#258EC5" opacity="1.000000" stroke="none" 
	d="
M999.886963,399.558777 
	C991.467773,397.453888 982.982971,395.279816 974.794250,392.293579 
	C951.105713,383.654968 927.533691,374.696960 903.920898,365.850952 
	C871.607605,353.745453 839.301086,341.621857 806.985535,329.522400 
	C802.790649,327.951782 798.521301,326.572845 794.367615,324.903290 
	C793.105469,324.396027 792.115723,323.211182 790.932373,321.949768 
	C794.592041,320.254425 798.320557,318.946014 802.435791,317.617737 
	C807.916382,320.116608 812.840820,323.083618 818.131165,325.082520 
	C856.744873,339.672546 895.427307,354.080902 934.098083,368.519775 
	C954.287292,376.058044 974.492554,383.553436 994.706421,391.025238 
	C996.081909,391.533691 997.591187,391.680542 999.427979,391.995056 
	C999.863953,394.369202 999.910278,396.743927 999.886963,399.558777 
z"/>
<path fill="#0E64A6" opacity="1.000000" stroke="none" 
	d="
M999.886047,325.530762 
	C994.114807,324.347168 988.288147,323.042236 982.734314,320.996338 
	C955.627075,311.010712 928.583069,300.852631 901.552368,290.660858 
	C899.599731,289.924652 897.931885,288.432983 895.975403,286.948853 
	C904.263184,283.662354 912.707275,280.719543 921.539795,277.795807 
	C923.332031,279.058624 924.530945,280.845764 926.170593,281.464203 
	C949.136353,290.126404 972.159363,298.637207 995.182129,307.147644 
	C996.402893,307.598877 997.746216,307.718353 999.422119,307.991333 
	C999.859924,313.682892 999.908142,319.375397 999.886047,325.530762 
z"/>
<path fill="#B52C45" opacity="1.000000" stroke="none" 
	d="
M285.000671,846.551270 
	C282.204376,847.250000 279.491486,847.600464 276.367279,847.946228 
	C277.640961,846.999695 279.226318,845.759644 281.025238,845.158997 
	C365.018372,817.109070 449.031281,789.118164 533.031433,761.089111 
	C534.694153,760.534302 536.232117,759.606018 537.908386,758.509644 
	C538.568909,758.274353 539.149353,758.381470 539.923828,758.726013 
	C538.553528,759.967468 537.115723,761.349792 535.406799,761.921204 
	C453.567139,789.287109 371.702789,816.579041 289.852753,843.914001 
	C288.193420,844.468140 286.670563,845.430908 285.000671,846.551270 
z"/>
<path fill="#B52C45" opacity="1.000000" stroke="none" 
	d="
M99.775070,905.291138 
	C104.115387,903.775757 108.223221,902.533203 112.666550,901.138489 
	C119.514557,898.844177 126.027069,896.702026 132.770721,894.286255 
	C144.111496,890.439087 155.221146,886.865601 166.666107,883.138733 
	C201.099182,871.686401 235.196945,860.387451 269.677979,849.066711 
	C268.676422,849.991333 267.411926,851.266052 265.885345,851.825439 
	C260.192352,853.911743 254.413330,855.763245 248.329025,857.851440 
	C241.478806,860.148438 234.966156,862.296875 228.221436,864.720154 
	C224.882751,865.900940 221.776138,866.806763 218.333862,867.861206 
	C214.483643,869.157776 210.969116,870.305786 207.225769,871.729370 
	C204.149200,872.822388 201.301437,873.639893 198.226196,874.733582 
	C194.912659,875.981079 191.826630,876.952393 188.370026,877.967529 
	C185.811203,878.825439 183.622955,879.639526 181.215317,880.719604 
	C177.150299,882.136963 173.304672,883.288269 169.228088,884.712646 
	C162.775681,887.105347 156.554245,889.224915 150.161407,891.656738 
	C143.930374,893.508728 137.778351,894.757446 131.829727,896.646545 
	C117.944366,901.056335 104.148781,905.750305 90.346794,910.417786 
	C89.374023,910.746704 88.646469,911.800903 87.879463,912.822754 
	C86.639496,912.675537 85.324974,912.223511 83.930008,911.424683 
	C89.080574,909.239868 94.311584,907.401917 99.775070,905.291138 
z"/>
<path fill="#B52C45" opacity="1.000000" stroke="none" 
	d="
M272.707520,848.955933 
	C272.690613,849.069031 272.429871,849.199890 272.072327,849.166626 
	C271.975586,849.002441 272.463715,848.973755 272.707520,848.955933 
z"/>
<path fill="#FCFDFE" opacity="1.000000" stroke="none" 
	d="
M412.654358,138.203995 
	C411.692780,137.542358 410.707520,136.896545 410.699829,136.239365 
	C410.594727,127.218903 418.163208,116.423409 426.626556,113.325378 
	C442.860046,107.383057 458.790039,120.226547 456.742157,138.214523 
	C442.236725,138.214523 427.660950,138.214523 412.654358,138.203995 
z"/>
<path fill="#FCFDFE" opacity="1.000000" stroke="none" 
	d="
M819.315918,130.840302 
	C824.235474,145.539627 824.373291,159.994049 819.792969,174.330551 
	C816.834412,183.590881 811.102356,190.451294 800.770752,191.949188 
	C789.028137,193.651688 779.509949,187.931274 775.167664,175.941452 
	C769.962952,161.570267 769.971741,146.869370 774.537476,132.351440 
	C778.143982,120.883621 785.722900,114.864937 795.937866,114.352798 
	C806.653259,113.815567 814.070374,118.967812 819.315918,130.840302 
z"/>
</svg>