<svg version="1.1" id="Layer_1" xmlns="http://www.w3.org/2000/svg" xmlns:xlink="http://www.w3.org/1999/xlink" x="0px" y="0px"
	 width="100%" viewBox="0 0 1024 1024" enable-background="new 0 0 1024 1024" xml:space="preserve">
<path fill="#000000" opacity="1.000000" stroke="none" 
	d="
M48.277843,601.393921 
	C57.304989,565.848938 66.227715,530.700623 75.101837,495.540039 
	C81.492790,470.218140 87.761833,444.865234 94.231430,419.563538 
	C95.287857,415.431976 94.107460,414.121857 89.990860,414.256500 
	C83.709564,414.461914 77.416588,414.310364 71.084183,414.310364 
	C69.834778,409.596344 71.423019,407.891998 75.604500,407.901886 
	C104.431023,407.970032 133.298630,407.025696 162.073059,408.264404 
	C192.165878,409.559875 211.891861,426.659271 223.086334,454.015961 
	C233.417572,479.263062 232.546280,505.143829 226.086731,530.982117 
	C218.623795,560.834045 204.999878,587.395264 181.641815,608.155762 
	C164.074097,623.769836 143.782715,632.490906 119.893684,632.330750 
	C88.735451,632.121887 57.574741,632.282471 26.415100,632.283508 
	C25.415339,632.283569 24.412106,632.329834 23.416582,632.263306 
	C21.664667,632.146301 19.400162,632.620728 19.424109,629.807861 
	C19.444139,627.455261 20.811541,626.091492 23.199665,626.042786 
	C27.863281,625.947815 32.535629,625.766724 37.191101,625.952881 
	C40.788078,626.096741 42.656628,624.864014 43.420403,621.188416 
	C44.774029,614.674194 46.552132,608.248230 48.277843,601.393921 
M84.588928,587.008179 
	C81.728928,598.293518 79.015862,609.619202 75.929848,620.842407 
	C74.838303,624.812134 75.984558,625.985046 79.814766,625.952820 
	C93.975235,625.833679 108.137032,625.879028 122.297806,625.784546 
	C128.077820,625.745972 133.420609,623.955933 138.498962,621.284485 
	C151.689590,614.345520 160.520721,603.144043 167.870956,590.679871 
	C181.903488,566.884338 189.941620,540.845642 195.702484,514.031128 
	C200.112564,493.503906 203.690948,472.934601 200.783905,451.734283 
	C197.857819,430.394928 185.165985,417.642670 163.653183,414.995667 
	C154.006638,413.808716 144.336334,414.837494 134.713028,414.194733 
	C129.540085,413.849243 127.518295,415.811249 126.297615,420.734161 
	C112.611298,475.929993 98.709557,531.072388 84.588928,587.008179 
z"/>
<path fill="#000000" opacity="1.000000" stroke="none" 
	d="
M476.184265,663.152832 
	C468.803558,672.714478 461.628021,681.987061 454.583466,691.090332 
	C452.135742,689.943909 452.393616,688.541992 452.438721,687.238647 
	C453.304230,662.239990 452.076324,637.262268 450.489441,612.358093 
	C447.567291,566.497620 442.371338,520.885742 430.506744,476.310364 
	C421.811584,443.642578 410.701660,411.971375 390.166443,384.530243 
	C375.080933,364.371429 356.081421,349.813324 330.516632,345.951416 
	C314.623260,343.550446 298.975586,345.765839 283.772125,350.836731 
	C257.088989,359.736450 235.021454,375.774200 215.345947,395.442505 
	C211.721512,399.065643 208.220016,402.811737 204.661179,406.501770 
	C202.992371,405.018982 204.082947,404.243713 204.602295,403.629700 
	C221.113602,384.108307 238.496323,365.446106 260.571564,352.044220 
	C312.743164,320.370789 371.081390,331.834351 408.376709,380.806915 
	C428.772400,407.588531 441.351715,438.142029 451.140259,469.974457 
	C462.258362,506.130524 470.064728,543.038147 475.445465,580.476135 
	C477.278595,593.230652 479.508728,605.928101 481.738007,619.772766 
	C523.012573,573.960327 563.588928,528.922852 604.858215,483.116211 
	C605.241211,486.491547 603.646240,487.693512 602.664795,489.052307 
	C563.170898,543.733704 523.647400,598.393738 484.096497,653.033936 
	C481.656891,656.404236 478.964294,659.591370 476.184265,663.152832 
z"/>
<path fill="#000000" opacity="1.000000" stroke="none" 
	d="
M246.708832,602.057861 
	C240.917465,581.323792 243.723770,561.985901 254.246078,543.906799 
	C268.901123,518.726929 289.652466,500.973663 318.839447,495.439545 
	C337.472687,491.906525 352.196259,495.708984 360.345123,517.791931 
	C360.433350,518.031128 360.772400,518.177673 361.240753,518.578125 
	C362.671387,514.228271 364.265045,510.063293 365.381165,505.774109 
	C366.277161,502.330841 367.951508,500.722351 371.652161,500.878448 
	C376.805573,501.095795 381.980286,501.040253 387.137604,500.861816 
	C391.298004,500.717834 392.421692,502.127136 391.117645,506.217743 
	C383.690613,529.514954 376.290009,552.822571 369.158813,576.211487 
	C365.137817,589.399475 360.114410,602.308960 357.805603,615.998718 
	C357.151733,619.875610 357.311646,623.621521 360.666046,625.914551 
	C364.060150,628.234680 367.716003,626.910583 370.980804,624.881775 
	C378.813629,620.014221 383.987885,612.584961 389.538849,605.524109 
	C390.361328,604.477966 391.073517,603.343018 391.922791,602.320679 
	C392.819733,601.240967 393.859589,600.388062 395.319702,601.492859 
	C396.627869,602.482727 397.522705,603.706787 396.513672,605.324158 
	C388.975037,617.407410 381.281891,629.481873 366.929871,634.516663 
	C351.242462,640.019897 338.841614,632.449341 336.020355,616.105591 
	C335.694855,614.220032 336.092773,612.092834 334.505554,610.500488 
	C301.897369,654.386597 256.033081,635.478394 246.708832,602.057861 
M301.163269,514.664490 
	C299.437195,516.905701 297.593689,519.067017 296.003998,521.401062 
	C285.259369,537.177185 279.010773,554.871155 274.372131,573.180237 
	C271.383606,584.976074 269.273865,596.945618 270.023132,609.217590 
	C270.826019,622.367065 278.989594,629.985535 292.187256,629.704651 
	C298.580231,629.568665 304.736572,628.169983 310.340393,624.894348 
	C323.540680,617.178101 331.191772,604.946716 336.630951,591.306274 
	C344.028168,572.755310 349.241455,553.432434 355.712128,534.553284 
	C360.763550,519.815063 347.004974,497.926270 324.923737,500.730560 
	C315.309296,501.951599 307.969238,507.186005 301.163269,514.664490 
z"/>
<path fill="#000000" opacity="1.000000" stroke="none" 
	d="
M931.828674,626.869019 
	C924.462402,633.136841 916.565430,637.193420 906.944275,635.897766 
	C895.896606,634.410095 890.409424,628.375610 887.977417,615.830627 
	C887.638367,614.081543 888.126038,612.130737 886.414368,610.041077 
	C884.903198,611.870728 883.521118,613.623535 882.056396,615.304138 
	C874.485657,623.990479 865.726135,631.094666 854.482849,634.326477 
	C830.236572,641.295837 805.731934,626.726379 798.674255,601.818176 
	C790.728455,573.775635 799.417542,549.887634 816.980530,528.520508 
	C830.981873,511.486389 848.512756,499.172363 870.705444,495.420074 
	C891.065186,491.977631 904.414795,496.541656 913.119690,519.501526 
	C914.822876,514.312256 916.430359,509.896576 917.699524,505.385742 
	C918.610291,502.148682 920.340576,500.762421 923.773621,500.898621 
	C928.928284,501.103210 934.103577,501.072205 939.259766,500.873413 
	C943.706909,500.701996 944.272827,502.575043 943.070251,506.385254 
	C933.206726,537.636597 923.400391,568.906311 913.692749,600.206360 
	C912.020630,605.597717 910.756409,611.129272 909.572998,616.653687 
	C908.796326,620.279480 909.473022,623.871216 912.809937,625.974670 
	C915.885071,627.913025 919.220337,627.214966 922.273987,625.400574 
	C930.363403,620.593994 935.720703,613.131042 941.394958,605.934265 
	C942.913208,604.008606 943.843140,599.594788 947.339417,601.720032 
	C951.468933,604.230286 947.447266,606.921021 946.126160,609.166748 
	C942.310669,615.652771 937.633179,621.501648 931.828674,626.869019 
M826.659912,572.138000 
	C823.756958,584.965210 820.901733,597.792969 822.201599,611.106689 
	C823.115784,620.469604 828.579956,627.038269 837.715332,628.897034 
	C849.425964,631.279724 859.813538,628.011414 868.849548,620.443298 
	C877.323914,613.345764 883.272400,604.302979 887.480896,594.205383 
	C895.620300,574.676636 901.268005,554.287842 907.766479,534.192261 
	C912.611084,519.210876 899.164734,497.843475 876.656555,500.813690 
	C865.686584,502.261322 857.804688,508.723236 851.256958,517.065735 
	C838.648071,533.130493 832.311584,552.039734 826.659912,572.138000 
z"/>
<path fill="#000000" opacity="1.000000" stroke="none" 
	d="
M740.081299,462.077087 
	C740.862000,460.002899 741.196777,457.877411 743.548523,457.856171 
	C752.952576,457.771149 761.429993,454.673645 769.354187,449.667938 
	C769.782104,449.928955 770.210083,450.189972 770.638000,450.450989 
	C765.565063,466.895966 760.492126,483.340942 755.424744,499.767914 
	C758.622742,501.566925 761.504333,500.821198 764.248657,500.866455 
	C771.579651,500.987396 778.914734,500.853729 786.246338,500.955322 
	C788.063843,500.980499 790.819763,500.233978 790.922913,503.213470 
	C791.027405,506.228760 789.033813,507.442566 785.982971,507.406006 
	C777.318054,507.302094 768.633484,507.709351 759.991089,507.257782 
	C754.568726,506.974487 752.203369,508.764374 750.590637,514.051941 
	C741.849548,542.709839 732.656555,571.229736 723.661987,599.810547 
	C721.913635,605.366150 720.520386,611.001892 719.904114,616.833191 
	C719.124695,624.207703 723.700623,628.794495 730.979370,627.544189 
	C736.181030,626.650696 740.647827,623.977539 744.998840,621.194397 
	C756.225952,614.012817 765.442505,604.689941 773.467712,594.121582 
	C774.698181,592.501221 775.646912,589.822144 778.448853,591.874634 
	C781.253723,593.929321 779.078430,595.614258 777.780212,597.240845 
	C768.695251,608.624084 758.839111,619.205994 746.276611,626.880859 
	C738.142944,631.849976 729.404053,634.522461 719.723145,634.259827 
	C702.487488,633.792236 692.564270,621.827148 696.254883,604.888245 
	C700.229004,586.648254 706.677917,569.101013 712.161194,551.285706 
	C716.029724,538.716858 719.951355,526.164429 723.825317,513.597229 
	C724.352722,511.886414 724.740112,510.132416 725.417358,507.535706 
	C717.943420,507.535706 711.066162,507.535706 703.918213,507.535706 
	C703.359497,503.214203 704.394165,501.005005 708.394165,500.975372 
	C713.226990,500.939575 718.068604,500.760498 722.890259,500.987518 
	C726.500671,501.157471 728.312317,499.767975 729.350037,496.306274 
	C732.744263,484.982788 736.390259,473.734772 740.081299,462.077087 
z"/>
<path fill="#000000" opacity="1.000000" stroke="none" 
	d="
M652.219360,535.102783 
	C644.318237,559.723633 636.505676,583.954529 628.735535,608.199036 
	C627.665955,611.536499 626.955139,614.958496 627.271545,618.515076 
	C627.698914,623.317932 631.029602,625.953369 635.808777,625.203918 
	C642.097656,624.217590 647.403381,621.244568 652.156372,617.123962 
	C657.727539,612.294006 662.582764,606.833374 666.764099,600.767700 
	C667.949402,599.048157 669.303406,598.181946 671.358276,599.516418 
	C673.239014,600.737854 673.083069,602.204895 671.969910,603.760132 
	C661.640198,618.193176 649.407104,630.114014 631.199524,633.781433 
	C626.266846,634.775024 621.266052,634.589844 616.432190,632.753967 
	C606.592957,629.017334 601.059387,619.182190 603.127808,608.660461 
	C606.153748,593.268616 611.577148,578.555115 616.141479,563.602905 
	C621.485840,546.095215 627.059265,528.657471 632.506653,511.181122 
	C632.792603,510.263672 632.829773,509.268646 633.131409,507.378448 
	C628.027222,507.378448 623.285645,507.431030 618.546143,507.352386 
	C616.660461,507.321075 614.150024,507.875854 614.034668,504.839233 
	C613.918640,501.781799 615.965576,500.971344 618.641846,500.908447 
	C625.960449,500.736481 633.273132,500.999268 640.593872,500.074615 
	C647.247498,499.234222 653.744202,498.056549 659.998169,495.612427 
	C661.197571,495.143677 662.446899,494.471405 664.551331,495.653107 
	C660.510193,508.561096 656.415771,521.639099 652.219360,535.102783 
z"/>
<path fill="#000000" opacity="1.000000" stroke="none" 
	d="
M672.070007,390.043945 
	C674.080322,386.962738 676.064026,384.260712 677.587952,381.320374 
	C679.010254,378.576263 679.944092,375.578979 681.201294,372.420837 
	C686.975891,380.472778 682.334351,395.525726 667.947754,416.378998 
	C679.305054,423.468079 687.264771,433.161194 690.273560,446.497131 
	C688.135315,447.408203 687.763672,445.908203 687.115295,445.142029 
	C679.003357,435.556122 668.102478,433.597809 656.390198,433.812653 
	C654.048157,433.855591 652.961609,435.655029 651.731140,437.197174 
	C642.964844,448.184692 632.830811,457.793762 621.993469,466.687012 
	C620.920837,467.567200 619.909363,468.902100 617.504211,468.210876 
	C619.618042,464.719116 621.609070,461.393585 623.635498,458.089752 
	C629.390320,448.707092 634.621155,439.087524 638.150208,428.588501 
	C639.366150,424.971161 639.010681,422.863159 635.163818,421.216248 
	C628.734131,418.463501 622.667297,414.930267 616.996643,410.797607 
	C615.620789,409.794861 613.625549,409.161713 613.661011,406.871979 
	C615.099121,406.010468 616.274780,406.923584 617.496521,407.286377 
	C621.525635,408.482849 625.623169,409.076904 629.830017,408.762207 
	C640.526855,407.962067 644.577820,404.436615 646.177490,393.996552 
	C646.779419,390.067841 646.673828,386.033905 646.976501,382.054443 
	C647.095703,380.486938 646.381592,378.690735 648.591980,376.938232 
	C653.134338,382.025940 655.313477,388.179657 656.942566,394.533539 
	C658.485413,400.550568 659.195190,400.936859 664.204041,397.463196 
	C667.100830,395.454224 669.604919,393.030273 672.070007,390.043945 
z"/>
<path fill="#000000" opacity="1.000000" stroke="none" 
	d="
M997.888428,629.937378 
	C990.348450,636.032104 982.504883,636.723022 974.375488,632.352844 
	C967.251099,628.523071 963.450562,620.622437 964.858521,612.040955 
	C966.191223,603.917908 971.273804,598.725403 979.155090,596.408386 
	C987.577698,593.932190 996.757690,597.693359 1001.521912,605.442444 
	C1006.154114,612.976746 1004.842773,622.428711 997.888428,629.937378 
M990.177368,604.853088 
	C995.362183,609.335327 995.291016,611.344666 989.555786,618.149780 
	C991.093750,620.862732 992.338928,623.857666 994.882874,626.092163 
	C1000.519287,619.215515 1000.191040,609.411316 994.456421,604.026550 
	C989.031555,598.932678 980.115417,598.929871 974.412781,604.020325 
	C968.732971,609.090332 967.777039,618.312500 972.291626,624.483521 
	C976.939148,630.836304 984.770020,632.305420 991.955688,627.870117 
	C987.093506,626.064209 987.322571,619.608459 982.435181,617.831726 
	C980.535767,619.742188 981.398376,621.875061 981.124634,623.768555 
	C980.895996,625.349792 980.611511,626.928894 978.656555,626.890442 
	C976.650940,626.850891 976.417419,625.236755 976.438721,623.640808 
	C976.483276,620.310120 976.606750,616.979492 976.597534,613.649170 
	C976.568054,603.008606 977.694214,602.093689 988.470337,604.179260 
	C988.792175,604.241516 989.093262,604.411316 990.177368,604.853088 
M982.337036,608.559387 
	C980.913513,609.906128 980.579102,611.696411 981.962036,612.903198 
	C983.468384,614.217590 985.453186,613.299438 987.147278,612.624756 
	C988.153015,612.224304 988.799988,611.336975 988.522400,610.252380 
	C987.894165,607.797668 985.781982,608.336304 984.026428,608.227905 
	C983.699707,608.207642 983.366760,608.288086 982.337036,608.559387 
z"/>
</svg>