<svg xmlns="http://www.w3.org/2000/svg" height="800" width="1200" viewBox="-5.354976 -1.380005 46.409792 8.28003"><path d="M4.1147 3.22192h.55985c.35348 0 .36301.36336.36301.36336v1.93463H8.2295v-.90346s-.68756-.15734-.68756-.67769c0-.43215-.01-1.97379-.01-2.45498 0-.48118.69744-.70696.69744-.70696V.00106H5.04731V1.9357c0 .31397-.3436.34361-.3436.34361H3.52543s-.3436-.0296-.3436-.3436V.00105H.00013v.77576s.69708.22578.69708.70696c0 .4812-.01 2.02283-.01 2.45498 0 .52035-.6872.6777-.6872.6777v.90345h3.19157V3.58528s.01-.36336.36336-.36336zm12.07515-1.5433h-2.10467V1.1364s-.0258-.33584-.34855-.33584h-1.2393s-.34255.0388-.34255.3422v1.28481h1.94345s.25153.0127.25153.25153v.23918s-.0258.26141-.2614.26141h-1.91418v1.02976s-.0127.36124.3616.36124h1.21391s.36794-.0258.36794-.36795v-.30338h2.07222l.002 1.62066H8.99977v-.90347s.68757-.15734.68757-.67768c0-.43216.01-1.97379.01-2.45498S8.9999.77692 8.9999.77692V.00116h7.19032zm.80222 3.84136v-.90346s.68721-.15734.68721-.67769c0-.43215.01-1.97379.01-2.45498S16.9922.77688 16.9922.77688V.00112h3.9236V.9046s-.68757.15698-.68757.67768c0 .43216-.01 1.9738-.01 2.455 0 .48117.69708.70695.69708.70695v.77576zm5.65379-.01947c-.68474 0-1.23966-.55492-1.23966-1.23966V1.23966C21.4062.55492 21.96112 0 22.64586 0h5.38409v1.66582h-2.16923V1.1363s-.0515-.3422-.34219-.3422h-1.31057s-.32597.0194-.32597.41981v3.04694s.0519.36336.37606.36336h1.42205s.25894-.0145.25894-.36336V3.9123h2.10397v1.58821h-5.33259zm10.56196-4.23884c0-.2547-.20637-.46108-.46108-.46108h-.97155c-.2547 0-.46108.20637-.46108.46108v3.02895c0 .25435.20637.46108.46108.46108h.97155c.25471 0 .46108-.20673.46108-.46108zM35.69984 4.261c0 .68474-.55527 1.23966-1.23966 1.23966h-4.49333c-.68439 0-1.23966-.55492-1.23966-1.23966V1.23945c0-.68439.55527-1.2393 1.23966-1.2393h4.49333c.6844 0 1.23966.55491 1.23966 1.2393z" fill="#293180"/></svg>