<svg version="1.1" id="Layer_1" xmlns="http://www.w3.org/2000/svg" xmlns:xlink="http://www.w3.org/1999/xlink" x="0px" y="0px"
	 width="100%" viewBox="0 0 1024 1024" enable-background="new 0 0 1024 1024" xml:space="preserve">
<path fill="#000000" opacity="1.000000" stroke="none" 
	d="
M774.977112,617.137207 
	C774.084900,623.968933 771.886169,626.162170 765.689697,626.180664 
	C741.856995,626.251831 718.023926,626.204224 694.191162,626.251648 
	C691.397705,626.257202 688.875977,625.549500 686.721802,623.869568 
	C682.379456,620.483215 680.982666,612.223206 688.318604,610.549988 
	C696.987366,608.572754 699.578003,602.471313 699.553833,594.637573 
	C699.447815,560.313477 700.480713,525.977417 698.912170,491.668854 
	C698.174927,475.542786 684.332458,465.927795 668.810730,470.329681 
	C666.253052,471.055054 663.677795,471.790375 661.223389,472.796112 
	C649.238586,477.707214 644.982727,483.964905 644.951294,496.884827 
	C644.889343,522.384216 644.944336,547.883850 644.879456,573.383240 
	C644.857910,581.865356 643.794312,590.333923 645.040710,598.830322 
	C646.132690,606.273621 646.651794,607.008789 653.770813,609.019104 
	C657.839600,610.168030 661.976868,611.393860 662.057556,616.844360 
	C662.126099,621.479004 659.624695,624.193848 653.541870,625.625183 
	C651.464722,626.113953 649.255249,626.193604 647.105713,626.197571 
	C625.606201,626.237000 604.106567,626.225281 582.606995,626.216003 
	C580.446777,626.215088 578.297546,626.252441 576.173340,625.585876 
	C572.223083,624.346558 569.962646,621.825134 569.791748,617.630005 
	C569.627014,613.587463 572.124268,611.820679 575.572754,610.543030 
	C584.262634,607.323547 585.837708,604.893555 585.927246,595.765381 
	C586.198425,568.105896 586.571228,540.447205 586.730652,512.787170 
	C586.773804,505.301910 586.445618,497.793365 585.842896,490.331421 
	C585.222412,482.650421 580.712280,477.429565 573.833252,474.414703 
	C561.213562,468.884033 541.324097,474.523163 533.118958,485.704895 
	C531.657104,487.697083 531.211792,489.847076 531.213928,492.262573 
	C531.244690,526.928589 531.209412,561.594604 531.250183,596.260620 
	C531.258667,603.444702 533.774597,606.822205 540.565247,609.354187 
	C541.812744,609.819275 543.048340,610.353149 544.335083,610.669312 
	C547.580200,611.466675 549.878906,613.324402 550.070923,616.723572 
	C550.277588,620.381348 548.399292,623.085144 545.005920,624.581726 
	C542.383362,625.738525 539.633423,626.223877 536.741638,626.223206 
	C448.910065,626.202454 361.078491,626.198486 273.246948,626.250549 
	C268.853302,626.253113 265.733887,624.987793 264.923309,620.267395 
	C264.028076,615.054138 265.286835,612.636292 270.697174,610.899170 
	C278.062256,608.534363 281.152405,602.776184 282.461182,596.036011 
	C283.436005,591.015808 284.071259,585.859314 284.047119,580.651489 
	C283.937500,556.985718 284.017761,533.319031 283.915375,509.653198 
	C283.885193,502.669922 283.194580,495.758026 281.224243,488.969971 
	C276.228149,471.758057 263.236755,469.281494 249.045258,471.801575 
	C245.647354,472.404938 242.422012,474.043060 239.491226,476.024811 
	C232.959946,480.441071 228.917862,485.717865 229.027039,494.474701 
	C229.444565,527.968933 229.289474,561.471741 229.149292,594.970520 
	C229.115143,603.126160 230.799988,609.498230 240.127762,611.224304 
	C242.519592,611.666931 244.220886,613.780029 244.367233,616.286194 
	C244.551514,619.441895 243.238464,622.238770 240.461731,623.905273 
	C237.877045,625.456543 235.008713,626.227478 231.891388,626.221252 
	C208.892029,626.175415 185.892502,626.220215 162.893097,626.187561 
	C161.248047,626.185242 159.557678,625.968994 157.968201,625.549622 
	C154.470596,624.626770 152.092026,622.678711 151.809570,618.679443 
	C151.523590,614.630310 153.574219,612.275757 157.095444,611.247925 
	C166.593719,608.475281 169.908615,602.091614 169.879669,592.482910 
	C169.694962,531.151428 169.739685,469.818848 169.906265,408.487152 
	C169.920670,403.183563 167.860886,400.371948 163.084671,399.000000 
	C160.685898,398.310944 158.256378,397.701477 155.911469,396.859192 
	C152.845520,395.757904 151.586716,393.342102 151.730148,390.191559 
	C151.873596,387.040771 153.766098,385.542450 156.719513,384.869354 
	C179.339783,379.713928 201.369141,372.980042 221.434174,360.879578 
	C225.435379,358.466614 228.054550,359.873627 228.905502,364.500305 
	C229.203400,366.120056 229.117554,367.819885 229.118927,369.483215 
	C229.144104,399.815887 229.150101,430.148529 229.183975,460.481201 
	C229.186142,462.420746 228.875275,464.450897 229.955444,466.216217 
	C232.556030,466.573395 233.711319,464.673492 235.167343,463.458191 
	C253.362152,448.271698 274.046234,441.652985 297.733337,444.934998 
	C317.754547,447.709076 336.246948,465.517731 340.375885,485.545197 
	C341.838898,492.641541 342.271545,499.678162 342.260223,506.844543 
	C342.212921,536.843872 342.216553,566.843384 342.244293,596.842834 
	C342.253326,606.600830 345.221588,610.002136 354.755157,611.536621 
	C359.811279,612.350464 364.760895,611.668884 369.541565,610.119507 
	C375.510193,608.184875 377.719482,604.995117 377.805542,598.544800 
	C378.174622,570.889160 378.579559,543.233459 378.761658,515.576416 
	C378.812012,507.928650 378.149933,500.275635 377.792206,492.626068 
	C377.638428,489.338348 376.022766,486.876282 373.110779,485.476807 
	C370.728790,484.332062 368.193237,483.493988 365.694366,482.608429 
	C362.272369,481.395691 359.784241,479.463196 359.933350,475.438019 
	C360.083069,471.395264 362.956970,470.389313 366.264771,469.639923 
	C387.153259,464.907471 407.093140,457.756836 425.439270,446.478363 
	C430.624878,443.290497 434.069092,444.751343 436.286713,450.477692 
	C437.096680,452.569061 437.147369,454.701508 437.145142,456.867737 
	C437.097778,502.866669 437.047791,548.865601 436.997009,594.864502 
	C436.995880,595.864441 436.962341,596.864502 436.973145,597.864258 
	C437.079498,607.701599 440.158264,610.709839 450.271210,610.833862 
	C452.270630,610.858398 454.271240,610.830933 456.270721,610.795898 
	C467.550293,610.597961 472.680420,605.569275 472.802887,594.202393 
	C472.944824,581.037476 472.864838,567.870117 472.872711,554.703857 
	C472.883514,536.704163 472.895111,518.704529 472.881805,500.704834 
	C472.880066,498.374237 472.920135,496.018890 472.616730,493.717773 
	C471.640686,486.315155 469.707703,484.470001 462.281708,483.268646 
	C460.149048,482.923676 458.043640,482.398956 455.936523,481.910065 
	C452.805817,481.183655 450.236969,479.807800 450.086395,476.114777 
	C449.933441,472.363525 451.884125,470.362854 455.471985,469.438324 
	C464.779968,467.039825 474.124054,464.780975 483.251648,461.700806 
	C494.804962,457.802124 505.783905,452.687286 516.580566,447.055756 
	C528.235901,440.976410 531.251038,442.913849 531.237488,455.850037 
	C531.234253,458.932587 531.237000,462.015106 531.237000,465.055756 
	C534.690491,465.320953 535.846619,463.181458 537.442871,461.879211 
	C558.865295,444.402344 582.934143,439.116394 609.529907,446.690125 
	C619.299194,449.472137 626.687988,455.943817 632.615662,464.157379 
	C637.645813,471.127289 638.008728,471.108154 644.478271,465.623901 
	C660.493896,452.047485 679.006714,444.377960 699.912048,443.107849 
	C726.013367,441.522034 742.492004,455.337799 751.202942,478.510040 
	C756.042175,491.382721 758.002747,504.887421 758.152588,518.552612 
	C758.435974,544.382385 758.270142,570.216858 758.337891,596.049255 
	C758.362366,605.374939 759.126160,606.337097 767.747192,609.479126 
	C771.255615,610.757751 774.713196,612.171936 774.977112,617.137207 
z"/>
<path fill="#000000" opacity="1.000000" stroke="none" 
	d="
M883.925598,527.063538 
	C892.206665,534.356934 898.644653,542.535278 901.768921,552.906433 
	C907.313965,571.313538 900.514343,592.455261 885.256104,605.092529 
	C864.893433,621.957397 841.494568,628.048767 815.432312,625.268799 
	C805.082886,624.164734 795.068298,622.091431 785.769104,617.258667 
	C776.533081,612.458740 769.802246,605.636536 766.886780,595.246582 
	C763.587219,583.487366 771.188538,571.744080 783.286499,570.571533 
	C799.624268,568.987976 805.649353,572.827515 810.876892,588.348755 
	C812.306885,592.594788 813.460510,596.935303 814.692383,601.246338 
	C816.001587,605.828186 819.044739,608.823181 823.530090,609.936584 
	C833.862549,612.501526 848.149597,610.668518 853.311096,600.704834 
	C857.190430,593.216248 857.495300,585.663696 852.444763,578.548645 
	C846.537842,570.227356 838.109863,564.709106 829.859863,559.073792 
	C819.828796,552.221985 809.383850,545.965942 800.374695,537.692139 
	C789.654602,527.847107 782.371643,516.008850 782.078674,501.284454 
	C781.720825,483.298950 790.096313,469.098816 804.784485,459.208893 
	C830.036499,442.206055 857.479858,439.066010 886.213013,448.754028 
	C901.201904,453.807861 909.650391,465.142914 909.175598,478.017334 
	C908.816956,487.743164 902.749390,493.592834 893.077881,494.231567 
	C875.055115,495.421844 871.114685,487.663513 866.773987,474.934418 
	C866.399536,473.836456 866.001953,472.740265 865.725586,471.616119 
	C864.330078,465.940033 862.494873,460.349854 855.937256,458.990997 
	C848.355042,457.419800 840.902893,458.237549 834.571960,463.189087 
	C826.669556,469.369781 826.189453,481.826080 833.439575,489.957184 
	C838.578003,495.720001 844.929199,500.038422 851.245361,504.381378 
	C862.075745,511.828247 873.786987,518.002441 883.925598,527.063538 
z"/>
<path fill="#000000" opacity="1.000000" stroke="none" 
	d="
M387.857300,429.288757 
	C376.792206,420.760254 373.335327,409.732330 376.259338,396.777039 
	C379.027924,384.510559 386.916901,376.003113 398.957825,373.293945 
	C420.587494,368.427277 436.508484,384.934143 435.617249,404.269501 
	C434.818817,421.591522 420.911438,436.606628 400.631409,434.215302 
	C396.035309,433.673370 392.050690,431.770233 387.857300,429.288757 
z"/>
</svg>