<svg version="1.1" id="Layer_1" xmlns="http://www.w3.org/2000/svg" xmlns:xlink="http://www.w3.org/1999/xlink" x="0px" y="0px"
	 width="100%" viewBox="0 0 1080 1080" enable-background="new 0 0 1080 1080" xml:space="preserve">
<path fill="#FFFFFF" opacity="1.000000" stroke="none" 
	d="
M498.000000,1081.000000 
	C332.019104,1081.000000 166.538193,1081.000000 1.028647,1081.000000 
	C1.028647,721.060669 1.028647,361.121277 1.028647,1.090960 
	C360.897797,1.090960 720.795654,1.090960 1080.846680,1.090960 
	C1080.846680,360.999939 1080.846680,720.999939 1080.846680,1081.000000 
	C886.787537,1081.000000 692.643738,1081.000000 498.000000,1081.000000 
M319.500000,346.013458 
	C218.410782,346.013458 117.321564,346.013458 16.304611,346.013458 
	C16.304611,476.319092 16.304611,606.049683 16.304611,735.698730 
	C366.323395,735.698730 716.045227,735.698730 1065.694336,735.698730 
	C1065.694336,605.680054 1065.694336,475.949554 1065.694336,346.013458 
	C817.098022,346.013458 568.799011,346.013458 319.500000,346.013458 
z"/>
<path fill="#030303" opacity="1.000000" stroke="none" 
	d="
M320.000000,346.013458 
	C568.799011,346.013458 817.098022,346.013458 1065.694336,346.013458 
	C1065.694336,475.949554 1065.694336,605.680054 1065.694336,735.698730 
	C716.045227,735.698730 366.323395,735.698730 16.304611,735.698730 
	C16.304611,606.049683 16.304611,476.319092 16.304611,346.013458 
	C117.321564,346.013458 218.410782,346.013458 320.000000,346.013458 
M236.499985,718.073425 
	C507.046844,718.073425 777.593689,718.073425 1048.017456,718.073425 
	C1048.017456,599.721741 1048.017456,481.683624 1048.017456,363.794495 
	C709.712158,363.794495 371.830261,363.794495 34.073593,363.794495 
	C34.073593,482.015625 34.073593,599.897217 34.073593,718.072937 
	C101.557907,718.072937 168.528946,718.072937 236.499985,718.073425 
z"/>
<path fill="#FEFEFE" opacity="1.000000" stroke="none" 
	d="
M235.999969,718.073181 
	C168.528946,718.072937 101.557907,718.072937 34.073593,718.072937 
	C34.073593,599.897217 34.073593,482.015625 34.073593,363.794495 
	C371.830261,363.794495 709.712158,363.794495 1048.017456,363.794495 
	C1048.017456,481.683624 1048.017456,599.721741 1048.017456,718.073425 
	C777.593689,718.073425 507.046844,718.073425 235.999969,718.073181 
M239.614899,444.250031 
	C240.948715,444.867706 242.225861,445.766388 243.627243,446.049011 
	C247.446320,446.819214 251.317902,447.329163 254.824982,447.887512 
	C254.824982,474.797424 254.824982,500.872864 254.824982,526.847412 
	C224.080643,526.847412 193.678253,526.847412 163.144592,526.847412 
	C163.144592,500.428558 163.144592,474.303986 163.144592,447.821442 
	C166.814087,447.202057 170.552155,447.036835 173.959152,445.888977 
	C179.342102,444.075378 175.961090,439.538177 176.792694,436.123016 
	C153.162674,436.123016 129.961197,436.123016 107.014481,436.123016 
	C107.014481,439.604553 107.014481,442.690735 107.014481,445.732178 
	C109.692795,446.135742 111.988945,446.752441 114.290215,446.772186 
	C119.094650,446.813324 120.533470,448.691620 120.503937,453.734802 
	C120.163338,511.893219 120.121239,570.053345 120.000443,628.213074 
	C119.996727,630.001526 119.999969,631.789917 119.999969,633.635071 
	C115.293465,634.340698 111.087898,634.971130 106.833778,635.608887 
	C106.833778,639.224609 106.833778,642.498169 106.833778,645.889282 
	C130.231552,645.889282 153.423828,645.889282 176.606445,645.889282 
	C176.606445,642.254272 176.606445,638.992676 176.606445,635.595215 
	C172.163483,634.937378 167.942947,634.312561 163.386566,633.638000 
	C163.386566,605.503052 163.386566,577.600281 163.386566,549.551147 
	C193.926498,549.551147 224.337479,549.551147 254.923004,549.551147 
	C255.016190,550.761414 255.157761,551.732056 255.155853,552.702515 
	C255.108765,576.699402 255.050613,600.696350 254.977982,624.693237 
	C254.972946,626.357910 254.848465,628.022705 254.765076,629.686646 
	C254.635010,632.281433 253.839905,633.962036 250.698502,634.142029 
	C247.098572,634.348206 243.535721,635.202148 239.809021,635.798340 
	C239.809021,639.274963 239.809021,642.533020 239.809021,645.974243 
	C263.758087,645.974243 287.484375,645.974243 311.254700,645.974243 
	C311.254700,642.293518 311.254700,638.905945 311.254700,635.420410 
	C309.563843,635.275391 308.245789,635.146606 306.925262,635.051636 
	C297.107758,634.345764 297.011993,634.348083 296.996124,624.672913 
	C296.901642,567.013184 296.853760,509.353516 296.800018,451.693817 
	C296.798950,450.551331 296.916443,449.408691 296.998505,447.900360 
	C301.808075,447.088501 306.503998,446.295837 311.354980,445.476990 
	C311.354980,442.273315 311.354980,439.193024 311.354980,436.051727 
	C287.328705,436.051727 263.586823,436.051727 239.589828,436.051727 
	C239.589828,438.670013 239.589828,440.984955 239.614899,444.250031 
M866.535828,501.698944 
	C866.455872,500.117340 866.375854,498.535736 866.291626,496.870667 
	C848.664062,496.870667 831.556641,496.870667 814.320374,496.870667 
	C814.320374,500.276642 814.320374,503.501526 814.320374,506.549683 
	C819.034912,507.347687 823.401245,508.086761 827.682495,508.811432 
	C827.682495,551.205383 827.682495,592.995483 827.682495,634.748108 
	C813.365295,637.313293 813.365295,637.313293 814.423340,645.922485 
	C836.294922,645.922485 858.171814,645.922485 879.898926,645.922485 
	C879.898926,642.806763 879.898926,640.028992 879.898926,637.225342 
	C875.416565,636.366699 871.240479,635.566711 866.930969,634.741211 
	C866.930969,599.742615 866.907776,565.093750 867.016724,530.445251 
	C867.021057,529.074097 867.918396,527.155029 869.019165,526.423523 
	C879.588867,519.399780 890.748962,514.483704 904.006653,515.765198 
	C912.000305,516.537903 917.467163,520.483582 920.827942,527.271912 
	C922.553406,530.757263 923.721680,534.834412 923.915833,538.705505 
	C924.624390,552.836365 925.002502,566.991150 925.157043,581.140625 
	C925.351440,598.945679 925.203918,616.754333 925.203918,634.755554 
	C920.645691,635.618408 916.466248,636.409485 912.147522,637.226990 
	C912.147522,640.310730 912.147522,643.187256 912.147522,646.018860 
	C934.274902,646.018860 956.043335,646.018860 977.784485,646.018860 
	C978.758179,636.923706 978.567322,636.694702 970.217651,635.783264 
	C968.309570,635.574951 966.421570,635.183167 964.353577,634.848206 
	C964.353577,632.191345 964.371765,630.034058 964.350891,627.877136 
	C964.039001,595.717224 964.497314,563.525452 963.174561,531.406982 
	C961.996155,502.793945 941.021545,492.127960 917.984802,493.446838 
	C902.213806,494.349762 888.516907,500.976257 875.978455,510.256897 
	C873.244995,512.280151 870.405945,514.160645 866.536133,516.859619 
	C866.536133,511.237671 866.536133,506.946747 866.535828,501.698944 
M649.779358,621.683716 
	C655.807190,630.979492 663.653809,638.352905 673.838989,642.737732 
	C693.672485,651.276062 714.421570,652.584534 735.486206,649.056946 
	C761.407776,644.716003 780.696289,630.809937 791.490356,606.772583 
	C799.720398,588.445374 799.802490,568.847290 795.839355,549.444458 
	C791.499817,528.198242 780.265015,511.534393 760.719910,501.143402 
	C748.191162,494.482574 734.530457,492.963898 720.656067,492.281311 
	C691.528503,490.848267 657.875671,504.760956 644.355286,538.447327 
	C638.148499,553.911621 638.099976,569.970215 638.941650,586.126221 
	C639.589233,598.556824 642.798767,610.359680 649.779358,621.683716 
M584.869873,472.501312 
	C584.869873,466.261230 584.869873,460.021179 584.869873,453.127075 
	C571.080383,457.281891 558.591003,461.045013 545.975098,464.846222 
	C545.975098,475.608032 545.975098,485.902069 545.975098,496.640350 
	C536.439453,496.640350 527.169800,496.640350 517.740845,496.640350 
	C517.740845,501.466766 517.740845,505.838013 517.740845,510.529297 
	C526.892822,510.529297 535.680603,510.529297 544.969971,510.529297 
	C544.969971,512.642578 544.961426,514.435486 544.971252,516.228271 
	C545.094055,538.558472 545.114441,560.889893 545.384216,583.218323 
	C545.543274,596.377747 545.649353,609.564941 546.600830,622.680115 
	C547.578247,636.153442 556.166809,644.657043 569.545227,647.020386 
	C587.953125,650.272156 605.638245,646.752625 623.106689,641.352356 
	C631.385071,638.793274 631.351440,638.670898 630.927429,629.868286 
	C630.913147,629.571167 630.636902,629.286682 630.517029,629.060730 
	C620.524231,629.060730 610.539795,629.537231 600.623047,628.921936 
	C591.370117,628.347900 585.198914,620.732056 585.167542,611.298584 
	C585.061890,579.469177 584.973328,547.639771 584.879150,515.810364 
	C584.874390,514.189819 584.878540,512.569214 584.878540,510.515625 
	C596.791138,510.515625 608.217712,510.515625 619.710327,510.515625 
	C619.710327,505.664551 619.710327,501.254883 619.710327,496.408356 
	C608.000244,496.408356 596.579285,496.408356 584.879272,496.408356 
	C584.879272,488.479401 584.879272,480.990173 584.869873,472.501312 
M438.088013,638.945007 
	C438.088013,641.229736 438.088013,643.514465 438.088013,646.019897 
	C460.098755,646.019897 481.661652,646.019897 503.473877,646.019897 
	C503.473877,643.036072 503.473877,640.290161 503.473877,637.354126 
	C499.115814,636.507935 494.959137,635.700806 490.563721,634.847351 
	C490.563721,568.369629 490.563721,502.305573 490.563721,435.992645 
	C472.985809,435.992645 455.757874,435.992645 438.335114,435.992645 
	C438.335114,438.955597 438.335114,441.691498 438.335114,444.518494 
	C442.427460,445.191742 446.293243,445.827698 450.541260,446.526550 
	C450.541260,509.537170 450.541260,572.251038 450.541260,634.682861 
	C446.348511,635.832764 442.272736,636.950562 438.088013,638.945007 
M409.153839,645.621887 
	C411.258026,634.147949 401.921417,636.368835 395.392609,634.909119 
	C395.392609,588.711243 395.392609,542.841187 395.392609,497.034149 
	C377.625244,497.034149 360.402649,497.034149 343.309113,497.034149 
	C343.309113,500.140625 343.309113,502.899994 343.309113,505.546143 
	C348.005951,506.363312 352.379608,507.124268 356.373108,507.819092 
	C356.373108,550.438965 356.373108,592.550720 356.373108,634.722351 
	C351.689545,635.635437 347.520111,636.448303 343.244507,637.281860 
	C343.244507,640.449036 343.244507,643.201904 343.244507,645.895935 
	C343.791626,646.053528 344.093048,646.216248 344.394440,646.216248 
	C365.723175,646.216919 387.051910,646.204590 409.153839,645.621887 
M391.743439,442.811218 
	C382.580139,433.556854 370.312592,433.133453 361.066193,441.752533 
	C353.262115,449.027161 352.803925,461.571198 360.026062,470.225891 
	C366.838715,478.389740 380.589996,479.737244 388.927368,473.057861 
	C398.486481,465.399719 399.764526,453.750519 391.743439,442.811218 
z"/>
<path fill="#020202" opacity="1.000000" stroke="none" 
	d="
M239.602356,443.774963 
	C239.589828,440.984955 239.589828,438.670013 239.589828,436.051727 
	C263.586823,436.051727 287.328705,436.051727 311.354980,436.051727 
	C311.354980,439.193024 311.354980,442.273315 311.354980,445.476990 
	C306.503998,446.295837 301.808075,447.088501 296.998505,447.900360 
	C296.916443,449.408691 296.798950,450.551331 296.800018,451.693817 
	C296.853760,509.353516 296.901642,567.013184 296.996124,624.672913 
	C297.011993,634.348083 297.107758,634.345764 306.925262,635.051636 
	C308.245789,635.146606 309.563843,635.275391 311.254700,635.420410 
	C311.254700,638.905945 311.254700,642.293518 311.254700,645.974243 
	C287.484375,645.974243 263.758087,645.974243 239.809021,645.974243 
	C239.809021,642.533020 239.809021,639.274963 239.809021,635.798340 
	C243.535721,635.202148 247.098572,634.348206 250.698502,634.142029 
	C253.839905,633.962036 254.635010,632.281433 254.765076,629.686646 
	C254.848465,628.022705 254.972946,626.357910 254.977982,624.693237 
	C255.050613,600.696350 255.108765,576.699402 255.155853,552.702515 
	C255.157761,551.732056 255.016190,550.761414 254.923004,549.551147 
	C224.337479,549.551147 193.926498,549.551147 163.386566,549.551147 
	C163.386566,577.600281 163.386566,605.503052 163.386566,633.638000 
	C167.942947,634.312561 172.163483,634.937378 176.606445,635.595215 
	C176.606445,638.992676 176.606445,642.254272 176.606445,645.889282 
	C153.423828,645.889282 130.231552,645.889282 106.833778,645.889282 
	C106.833778,642.498169 106.833778,639.224609 106.833778,635.608887 
	C111.087898,634.971130 115.293465,634.340698 119.999969,633.635071 
	C119.999969,631.789917 119.996727,630.001526 120.000443,628.213074 
	C120.121239,570.053345 120.163338,511.893219 120.503937,453.734802 
	C120.533470,448.691620 119.094650,446.813324 114.290215,446.772186 
	C111.988945,446.752441 109.692795,446.135742 107.014481,445.732178 
	C107.014481,442.690735 107.014481,439.604553 107.014481,436.123016 
	C129.961197,436.123016 153.162674,436.123016 176.792694,436.123016 
	C175.961090,439.538177 179.342102,444.075378 173.959152,445.888977 
	C170.552155,447.036835 166.814087,447.202057 163.144592,447.821442 
	C163.144592,474.303986 163.144592,500.428558 163.144592,526.847412 
	C193.678253,526.847412 224.080643,526.847412 254.824982,526.847412 
	C254.824982,500.872864 254.824982,474.797424 254.824982,447.887512 
	C251.317902,447.329163 247.446320,446.819214 243.627243,446.049011 
	C242.225861,445.766388 240.948715,444.867706 239.602356,443.774963 
z"/>
<path fill="#020202" opacity="1.000000" stroke="none" 
	d="
M866.536011,502.177368 
	C866.536133,506.946747 866.536133,511.237671 866.536133,516.859619 
	C870.405945,514.160645 873.244995,512.280151 875.978455,510.256897 
	C888.516907,500.976257 902.213806,494.349762 917.984802,493.446838 
	C941.021545,492.127960 961.996155,502.793945 963.174561,531.406982 
	C964.497314,563.525452 964.039001,595.717224 964.350891,627.877136 
	C964.371765,630.034058 964.353577,632.191345 964.353577,634.848206 
	C966.421570,635.183167 968.309570,635.574951 970.217651,635.783264 
	C978.567322,636.694702 978.758179,636.923706 977.784485,646.018860 
	C956.043335,646.018860 934.274902,646.018860 912.147522,646.018860 
	C912.147522,643.187256 912.147522,640.310730 912.147522,637.226990 
	C916.466248,636.409485 920.645691,635.618408 925.203918,634.755554 
	C925.203918,616.754333 925.351440,598.945679 925.157043,581.140625 
	C925.002502,566.991150 924.624390,552.836365 923.915833,538.705505 
	C923.721680,534.834412 922.553406,530.757263 920.827942,527.271912 
	C917.467163,520.483582 912.000305,516.537903 904.006653,515.765198 
	C890.748962,514.483704 879.588867,519.399780 869.019165,526.423523 
	C867.918396,527.155029 867.021057,529.074097 867.016724,530.445251 
	C866.907776,565.093750 866.930969,599.742615 866.930969,634.741211 
	C871.240479,635.566711 875.416565,636.366699 879.898926,637.225342 
	C879.898926,640.028992 879.898926,642.806763 879.898926,645.922485 
	C858.171814,645.922485 836.294922,645.922485 814.423340,645.922485 
	C813.365295,637.313293 813.365295,637.313293 827.682495,634.748108 
	C827.682495,592.995483 827.682495,551.205383 827.682495,508.811432 
	C823.401245,508.086761 819.034912,507.347687 814.320374,506.549683 
	C814.320374,503.501526 814.320374,500.276642 814.320374,496.870667 
	C831.556641,496.870667 848.664062,496.870667 866.291626,496.870667 
	C866.375854,498.535736 866.455872,500.117340 866.536011,502.177368 
z"/>
<path fill="#020202" opacity="1.000000" stroke="none" 
	d="
M649.553040,621.397095 
	C642.798767,610.359680 639.589233,598.556824 638.941650,586.126221 
	C638.099976,569.970215 638.148499,553.911621 644.355286,538.447327 
	C657.875671,504.760956 691.528503,490.848267 720.656067,492.281311 
	C734.530457,492.963898 748.191162,494.482574 760.719910,501.143402 
	C780.265015,511.534393 791.499817,528.198242 795.839355,549.444458 
	C799.802490,568.847290 799.720398,588.445374 791.490356,606.772583 
	C780.696289,630.809937 761.407776,644.716003 735.486206,649.056946 
	C714.421570,652.584534 693.672485,651.276062 673.838989,642.737732 
	C663.653809,638.352905 655.807190,630.979492 649.553040,621.397095 
M692.022644,624.377869 
	C698.640686,635.286438 708.338135,640.039673 721.007080,638.979431 
	C733.467896,637.936646 742.190491,631.583862 747.043213,620.210144 
	C749.112732,615.359558 750.729248,610.224670 751.820801,605.064392 
	C755.721130,586.626648 755.220825,567.953918 753.705444,549.336914 
	C752.752136,537.625122 749.223206,526.609497 742.746643,516.573975 
	C736.787903,507.340820 720.248962,500.754669 709.783630,504.459564 
	C699.029541,508.266724 692.691223,515.529663 688.563477,525.395203 
	C682.332275,540.288208 681.388672,556.103516 681.353271,571.943237 
	C681.313293,589.849731 682.901672,607.539673 692.022644,624.377869 
z"/>
<path fill="#030303" opacity="1.000000" stroke="none" 
	d="
M584.874573,473.001129 
	C584.879272,480.990173 584.879272,488.479401 584.879272,496.408356 
	C596.579285,496.408356 608.000244,496.408356 619.710327,496.408356 
	C619.710327,501.254883 619.710327,505.664551 619.710327,510.515625 
	C608.217712,510.515625 596.791138,510.515625 584.878540,510.515625 
	C584.878540,512.569214 584.874390,514.189819 584.879150,515.810364 
	C584.973328,547.639771 585.061890,579.469177 585.167542,611.298584 
	C585.198914,620.732056 591.370117,628.347900 600.623047,628.921936 
	C610.539795,629.537231 620.524231,629.060730 630.517029,629.060730 
	C630.636902,629.286682 630.913147,629.571167 630.927429,629.868286 
	C631.351440,638.670898 631.385071,638.793274 623.106689,641.352356 
	C605.638245,646.752625 587.953125,650.272156 569.545227,647.020386 
	C556.166809,644.657043 547.578247,636.153442 546.600830,622.680115 
	C545.649353,609.564941 545.543274,596.377747 545.384216,583.218323 
	C545.114441,560.889893 545.094055,538.558472 544.971252,516.228271 
	C544.961426,514.435486 544.969971,512.642578 544.969971,510.529297 
	C535.680603,510.529297 526.892822,510.529297 517.740845,510.529297 
	C517.740845,505.838013 517.740845,501.466766 517.740845,496.640350 
	C527.169800,496.640350 536.439453,496.640350 545.975098,496.640350 
	C545.975098,485.902069 545.975098,475.608032 545.975098,464.846222 
	C558.591003,461.045013 571.080383,457.281891 584.869873,453.127075 
	C584.869873,460.021179 584.869873,466.261230 584.874573,473.001129 
z"/>
<path fill="#030303" opacity="1.000000" stroke="none" 
	d="
M438.142456,638.506714 
	C442.272736,636.950562 446.348511,635.832764 450.541260,634.682861 
	C450.541260,572.251038 450.541260,509.537170 450.541260,446.526550 
	C446.293243,445.827698 442.427460,445.191742 438.335114,444.518494 
	C438.335114,441.691498 438.335114,438.955597 438.335114,435.992645 
	C455.757874,435.992645 472.985809,435.992645 490.563721,435.992645 
	C490.563721,502.305573 490.563721,568.369629 490.563721,634.847351 
	C494.959137,635.700806 499.115814,636.507935 503.473877,637.354126 
	C503.473877,640.290161 503.473877,643.036072 503.473877,646.019897 
	C481.661652,646.019897 460.098755,646.019897 438.088013,646.019897 
	C438.088013,643.514465 438.088013,641.229736 438.142456,638.506714 
z"/>
<path fill="#030303" opacity="1.000000" stroke="none" 
	d="
M408.767242,645.907593 
	C387.051910,646.204590 365.723175,646.216919 344.394440,646.216248 
	C344.093048,646.216248 343.791626,646.053528 343.244507,645.895935 
	C343.244507,643.201904 343.244507,640.449036 343.244507,637.281860 
	C347.520111,636.448303 351.689545,635.635437 356.373108,634.722351 
	C356.373108,592.550720 356.373108,550.438965 356.373108,507.819092 
	C352.379608,507.124268 348.005951,506.363312 343.309113,505.546143 
	C343.309113,502.899994 343.309113,500.140625 343.309113,497.034149 
	C360.402649,497.034149 377.625244,497.034149 395.392609,497.034149 
	C395.392609,542.841187 395.392609,588.711243 395.392609,634.909119 
	C401.921417,636.368835 411.258026,634.147949 408.767242,645.907593 
z"/>
<path fill="#030303" opacity="1.000000" stroke="none" 
	d="
M391.962524,443.103790 
	C399.764526,453.750519 398.486481,465.399719 388.927368,473.057861 
	C380.589996,479.737244 366.838715,478.389740 360.026062,470.225891 
	C352.803925,461.571198 353.262115,449.027161 361.066193,441.752533 
	C370.312592,433.133453 382.580139,433.556854 391.962524,443.103790 
z"/>
<path fill="#FDFDFD" opacity="1.000000" stroke="none" 
	d="
M691.832031,624.065125 
	C682.901672,607.539673 681.313293,589.849731 681.353271,571.943237 
	C681.388672,556.103516 682.332275,540.288208 688.563477,525.395203 
	C692.691223,515.529663 699.029541,508.266724 709.783630,504.459564 
	C720.248962,500.754669 736.787903,507.340820 742.746643,516.573975 
	C749.223206,526.609497 752.752136,537.625122 753.705444,549.336914 
	C755.220825,567.953918 755.721130,586.626648 751.820801,605.064392 
	C750.729248,610.224670 749.112732,615.359558 747.043213,620.210144 
	C742.190491,631.583862 733.467896,637.936646 721.007080,638.979431 
	C708.338135,640.039673 698.640686,635.286438 691.832031,624.065125 
z"/>
</svg>