<svg version="1.1" id="Layer_1" xmlns="http://www.w3.org/2000/svg" xmlns:xlink="http://www.w3.org/1999/xlink" x="0px" y="0px"
	 width="100%" viewBox="0 0 1024 1024" enable-background="new 0 0 1024 1024" xml:space="preserve">
<path fill="#000000" opacity="1.000000" stroke="none" 
	d="
M173.000046,644.405884 
	C162.836563,644.401245 153.171906,644.306763 143.510239,644.435669 
	C139.857300,644.484375 138.778336,643.172180 139.633072,639.627869 
	C142.087128,629.451721 144.431137,619.247803 146.685791,609.025574 
	C147.216446,606.619629 148.439697,605.629700 150.804291,605.678894 
	C153.302200,605.730896 155.802277,605.671570 158.301407,605.671448 
	C385.726227,605.663269 613.151062,605.655945 840.575867,605.649536 
	C847.779907,605.649292 847.876282,605.882080 846.259338,613.068665 
	C844.326904,621.657166 842.450134,630.262512 840.802368,638.908752 
	C840.060486,642.801697 838.437805,644.392273 834.189026,644.465454 
	C785.710876,645.301025 737.226135,645.201965 688.753601,644.743469 
	C634.607300,644.231445 580.464417,644.399292 526.322083,644.539490 
	C500.681152,644.605896 475.023132,644.794800 449.395325,644.648865 
	C357.429047,644.125488 265.464508,644.696289 173.000046,644.405884 
z"/>
<path fill="#000000" opacity="1.000000" stroke="none" 
	d="
M168.421112,507.472931 
	C172.049316,489.959900 175.513367,472.846008 179.106857,455.759308 
	C183.931549,432.818390 188.968109,409.921326 193.643616,386.950439 
	C194.578461,382.357422 196.341385,380.569122 201.199783,380.727142 
	C212.018585,381.079010 222.859100,380.951233 233.686264,380.761688 
	C237.872299,380.688354 238.823120,382.051788 237.939728,386.110840 
	C231.788712,414.373962 225.872498,442.688110 219.746628,470.956787 
	C218.940903,474.674957 220.125244,475.732880 223.674042,475.719818 
	C244.834732,475.641998 265.995972,475.643768 287.156677,475.716705 
	C290.529297,475.728333 292.103790,474.642303 292.846313,471.068726 
	C298.697083,442.910553 304.847992,414.814880 310.737793,386.664642 
	C311.635101,382.375977 313.363922,380.560272 318.023834,380.711060 
	C328.676453,381.055695 339.348907,380.907776 350.011078,380.776123 
	C354.151825,380.725006 355.615356,381.801971 354.637451,386.355042 
	C343.532990,438.056763 332.619507,489.799408 321.634094,541.526733 
	C318.905060,554.377075 316.037659,567.198303 313.370697,580.061340 
	C312.580963,583.870361 310.973816,585.617188 306.694244,585.492676 
	C295.873138,585.177795 285.036499,585.405457 274.206085,585.393005 
	C272.566559,585.391113 270.864380,585.609436 268.775513,584.159241 
	C270.323242,576.813782 271.907074,569.232300 273.519836,561.656860 
	C276.462524,547.834534 279.394806,534.009888 282.394073,520.199829 
	C283.159393,516.675903 281.875183,515.297546 278.314514,515.306580 
	C257.153778,515.360657 235.992325,515.386169 214.832214,515.250488 
	C211.372375,515.228271 210.129578,516.880249 209.510574,519.827942 
	C205.477173,539.034241 201.339874,558.219055 197.379242,577.440308 
	C195.747772,585.357788 195.908508,585.391846 187.883698,585.393188 
	C177.719772,585.394836 167.554108,585.286560 157.392761,585.448792 
	C153.324707,585.513672 151.634232,584.577942 152.652039,580.008789 
	C158.001053,555.995789 163.117447,531.930969 168.421112,507.472931 
z"/>
<path fill="#000000" opacity="1.000000" stroke="none" 
	d="
M472.182831,575.275757 
	C446.247223,587.369263 419.694489,592.843750 391.870972,585.273010 
	C368.342834,578.871033 355.431396,562.370728 351.638672,538.696838 
	C346.320740,505.502716 355.062469,475.568451 374.646698,448.879303 
	C388.547424,429.935486 408.419708,420.253418 431.345306,416.741028 
	C446.219574,414.462219 460.479858,417.236877 474.164459,423.186096 
	C494.745911,432.133698 504.728394,448.749512 506.908936,470.285034 
	C508.236847,483.399719 507.145874,496.523987 504.080841,509.472198 
	C502.996368,514.053650 501.071472,515.507935 496.340698,515.476318 
	C463.529663,515.257324 430.716064,515.435730 397.904572,515.252686 
	C393.071198,515.225769 391.281281,516.384766 391.127686,521.597534 
	C390.407684,546.030151 408.390961,553.179321 426.588043,551.295288 
	C440.241425,549.881653 453.359161,546.067627 465.314880,539.024109 
	C467.962982,537.464050 469.557098,538.058289 471.006500,540.543274 
	C475.451508,548.164124 479.922607,555.770874 484.490662,563.318298 
	C485.926514,565.690674 485.535004,567.314209 483.209717,568.689148 
	C479.630157,570.805664 476.086548,572.982910 472.182831,575.275757 
M407.855286,467.372070 
	C406.380188,469.585663 404.830963,471.754059 403.447754,474.023651 
	C401.467804,477.272278 402.307831,478.969818 406.272400,478.963715 
	C425.252655,478.934540 444.233124,478.907288 463.213135,478.981873 
	C466.714264,478.995605 467.822113,477.515900 467.746368,474.137451 
	C467.509430,463.571259 460.353821,454.745819 449.719940,452.407379 
	C432.980896,448.726440 419.226196,453.752472 407.855286,467.372070 
z"/>
<path fill="#000000" opacity="1.000000" stroke="none" 
	d="
M836.000000,545.911133 
	C844.094116,545.910950 851.688232,545.910950 859.307312,545.910950 
	C859.988098,551.200867 858.276062,555.275146 857.469604,559.467957 
	C856.087036,566.655640 854.557617,573.815308 853.204346,581.008301 
	C852.615234,584.139771 851.055054,585.432068 847.755554,585.426514 
	C806.271118,585.356873 764.786499,585.393372 723.301941,585.390930 
	C721.989380,585.390808 720.614014,585.543762 719.261719,584.337585 
	C719.005432,578.985413 721.100830,573.820740 722.041931,568.486267 
	C723.081238,562.595703 724.641235,556.796631 725.663513,550.903687 
	C726.208923,547.759705 728.363403,546.019043 730.394836,544.105774 
	C758.284912,517.837097 786.203247,491.598389 814.089661,465.325958 
	C815.638367,463.866882 817.509766,462.631012 818.295410,460.378479 
	C817.073181,458.194366 814.942261,458.621582 813.040466,458.629181 
	C792.718811,458.710175 772.397339,458.860657 752.075684,458.913269 
	C746.069885,458.928833 745.580933,458.291016 746.768433,452.676971 
	C748.729309,443.406799 750.963867,434.189270 752.685120,424.875946 
	C753.511414,420.405243 755.572510,418.972809 760.047791,418.996887 
	C790.035767,419.158325 820.025085,419.082336 850.013916,419.081726 
	C860.510010,419.081512 871.006470,419.025513 881.502075,419.095062 
	C887.082581,419.132019 887.490784,419.850281 886.273926,425.286652 
	C884.495850,433.230621 882.762146,441.186676 881.176697,449.170807 
	C880.241577,453.880096 878.343567,457.750793 874.699097,461.153229 
	C846.331360,487.636444 818.118286,514.285400 789.879089,540.906006 
	C788.579102,542.131409 786.979736,543.145264 785.983398,545.911377 
	C802.741150,545.911377 819.120605,545.911377 836.000000,545.911133 
z"/>
<path fill="#000000" opacity="1.000000" stroke="none" 
	d="
M685.000854,458.998657 
	C682.166565,459.508209 682.254822,461.668365 681.899536,463.349579 
	C677.396912,484.660858 672.882385,505.970367 668.585266,527.323486 
	C667.939453,530.532654 668.069275,533.993469 668.395569,537.282837 
	C669.089844,544.280579 675.730835,549.291687 684.902832,549.617859 
	C692.342102,549.882324 699.798279,549.671448 707.260254,549.671448 
	C708.570312,551.450623 707.692688,553.256714 707.337769,554.978455 
	C705.525391,563.771301 703.613098,572.543518 701.776367,581.331421 
	C701.277466,583.718140 700.618042,585.769409 697.759949,586.368225 
	C678.285767,590.448669 659.660950,589.168823 642.657104,577.706116 
	C630.240540,569.335693 625.617554,556.875671 624.670044,542.630859 
	C623.705933,528.136047 627.387695,514.199097 630.262939,500.211121 
	C636.289917,470.890503 642.595886,441.627228 648.799805,412.343079 
	C650.763733,403.072601 652.821411,393.821533 654.717590,384.537354 
	C655.241150,381.973877 656.534302,380.800598 659.127563,380.805115 
	C671.124695,380.825928 683.122131,380.853210 695.118713,380.768066 
	C699.322266,380.738220 698.622192,383.466553 698.136658,385.894989 
	C696.505798,394.050934 694.770874,402.186768 692.993652,410.312317 
	C692.425171,412.911743 691.753052,415.468567 692.225098,418.099609 
	C693.886841,419.558838 695.802856,419.027985 697.574890,419.035706 
	C708.572021,419.083618 719.570496,419.147125 730.566467,419.024170 
	C734.701721,418.977936 735.876770,420.754028 735.053711,424.576477 
	C732.987976,434.169464 730.876343,443.756134 729.060181,453.397522 
	C728.252563,457.684937 726.052734,459.091797 721.836365,459.022552 
	C709.687988,458.823120 697.534424,458.933472 685.000854,458.998657 
z"/>
<path fill="#000000" opacity="1.000000" stroke="none" 
	d="
M569.034180,424.896118 
	C586.710754,416.172913 604.868347,414.109894 623.779724,417.818665 
	C629.531738,418.946747 630.129517,419.711853 628.886597,425.445923 
	C626.880676,434.700317 624.715637,443.923859 622.925293,453.219635 
	C622.168457,457.149200 620.775513,458.855591 616.371765,458.479309 
	C609.248962,457.870667 602.021179,457.768677 595.008667,459.662476 
	C585.596802,462.204224 578.825134,467.866547 574.991760,476.967346 
	C569.454590,490.113312 567.158569,504.101898 564.236755,517.922668 
	C559.765137,539.074524 555.563599,560.282471 550.608887,581.333191 
	C549.881470,584.423462 548.712524,585.449402 545.684937,585.421631 
	C534.188538,585.316284 522.689392,585.302002 511.193542,585.441528 
	C507.208801,585.489868 506.399139,583.965576 507.200104,580.261169 
	C513.596985,550.675720 519.874207,521.064331 526.160950,491.455109 
	C528.898193,478.562927 532.135315,465.828674 538.648438,454.225830 
	C545.763733,441.550323 555.785828,431.800110 569.034180,424.896118 
z"/>
<path fill="#000000" opacity="1.000000" stroke="none" 
	d="
M874.492554,560.966064 
	C879.598450,560.329285 883.592041,561.612976 885.971252,565.893616 
	C888.438049,570.331909 887.206665,574.560852 884.528442,578.538269 
	C881.842712,582.526794 877.983948,584.683411 873.350891,585.262207 
	C865.165894,586.284607 859.700012,579.074341 862.721375,571.355103 
	C864.790710,566.068176 868.559448,562.565063 874.492554,560.966064 
M870.046265,566.411865 
	C866.120239,569.202026 864.507263,573.047180 865.427002,577.708069 
	C866.004150,580.632812 868.420593,582.242676 871.172852,582.522156 
	C875.728821,582.984680 879.180359,580.546631 881.727356,577.045593 
	C884.119324,573.757751 885.292297,569.736450 882.468689,566.419006 
	C879.066772,562.422180 874.717834,563.654663 870.046265,566.411865 
z"/>
<path fill="#000000" opacity="1.000000" stroke="none" 
	d="
M869.783020,570.813843 
	C870.983276,565.379761 874.757690,566.542908 877.777161,567.522095 
	C881.399170,568.696716 880.677124,571.512634 878.938477,573.958740 
	C877.828430,575.520569 878.921692,577.238342 878.228149,578.802490 
	C875.701050,580.642883 874.869812,577.829468 873.285828,576.942505 
	C871.764893,577.279663 871.476868,580.250000 869.368958,579.094482 
	C867.338013,577.981201 868.674622,576.128784 868.878052,574.600708 
	C869.030640,573.454651 869.427063,572.341125 869.783020,570.813843 
z"/>
</svg>