<svg version="1.1" id="Layer_1" xmlns="http://www.w3.org/2000/svg" xmlns:xlink="http://www.w3.org/1999/xlink" x="0px" y="0px"
	 width="100%" viewBox="0 0 1080 1080" enable-background="new 0 0 1080 1080" xml:space="preserve">
<path fill="#FFFFFF" opacity="1.000000" stroke="none" 
	d="
M582.000000,1081.000000 
	C388.022339,1081.000000 194.544662,1081.000000 1.033493,1081.000000 
	C1.033493,721.063904 1.033493,361.127747 1.033493,1.095806 
	C360.894562,1.095806 720.789124,1.095806 1080.841797,1.095806 
	C1080.841797,360.999939 1080.841797,720.999939 1080.841797,1081.000000 
	C914.793945,1081.000000 748.646973,1081.000000 582.000000,1081.000000 
M898.134949,494.169861 
	C897.929077,493.972015 897.723267,493.774200 897.528809,492.785980 
	C897.693604,491.801147 897.899292,490.821167 898.016663,489.830719 
	C899.001343,481.519623 897.307434,479.770813 889.024963,481.433533 
	C877.717651,483.703522 866.862549,487.253815 856.871887,493.283630 
	C853.530334,495.300415 853.143799,497.196747 855.406067,500.007751 
	C858.453979,503.795013 858.347290,507.921112 856.988647,512.290649 
	C850.519592,533.095398 843.966614,553.875671 837.740479,574.753235 
	C836.237793,579.791931 835.183167,585.161560 835.135071,590.390137 
	C835.064636,598.054077 839.248413,601.348938 846.458191,599.207520 
	C854.534973,596.808533 862.444641,593.665588 870.094727,590.127808 
	C872.231934,589.139404 874.022461,585.772644 874.516907,583.215576 
	C875.413879,578.576660 874.433228,573.519653 875.623169,569.002502 
	C879.558044,554.065247 884.198181,539.315369 888.393494,524.444519 
	C890.685730,516.319153 895.475708,510.159973 902.522400,505.804565 
	C906.097534,503.594788 910.207764,500.111053 914.362915,503.124420 
	C918.339661,506.008423 915.676086,510.672424 914.656982,514.281433 
	C908.463318,536.214539 901.966431,558.061829 895.632874,579.955811 
	C894.896057,582.502686 894.320068,585.137085 894.048340,587.770020 
	C893.068481,597.266968 897.530273,601.836975 906.663391,599.357544 
	C916.878601,596.584412 926.785400,592.617126 936.700256,588.838501 
	C939.078430,587.932129 940.957581,585.716431 943.374634,583.866821 
	C933.955505,578.503113 932.996094,576.470642 935.465271,567.489502 
	C940.095398,550.648438 944.889526,533.852112 949.475098,516.999023 
	C951.742737,508.664917 954.267151,500.336670 955.624023,491.837921 
	C956.823120,484.327545 952.613708,479.689575 945.033142,479.047607 
	C941.110657,478.715393 937.037415,478.979004 933.148682,479.649017 
	C920.438171,481.839050 909.375305,487.941467 898.134949,494.169861 
M659.136841,596.650024 
	C665.414124,594.089539 671.799744,591.758789 677.921875,588.869507 
	C680.888367,587.469482 681.865112,585.128906 678.717712,582.222046 
	C674.446960,578.277710 673.306030,573.232971 674.853394,567.578613 
	C676.347168,562.120361 677.705811,556.625183 679.192871,551.165039 
	C686.711731,523.558472 693.834900,495.833160 702.019775,468.425079 
	C704.781189,459.178192 710.102600,450.662506 714.586975,441.984650 
	C715.849243,439.541931 718.292419,437.709473 720.664490,435.074402 
	C710.256470,435.074402 700.720947,434.550171 691.288879,435.310364 
	C687.003845,435.655762 682.253052,437.722565 678.897217,440.459686 
	C672.818787,445.417480 669.987366,452.726349 667.958801,460.239899 
	C663.756897,475.803406 659.552307,491.366669 655.200012,506.888306 
	C654.781494,508.380981 653.358704,510.704102 652.334839,510.740356 
	C643.617981,511.048767 634.885498,510.916809 625.591248,510.916809 
	C626.718506,506.757843 627.610168,503.405609 628.535706,500.062775 
	C633.820679,480.975037 639.154785,461.900787 644.379822,442.796661 
	C645.995789,436.888123 644.604309,435.081329 638.532349,435.066589 
	C624.701172,435.032990 610.846436,434.632477 597.045532,435.298981 
	C585.610168,435.851257 574.003967,436.696320 562.894409,439.245789 
	C547.251282,442.835602 536.392090,452.450378 532.370667,468.823273 
	C529.917725,478.810242 531.911438,488.277802 534.495605,497.773224 
	C537.715576,509.605042 538.832642,510.572998 550.850891,509.913147 
	C557.017212,509.574585 563.137390,508.396698 570.062012,507.496246 
	C568.571045,504.135803 567.395935,501.952881 566.613403,499.637238 
	C564.132324,492.295563 560.664856,485.060059 559.626160,477.502106 
	C556.878845,457.510284 568.478027,443.419586 588.456970,441.389618 
	C592.047974,441.024750 595.754944,441.615540 599.393127,441.937592 
	C607.670044,442.670288 609.434265,445.053589 607.242981,452.907654 
	C598.522034,484.165283 589.850708,515.437805 580.885498,546.625610 
	C577.412598,558.706787 571.922119,569.926575 563.789978,579.660278 
	C554.008118,591.368591 537.482422,590.371826 529.061951,577.569336 
	C523.742615,569.481628 520.742737,560.444885 520.020752,550.891785 
	C519.421448,542.962219 519.839783,534.951294 519.912720,526.977417 
	C519.943726,523.597168 518.827087,522.315491 515.392944,523.665833 
	C509.055878,526.157654 502.645294,528.462036 496.300690,530.935181 
	C488.460938,533.991150 484.016449,539.169250 485.617798,548.167419 
	C485.934021,549.944397 485.458923,551.852844 485.697479,553.654480 
	C487.839172,569.828674 493.428314,584.496094 506.662689,594.788879 
	C519.489990,604.765076 534.216003,603.191833 548.698914,599.321167 
	C564.273865,595.158691 578.256226,587.425476 591.844666,578.890991 
	C603.287537,571.704041 610.361816,561.470276 614.155640,548.708557 
	C616.380676,541.223999 618.581970,533.729797 621.013000,526.311646 
	C621.428284,525.044556 622.921265,523.238892 623.960938,523.208618 
	C632.557434,522.957825 641.164429,523.066650 650.024597,523.066650 
	C649.830627,524.410461 649.795227,525.237000 649.586487,526.017151 
	C644.940796,543.381409 640.115479,560.699951 635.717529,578.126465 
	C634.473633,583.055176 634.205750,588.284973 633.981995,593.398193 
	C633.817078,597.166992 636.016785,599.317932 640.006348,598.907715 
	C646.111511,598.280090 652.205688,597.545288 659.136841,596.650024 
M116.339539,545.102722 
	C109.911270,535.417236 103.483009,525.731750 97.069031,516.067810 
	C116.720520,489.340088 136.200638,462.845428 156.256989,435.567108 
	C142.758286,435.567108 130.157455,435.472626 117.562408,435.699127 
	C116.152512,435.724487 114.395050,437.294739 113.439606,438.613007 
	C96.931900,461.389435 80.517548,484.233551 64.120140,507.089722 
	C63.404526,508.087219 63.046349,509.341156 62.521664,510.475647 
	C61.953304,510.046783 61.384941,509.617920 60.816582,509.189056 
	C60.816582,484.783325 60.816582,460.377594 60.816582,435.921753 
	C48.641197,435.921753 36.903694,435.921753 25.177660,435.921753 
	C25.177660,489.359528 25.177660,542.418274 25.177660,595.546753 
	C37.233471,595.546753 48.954735,595.546753 61.182419,595.546753 
	C61.182419,572.340149 61.182419,549.491211 61.182419,525.343689 
	C62.843967,527.571106 63.759850,528.676758 64.544304,529.868774 
	C78.268524,550.724487 91.928337,571.623108 105.781670,592.392639 
	C106.869469,594.023499 109.259613,595.731323 111.082024,595.773315 
	C123.070450,596.049316 135.069244,595.888184 147.064407,595.825439 
	C147.768387,595.821777 148.470367,595.433350 149.604996,595.095398 
	C138.488678,578.359619 127.634415,562.018372 116.339539,545.102722 
M228.751801,577.630310 
	C232.948624,585.874329 239.481873,591.690796 248.033997,594.882751 
	C262.184174,600.164062 275.786713,597.787354 288.954193,590.395264 
	C289.347382,592.508362 289.638702,594.073975 289.920624,595.589111 
	C300.940765,595.589111 311.693817,595.589111 322.157074,595.589111 
	C322.157074,568.355469 322.864868,541.396362 321.926178,514.494751 
	C321.215057,494.114929 309.577911,481.923553 289.973114,476.913727 
	C273.098511,472.601562 256.333984,474.261993 239.535141,476.958130 
	C238.556961,477.115112 237.016754,478.428680 237.002701,479.226318 
	C236.828323,489.121979 236.888748,499.021790 236.888748,508.790924 
	C237.868774,508.972260 238.207321,509.124054 238.514969,509.076324 
	C239.826019,508.873077 241.127121,508.606232 242.433304,508.370758 
	C254.078125,506.271271 265.710266,504.287994 277.456665,507.849762 
	C284.648407,510.030457 288.525146,515.081116 288.665558,522.775513 
	C280.909088,522.318359 273.114716,521.130127 265.402740,521.530334 
	C231.831253,523.272278 217.451950,550.667175 228.751801,577.630310 
M391.478699,507.285370 
	C396.566040,507.285370 401.653381,507.285370 406.652863,507.285370 
	C406.652863,496.993378 406.652863,487.451294 406.652863,477.252319 
	C399.044189,477.252319 391.826111,477.252319 383.244537,477.252319 
	C384.797150,470.926300 384.820770,464.681885 387.709412,460.346405 
	C393.636292,451.451080 403.905945,455.186584 412.837921,454.518707 
	C412.837921,449.314453 412.836365,444.514984 412.838226,439.715515 
	C412.844482,423.446564 412.844940,423.446564 396.386139,423.875244 
	C372.669037,424.492981 357.798248,434.860107 352.402557,455.430450 
	C350.578949,462.382568 350.438660,469.776215 349.443665,477.643463 
	C345.217957,477.643463 340.678223,477.643463 336.200562,477.643463 
	C336.200562,487.859863 336.200562,497.428802 336.200562,507.462402 
	C340.950470,507.462402 345.378052,507.462402 350.413086,507.462402 
	C350.413086,537.130920 350.413086,566.334229 350.413086,595.499023 
	C362.089691,595.499023 373.130005,595.499023 384.833649,595.499023 
	C384.833649,565.920044 384.833649,536.733398 384.833649,507.285126 
	C387.160522,507.285126 388.816742,507.285126 391.478699,507.285370 
M1049.205322,485.027222 
	C1049.739014,480.229126 1046.108765,481.090118 1043.510376,481.077087 
	C1026.346558,480.990814 1009.179382,481.212616 992.018738,480.962555 
	C982.782166,480.827942 976.735779,485.173615 973.288574,493.211609 
	C970.345398,500.074432 968.060608,507.222046 965.572510,514.274719 
	C965.226562,515.255188 965.384644,516.413391 965.235291,518.551270 
	C967.558655,517.288818 969.726074,516.848328 970.468994,515.576050 
	C973.250916,510.811798 977.524292,510.754272 982.152466,510.934204 
	C986.478699,511.102386 990.816528,510.970123 995.149292,510.970123 
	C1000.369751,510.970123 1005.590149,510.970154 1012.225952,510.970154 
	C1009.606506,515.042358 1007.983154,518.077271 1005.878052,520.730042 
	C1001.739319,525.945374 997.314026,530.932434 993.040466,536.041687 
	C978.623291,553.278076 964.169617,570.484558 949.891418,587.835327 
	C948.457336,589.578064 948.119873,592.223206 947.273438,594.449463 
	C949.473083,594.912231 951.671021,595.767700 953.872681,595.777771 
	C978.202148,595.888672 1002.561523,595.172974 1026.849121,596.194580 
	C1037.979492,596.662903 1045.193481,593.822449 1051.172485,584.284668 
	C1059.298706,571.321838 1068.950562,559.281250 1073.958130,544.576538 
	C1075.898193,538.879883 1076.649780,532.867249 1071.525024,528.310730 
	C1066.272217,523.640320 1059.961914,521.822449 1052.980835,523.782837 
	C1046.531738,525.593811 1042.776123,531.747070 1043.746582,538.907715 
	C1045.510620,538.817688 1047.301514,538.659058 1049.093506,538.646362 
	C1057.081055,538.589966 1062.720337,545.239929 1059.984863,552.678711 
	C1057.007690,560.774780 1052.107178,566.478394 1043.050415,566.230286 
	C1027.897217,565.815125 1012.724304,566.123535 997.559692,566.101624 
	C996.118347,566.099548 994.677246,565.915649 992.281738,565.750244 
	C993.401428,563.605652 994.007446,561.987549 994.986450,560.640503 
	C1004.386353,547.707642 1013.914246,534.867493 1023.274841,521.906433 
	C1031.941895,509.905640 1040.449097,497.789368 1049.205322,485.027222 
M478.584045,589.783875 
	C471.125824,576.871216 466.522736,563.211548 466.786102,548.053040 
	C467.003052,535.564819 466.694733,523.067688 466.656433,510.574371 
	C466.653503,509.625061 466.947693,508.674835 467.185699,507.226440 
	C475.412079,507.226440 483.499969,507.226440 491.543701,507.226440 
	C491.543701,497.114624 491.543701,487.543274 491.543701,477.390625 
	C483.152039,477.390625 475.086243,477.390625 466.564667,477.390625 
	C466.564667,466.567719 466.564667,456.325623 466.564667,445.955505 
	C455.172607,445.955505 444.263550,445.955505 432.887207,445.955505 
	C432.887207,456.518066 432.887207,466.785797 432.887207,477.548676 
	C428.162445,477.548676 423.899139,477.548676 419.384338,477.548676 
	C419.384338,487.634186 419.384338,497.208344 419.384338,507.265259 
	C423.842224,507.265259 428.121216,507.265259 433.031128,507.265259 
	C433.031128,509.516113 433.019745,511.304749 433.032959,513.093201 
	C433.145142,528.251160 432.439606,543.469666 433.552063,558.554138 
	C435.719940,587.949097 457.201965,601.990417 485.654510,599.679504 
	C483.418457,596.565918 481.201416,593.478760 478.584045,589.783875 
M693.537842,586.862732 
	C698.189331,594.769104 705.359375,599.073608 714.208557,600.080383 
	C736.465820,602.612610 754.777710,595.257446 768.444885,577.240479 
	C769.625305,575.684448 770.111633,573.601929 771.546753,570.340515 
	C768.667480,571.395508 767.345764,571.859741 766.038818,572.362366 
	C761.695923,574.032776 757.476501,576.188416 752.997498,577.311768 
	C736.511292,581.446350 726.049316,572.455139 727.397766,555.607056 
	C727.517212,554.114746 727.786316,552.635132 727.946533,551.145325 
	C728.641968,544.677429 731.127502,540.725403 738.438110,539.034485 
	C753.119873,535.638428 766.901245,529.656799 778.341858,519.376221 
	C783.640381,514.614929 787.803589,509.028473 789.036438,501.790649 
	C790.954224,490.531433 783.694824,481.003204 773.070923,481.084106 
	C761.295105,481.173767 749.853210,483.356537 739.128174,488.324402 
	C711.622437,501.065094 697.340393,523.825500 691.105469,552.505981 
	C688.627380,563.905273 687.942139,575.261230 693.537842,586.862732 
M158.602600,577.497620 
	C158.602600,583.458313 158.602600,589.419067 158.602600,595.547668 
	C170.374161,595.547668 181.586823,595.547668 193.150009,595.547668 
	C193.150009,593.402283 193.148819,591.590271 193.150177,589.778259 
	C193.162079,573.955322 193.233841,558.132202 193.166580,542.309570 
	C193.118896,531.087646 198.255096,522.745361 207.625412,517.209351 
	C212.367691,514.407593 217.820129,512.807800 223.050888,510.623108 
	C223.050888,500.087311 223.050888,489.198456 223.050888,477.898346 
	C209.977310,480.386200 200.361191,487.212250 192.622772,497.602234 
	C192.622772,491.199402 192.622772,484.796539 192.622772,478.322144 
	C181.124298,478.322144 170.064590,478.322144 158.602936,478.322144 
	C158.602936,511.258789 158.602936,543.878662 158.602600,577.497620 
M822.277283,554.907410 
	C827.119507,538.659119 832.097229,522.449280 836.736267,506.143158 
	C838.545898,499.782074 839.818604,493.241669 840.906616,486.711426 
	C841.593506,482.588898 839.463074,480.371185 835.077026,480.929749 
	C822.547424,482.525391 810.767883,486.366028 799.776062,492.633911 
	C796.474915,494.516296 796.250000,496.571869 797.824341,500.033325 
	C799.083679,502.802429 799.911194,506.577637 799.084656,509.357544 
	C792.500244,531.503418 785.441101,553.507690 778.620544,575.584229 
	C777.546143,579.061829 776.514343,582.646851 776.197571,586.246826 
	C775.253174,596.980408 780.617493,602.160156 790.892944,599.151123 
	C801.824707,595.949951 812.309509,591.202759 822.927551,586.975281 
	C824.266235,586.442261 825.229492,584.966309 826.535400,583.773193 
	C817.431396,578.752625 816.340210,576.682922 818.413086,568.136353 
	C819.431763,563.936707 820.828369,559.828674 822.277283,554.907410 
M837.313721,462.808411 
	C839.256348,461.863281 841.200073,460.920441 843.141357,459.972534 
	C848.166443,457.518890 851.806885,453.918823 853.121399,448.264618 
	C854.024780,444.378906 855.165588,440.548553 856.080078,436.665161 
	C856.985962,432.817963 855.319702,430.845825 851.404968,431.075317 
	C848.766052,431.230011 846.142090,431.692657 843.520508,432.079285 
	C825.909363,434.676544 818.440857,442.307800 816.385132,459.776550 
	C815.640564,466.103638 818.789246,468.988068 824.875549,467.239166 
	C828.854980,466.095703 832.698547,464.479614 837.313721,462.808411 
z"/>
<path fill="#EC3D2E" opacity="1.000000" stroke="none" 
	d="
M658.720703,596.753052 
	C652.205688,597.545288 646.111511,598.280090 640.006348,598.907715 
	C636.016785,599.317932 633.817078,597.166992 633.981995,593.398193 
	C634.205750,588.284973 634.473633,583.055176 635.717529,578.126465 
	C640.115479,560.699951 644.940796,543.381409 649.586487,526.017151 
	C649.795227,525.237000 649.830627,524.410461 650.024597,523.066650 
	C641.164429,523.066650 632.557434,522.957825 623.960938,523.208618 
	C622.921265,523.238892 621.428284,525.044556 621.013000,526.311646 
	C618.581970,533.729797 616.380676,541.223999 614.155640,548.708557 
	C610.361816,561.470276 603.287537,571.704041 591.844666,578.890991 
	C578.256226,587.425476 564.273865,595.158691 548.698914,599.321167 
	C534.216003,603.191833 519.489990,604.765076 506.662689,594.788879 
	C493.428314,584.496094 487.839172,569.828674 485.697479,553.654480 
	C485.458923,551.852844 485.934021,549.944397 485.617798,548.167419 
	C484.016449,539.169250 488.460938,533.991150 496.300690,530.935181 
	C502.645294,528.462036 509.055878,526.157654 515.392944,523.665833 
	C518.827087,522.315491 519.943726,523.597168 519.912720,526.977417 
	C519.839783,534.951294 519.421448,542.962219 520.020752,550.891785 
	C520.742737,560.444885 523.742615,569.481628 529.061951,577.569336 
	C537.482422,590.371826 554.008118,591.368591 563.789978,579.660278 
	C571.922119,569.926575 577.412598,558.706787 580.885498,546.625610 
	C589.850708,515.437805 598.522034,484.165283 607.242981,452.907654 
	C609.434265,445.053589 607.670044,442.670288 599.393127,441.937592 
	C595.754944,441.615540 592.047974,441.024750 588.456970,441.389618 
	C568.478027,443.419586 556.878845,457.510284 559.626160,477.502106 
	C560.664856,485.060059 564.132324,492.295563 566.613403,499.637238 
	C567.395935,501.952881 568.571045,504.135803 570.062012,507.496246 
	C563.137390,508.396698 557.017212,509.574585 550.850891,509.913147 
	C538.832642,510.572998 537.715576,509.605042 534.495605,497.773224 
	C531.911438,488.277802 529.917725,478.810242 532.370667,468.823273 
	C536.392090,452.450378 547.251282,442.835602 562.894409,439.245789 
	C574.003967,436.696320 585.610168,435.851257 597.045532,435.298981 
	C610.846436,434.632477 624.701172,435.032990 638.532349,435.066589 
	C644.604309,435.081329 645.995789,436.888123 644.379822,442.796661 
	C639.154785,461.900787 633.820679,480.975037 628.535706,500.062775 
	C627.610168,503.405609 626.718506,506.757843 625.591248,510.916809 
	C634.885498,510.916809 643.617981,511.048767 652.334839,510.740356 
	C653.358704,510.704102 654.781494,508.380981 655.200012,506.888306 
	C659.552307,491.366669 663.756897,475.803406 667.958801,460.239899 
	C669.987366,452.726349 672.818787,445.417480 678.897217,440.459686 
	C682.253052,437.722565 687.003845,435.655762 691.288879,435.310364 
	C700.720947,434.550171 710.256470,435.074402 720.664490,435.074402 
	C718.292419,437.709473 715.849243,439.541931 714.586975,441.984650 
	C710.102600,450.662506 704.781189,459.178192 702.019775,468.425079 
	C693.834900,495.833160 686.711731,523.558472 679.192871,551.165039 
	C677.705811,556.625183 676.347168,562.120361 674.853394,567.578613 
	C673.306030,573.232971 674.446960,578.277710 678.717712,582.222046 
	C681.865112,585.128906 680.888367,587.469482 677.921875,588.869507 
	C671.799744,591.758789 665.414124,594.089539 658.720703,596.753052 
z"/>
<path fill="#1F4C80" opacity="1.000000" stroke="none" 
	d="
M116.559845,545.389893 
	C127.634415,562.018372 138.488678,578.359619 149.604996,595.095398 
	C148.470367,595.433350 147.768387,595.821777 147.064407,595.825439 
	C135.069244,595.888184 123.070450,596.049316 111.082024,595.773315 
	C109.259613,595.731323 106.869469,594.023499 105.781670,592.392639 
	C91.928337,571.623108 78.268524,550.724487 64.544304,529.868774 
	C63.759850,528.676758 62.843967,527.571106 61.182419,525.343689 
	C61.182419,549.491211 61.182419,572.340149 61.182419,595.546753 
	C48.954735,595.546753 37.233471,595.546753 25.177660,595.546753 
	C25.177660,542.418274 25.177660,489.359528 25.177660,435.921753 
	C36.903694,435.921753 48.641197,435.921753 60.816582,435.921753 
	C60.816582,460.377594 60.816582,484.783325 60.816582,509.189056 
	C61.384941,509.617920 61.953304,510.046783 62.521664,510.475647 
	C63.046349,509.341156 63.404526,508.087219 64.120140,507.089722 
	C80.517548,484.233551 96.931900,461.389435 113.439606,438.613007 
	C114.395050,437.294739 116.152512,435.724487 117.562408,435.699127 
	C130.157455,435.472626 142.758286,435.567108 156.256989,435.567108 
	C136.200638,462.845428 116.720520,489.340088 97.069031,516.067810 
	C103.483009,525.731750 109.911270,535.417236 116.559845,545.389893 
z"/>
<path fill="#EC3D2E" opacity="1.000000" stroke="none" 
	d="
M898.689392,494.822693 
	C909.375305,487.941467 920.438171,481.839050 933.148682,479.649017 
	C937.037415,478.979004 941.110657,478.715393 945.033142,479.047607 
	C952.613708,479.689575 956.823120,484.327545 955.624023,491.837921 
	C954.267151,500.336670 951.742737,508.664917 949.475098,516.999023 
	C944.889526,533.852112 940.095398,550.648438 935.465271,567.489502 
	C932.996094,576.470642 933.955505,578.503113 943.374634,583.866821 
	C940.957581,585.716431 939.078430,587.932129 936.700256,588.838501 
	C926.785400,592.617126 916.878601,596.584412 906.663391,599.357544 
	C897.530273,601.836975 893.068481,597.266968 894.048340,587.770020 
	C894.320068,585.137085 894.896057,582.502686 895.632874,579.955811 
	C901.966431,558.061829 908.463318,536.214539 914.656982,514.281433 
	C915.676086,510.672424 918.339661,506.008423 914.362915,503.124420 
	C910.207764,500.111053 906.097534,503.594788 902.522400,505.804565 
	C895.475708,510.159973 890.685730,516.319153 888.393494,524.444519 
	C884.198181,539.315369 879.558044,554.065247 875.623169,569.002502 
	C874.433228,573.519653 875.413879,578.576660 874.516907,583.215576 
	C874.022461,585.772644 872.231934,589.139404 870.094727,590.127808 
	C862.444641,593.665588 854.534973,596.808533 846.458191,599.207520 
	C839.248413,601.348938 835.064636,598.054077 835.135071,590.390137 
	C835.183167,585.161560 836.237793,579.791931 837.740479,574.753235 
	C843.966614,553.875671 850.519592,533.095398 856.988647,512.290649 
	C858.347290,507.921112 858.453979,503.795013 855.406067,500.007751 
	C853.143799,497.196747 853.530334,495.300415 856.871887,493.283630 
	C866.862549,487.253815 877.717651,483.703522 889.024963,481.433533 
	C897.307434,479.770813 899.001343,481.519623 898.016663,489.830719 
	C897.899292,490.821167 897.693604,491.801147 897.348877,493.433899 
	C897.224976,494.647278 897.281006,495.212738 897.337036,495.778198 
	C897.787842,495.459686 898.238586,495.141205 898.689392,494.822693 
z"/>
<path fill="#204D80" opacity="1.000000" stroke="none" 
	d="
M228.573975,577.295471 
	C217.451950,550.667175 231.831253,523.272278 265.402740,521.530334 
	C273.114716,521.130127 280.909088,522.318359 288.665405,522.778687 
	C288.525146,515.081116 284.648407,510.030457 277.456665,507.849762 
	C265.710266,504.287994 254.078125,506.271271 242.433304,508.370758 
	C241.127121,508.606232 239.826019,508.873077 238.514969,509.076324 
	C238.207321,509.124054 237.868774,508.972260 236.888748,508.790924 
	C236.888748,499.021790 236.828323,489.121979 237.002701,479.226318 
	C237.016754,478.428680 238.556961,477.115112 239.535141,476.958130 
	C256.333984,474.261993 273.098511,472.601562 289.973114,476.913727 
	C309.577911,481.923553 321.215057,494.114929 321.926178,514.494751 
	C322.864868,541.396362 322.157074,568.355469 322.157074,595.589111 
	C311.693817,595.589111 300.940765,595.589111 289.920624,595.589111 
	C289.638702,594.073975 289.347382,592.508362 288.954193,590.395264 
	C275.786713,597.787354 262.184174,600.164062 248.033997,594.882751 
	C239.481873,591.690796 232.948624,585.874329 228.573975,577.295471 
M285.377686,546.918152 
	C278.948151,546.979553 272.416748,546.357849 266.118073,547.296936 
	C259.968628,548.213745 256.696747,552.896729 256.109528,558.876465 
	C255.608536,563.978149 258.507416,569.807373 264.054291,571.426147 
	C268.958832,572.857361 274.549591,573.171631 279.633667,572.480469 
	C288.552612,571.267944 288.631042,570.673462 288.847992,561.717285 
	C288.936676,558.056519 288.984406,554.368347 288.614380,550.737122 
	C288.482849,549.446228 287.059448,548.286987 285.377686,546.918152 
z"/>
<path fill="#214E81" opacity="1.000000" stroke="none" 
	d="
M390.975830,507.285248 
	C388.816742,507.285126 387.160522,507.285126 384.833649,507.285126 
	C384.833649,536.733398 384.833649,565.920044 384.833649,595.499023 
	C373.130005,595.499023 362.089691,595.499023 350.413086,595.499023 
	C350.413086,566.334229 350.413086,537.130920 350.413086,507.462402 
	C345.378052,507.462402 340.950470,507.462402 336.200562,507.462402 
	C336.200562,497.428802 336.200562,487.859863 336.200562,477.643463 
	C340.678223,477.643463 345.217957,477.643463 349.443665,477.643463 
	C350.438660,469.776215 350.578949,462.382568 352.402557,455.430450 
	C357.798248,434.860107 372.669037,424.492981 396.386139,423.875244 
	C412.844940,423.446564 412.844482,423.446564 412.838226,439.715515 
	C412.836365,444.514984 412.837921,449.314453 412.837921,454.518707 
	C403.905945,455.186584 393.636292,451.451080 387.709412,460.346405 
	C384.820770,464.681885 384.797150,470.926300 383.244537,477.252319 
	C391.826111,477.252319 399.044189,477.252319 406.652863,477.252319 
	C406.652863,487.451294 406.652863,496.993378 406.652863,507.285370 
	C401.653381,507.285370 396.566040,507.285370 390.975830,507.285248 
z"/>
<path fill="#EC3E2F" opacity="1.000000" stroke="none" 
	d="
M1049.115967,485.375580 
	C1040.449097,497.789368 1031.941895,509.905640 1023.274841,521.906433 
	C1013.914246,534.867493 1004.386353,547.707642 994.986450,560.640503 
	C994.007446,561.987549 993.401428,563.605652 992.281738,565.750244 
	C994.677246,565.915649 996.118347,566.099548 997.559692,566.101624 
	C1012.724304,566.123535 1027.897217,565.815125 1043.050415,566.230286 
	C1052.107178,566.478394 1057.007690,560.774780 1059.984863,552.678711 
	C1062.720337,545.239929 1057.081055,538.589966 1049.093506,538.646362 
	C1047.301514,538.659058 1045.510620,538.817688 1043.746582,538.907715 
	C1042.776123,531.747070 1046.531738,525.593811 1052.980835,523.782837 
	C1059.961914,521.822449 1066.272217,523.640320 1071.525024,528.310730 
	C1076.649780,532.867249 1075.898193,538.879883 1073.958130,544.576538 
	C1068.950562,559.281250 1059.298706,571.321838 1051.172485,584.284668 
	C1045.193481,593.822449 1037.979492,596.662903 1026.849121,596.194580 
	C1002.561523,595.172974 978.202148,595.888672 953.872681,595.777771 
	C951.671021,595.767700 949.473083,594.912231 947.273438,594.449463 
	C948.119873,592.223206 948.457336,589.578064 949.891418,587.835327 
	C964.169617,570.484558 978.623291,553.278076 993.040466,536.041687 
	C997.314026,530.932434 1001.739319,525.945374 1005.878052,520.730042 
	C1007.983154,518.077271 1009.606506,515.042358 1012.225952,510.970154 
	C1005.590149,510.970154 1000.369751,510.970123 995.149292,510.970123 
	C990.816528,510.970123 986.478699,511.102386 982.152466,510.934204 
	C977.524292,510.754272 973.250916,510.811798 970.468994,515.576050 
	C969.726074,516.848328 967.558655,517.288818 965.235291,518.551270 
	C965.384644,516.413391 965.226562,515.255188 965.572510,514.274719 
	C968.060608,507.222046 970.345398,500.074432 973.288574,493.211609 
	C976.735779,485.173615 982.782166,480.827942 992.018738,480.962555 
	C1009.179382,481.212616 1026.346558,480.990814 1043.510376,481.077087 
	C1046.108765,481.090118 1049.739014,480.229126 1049.115967,485.375580 
z"/>
<path fill="#204D81" opacity="1.000000" stroke="none" 
	d="
M478.784241,590.087769 
	C481.201416,593.478760 483.418457,596.565918 485.654510,599.679504 
	C457.201965,601.990417 435.719940,587.949097 433.552063,558.554138 
	C432.439606,543.469666 433.145142,528.251160 433.032959,513.093201 
	C433.019745,511.304749 433.031128,509.516113 433.031128,507.265259 
	C428.121216,507.265259 423.842224,507.265259 419.384338,507.265259 
	C419.384338,497.208344 419.384338,487.634186 419.384338,477.548676 
	C423.899139,477.548676 428.162445,477.548676 432.887207,477.548676 
	C432.887207,466.785797 432.887207,456.518066 432.887207,445.955505 
	C444.263550,445.955505 455.172607,445.955505 466.564667,445.955505 
	C466.564667,456.325623 466.564667,466.567719 466.564667,477.390625 
	C475.086243,477.390625 483.152039,477.390625 491.543701,477.390625 
	C491.543701,487.543274 491.543701,497.114624 491.543701,507.226440 
	C483.499969,507.226440 475.412079,507.226440 467.185699,507.226440 
	C466.947693,508.674835 466.653503,509.625061 466.656433,510.574371 
	C466.694733,523.067688 467.003052,535.564819 466.786102,548.053040 
	C466.522736,563.211548 471.125824,576.871216 478.784241,590.087769 
z"/>
<path fill="#EC3E2E" opacity="1.000000" stroke="none" 
	d="
M693.343994,586.544312 
	C687.942139,575.261230 688.627380,563.905273 691.105469,552.505981 
	C697.340393,523.825500 711.622437,501.065094 739.128174,488.324402 
	C749.853210,483.356537 761.295105,481.173767 773.070923,481.084106 
	C783.694824,481.003204 790.954224,490.531433 789.036438,501.790649 
	C787.803589,509.028473 783.640381,514.614929 778.341858,519.376221 
	C766.901245,529.656799 753.119873,535.638428 738.438110,539.034485 
	C731.127502,540.725403 728.641968,544.677429 727.946533,551.145325 
	C727.786316,552.635132 727.517212,554.114746 727.397766,555.607056 
	C726.049316,572.455139 736.511292,581.446350 752.997498,577.311768 
	C757.476501,576.188416 761.695923,574.032776 766.038818,572.362366 
	C767.345764,571.859741 768.667480,571.395508 771.546753,570.340515 
	C770.111633,573.601929 769.625305,575.684448 768.444885,577.240479 
	C754.777710,595.257446 736.465820,602.612610 714.208557,600.080383 
	C705.359375,599.073608 698.189331,594.769104 693.343994,586.544312 
M740.091248,528.598572 
	C742.911011,527.338806 747.262939,526.811157 748.277222,524.688599 
	C752.044067,516.805969 754.817688,508.434723 757.679260,500.148529 
	C758.106628,498.910919 757.413940,496.212463 756.530518,495.830872 
	C754.937988,495.143036 752.737976,495.401154 750.930298,495.837708 
	C749.777161,496.116180 748.715576,497.295135 747.882202,498.294769 
	C740.316650,507.370331 736.920227,518.384766 732.725525,530.006958 
	C735.525085,529.508118 737.428711,529.168884 740.091248,528.598572 
z"/>
<path fill="#1F4C80" opacity="1.000000" stroke="none" 
	d="
M158.602768,576.998047 
	C158.602936,543.878662 158.602936,511.258789 158.602936,478.322144 
	C170.064590,478.322144 181.124298,478.322144 192.622772,478.322144 
	C192.622772,484.796539 192.622772,491.199402 192.622772,497.602234 
	C200.361191,487.212250 209.977310,480.386200 223.050888,477.898346 
	C223.050888,489.198456 223.050888,500.087311 223.050888,510.623108 
	C217.820129,512.807800 212.367691,514.407593 207.625412,517.209351 
	C198.255096,522.745361 193.118896,531.087646 193.166580,542.309570 
	C193.233841,558.132202 193.162079,573.955322 193.150177,589.778259 
	C193.148819,591.590271 193.150009,593.402283 193.150009,595.547668 
	C181.586823,595.547668 170.374161,595.547668 158.602600,595.547668 
	C158.602600,589.419067 158.602600,583.458313 158.602768,576.998047 
z"/>
<path fill="#EC3D2E" opacity="1.000000" stroke="none" 
	d="
M822.165649,555.293335 
	C820.828369,559.828674 819.431763,563.936707 818.413086,568.136353 
	C816.340210,576.682922 817.431396,578.752625 826.535400,583.773193 
	C825.229492,584.966309 824.266235,586.442261 822.927551,586.975281 
	C812.309509,591.202759 801.824707,595.949951 790.892944,599.151123 
	C780.617493,602.160156 775.253174,596.980408 776.197571,586.246826 
	C776.514343,582.646851 777.546143,579.061829 778.620544,575.584229 
	C785.441101,553.507690 792.500244,531.503418 799.084656,509.357544 
	C799.911194,506.577637 799.083679,502.802429 797.824341,500.033325 
	C796.250000,496.571869 796.474915,494.516296 799.776062,492.633911 
	C810.767883,486.366028 822.547424,482.525391 835.077026,480.929749 
	C839.463074,480.371185 841.593506,482.588898 840.906616,486.711426 
	C839.818604,493.241669 838.545898,499.782074 836.736267,506.143158 
	C832.097229,522.449280 827.119507,538.659119 822.165649,555.293335 
z"/>
<path fill="#EC3E2F" opacity="1.000000" stroke="none" 
	d="
M836.958313,462.941833 
	C832.698547,464.479614 828.854980,466.095703 824.875549,467.239166 
	C818.789246,468.988068 815.640564,466.103638 816.385132,459.776550 
	C818.440857,442.307800 825.909363,434.676544 843.520508,432.079285 
	C846.142090,431.692657 848.766052,431.230011 851.404968,431.075317 
	C855.319702,430.845825 856.985962,432.817963 856.080078,436.665161 
	C855.165588,440.548553 854.024780,444.378906 853.121399,448.264618 
	C851.806885,453.918823 848.166443,457.518890 843.141357,459.972534 
	C841.200073,460.920441 839.256348,461.863281 836.958313,462.941833 
z"/>
<path fill="#FFFFFF" opacity="1.000000" stroke="none" 
	d="
M898.412170,494.496277 
	C898.238586,495.141205 897.787842,495.459686 897.337036,495.778198 
	C897.281006,495.212738 897.224976,494.647278 897.343140,493.829102 
	C897.723267,493.774200 897.929077,493.972015 898.412170,494.496277 
z"/>
<path fill="#F9FBFB" opacity="1.000000" stroke="none" 
	d="
M285.801727,546.992920 
	C287.059448,548.286987 288.482849,549.446228 288.614380,550.737122 
	C288.984406,554.368347 288.936676,558.056519 288.847992,561.717285 
	C288.631042,570.673462 288.552612,571.267944 279.633667,572.480469 
	C274.549591,573.171631 268.958832,572.857361 264.054291,571.426147 
	C258.507416,569.807373 255.608536,563.978149 256.109528,558.876465 
	C256.696747,552.896729 259.968628,548.213745 266.118073,547.296936 
	C272.416748,546.357849 278.948151,546.979553 285.801727,546.992920 
z"/>
<path fill="#FBF6F5" opacity="1.000000" stroke="none" 
	d="
M739.711792,528.714111 
	C737.428711,529.168884 735.525085,529.508118 732.725525,530.006958 
	C736.920227,518.384766 740.316650,507.370331 747.882202,498.294769 
	C748.715576,497.295135 749.777161,496.116180 750.930298,495.837708 
	C752.737976,495.401154 754.937988,495.143036 756.530518,495.830872 
	C757.413940,496.212463 758.106628,498.910919 757.679260,500.148529 
	C754.817688,508.434723 752.044067,516.805969 748.277222,524.688599 
	C747.262939,526.811157 742.911011,527.338806 739.711792,528.714111 
z"/>
</svg>