<svg version="1.1" id="Layer_1" xmlns="http://www.w3.org/2000/svg" xmlns:xlink="http://www.w3.org/1999/xlink" x="0px" y="0px"
	 width="100%" viewBox="0 0 1024 1024" enable-background="new 0 0 1024 1024" xml:space="preserve">
<path fill="#000000" opacity="1.000000" stroke="none" 
	d="
M361.638763,253.165634 
	C416.354797,273.422638 450.447235,311.404846 463.394287,368.097778 
	C465.440704,377.058746 466.094208,386.153351 466.695221,395.281708 
	C466.894043,398.301819 465.843414,399.786896 462.925629,399.800110 
	C450.428070,399.856476 437.930145,399.842957 425.432373,399.863007 
	C422.724579,399.867340 421.750366,398.423248 421.459686,395.839325 
	C420.439301,386.769073 419.847687,377.639862 416.969635,368.849335 
	C403.357574,327.274200 375.392303,300.726410 332.476410,292.623688 
	C273.023529,281.398651 217.430542,321.046326 206.457504,380.519684 
	C204.660049,390.261841 205.513046,400.096649 204.439621,409.873291 
	C201.007553,441.132202 190.324539,469.284607 170.248184,493.700928 
	C164.558762,500.620209 164.675735,500.675568 169.771744,508.292389 
	C188.486771,536.265076 207.184326,564.249390 225.878128,592.236328 
	C226.867188,593.717041 228.123077,595.122498 227.951080,597.044434 
	C226.309784,598.696960 224.379074,598.214233 222.629135,598.218750 
	C206.464523,598.260010 190.298721,598.141357 174.135803,598.311401 
	C170.313034,598.351624 168.167953,596.948425 166.163834,593.724670 
	C153.410446,573.209839 140.353180,552.883972 127.595261,532.371948 
	C125.474693,528.962646 123.648499,528.392517 120.010902,530.098083 
	C110.021950,534.781738 99.391518,537.667175 88.619766,539.886963 
	C85.087448,540.614868 84.050255,542.231506 84.079803,545.647156 
	C84.212425,560.977478 84.158859,576.309509 84.133812,591.640930 
	C84.123749,597.801941 83.715729,598.212524 77.652168,598.227173 
	C64.653793,598.258667 51.653301,598.114746 38.657986,598.317993 
	C34.355461,598.385315 32.811768,596.975281 32.819305,592.577576 
	C32.930161,527.918884 32.941853,463.259888 32.846077,398.601166 
	C32.839294,394.021606 34.342087,392.521118 38.938877,392.604584 
	C52.099060,392.843506 65.269348,392.781250 78.430748,392.553223 
	C82.807610,392.477417 84.203629,394.024567 84.184349,398.357880 
	C84.052399,428.020294 84.122803,457.683685 84.139771,487.346741 
	C84.143723,494.257843 84.435349,494.456635 90.748177,492.478027 
	C128.054657,480.785248 149.385147,455.147705 157.100601,417.230194 
	C159.547348,405.205750 158.863434,393.014160 160.420975,380.965302 
	C164.979477,345.701691 179.629578,315.412292 204.750885,290.231689 
	C230.593826,264.327789 262.048889,249.859192 298.171997,246.084320 
	C319.526154,243.852814 340.744873,246.090546 361.638763,253.165634 
z"/>
<path fill="#000000" opacity="1.000000" stroke="none" 
	d="
M436.008057,641.706116 
	C445.171631,641.708374 453.838440,641.798889 462.501984,641.669312 
	C465.805969,641.619934 467.124298,642.661316 467.380035,646.193542 
	C470.776154,693.100525 504.264191,729.094177 551.222351,734.283997 
	C580.317810,737.499634 605.651978,727.168884 626.393799,706.464905 
	C641.286377,691.599426 649.548035,673.303162 652.425598,652.562927 
	C652.948792,648.791199 652.802002,644.914368 652.811462,641.085632 
	C652.853271,624.254639 652.852051,607.423523 652.825806,590.592407 
	C652.822998,588.794800 653.172607,586.927246 652.282898,585.240295 
	C651.188477,584.578430 650.306824,585.150574 649.460571,585.649902 
	C618.843323,603.715210 581.942017,596.468018 558.037964,568.631836 
	C526.706421,532.146545 536.198120,467.712006 585.465515,446.328857 
	C607.680176,436.687225 629.952515,437.470703 650.215454,452.809265 
	C650.607422,453.105957 651.050842,453.339691 651.488098,453.568634 
	C651.612854,453.633942 651.800720,453.578644 651.990295,453.578644 
	C652.175598,453.356293 652.535339,453.127136 652.552368,452.874817 
	C653.183838,443.528656 653.179626,443.575836 662.756897,443.557495 
	C672.419312,443.538971 682.085266,443.547821 691.742615,443.285492 
	C697.907959,443.118011 698.302917,443.259094 698.304077,449.429535 
	C698.313965,502.755829 698.316223,556.082092 698.318848,609.408386 
	C698.319458,621.406799 698.628357,633.415100 698.251770,645.401794 
	C696.963928,686.396790 680.734131,720.476379 649.884827,747.439941 
	C628.559631,766.079102 603.491333,777.216248 575.456299,779.808350 
	C525.262207,784.449402 483.461456,767.301025 451.581421,727.887695 
	C434.047546,706.210510 424.386719,681.171204 422.615448,653.206360 
	C421.887238,641.708923 421.803040,641.714233 433.510132,641.708435 
	C434.176758,641.708069 434.843414,641.707275 436.008057,641.706116 
M638.707642,488.726013 
	C624.944885,480.552826 608.295593,481.078827 597.696594,490.504578 
	C587.974854,499.150116 585.235168,510.412384 586.149353,523.091492 
	C587.103333,536.321289 596.312866,548.741333 608.761841,552.589172 
	C622.608337,556.868896 637.235962,552.391663 645.515625,541.339233 
	C657.437866,525.424377 654.647522,502.113617 638.707642,488.726013 
z"/>
<path fill="#000000" opacity="1.000000" stroke="none" 
	d="
M789.141602,440.667358 
	C802.084106,440.187531 814.286011,441.460205 825.662170,446.939331 
	C848.461853,457.920471 861.277039,476.785339 867.263000,500.755005 
	C869.529175,509.829254 870.427429,519.056458 869.490051,528.496155 
	C869.042725,533.001099 867.457764,534.390015 863.006775,534.367859 
	C832.176880,534.214172 801.345825,534.288452 770.515137,534.296570 
	C763.782959,534.298340 763.071350,535.295410 765.800232,541.436096 
	C769.698364,550.208008 776.151367,556.000916 785.743958,557.927979 
	C801.472595,561.087646 816.222900,559.160889 829.452576,549.445435 
	C830.686218,548.539551 831.923035,547.509277 833.519165,548.393738 
	C844.260742,554.345764 854.978821,560.340210 865.136902,566.004456 
	C865.683289,567.771423 865.262329,568.490967 864.701111,569.120728 
	C836.470154,600.806152 795.785828,609.746948 759.472778,593.203552 
	C735.433838,582.251892 721.849243,562.432983 717.948425,536.415344 
	C713.505066,506.779053 720.099976,480.442505 742.999146,459.626953 
	C755.925842,447.876495 771.235046,441.678406 789.141602,440.667358 
M777.522827,504.916351 
	C790.347290,504.916626 803.171875,504.890961 815.996216,504.934448 
	C819.434570,504.946075 821.590210,504.412964 819.994812,500.070526 
	C816.031433,489.282501 805.560059,480.795868 795.199402,480.306702 
	C782.895386,479.725800 771.931641,486.480865 766.847595,497.774963 
	C764.118958,503.836731 764.794434,504.868378 771.539429,504.918488 
	C773.204895,504.930847 774.870422,504.917633 777.522827,504.916351 
z"/>
<path fill="#000000" opacity="1.000000" stroke="none" 
	d="
M478.480896,593.599731 
	C440.722168,610.117432 396.846344,598.541382 375.924377,561.182556 
	C352.975189,520.203796 367.715851,463.390564 414.833893,445.824188 
	C464.162262,427.433777 515.888794,455.431335 523.022156,509.671722 
	C527.741333,545.555725 509.404694,579.681091 478.480896,593.599731 
M464.040588,550.583923 
	C475.466766,541.357056 479.132996,529.168335 477.683258,514.993408 
	C475.082245,489.561798 447.544067,475.555176 426.486359,489.390198 
	C415.148865,496.838989 410.900208,508.350861 411.211365,521.731689 
	C411.519196,534.967468 416.315338,546.014160 427.999176,552.677979 
	C439.853027,559.438721 451.950714,558.330688 464.040588,550.583923 
z"/>
<path fill="#000000" opacity="1.000000" stroke="none" 
	d="
M267.010925,443.570923 
	C274.835052,443.560242 282.166901,443.712036 289.485535,443.467346 
	C292.945007,443.351685 294.354004,444.435394 294.238434,447.952576 
	C294.069580,453.091644 294.195038,458.240356 294.195038,463.772278 
	C297.068878,463.383209 298.008972,461.240814 299.303802,459.748047 
	C310.630676,446.689484 324.328033,439.226013 342.177765,440.567596 
	C351.121155,441.239777 352.224518,441.989044 352.223267,450.663361 
	C352.221741,461.153625 352.085602,471.646301 352.276581,482.133026 
	C352.357422,486.572906 351.470612,488.469299 346.327606,487.554626 
	C333.005310,485.185272 319.922821,485.930237 308.783966,494.684753 
	C300.279724,501.368561 294.756256,509.558716 295.052277,521.425842 
	C295.633331,544.723145 295.233337,568.045105 295.223114,591.356873 
	C295.220123,598.186584 295.170471,598.229980 288.181427,598.239197 
	C276.359039,598.254761 264.532349,598.059265 252.716339,598.333862 
	C248.001892,598.443359 246.752365,596.671875 246.762924,592.210327 
	C246.875946,544.421509 246.868317,496.632172 246.758377,448.843292 
	C246.748383,444.499725 248.050095,442.824890 252.543320,443.261047 
	C257.166412,443.709747 261.853912,443.495148 267.010925,443.570923 
z"/>
<path fill="#000000" opacity="1.000000" stroke="none" 
	d="
M936.235596,513.611206 
	C936.206543,539.870911 936.205139,565.692261 936.185730,591.513611 
	C936.180847,598.039246 936.019409,598.203003 929.408569,598.216553 
	C917.580688,598.240845 905.750427,598.091003 893.926025,598.295227 
	C889.509705,598.371521 887.747864,597.098145 887.762024,592.347717 
	C887.904297,544.703369 887.891479,497.058258 887.763611,449.413788 
	C887.751526,444.926666 888.920349,443.310394 893.685791,443.445740 
	C905.669983,443.786102 917.673950,443.692017 929.663269,443.445587 
	C933.786682,443.360809 935.383423,444.603821 935.154236,448.809113 
	C934.874695,453.938293 935.087769,459.094330 935.087769,465.665253 
	C937.996277,462.526184 940.049011,460.302582 942.110718,458.087250 
	C949.997009,449.612915 958.984741,442.918121 970.779968,441.151581 
	C976.889526,440.236542 983.036682,440.241516 989.123108,441.736359 
	C991.805237,442.395081 993.039856,443.885529 993.029175,446.661133 
	C992.981628,458.988373 992.997803,471.315826 993.001709,483.643219 
	C993.002686,486.830109 991.712158,488.073792 988.334778,487.545105 
	C979.406982,486.147583 970.446472,485.537323 961.637390,488.373749 
	C949.068787,492.420624 940.585449,500.678192 936.235596,513.611206 
z"/>
<path fill="#000000" opacity="1.000000" stroke="none" 
	d="
M728.325867,725.276978 
	C716.871338,735.812256 703.696533,729.868896 699.535889,721.672668 
	C695.784363,714.282349 697.317139,706.198914 703.655701,700.936584 
	C710.351440,695.377625 719.387451,695.247864 726.196106,700.612671 
	C732.413391,705.511475 734.488159,714.223694 731.033752,721.263977 
	C730.381409,722.593384 729.408447,723.765503 728.325867,725.276978 
M708.426086,723.566833 
	C712.378052,726.426941 716.400940,726.882568 721.843262,723.546631 
	C716.829590,723.464905 718.299133,717.942383 714.126099,717.492920 
	C713.026123,720.390015 712.910706,724.618408 707.844299,722.095154 
	C707.898621,716.399231 707.952942,710.703247 708.925659,704.943604 
	C711.913513,704.905884 714.942993,704.540771 717.878601,704.913879 
	C721.489319,705.372681 724.245361,707.796997 722.544617,711.420959 
	C720.660400,715.435608 722.853149,717.765320 724.188843,721.062134 
	C727.974854,714.699463 727.217041,708.556030 722.478394,704.505676 
	C718.472229,701.081726 712.494629,701.283569 707.389343,705.324646 
	C701.571655,711.188904 701.804565,717.825378 708.426086,723.566833 
z"/>
</svg>