<svg version="1.1" id="Layer_1" xmlns="http://www.w3.org/2000/svg" xmlns:xlink="http://www.w3.org/1999/xlink" x="0px" y="0px"
	 width="100%" viewBox="0 0 500 500" enable-background="new 0 0 500 500" xml:space="preserve">
<path fill="#000000" opacity="1.000000" stroke="none" 
	d="
M271.000000,501.000000 
	C180.666687,501.000000 90.833374,501.000000 1.000048,501.000000 
	C1.000032,334.333405 1.000032,167.666794 1.000016,1.000138 
	C167.666565,1.000092 334.333130,1.000092 500.999756,1.000046 
	C500.999847,167.666519 500.999847,334.333038 500.999939,500.999786 
	C424.500000,501.000000 348.000000,501.000000 271.000000,501.000000 
M400.902618,257.096405 
	C396.694031,255.680450 392.988678,255.276993 388.860474,258.418884 
	C386.570801,260.161530 382.172333,260.578217 379.313568,259.691956 
	C376.822937,258.919769 375.159088,255.480820 373.129913,253.220230 
	C373.507355,252.816345 373.884796,252.412476 374.262268,252.008591 
	C378.747437,252.008591 383.232635,252.008606 387.717804,252.008606 
	C392.377930,252.008606 397.038025,252.008591 401.665527,252.008591 
	C404.256897,236.194672 391.203583,225.417572 376.103027,230.685593 
	C367.521088,233.679520 363.231842,241.115417 363.922974,251.801208 
	C364.472351,260.295532 370.248993,267.242981 378.179016,268.946686 
	C388.342499,271.130249 395.947235,267.412292 400.902618,257.096405 
M211.148041,248.500580 
	C211.148041,255.270920 211.148041,262.041260 211.148041,268.736816 
	C214.852798,268.736816 217.935349,268.736816 221.247238,268.736816 
	C221.247238,265.975403 221.217773,263.486877 221.253372,260.999298 
	C221.327194,255.840775 221.033630,250.635406 221.633926,245.536758 
	C222.345612,239.492172 228.103104,236.537674 233.468857,238.963242 
	C237.193649,240.646988 238.132538,243.879196 238.132095,247.598373 
	C238.131271,254.687775 238.131836,261.777161 238.131836,268.690887 
	C241.920731,268.690887 244.988724,268.690887 248.228409,268.690887 
	C248.228409,260.882568 248.209900,253.394058 248.234100,245.905701 
	C248.254318,239.650467 246.372833,234.217010 240.510773,231.312439 
	C234.559143,228.363449 228.595963,228.766388 223.170166,233.021515 
	C222.838455,233.281647 222.305176,233.284775 221.678223,233.459839 
	C221.385056,232.280518 221.119476,231.212189 220.890091,230.289444 
	C217.610718,230.289444 214.519028,230.289444 211.148041,230.289444 
	C211.148041,236.224426 211.148041,241.862915 211.148041,248.500580 
M319.528107,258.708405 
	C323.797028,269.978668 333.097656,272.479126 345.000305,265.546112 
	C347.205566,271.851135 351.985748,268.025635 355.556824,268.922119 
	C355.556824,255.562653 355.556824,242.844269 355.556824,230.297058 
	C352.140717,230.297058 349.069763,230.297058 345.814423,230.297058 
	C345.814423,237.248779 346.184387,243.925247 345.648804,250.528229 
	C345.403412,253.553848 344.091705,257.264771 341.934875,259.121063 
	C340.187378,260.625000 335.857727,260.900787 333.760712,259.746277 
	C331.498047,258.500580 329.384094,255.051758 329.162903,252.400665 
	C328.548218,245.032928 328.949615,237.580414 328.949615,230.265915 
	C325.180328,230.265915 322.101166,230.265915 319.240265,230.265915 
	C319.240265,239.674820 319.240265,248.806778 319.528107,258.708405 
M132.076385,252.499573 
	C132.076385,238.070572 132.076385,223.641586 132.076385,208.660416 
	C129.576294,208.660416 127.581215,208.879364 125.651451,208.617325 
	C120.820992,207.961395 119.028931,209.405975 119.148598,214.747452 
	C119.532158,231.867599 119.284187,249.001755 119.301689,266.130493 
	C119.303520,267.916748 119.450287,269.702850 119.538300,271.679688 
	C123.847450,271.679688 127.722252,271.679688 132.076187,271.679688 
	C132.076187,265.402344 132.076187,259.450836 132.076385,252.499573 
M154.151474,234.504364 
	C154.151474,245.937515 154.151474,257.370667 154.151474,268.731812 
	C157.855118,268.731812 160.936539,268.731812 164.414597,268.731812 
	C164.414597,261.722321 164.414597,254.984161 164.414597,247.833527 
	C169.750885,247.833527 174.682770,247.833527 179.525299,247.833527 
	C179.525299,245.000275 179.525299,242.606781 179.525299,239.839554 
	C174.282745,239.839554 169.357758,239.839554 164.545959,239.839554 
	C164.545959,235.375320 164.545959,231.306244 164.545959,226.821960 
	C171.436432,226.821960 178.030792,226.821960 184.517090,226.821960 
	C184.517090,223.985260 184.517090,221.591690 184.517090,219.294373 
	C174.268066,219.294373 164.353226,219.294373 154.515625,219.294373 
	C154.347641,219.899918 154.190735,220.205048 154.188980,220.511078 
	C154.164139,224.842819 154.160355,229.174667 154.151474,234.504364 
M265.012085,246.988098 
	C265.516632,238.900314 274.615448,235.337448 278.981323,240.031998 
	C283.133759,244.497040 287.344330,243.038589 291.972748,243.238068 
	C289.439728,233.065445 281.588654,228.323227 270.491302,229.864197 
	C260.726471,231.220108 254.633713,239.180832 254.859177,250.289078 
	C255.077194,261.030884 261.771088,268.445068 272.051880,269.331879 
	C282.239105,270.210571 289.887024,265.091461 291.848694,255.691086 
	C287.264587,256.222748 282.806519,254.439453 278.843964,259.206360 
	C275.689209,263.001495 268.292664,260.850525 266.288757,256.070679 
	C265.242676,253.575439 265.367981,250.589142 265.012085,246.988098 
M300.148010,228.515244 
	C300.148010,241.948837 300.148010,255.382416 300.148010,268.728455 
	C303.864868,268.728455 306.942627,268.728455 310.247253,268.728455 
	C310.247253,259.791870 310.247223,251.136917 310.247223,242.481949 
	C310.247223,233.718948 310.247253,224.955948 310.247253,216.296997 
	C306.586212,216.296997 303.502075,216.296997 300.148010,216.296997 
	C300.148010,220.240799 300.148010,223.882111 300.148010,228.515244 
M99.497231,237.240387 
	C99.497231,248.639359 99.497231,260.038330 99.497231,271.687561 
	C103.600677,271.687561 107.476875,271.687561 111.936943,271.687561 
	C111.936943,263.102417 111.936638,254.831604 111.937012,246.560791 
	C111.937515,235.322662 111.937737,235.322662 99.497231,237.240387 
M201.851959,242.514282 
	C201.851959,238.410507 201.851959,234.306747 201.851959,230.258026 
	C198.153885,230.258026 195.070511,230.258026 192.021301,230.258026 
	C192.021301,243.283325 192.021301,256.036774 192.021301,268.714905 
	C195.386841,268.714905 198.473892,268.714905 201.851959,268.714905 
	C201.851959,260.117828 201.851959,251.814270 201.851959,242.514282 
M91.736031,253.682007 
	C91.727470,245.772522 90.590790,245.175491 79.377884,247.237717 
	C79.377884,255.407196 79.377884,263.581879 79.377884,271.720673 
	C83.571983,271.720673 87.324448,271.720673 91.735703,271.720673 
	C91.735703,265.840790 91.735703,260.240082 91.736031,253.682007 
M196.582153,224.996567 
	C201.062119,224.657974 203.573776,222.012512 202.398224,217.852203 
	C201.832321,215.849411 198.684723,213.502960 196.558075,213.348221 
	C194.803528,213.220551 191.855652,215.746857 191.166702,217.705627 
	C189.900528,221.305374 191.948257,223.999817 196.582153,224.996567 
z"/>
<path fill="#FAFAFA" opacity="1.000000" stroke="none" 
	d="
M400.844360,257.495300 
	C395.947235,267.412292 388.342499,271.130249 378.179016,268.946686 
	C370.248993,267.242981 364.472351,260.295532 363.922974,251.801208 
	C363.231842,241.115417 367.521088,233.679520 376.103027,230.685593 
	C391.203583,225.417572 404.256897,236.194672 401.665527,252.008591 
	C397.038025,252.008591 392.377930,252.008606 387.717804,252.008606 
	C383.232635,252.008606 378.747437,252.008591 374.262268,252.008591 
	C373.884796,252.412476 373.507355,252.816345 373.129913,253.220230 
	C375.159088,255.480820 376.822937,258.919769 379.313568,259.691956 
	C382.172333,260.578217 386.570801,260.161530 388.860474,258.418884 
	C392.988678,255.276993 396.694031,255.680450 400.844360,257.495300 
M381.835480,238.189117 
	C378.099731,238.930008 374.935364,240.332077 374.058258,244.684204 
	C380.178741,244.684204 386.033844,244.684204 391.974640,244.684204 
	C390.444763,239.754059 389.097565,238.846069 381.835480,238.189117 
z"/>
<path fill="#F9F9F9" opacity="1.000000" stroke="none" 
	d="
M211.148041,248.000992 
	C211.148041,241.862915 211.148041,236.224426 211.148041,230.289444 
	C214.519028,230.289444 217.610718,230.289444 220.890091,230.289444 
	C221.119476,231.212189 221.385056,232.280518 221.678223,233.459839 
	C222.305176,233.284775 222.838455,233.281647 223.170166,233.021515 
	C228.595963,228.766388 234.559143,228.363449 240.510773,231.312439 
	C246.372833,234.217010 248.254318,239.650467 248.234100,245.905701 
	C248.209900,253.394058 248.228409,260.882568 248.228409,268.690887 
	C244.988724,268.690887 241.920731,268.690887 238.131836,268.690887 
	C238.131836,261.777161 238.131271,254.687775 238.132095,247.598373 
	C238.132538,243.879196 237.193649,240.646988 233.468857,238.963242 
	C228.103104,236.537674 222.345612,239.492172 221.633926,245.536758 
	C221.033630,250.635406 221.327194,255.840775 221.253372,260.999298 
	C221.217773,263.486877 221.247238,265.975403 221.247238,268.736816 
	C217.935349,268.736816 214.852798,268.736816 211.148041,268.736816 
	C211.148041,262.041260 211.148041,255.270920 211.148041,248.000992 
z"/>
<path fill="#FAFAFA" opacity="1.000000" stroke="none" 
	d="
M319.384186,258.323578 
	C319.240265,248.806778 319.240265,239.674820 319.240265,230.265915 
	C322.101166,230.265915 325.180328,230.265915 328.949615,230.265915 
	C328.949615,237.580414 328.548218,245.032928 329.162903,252.400665 
	C329.384094,255.051758 331.498047,258.500580 333.760712,259.746277 
	C335.857727,260.900787 340.187378,260.625000 341.934875,259.121063 
	C344.091705,257.264771 345.403412,253.553848 345.648804,250.528229 
	C346.184387,243.925247 345.814423,237.248779 345.814423,230.297058 
	C349.069763,230.297058 352.140717,230.297058 355.556824,230.297058 
	C355.556824,242.844269 355.556824,255.562653 355.556824,268.922119 
	C351.985748,268.025635 347.205566,271.851135 344.999084,265.550995 
	C333.097656,272.479126 323.797028,269.978668 319.384186,258.323578 
z"/>
<path fill="#0FB37D" opacity="1.000000" stroke="none" 
	d="
M132.076294,252.999451 
	C132.076187,259.450836 132.076187,265.402344 132.076187,271.679688 
	C127.722252,271.679688 123.847450,271.679688 119.538300,271.679688 
	C119.450287,269.702850 119.303520,267.916748 119.301689,266.130493 
	C119.284187,249.001755 119.532158,231.867599 119.148598,214.747452 
	C119.028931,209.405975 120.820992,207.961395 125.651451,208.617325 
	C127.581215,208.879364 129.576294,208.660416 132.076385,208.660416 
	C132.076385,223.641586 132.076385,238.070572 132.076294,252.999451 
z"/>
<path fill="#FAFAFA" opacity="1.000000" stroke="none" 
	d="
M154.151474,234.005432 
	C154.160355,229.174667 154.164139,224.842819 154.188980,220.511078 
	C154.190735,220.205048 154.347641,219.899918 154.515625,219.294373 
	C164.353226,219.294373 174.268066,219.294373 184.517090,219.294373 
	C184.517090,221.591690 184.517090,223.985260 184.517090,226.821960 
	C178.030792,226.821960 171.436432,226.821960 164.545959,226.821960 
	C164.545959,231.306244 164.545959,235.375320 164.545959,239.839554 
	C169.357758,239.839554 174.282745,239.839554 179.525299,239.839554 
	C179.525299,242.606781 179.525299,245.000275 179.525299,247.833527 
	C174.682770,247.833527 169.750885,247.833527 164.414597,247.833527 
	C164.414597,254.984161 164.414597,261.722321 164.414597,268.731812 
	C160.936539,268.731812 157.855118,268.731812 154.151474,268.731812 
	C154.151474,257.370667 154.151474,245.937515 154.151474,234.005432 
z"/>
<path fill="#FAFAFA" opacity="1.000000" stroke="none" 
	d="
M264.988159,247.406372 
	C265.367981,250.589142 265.242676,253.575439 266.288757,256.070679 
	C268.292664,260.850525 275.689209,263.001495 278.843964,259.206360 
	C282.806519,254.439453 287.264587,256.222748 291.848694,255.691086 
	C289.887024,265.091461 282.239105,270.210571 272.051880,269.331879 
	C261.771088,268.445068 255.077194,261.030884 254.859177,250.289078 
	C254.633713,239.180832 260.726471,231.220108 270.491302,229.864197 
	C281.588654,228.323227 289.439728,233.065445 291.972748,243.238068 
	C287.344330,243.038589 283.133759,244.497040 278.981323,240.031998 
	C274.615448,235.337448 265.516632,238.900314 264.988159,247.406372 
z"/>
<path fill="#F9F9F9" opacity="1.000000" stroke="none" 
	d="
M300.148010,228.019348 
	C300.148010,223.882111 300.148010,220.240799 300.148010,216.296997 
	C303.502075,216.296997 306.586212,216.296997 310.247253,216.296997 
	C310.247253,224.955948 310.247223,233.718948 310.247223,242.481949 
	C310.247223,251.136917 310.247253,259.791870 310.247253,268.728455 
	C306.942627,268.728455 303.864868,268.728455 300.148010,268.728455 
	C300.148010,255.382416 300.148010,241.948837 300.148010,228.019348 
z"/>
<path fill="#0FB37D" opacity="1.000000" stroke="none" 
	d="
M99.853317,236.974304 
	C111.937737,235.322662 111.937515,235.322662 111.937012,246.560791 
	C111.936638,254.831604 111.936943,263.102417 111.936943,271.687561 
	C107.476875,271.687561 103.600677,271.687561 99.497231,271.687561 
	C99.497231,260.038330 99.497231,248.639359 99.853317,236.974304 
z"/>
<path fill="#F9F9F9" opacity="1.000000" stroke="none" 
	d="
M201.851959,243.012482 
	C201.851959,251.814270 201.851959,260.117828 201.851959,268.714905 
	C198.473892,268.714905 195.386841,268.714905 192.021301,268.714905 
	C192.021301,256.036774 192.021301,243.283325 192.021301,230.258026 
	C195.070511,230.258026 198.153885,230.258026 201.851959,230.258026 
	C201.851959,234.306747 201.851959,238.410507 201.851959,243.012482 
z"/>
<path fill="#0FB37D" opacity="1.000000" stroke="none" 
	d="
M91.735870,254.160675 
	C91.735703,260.240082 91.735703,265.840790 91.735703,271.720673 
	C87.324448,271.720673 83.571983,271.720673 79.377884,271.720673 
	C79.377884,263.581879 79.377884,255.407196 79.377884,247.237717 
	C90.590790,245.175491 91.727470,245.772522 91.735870,254.160675 
z"/>
<path fill="#F9F9F9" opacity="1.000000" stroke="none" 
	d="
M196.195953,224.974854 
	C191.948257,223.999817 189.900528,221.305374 191.166702,217.705627 
	C191.855652,215.746857 194.803528,213.220551 196.558075,213.348221 
	C198.684723,213.502960 201.832321,215.849411 202.398224,217.852203 
	C203.573776,222.012512 201.062119,224.657974 196.195953,224.974854 
z"/>
<path fill="#000000" opacity="1.000000" stroke="none" 
	d="
M382.233185,238.166397 
	C389.097565,238.846069 390.444763,239.754059 391.974640,244.684204 
	C386.033844,244.684204 380.178741,244.684204 374.058258,244.684204 
	C374.935364,240.332077 378.099731,238.930008 382.233185,238.166397 
z"/>
</svg>