<svg version="1.1" id="Layer_1" xmlns="http://www.w3.org/2000/svg" xmlns:xlink="http://www.w3.org/1999/xlink" x="0px" y="0px"
	 width="100%" viewBox="0 0 428 118" enable-background="new 0 0 428 118" xml:space="preserve">
<path fill="#FDFDFE" opacity="1.000000" stroke="none" 
	d="
M312.000000,119.000000 
	C208.000015,119.000000 104.500023,119.000000 1.000028,119.000000 
	C1.000019,79.666687 1.000019,40.333366 1.000009,1.000038 
	C143.666641,1.000026 286.333282,1.000026 428.999939,1.000013 
	C428.999939,40.333294 428.999939,79.666588 428.999969,118.999939 
	C390.166656,119.000000 351.333344,119.000000 312.000000,119.000000 
M311.918579,32.028973 
	C311.763733,32.284714 311.701904,32.561256 311.224030,33.292763 
	C308.126099,38.352776 305.028168,43.412785 301.696289,48.854939 
	C298.225006,43.224522 295.162048,38.106426 291.916199,33.107075 
	C291.190247,31.988909 289.860229,30.574078 288.744293,30.515491 
	C283.522705,30.241367 278.278748,30.393774 271.939880,30.393774 
	C279.594940,41.929199 286.617188,52.511028 293.769592,64.010132 
	C293.787231,70.960251 293.739777,77.911652 293.876312,84.859421 
	C293.904266,86.282829 294.621582,87.692680 295.915009,89.339676 
	C299.602448,89.254692 303.289856,89.169701 307.654816,89.274284 
	C308.048157,88.854790 308.441528,88.435303 308.987244,87.087517 
	C308.993042,80.770546 308.733398,74.437210 309.121399,68.143806 
	C309.303833,65.184624 310.169556,61.960567 311.696625,59.446232 
	C317.289062,50.238087 323.289490,41.277714 329.736694,31.820049 
	C329.781555,31.350986 329.826416,30.881924 330.155518,30.312284 
	C330.155518,30.312284 330.296417,30.575636 330.296417,30.575636 
	C330.296417,30.575636 329.925171,30.524065 329.407715,30.280373 
	C329.238220,30.367657 329.068726,30.454941 327.991760,30.403173 
	C323.359253,30.447842 318.726776,30.492512 313.658722,30.288364 
	C313.313202,30.620794 312.967712,30.953224 312.350800,31.452393 
	C312.350800,31.452393 312.251404,31.755016 311.918579,32.028973 
M258.219208,32.169025 
	C257.868744,31.850227 257.519562,31.254480 257.167633,31.252859 
	C246.463699,31.203527 235.759491,31.212629 224.957443,31.212629 
	C224.957443,50.333553 224.957443,69.697769 224.957443,88.944832 
	C234.809662,88.944832 244.400894,88.944832 254.781662,89.047363 
	C268.151611,86.473320 275.086395,80.360924 276.614899,68.657372 
	C277.362000,62.936543 277.286072,56.973137 276.613983,51.232937 
	C275.540436,42.063431 270.371033,35.646690 261.475922,32.604317 
	C260.608124,32.307503 259.465302,32.814789 258.219208,32.169025 
M218.209549,49.479343 
	C218.141495,49.319534 218.073425,49.159729 218.034180,48.234470 
	C215.038910,37.094723 207.986359,30.915703 196.587082,29.994429 
	C193.197464,29.720486 189.716827,30.792154 186.290695,30.710585 
	C174.817474,30.437437 165.772095,36.858002 164.033295,48.008213 
	C162.944321,54.991482 162.836502,62.298042 163.500839,69.345253 
	C164.544724,80.418610 170.904068,87.478241 181.908981,89.272743 
	C188.302719,90.315338 195.257568,90.183243 201.584732,88.828026 
	C210.712357,86.872978 216.528503,80.637711 218.222183,70.382751 
	C218.213287,69.946648 218.204407,69.510536 218.450943,68.576103 
	C218.450699,68.025200 218.450439,67.474289 218.744858,66.048485 
	C218.646759,61.729557 218.548660,57.410625 218.585281,52.468853 
	C218.424103,51.642292 218.262924,50.815731 218.209549,49.479343 
M80.915237,54.935932 
	C80.905396,65.051155 80.855499,75.166695 80.936005,85.281197 
	C80.946152,86.556969 81.641739,87.827286 82.912201,89.338928 
	C86.601738,89.253227 90.291275,89.167526 94.504929,89.240402 
	C94.670525,89.163612 94.836113,89.086830 95.790703,88.636108 
	C95.790703,69.376846 95.790703,50.117580 95.790703,30.705099 
	C87.704330,30.705099 79.992531,30.705099 72.284096,30.705099 
	C69.327904,42.722363 66.448311,54.428234 63.568726,66.134109 
	C63.227234,66.043274 62.885742,65.952446 62.544250,65.861610 
	C59.726273,54.057949 56.908295,42.254292 54.158646,30.736824 
	C45.958904,30.736824 38.380543,30.736824 30.695168,30.736824 
	C30.695168,50.360874 30.695168,69.621681 30.695168,89.039948 
	C35.610798,89.039948 40.310555,89.039948 45.286797,89.039948 
	C45.286797,77.516678 45.286797,66.328087 45.286797,55.139496 
	C46.226665,55.880623 46.639187,56.724846 46.874233,57.615883 
	C49.243984,66.599365 51.492443,75.616516 54.013435,84.556969 
	C54.501732,86.288658 55.968243,89.029236 57.076061,89.075233 
	C61.461273,89.257263 66.070869,89.153290 70.193260,87.863777 
	C71.704453,87.391060 72.229324,83.372078 72.963905,80.899422 
	C74.144661,76.924820 75.026276,72.861099 76.216415,68.889610 
	C77.712234,63.898148 79.391556,58.961674 80.915237,54.935932 
M106.943031,38.532372 
	C103.300835,43.371704 101.842461,48.869244 101.935875,54.864712 
	C101.995445,58.688404 101.887070,62.514923 101.959633,66.338165 
	C102.205322,79.283134 110.272881,88.453995 123.058502,89.912689 
	C127.318680,90.398720 131.718796,90.399200 135.984909,89.952560 
	C148.453384,88.647179 156.511353,80.203156 157.215576,67.625931 
	C157.549133,61.668842 157.440964,55.645603 156.970032,49.696892 
	C156.525238,44.078262 153.860901,39.491909 149.476044,35.633244 
	C142.704102,29.673962 134.591904,29.622355 126.499123,29.789900 
	C119.186020,29.941305 112.475075,32.228687 106.943031,38.532372 
M391.009613,86.687439 
	C398.741119,81.794647 400.318939,74.364128 398.750305,66.167679 
	C397.192261,58.026413 390.759277,55.144787 383.414001,53.824783 
	C379.158020,53.059948 374.801117,52.715969 370.646851,51.598370 
	C369.108673,51.184570 367.292328,49.257069 366.961212,47.726116 
	C366.705322,46.542934 368.231995,44.265148 369.545380,43.572777 
	C375.656952,40.351006 382.046997,43.364410 383.644043,50.467789 
	C388.365265,50.001099 393.164642,49.526680 397.824432,49.066063 
	C399.112762,40.466816 394.692780,33.047161 385.869568,31.243193 
	C379.214996,29.882614 371.908630,29.658077 365.244446,30.867626 
	C354.728882,32.776207 350.190063,40.090153 350.893066,50.940060 
	C351.444489,59.450436 357.049866,64.607712 367.223846,66.065826 
	C371.504700,66.679359 375.818542,67.216446 380.004181,68.247742 
	C381.263000,68.557899 382.796722,70.308449 383.008820,71.596085 
	C383.223328,72.898476 382.355286,74.962402 381.271576,75.797966 
	C375.493500,80.253014 366.640015,76.471336 365.727081,69.348450 
	C360.651093,69.348450 355.583008,69.348450 350.542084,69.348450 
	C350.213745,79.881409 354.359192,86.441017 363.585388,88.897461 
	C372.597778,91.296974 381.686737,91.395416 391.009613,86.687439 
M345.908112,48.117416 
	C346.939087,42.452976 347.970062,36.788536 349.071045,30.739609 
	C342.529755,30.739609 337.346283,30.739609 332.317505,30.739609 
	C332.317505,36.141201 332.317505,41.172821 332.317505,46.161842 
	C334.576935,46.385204 336.450928,46.570461 338.601807,46.783089 
	C337.107849,51.083683 335.817657,54.797798 334.527435,58.511913 
	C336.557587,58.690716 338.206665,58.177135 339.164795,57.067154 
	C341.433807,54.438511 343.374817,51.526733 345.908112,48.117416 
z"/>
<path fill="#0F2D6F" opacity="1.000000" stroke="none" 
	d="
M93.980812,89.081818 
	C90.291275,89.167526 86.601738,89.253227 82.465736,88.744095 
	C82.014641,78.490234 82.059128,68.830696 81.959862,59.172630 
	C81.942108,57.445778 81.329582,55.725037 80.991684,54.001472 
	C79.391556,58.961674 77.712234,63.898148 76.216415,68.889610 
	C75.026276,72.861099 74.144661,76.924820 72.963905,80.899422 
	C72.229324,83.372078 71.704453,87.391060 70.193260,87.863777 
	C66.070869,89.153290 61.461273,89.257263 57.076061,89.075233 
	C55.968243,89.029236 54.501732,86.288658 54.013435,84.556969 
	C51.492443,75.616516 49.243984,66.599365 46.874233,57.615883 
	C46.639187,56.724846 46.226665,55.880623 45.286797,55.139496 
	C45.286797,66.328087 45.286797,77.516678 45.286797,89.039948 
	C40.310555,89.039948 35.610798,89.039948 30.695168,89.039948 
	C30.695168,69.621681 30.695168,50.360874 30.695168,30.736824 
	C38.380543,30.736824 45.958904,30.736824 54.158646,30.736824 
	C56.908295,42.254292 59.726273,54.057949 62.544250,65.861610 
	C62.885742,65.952446 63.227234,66.043274 63.568726,66.134109 
	C66.448311,54.428234 69.327904,42.722363 72.284096,30.705099 
	C79.992531,30.705099 87.704330,30.705099 95.790703,30.705099 
	C95.790703,50.117580 95.790703,69.376846 95.290894,88.661072 
	C94.520988,88.817963 94.250900,88.949890 93.980812,89.081818 
z"/>
<path fill="#0F2D70" opacity="1.000000" stroke="none" 
	d="
M218.450195,66.923386 
	C218.450439,67.474289 218.450699,68.025200 218.086700,68.933937 
	C217.808929,69.861488 217.895416,70.431206 217.981888,71.000923 
	C216.528503,80.637711 210.712357,86.872978 201.584732,88.828026 
	C195.257568,90.183243 188.302719,90.315338 181.908981,89.272743 
	C170.904068,87.478241 164.544724,80.418610 163.500839,69.345253 
	C162.836502,62.298042 162.944321,54.991482 164.033295,48.008213 
	C165.772095,36.858002 174.817474,30.437437 186.290695,30.710585 
	C189.716827,30.792154 193.197464,29.720486 196.587082,29.994429 
	C207.986359,30.915703 215.038910,37.094723 217.870026,48.718517 
	C217.837830,49.464764 217.969788,49.726967 218.101746,49.989170 
	C218.262924,50.815731 218.424103,51.642292 218.332993,53.132641 
	C218.203857,58.172081 218.327026,62.547733 218.450195,66.923386 
M189.691101,42.625149 
	C184.317947,43.074512 180.164505,45.500072 179.640854,51.116768 
	C179.090988,57.014633 178.999847,63.073860 179.718018,68.938927 
	C180.478424,75.149002 185.577362,77.921318 192.848892,77.181633 
	C198.644012,76.592125 202.072083,72.984764 202.274216,67.017265 
	C202.408981,63.038273 202.321213,59.051075 202.302887,55.067688 
	C202.262329,46.243736 199.558258,43.378334 189.691101,42.625149 
z"/>
<path fill="#0D2C6F" opacity="1.000000" stroke="none" 
	d="
M107.173828,38.252197 
	C112.475075,32.228687 119.186020,29.941305 126.499123,29.789900 
	C134.591904,29.622355 142.704102,29.673962 149.476044,35.633244 
	C153.860901,39.491909 156.525238,44.078262 156.970032,49.696892 
	C157.440964,55.645603 157.549133,61.668842 157.215576,67.625931 
	C156.511353,80.203156 148.453384,88.647179 135.984909,89.952560 
	C131.718796,90.399200 127.318680,90.398720 123.058502,89.912689 
	C110.272881,88.453995 102.205322,79.283134 101.959633,66.338165 
	C101.887070,62.514923 101.995445,58.688404 101.935875,54.864712 
	C101.842461,48.869244 103.300835,43.371704 107.173828,38.252197 
M118.072769,62.383507 
	C118.087173,64.041809 117.998451,65.708603 118.134117,67.356926 
	C118.677788,73.963005 123.191154,77.543320 130.513519,77.255272 
	C137.247208,76.990379 140.924896,73.352028 141.052475,66.696480 
	C141.131912,62.551643 141.090363,58.403896 141.062607,54.257725 
	C141.010010,46.401752 137.185165,42.527534 129.575027,42.579662 
	C122.117897,42.630745 118.192062,46.679066 118.079132,54.465313 
	C118.045456,56.786793 118.073105,59.109161 118.072769,62.383507 
z"/>
<path fill="#0E2C6F" opacity="1.000000" stroke="none" 
	d="
M390.680359,86.874084 
	C381.686737,91.395416 372.597778,91.296974 363.585388,88.897461 
	C354.359192,86.441017 350.213745,79.881409 350.542084,69.348450 
	C355.583008,69.348450 360.651093,69.348450 365.727081,69.348450 
	C366.640015,76.471336 375.493500,80.253014 381.271576,75.797966 
	C382.355286,74.962402 383.223328,72.898476 383.008820,71.596085 
	C382.796722,70.308449 381.263000,68.557899 380.004181,68.247742 
	C375.818542,67.216446 371.504700,66.679359 367.223846,66.065826 
	C357.049866,64.607712 351.444489,59.450436 350.893066,50.940060 
	C350.190063,40.090153 354.728882,32.776207 365.244446,30.867626 
	C371.908630,29.658077 379.214996,29.882614 385.869568,31.243193 
	C394.692780,33.047161 399.112762,40.466816 397.824432,49.066063 
	C393.164642,49.526680 388.365265,50.001099 383.644043,50.467789 
	C382.046997,43.364410 375.656952,40.351006 369.545380,43.572777 
	C368.231995,44.265148 366.705322,46.542934 366.961212,47.726116 
	C367.292328,49.257069 369.108673,51.184570 370.646851,51.598370 
	C374.801117,52.715969 379.158020,53.059948 383.414001,53.824783 
	C390.759277,55.144787 397.192261,58.026413 398.750305,66.167679 
	C400.318939,74.364128 398.741119,81.794647 390.680359,86.874084 
z"/>
<path fill="#0E2D6F" opacity="1.000000" stroke="none" 
	d="
M258.450134,32.948830 
	C259.465302,32.814789 260.608124,32.307503 261.475922,32.604317 
	C270.371033,35.646690 275.540436,42.063431 276.613983,51.232937 
	C277.286072,56.973137 277.362000,62.936543 276.614899,68.657372 
	C275.086395,80.360924 268.151611,86.473320 254.082413,88.713211 
	C245.595093,88.253548 237.807266,88.071304 230.018784,88.035515 
	C227.535873,88.024101 225.936325,87.693810 225.955414,84.575020 
	C226.056107,68.130234 225.943039,51.683769 226.142197,35.240780 
	C226.155411,34.149910 228.146469,32.144028 229.206802,32.151222 
	C238.955933,32.217381 248.702682,32.634163 258.450134,32.948830 
M260.923370,60.457756 
	C260.918457,46.340378 258.165863,43.629921 243.966370,43.804340 
	C243.005203,43.816151 242.046112,43.996674 240.965515,44.111542 
	C240.965515,54.753273 240.965515,65.205719 240.965515,75.636963 
	C255.932831,77.667114 260.835052,74.134148 260.923370,60.457756 
z"/>
<path fill="#0E2C6F" opacity="1.000000" stroke="none" 
	d="
M314.094269,30.537178 
	C318.726776,30.492512 323.359253,30.447842 328.471130,30.754452 
	C329.012451,31.478500 329.074371,31.851273 329.136292,32.224045 
	C323.289490,41.277714 317.289062,50.238087 311.696625,59.446232 
	C310.169556,61.960567 309.303833,65.184624 309.121399,68.143806 
	C308.733398,74.437210 308.993042,80.770546 308.623138,87.575150 
	C307.831787,88.403427 307.404541,88.744080 306.977295,89.084717 
	C303.289856,89.169701 299.602448,89.254692 295.467499,88.748215 
	C295.014435,81.253952 295.085571,74.349541 294.941528,67.449631 
	C294.911011,65.988945 294.094025,64.544693 293.639404,63.092861 
	C286.617188,52.511028 279.594940,41.929199 271.939880,30.393774 
	C278.278748,30.393774 283.522705,30.241367 288.744293,30.515491 
	C289.860229,30.574078 291.190247,31.988909 291.916199,33.107075 
	C295.162048,38.106426 298.225006,43.224522 301.696289,48.854939 
	C305.028168,43.412785 308.126099,38.352776 311.703308,32.976753 
	C312.445831,32.377159 312.468781,32.075249 312.251404,31.755016 
	C312.251404,31.755016 312.350800,31.452393 312.713318,31.466743 
	C313.415314,31.166456 313.754791,30.851816 314.094269,30.537178 
z"/>
<path fill="#0D2B6F" opacity="1.000000" stroke="none" 
	d="
M345.678284,48.423416 
	C343.374817,51.526733 341.433807,54.438511 339.164795,57.067154 
	C338.206665,58.177135 336.557587,58.690716 334.527435,58.511913 
	C335.817657,54.797798 337.107849,51.083683 338.601807,46.783089 
	C336.450928,46.570461 334.576935,46.385204 332.317505,46.161842 
	C332.317505,41.172821 332.317505,36.141201 332.317505,30.739609 
	C337.346283,30.739609 342.529755,30.739609 349.071045,30.739609 
	C347.970062,36.788536 346.939087,42.452976 345.678284,48.423416 
z"/>
<path fill="#152B72" opacity="1.000000" stroke="none" 
	d="
M258.334656,32.558929 
	C248.702682,32.634163 238.955933,32.217381 229.206802,32.151222 
	C228.146469,32.144028 226.155411,34.149910 226.142197,35.240780 
	C225.943039,51.683769 226.056107,68.130234 225.955414,84.575020 
	C225.936325,87.693810 227.535873,88.024101 230.018784,88.035515 
	C237.807266,88.071304 245.595093,88.253548 253.687653,88.661942 
	C244.400894,88.944832 234.809662,88.944832 224.957443,88.944832 
	C224.957443,69.697769 224.957443,50.333553 224.957443,31.212629 
	C235.759491,31.212629 246.463699,31.203527 257.167633,31.252859 
	C257.519562,31.254480 257.868744,31.850227 258.334656,32.558929 
z"/>
<path fill="#001164" opacity="1.000000" stroke="none" 
	d="
M80.953461,54.468704 
	C81.329582,55.725037 81.942108,57.445778 81.959862,59.172630 
	C82.059128,68.830696 82.014641,78.490234 82.019516,88.624702 
	C81.641739,87.827286 80.946152,86.556969 80.936005,85.281197 
	C80.855499,75.166695 80.905396,65.051155 80.953461,54.468704 
z"/>
<path fill="#001566" opacity="1.000000" stroke="none" 
	d="
M293.704498,63.551498 
	C294.094025,64.544693 294.911011,65.988945 294.941528,67.449631 
	C295.085571,74.349541 295.014435,81.253952 295.020569,88.632767 
	C294.621582,87.692680 293.904266,86.282829 293.876312,84.859421 
	C293.739777,77.911652 293.787231,70.960251 293.704498,63.551498 
z"/>
<path fill="#2F457F" opacity="1.000000" stroke="none" 
	d="
M218.597534,66.485931 
	C218.327026,62.547733 218.203857,58.172081 218.265625,53.444061 
	C218.548660,57.410625 218.646759,61.729557 218.597534,66.485931 
z"/>
<path fill="#3B5088" opacity="1.000000" stroke="none" 
	d="
M329.436493,32.022049 
	C329.074371,31.851273 329.012451,31.478500 328.924866,30.823978 
	C329.068726,30.454941 329.238220,30.367657 329.651917,30.376507 
	C329.896149,30.472641 329.871277,30.412859 329.871277,30.412861 
	C329.826416,30.881924 329.781555,31.350986 329.436493,32.022049 
z"/>
<path fill="#3B5088" opacity="1.000000" stroke="none" 
	d="
M313.876495,30.412769 
	C313.754791,30.851816 313.415314,31.166456 312.848999,31.383373 
	C312.967712,30.953224 313.313202,30.620794 313.876495,30.412769 
z"/>
<path fill="#2F457F" opacity="1.000000" stroke="none" 
	d="
M218.102036,70.691833 
	C217.895416,70.431206 217.808929,69.861488 217.958984,69.183105 
	C218.204407,69.510536 218.213287,69.946648 218.102036,70.691833 
z"/>
<path fill="#001566" opacity="1.000000" stroke="none" 
	d="
M307.316040,89.179504 
	C307.404541,88.744080 307.831787,88.403427 308.546936,88.039291 
	C308.441528,88.435303 308.048157,88.854790 307.316040,89.179504 
z"/>
<path fill="#0E2C6F" opacity="1.000000" stroke="none" 
	d="
M330.013397,30.362572 
	C329.871277,30.412859 329.896149,30.472641 329.910645,30.498352 
	C329.925171,30.524065 330.296417,30.575636 330.296417,30.575636 
	C330.296417,30.575636 330.155518,30.312284 330.013397,30.362572 
z"/>
<path fill="#3B5088" opacity="1.000000" stroke="none" 
	d="
M312.084991,31.891994 
	C312.468781,32.075249 312.445831,32.377159 311.957825,32.759666 
	C311.701904,32.561256 311.763733,32.284714 312.084991,31.891994 
z"/>
<path fill="#2F457F" opacity="1.000000" stroke="none" 
	d="
M218.155640,49.734257 
	C217.969788,49.726967 217.837830,49.464764 217.855606,49.101242 
	C218.073425,49.159729 218.141495,49.319534 218.155640,49.734257 
z"/>
<path fill="#001164" opacity="1.000000" stroke="none" 
	d="
M94.242874,89.161110 
	C94.250900,88.949890 94.520988,88.817963 94.896393,88.848038 
	C94.836113,89.086830 94.670525,89.163612 94.242874,89.161110 
z"/>
<path fill="#FCFCFD" opacity="1.000000" stroke="none" 
	d="
M190.124191,42.603394 
	C199.558258,43.378334 202.262329,46.243736 202.302887,55.067688 
	C202.321213,59.051075 202.408981,63.038273 202.274216,67.017265 
	C202.072083,72.984764 198.644012,76.592125 192.848892,77.181633 
	C185.577362,77.921318 180.478424,75.149002 179.718018,68.938927 
	C178.999847,63.073860 179.090988,57.014633 179.640854,51.116768 
	C180.164505,45.500072 184.317947,43.074512 190.124191,42.603394 
z"/>
<path fill="#FCFCFD" opacity="1.000000" stroke="none" 
	d="
M118.072708,61.907314 
	C118.073105,59.109161 118.045456,56.786793 118.079132,54.465313 
	C118.192062,46.679066 122.117897,42.630745 129.575027,42.579662 
	C137.185165,42.527534 141.010010,46.401752 141.062607,54.257725 
	C141.090363,58.403896 141.131912,62.551643 141.052475,66.696480 
	C140.924896,73.352028 137.247208,76.990379 130.513519,77.255272 
	C123.191154,77.543320 118.677788,73.963005 118.134117,67.356926 
	C117.998451,65.708603 118.087173,64.041809 118.072708,61.907314 
z"/>
<path fill="#FDFDFE" opacity="1.000000" stroke="none" 
	d="
M260.923370,60.922195 
	C260.835052,74.134148 255.932831,77.667114 240.965515,75.636963 
	C240.965515,65.205719 240.965515,54.753273 240.965515,44.111542 
	C242.046112,43.996674 243.005203,43.816151 243.966370,43.804340 
	C258.165863,43.629921 260.918457,46.340378 260.923370,60.922195 
z"/>
</svg>