<svg version="1.1" id="Layer_1" xmlns="http://www.w3.org/2000/svg" xmlns:xlink="http://www.w3.org/1999/xlink" x="0px" y="0px"
	 width="100%" viewBox="0 0 1024 1024" enable-background="new 0 0 1024 1024" xml:space="preserve">
<path fill="#000000" opacity="1.000000" stroke="none" 
	d="
M499.395905,490.221649 
	C554.948608,475.456543 610.120117,460.837006 665.287598,446.201874 
	C742.501343,425.718109 819.716614,405.239990 896.921692,384.723694 
	C928.124390,376.431915 959.299194,368.035309 990.499695,359.735199 
	C991.986816,359.339569 993.527649,358.067596 995.196350,359.436188 
	C995.032898,361.457794 993.214417,361.546570 991.958130,362.081543 
	C945.224182,381.983398 898.440063,401.768097 851.729492,421.724731 
	C786.333069,449.664673 721.009521,477.775482 655.617371,505.725647 
	C592.215271,532.825195 528.749756,559.776245 465.342316,586.863403 
	C413.272583,609.107239 361.266968,631.501343 309.193787,653.737122 
	C282.985138,664.928528 256.323761,674.917847 228.601151,681.708923 
	C198.539551,689.072937 168.187424,694.133057 137.132706,689.206116 
	C100.435974,683.384033 72.456802,665.227905 57.163586,630.421570 
	C49.924313,613.945374 48.297409,596.369995 50.287537,578.539429 
	C55.857281,528.637085 78.489532,486.020203 107.352768,446.176300 
	C129.872894,415.088684 155.552551,386.624634 181.292679,358.225372 
	C182.602707,356.780029 183.610153,355.060425 184.846832,353.346130 
	C187.116882,356.001495 185.719330,356.953613 185.127701,357.964569 
	C170.209991,383.455139 158.581879,410.224854 153.811935,439.584198 
	C149.792450,464.324463 150.687210,488.370728 164.734146,510.372650 
	C179.365112,533.289368 201.096588,544.301514 227.326370,547.650818 
	C256.199554,551.337585 284.389709,547.089600 312.238007,539.760620 
	C372.907349,523.793945 433.545288,507.708069 494.195557,491.669067 
	C495.804230,491.243683 497.407288,490.797028 499.395905,490.221649 
z"/>
</svg>