<svg version="1.1" id="Layer_1" xmlns="http://www.w3.org/2000/svg" xmlns:xlink="http://www.w3.org/1999/xlink" x="0px" y="0px"
	 width="100%" viewBox="0 0 500 500" enable-background="new 0 0 500 500" xml:space="preserve">
<path fill="#000000" opacity="1.000000" stroke="none" 
	d="
M318.000000,501.000000 
	C212.000031,501.000000 106.500053,501.000000 1.000057,501.000000 
	C1.000038,334.333405 1.000038,167.666794 1.000019,1.000146 
	C167.666565,1.000097 334.333130,1.000097 500.999756,1.000049 
	C500.999847,167.666519 500.999847,334.333038 500.999939,500.999786 
	C440.166656,501.000000 379.333344,501.000000 318.000000,501.000000 
M412.775696,230.362473 
	C412.194489,230.289993 411.613312,230.217514 410.100830,229.998550 
	C400.061523,230.047379 390.022247,230.096222 379.356567,230.035385 
	C378.870819,230.343765 378.385040,230.652161 377.278351,231.237106 
	C372.035797,237.964554 366.793213,244.692001 361.492615,251.493912 
	C358.007538,246.786346 354.845856,242.236160 351.378448,237.932266 
	C349.142487,235.156891 346.458099,232.742828 343.503693,230.050735 
	C343.503693,230.050735 343.027863,230.144913 342.097107,229.998520 
	C332.392303,230.047333 322.687500,230.096130 312.308624,230.025757 
	C311.593933,230.341888 310.879242,230.658020 310.259491,231.695816 
	C310.525940,232.456573 310.616089,233.354309 311.084961,233.957809 
	C319.820221,245.201279 328.663788,256.361176 337.340668,267.649261 
	C340.848236,272.212372 345.753876,275.856903 345.145874,282.923248 
	C344.497559,290.458557 344.999908,298.092865 344.999908,305.648560 
	C355.997803,305.648560 366.376923,305.648560 377.000763,305.648560 
	C377.000763,297.169495 376.959930,289.032074 377.039734,280.895874 
	C377.053558,279.488342 377.143677,277.745575 377.935211,276.734039 
	C385.231293,267.409760 392.814270,258.308807 400.054810,248.942657 
	C404.547821,243.130615 408.593018,236.972397 412.775696,230.362473 
M299.101044,229.998459 
	C288.728882,230.047241 278.356750,230.096008 267.509460,230.050354 
	C267.509460,230.050354 267.039001,230.165588 266.317352,230.040863 
	C261.004028,237.160248 255.690704,244.279633 250.354385,251.429840 
	C245.620361,244.632202 240.857635,237.793335 235.831192,230.382004 
	C235.231552,230.302963 234.631897,230.223923 233.100906,229.998474 
	C222.395447,230.047287 211.689987,230.096100 200.510452,230.057205 
	C200.510452,230.057205 200.052109,230.206726 199.358673,230.412552 
	C200.593826,232.950775 201.469635,235.756454 203.125763,237.981293 
	C210.624985,248.055695 218.344604,257.966003 226.101639,268.087769 
	C216.854324,280.431641 206.697754,292.062836 198.196121,305.990814 
	C210.801941,305.990814 222.116119,306.066223 233.426208,305.884918 
	C234.685272,305.864746 236.258865,304.644043 237.111023,303.537018 
	C241.649719,297.640930 246.005096,291.603699 250.804596,285.099396 
	C254.063965,289.989014 256.898621,294.483734 259.989044,298.795105 
	C262.162872,301.827728 263.158630,306.139008 268.345154,306.045715 
	C278.498474,305.863007 288.657562,306.021362 298.813751,305.955719 
	C300.094818,305.947449 301.372650,305.440491 302.841217,305.123779 
	C294.097900,293.399414 285.856323,282.229950 277.458832,271.178986 
	C275.608032,268.743347 275.767456,267.064117 277.630341,264.666351 
	C284.701752,255.564499 291.560425,246.296143 298.417480,237.029999 
	C299.822083,235.131912 300.876587,232.974777 301.822113,230.373520 
	C301.225525,230.297287 300.628937,230.221054 299.101044,229.998459 
M102.894737,199.421341 
	C128.190628,161.865829 163.002060,141.934860 208.748199,144.015976 
	C254.188858,146.083206 288.230927,167.841599 311.148529,206.081207 
	C342.968384,206.081207 374.319305,206.081207 406.245575,206.081207 
	C395.215515,176.604980 377.429565,152.778595 353.402069,134.438583 
	C315.967743,105.865234 272.677856,95.894669 226.360504,101.260582 
	C193.372116,105.082314 164.446136,119.576591 139.810501,141.850723 
	C120.206238,159.575790 105.078697,180.678818 94.830055,205.483627 
	C100.326309,207.094772 100.425949,202.266983 102.894737,199.421341 
M375.954407,363.481079 
	C371.209991,366.894806 366.490112,370.343201 361.716522,373.715607 
	C348.741669,382.881836 334.024445,388.155090 318.634918,390.753174 
	C306.230560,392.847321 293.652649,393.091492 280.837280,391.303162 
	C261.226501,388.566467 243.145599,382.378082 227.031052,371.257538 
	C211.232025,360.354767 198.450043,346.334076 189.689651,329.951233 
	C157.980423,329.951233 126.639107,329.951233 95.049721,329.951233 
	C103.274551,353.986359 121.107323,382.299622 150.909973,404.179413 
	C187.913010,431.345398 230.004074,438.188141 275.262115,435.401154 
	C322.568176,432.488007 396.337921,374.819550 405.880310,329.146698 
	C403.562164,330.415375 401.295868,330.864929 400.607361,332.155975 
	C394.362366,343.866272 386.125092,353.959167 375.954407,363.481079 
M89.000145,273.499390 
	C89.000237,278.664917 88.754807,283.847046 89.102142,288.989136 
	C89.280678,291.632233 90.053581,294.467743 91.359825,296.759094 
	C95.481125,303.988556 102.803726,305.749512 110.210938,305.886841 
	C128.867203,306.232727 147.535248,306.107513 166.195923,305.914581 
	C170.059219,305.874634 174.004913,305.059265 177.748245,304.013062 
	C185.171921,301.938324 188.930420,296.963409 188.975220,289.473846 
	C189.058945,275.477356 189.102890,261.478851 188.949814,247.483536 
	C188.886993,241.738937 187.157211,236.220779 181.765320,233.478302 
	C177.986725,231.556396 173.477203,230.234497 169.263901,230.149918 
	C151.441559,229.792175 133.606430,229.872223 115.779457,230.085114 
	C111.249725,230.139191 106.667336,230.977722 102.224403,231.971222 
	C94.202309,233.765076 89.038200,240.431702 89.007187,248.504868 
	C88.976471,256.503021 89.000259,264.501404 89.000145,273.499390 
z"/>
<path fill="#005BAB" opacity="1.000000" stroke="none" 
	d="
M102.687691,199.727875 
	C100.425949,202.266983 100.326309,207.094772 94.830055,205.483627 
	C105.078697,180.678818 120.206238,159.575790 139.810501,141.850723 
	C164.446136,119.576591 193.372116,105.082314 226.360504,101.260582 
	C272.677856,95.894669 315.967743,105.865234 353.402069,134.438583 
	C377.429565,152.778595 395.215515,176.604980 406.245575,206.081207 
	C374.319305,206.081207 342.968384,206.081207 311.148529,206.081207 
	C288.230927,167.841599 254.188858,146.083206 208.748199,144.015976 
	C163.002060,141.934860 128.190628,161.865829 102.687691,199.727875 
z"/>
<path fill="#005BAB" opacity="1.000000" stroke="none" 
	d="
M376.213318,363.225769 
	C386.125092,353.959167 394.362366,343.866272 400.607361,332.155975 
	C401.295868,330.864929 403.562164,330.415375 405.880310,329.146698 
	C396.337921,374.819550 322.568176,432.488007 275.262115,435.401154 
	C230.004074,438.188141 187.913010,431.345398 150.909973,404.179413 
	C121.107323,382.299622 103.274551,353.986359 95.049721,329.951233 
	C126.639107,329.951233 157.980423,329.951233 189.689651,329.951233 
	C198.450043,346.334076 211.232025,360.354767 227.031052,371.257538 
	C243.145599,382.378082 261.226501,388.566467 280.837280,391.303162 
	C293.652649,393.091492 306.230560,392.847321 318.634918,390.753174 
	C334.024445,388.155090 348.741669,382.881836 361.716522,373.715607 
	C366.490112,370.343201 371.209991,366.894806 376.213318,363.225769 
z"/>
<path fill="#ED1B2F" opacity="1.000000" stroke="none" 
	d="
M89.000145,272.999542 
	C89.000259,264.501404 88.976471,256.503021 89.007187,248.504868 
	C89.038200,240.431702 94.202309,233.765076 102.224403,231.971222 
	C106.667336,230.977722 111.249725,230.139191 115.779457,230.085114 
	C133.606430,229.872223 151.441559,229.792175 169.263901,230.149918 
	C173.477203,230.234497 177.986725,231.556396 181.765320,233.478302 
	C187.157211,236.220779 188.886993,241.738937 188.949814,247.483536 
	C189.102890,261.478851 189.058945,275.477356 188.975220,289.473846 
	C188.930420,296.963409 185.171921,301.938324 177.748245,304.013062 
	C174.004913,305.059265 170.059219,305.874634 166.195923,305.914581 
	C147.535248,306.107513 128.867203,306.232727 110.210938,305.886841 
	C102.803726,305.749512 95.481125,303.988556 91.359825,296.759094 
	C90.053581,294.467743 89.280678,291.632233 89.102142,288.989136 
	C88.754807,283.847046 89.000237,278.664917 89.000145,272.999542 
M124.335991,254.249695 
	C123.549973,255.453262 122.141045,256.627686 122.083115,257.865295 
	C121.794861,264.024384 121.668732,270.206360 121.867592,276.367920 
	C122.017143,281.001526 125.151161,282.147125 129.356613,282.043427 
	C136.674179,281.863037 144.008560,281.783508 151.317551,282.093903 
	C154.744064,282.239380 156.508118,280.645874 156.845718,277.847015 
	C157.514450,272.303192 157.920242,266.693115 157.902634,261.112122 
	C157.889053,256.811981 154.506897,254.019852 150.153305,254.008179 
	C141.833145,253.985886 133.512802,254.028885 124.335991,254.249695 
z"/>
<path fill="#ED1B2F" opacity="1.000000" stroke="none" 
	d="
M200.984528,230.144928 
	C211.689987,230.096100 222.395447,230.047287 233.809738,230.208237 
	C235.044022,230.596832 235.569458,230.775665 236.094910,230.954483 
	C240.857635,237.793335 245.620361,244.632202 250.354385,251.429840 
	C255.690704,244.279633 261.004028,237.160248 266.796539,230.123322 
	C267.275726,230.205795 267.632111,230.213440 267.632111,230.213440 
	C267.632111,230.213440 267.984589,230.144791 267.984589,230.144791 
	C278.356750,230.096008 288.728882,230.047241 299.809631,230.207245 
	C301.042999,230.589706 301.567749,230.763382 302.092468,230.937057 
	C300.876587,232.974777 299.822083,235.131912 298.417480,237.029999 
	C291.560425,246.296143 284.701752,255.564499 277.630341,264.666351 
	C275.767456,267.064117 275.608032,268.743347 277.458832,271.178986 
	C285.856323,282.229950 294.097900,293.399414 302.841217,305.123779 
	C301.372650,305.440491 300.094818,305.947449 298.813751,305.955719 
	C288.657562,306.021362 278.498474,305.863007 268.345154,306.045715 
	C263.158630,306.139008 262.162872,301.827728 259.989044,298.795105 
	C256.898621,294.483734 254.063965,289.989014 250.804596,285.099396 
	C246.005096,291.603699 241.649719,297.640930 237.111023,303.537018 
	C236.258865,304.644043 234.685272,305.864746 233.426208,305.884918 
	C222.116119,306.066223 210.801941,305.990814 198.196121,305.990814 
	C206.697754,292.062836 216.854324,280.431641 226.101639,268.087769 
	C218.344604,257.966003 210.624985,248.055695 203.125763,237.981293 
	C201.469635,235.756454 200.593826,232.950775 199.822708,230.325134 
	C200.524139,230.257050 200.756729,230.226120 200.984528,230.144928 
z"/>
<path fill="#ED1B2F" opacity="1.000000" stroke="none" 
	d="
M343.974640,230.166855 
	C346.458099,232.742828 349.142487,235.156891 351.378448,237.932266 
	C354.845856,242.236160 358.007538,246.786346 361.492615,251.493912 
	C366.793213,244.692001 372.035797,237.964554 377.861938,231.032043 
	C378.958008,230.599655 379.470490,230.372345 379.982941,230.145050 
	C390.022247,230.096222 400.061523,230.047379 410.776794,230.207275 
	C411.914886,230.600510 412.377075,230.785049 412.839233,230.969574 
	C408.593018,236.972397 404.547821,243.130615 400.054810,248.942657 
	C392.814270,258.308807 385.231293,267.409760 377.935211,276.734039 
	C377.143677,277.745575 377.053558,279.488342 377.039734,280.895874 
	C376.959930,289.032074 377.000763,297.169495 377.000763,305.648560 
	C366.376923,305.648560 355.997803,305.648560 344.999908,305.648560 
	C344.999908,298.092865 344.497559,290.458557 345.145874,282.923248 
	C345.753876,275.856903 340.848236,272.212372 337.340668,267.649261 
	C328.663788,256.361176 319.820221,245.201279 311.084961,233.957809 
	C310.616089,233.354309 310.525940,232.456573 310.508423,231.307663 
	C311.499146,230.661316 312.240906,230.403137 312.982697,230.144958 
	C322.687500,230.096130 332.392303,230.047333 342.680176,230.097198 
	C343.263245,230.195877 343.619171,230.219604 343.619171,230.219604 
	C343.619171,230.219604 343.974640,230.166855 343.974640,230.166855 
z"/>
<path fill="#FF182E" opacity="1.000000" stroke="none" 
	d="
M312.645660,230.085358 
	C312.240906,230.403137 311.499146,230.661316 310.460938,230.946838 
	C310.879242,230.658020 311.593933,230.341888 312.645660,230.085358 
z"/>
<path fill="#FF182E" opacity="1.000000" stroke="none" 
	d="
M235.963043,230.668243 
	C235.569458,230.775665 235.044022,230.596832 234.275421,230.281433 
	C234.631897,230.223923 235.231552,230.302963 235.963043,230.668243 
z"/>
<path fill="#FF172E" opacity="1.000000" stroke="none" 
	d="
M301.957306,230.655304 
	C301.567749,230.763382 301.042999,230.589706 300.275299,230.280426 
	C300.628937,230.221054 301.225525,230.297287 301.957306,230.655304 
z"/>
<path fill="#FF182E" opacity="1.000000" stroke="none" 
	d="
M379.669739,230.090210 
	C379.470490,230.372345 378.958008,230.599655 378.172424,230.893768 
	C378.385040,230.652161 378.870819,230.343765 379.669739,230.090210 
z"/>
<path fill="#FF182E" opacity="1.000000" stroke="none" 
	d="
M412.807465,230.666016 
	C412.377075,230.785049 411.914886,230.600510 411.242432,230.280518 
	C411.613312,230.217514 412.194489,230.289993 412.807465,230.666016 
z"/>
<path fill="#FF182E" opacity="1.000000" stroke="none" 
	d="
M200.747498,230.101059 
	C200.756729,230.226120 200.524139,230.257050 200.169434,230.222229 
	C200.052109,230.206726 200.510452,230.057205 200.747498,230.101059 
z"/>
<path fill="#FF172E" opacity="1.000000" stroke="none" 
	d="
M267.747009,230.097565 
	C267.984589,230.144791 267.632111,230.213440 267.632111,230.213440 
	C267.632111,230.213440 267.275726,230.205795 267.157349,230.185699 
	C267.039001,230.165588 267.509460,230.050354 267.747009,230.097565 
z"/>
<path fill="#FF182E" opacity="1.000000" stroke="none" 
	d="
M343.739166,230.108795 
	C343.974640,230.166855 343.619171,230.219604 343.619171,230.219604 
	C343.619171,230.219604 343.263245,230.195877 343.145569,230.170395 
	C343.027863,230.144913 343.503693,230.050735 343.739166,230.108795 
z"/>
<path fill="#000000" opacity="1.000000" stroke="none" 
	d="
M124.764259,254.147217 
	C133.512802,254.028885 141.833145,253.985886 150.153305,254.008179 
	C154.506897,254.019852 157.889053,256.811981 157.902634,261.112122 
	C157.920242,266.693115 157.514450,272.303192 156.845718,277.847015 
	C156.508118,280.645874 154.744064,282.239380 151.317551,282.093903 
	C144.008560,281.783508 136.674179,281.863037 129.356613,282.043427 
	C125.151161,282.147125 122.017143,281.001526 121.867592,276.367920 
	C121.668732,270.206360 121.794861,264.024384 122.083115,257.865295 
	C122.141045,256.627686 123.549973,255.453262 124.764259,254.147217 
z"/>
</svg>