<svg version="1.1" id="Layer_1" xmlns="http://www.w3.org/2000/svg" xmlns:xlink="http://www.w3.org/1999/xlink" x="0px" y="0px"
	 width="100%" viewBox="0 0 1080 1080" enable-background="new 0 0 1080 1080" xml:space="preserve">
<path fill="#FFFFFF" opacity="1.000000" stroke="none" 
	d="
M601.000000,1081.000000 
	C400.689728,1081.000000 200.879456,1081.000000 1.034590,1081.000000 
	C1.034590,721.064575 1.034590,361.129211 1.034590,1.096903 
	C360.893829,1.096903 720.787659,1.096903 1080.840820,1.096903 
	C1080.840820,360.999939 1080.840820,720.999939 1080.840820,1081.000000 
	C921.128723,1081.000000 761.314392,1081.000000 601.000000,1081.000000 
M387.072815,61.599922 
	C374.525818,66.528183 361.715973,70.881020 349.472473,76.473679 
	C226.446548,132.670105 139.004501,223.866730 84.151550,346.976440 
	C83.354080,348.766266 82.706642,350.622925 81.955910,352.533051 
	C88.447235,353.588318 88.470787,353.602264 91.468666,348.541412 
	C110.393494,316.593536 131.768021,286.707764 159.483261,261.474762 
	C241.339813,186.949417 336.778900,153.877518 447.223175,165.915817 
	C492.146484,170.812393 535.084900,182.938370 575.633362,203.041351 
	C642.365295,236.125488 693.625000,285.652039 730.966370,349.851959 
	C732.222534,352.011505 733.262024,353.210632 736.175842,353.206787 
	C827.493835,353.086212 918.811951,353.107483 1010.130066,353.107086 
	C1011.749268,353.107056 1013.368530,353.107086 1015.817139,353.107086 
	C1014.887939,350.568573 1014.296448,348.725189 1013.549988,346.946838 
	C997.100098,307.756042 976.389954,270.970428 950.929626,236.924728 
	C912.398987,185.401337 866.554993,141.641876 811.215576,108.540787 
	C766.019958,81.507210 717.310486,62.871162 665.964539,51.056564 
	C626.227295,41.913086 585.955383,36.194340 545.275574,35.407803 
	C491.351440,34.365192 438.832306,43.782181 387.072815,61.599922 
M424.061493,810.438538 
	C400.701172,786.880249 380.897400,760.597351 364.167084,731.986328 
	C362.831909,729.703003 361.562256,728.805725 358.791901,728.808777 
	C268.301727,728.908752 177.811417,728.892090 87.321136,728.892761 
	C85.693115,728.892822 84.065094,728.892822 82.264244,728.892822 
	C145.202698,900.626160 330.230988,1065.245361 596.302612,1044.537231 
	C721.832092,1034.767456 826.522766,978.788452 912.912231,888.131653 
	C957.039917,841.824219 990.936340,788.689880 1015.688599,729.614258 
	C1009.197083,727.739807 1006.306519,729.642273 1003.215820,734.992859 
	C993.402039,751.982239 984.018677,769.562378 971.776001,784.742188 
	C935.569519,829.634644 891.191284,864.704224 838.187073,887.995667 
	C772.278809,916.957581 703.609375,925.110962 632.422791,914.352173 
	C551.932617,902.187317 482.303558,868.613098 424.061493,810.438538 
M285.500000,430.004028 
	C231.843826,430.004303 178.185333,429.753296 124.533661,430.244690 
	C115.264565,430.329590 105.634720,432.462067 96.851486,435.570251 
	C78.340317,442.120972 61.480156,462.534668 61.875259,487.188843 
	C62.467941,524.172119 62.057171,561.171936 62.018280,598.164734 
	C62.000191,615.367981 69.010521,629.044312 82.487671,639.524231 
	C94.786957,649.088135 109.132866,652.000305 124.264824,652.013733 
	C180.253876,652.063477 236.243057,652.069702 292.232056,651.994934 
	C300.046051,651.984497 307.877319,651.670654 315.669678,651.085571 
	C342.128571,649.098999 360.853271,630.490540 361.076752,604.944702 
	C361.444061,562.956360 361.366730,520.960571 361.048737,478.971161 
	C360.864349,454.620544 345.775177,436.064575 321.809967,431.746674 
	C310.308685,429.674438 298.286346,430.494049 285.500000,430.004028 
M575.105103,458.572510 
	C566.418762,471.413391 557.732422,484.254242 548.910889,497.294952 
	C534.114624,475.654022 519.776428,454.789490 505.600189,433.815491 
	C503.805908,431.160797 501.950195,430.115448 498.717560,430.127319 
	C465.724365,430.248688 432.730560,430.197601 399.736908,430.215607 
	C398.356232,430.216339 396.975647,430.422302 394.999481,430.580261 
	C396.409332,432.712189 397.321411,434.284058 398.415222,435.717255 
	C424.082855,469.350281 449.692596,503.028198 475.563232,536.504517 
	C478.417572,540.197998 478.101166,542.215454 475.419678,545.704773 
	C449.636017,579.256104 424.062378,612.968994 398.442169,646.645874 
	C397.328522,648.109680 396.345581,649.672974 394.844177,651.854980 
	C430.850647,651.854980 465.669128,651.901978 500.486359,651.712524 
	C502.176758,651.703369 504.334686,649.972595 505.464386,648.444397 
	C514.377197,636.387512 523.170166,624.239685 531.841797,612.007690 
	C537.562012,603.938965 543.020325,595.684631 548.871826,587.109009 
	C550.236572,588.998352 551.339478,590.424500 552.336609,591.921021 
	C564.621277,610.357788 576.967041,628.755005 589.091919,647.296448 
	C591.219788,650.550354 593.386475,651.986450 597.447021,651.963684 
	C630.606262,651.777710 663.766968,651.858948 696.927246,651.858948 
	C698.510010,651.858948 700.092834,651.858948 702.378235,651.858948 
	C674.049438,614.456299 646.277039,577.788269 618.841492,541.565063 
	C647.047668,504.244751 674.675354,467.689819 702.514526,430.855103 
	C701.207703,430.431366 700.906616,430.248383 700.605469,430.248169 
	C666.278931,430.224426 631.952209,430.170227 597.626465,430.332764 
	C595.900391,430.340912 593.624817,431.827087 592.554810,433.310272 
	C586.708374,441.414124 581.159241,449.732452 575.105103,458.572510 
M920.413025,447.889740 
	C908.255066,463.506805 896.097168,479.123901 883.685059,495.067413 
	C882.309937,493.397247 881.241943,492.160309 880.238831,490.872833 
	C865.495850,471.951752 850.703857,453.068268 836.088623,434.048950 
	C833.941223,431.254456 831.740234,430.110046 828.195496,430.124939 
	C797.042175,430.255798 765.888062,430.197906 734.734192,430.209717 
	C733.324341,430.210236 731.914490,430.342926 729.633850,430.458008 
	C734.616028,437.080658 739.016296,443.081696 743.572693,448.961792 
	C773.160034,487.145172 802.826965,525.267090 832.282715,563.551636 
	C834.122864,565.943359 835.236267,569.531982 835.266052,572.577698 
	C835.504150,596.898682 835.399109,621.223083 835.399109,645.546387 
	C835.399109,647.492432 835.399109,649.438538 835.399109,651.619202 
	C866.987488,651.619202 897.895569,651.619202 929.396851,651.619202 
	C929.396851,649.597473 929.396790,647.806641 929.396790,646.015747 
	C929.396790,621.525818 929.288452,597.034790 929.535461,572.547363 
	C929.565979,569.523560 930.779785,565.962219 932.641479,563.587891 
	C966.044739,520.985046 999.633789,478.527802 1033.176514,436.034180 
	C1034.464844,434.401978 1035.688843,432.718872 1037.591797,430.200684 
	C1034.701782,430.200684 1032.938599,430.200714 1031.175293,430.200684 
	C1006.018982,430.200653 980.862549,430.171783 955.706360,430.219025 
	C948.566101,430.232452 940.382507,428.344727 934.579651,431.197845 
	C928.766174,434.056152 925.329895,441.749298 920.413025,447.889740 
z"/>
<path fill="#015CAB" opacity="1.000000" stroke="none" 
	d="
M387.436127,61.448029 
	C438.832306,43.782181 491.351440,34.365192 545.275574,35.407803 
	C585.955383,36.194340 626.227295,41.913086 665.964539,51.056564 
	C717.310486,62.871162 766.019958,81.507210 811.215576,108.540787 
	C866.554993,141.641876 912.398987,185.401337 950.929626,236.924728 
	C976.389954,270.970428 997.100098,307.756042 1013.549988,346.946838 
	C1014.296448,348.725189 1014.887939,350.568573 1015.817139,353.107086 
	C1013.368530,353.107086 1011.749268,353.107056 1010.130066,353.107086 
	C918.811951,353.107483 827.493835,353.086212 736.175842,353.206787 
	C733.262024,353.210632 732.222534,352.011505 730.966370,349.851959 
	C693.625000,285.652039 642.365295,236.125488 575.633362,203.041351 
	C535.084900,182.938370 492.146484,170.812393 447.223175,165.915817 
	C336.778900,153.877518 241.339813,186.949417 159.483261,261.474762 
	C131.768021,286.707764 110.393494,316.593536 91.468666,348.541412 
	C88.470787,353.602264 88.447235,353.588318 81.955910,352.533051 
	C82.706642,350.622925 83.354080,348.766266 84.151550,346.976440 
	C139.004501,223.866730 226.446548,132.670105 349.472473,76.473679 
	C361.715973,70.881020 374.525818,66.528183 387.436127,61.448029 
z"/>
<path fill="#015CAB" opacity="1.000000" stroke="none" 
	d="
M424.307404,810.692566 
	C482.303558,868.613098 551.932617,902.187317 632.422791,914.352173 
	C703.609375,925.110962 772.278809,916.957581 838.187073,887.995667 
	C891.191284,864.704224 935.569519,829.634644 971.776001,784.742188 
	C984.018677,769.562378 993.402039,751.982239 1003.215820,734.992859 
	C1006.306519,729.642273 1009.197083,727.739807 1015.688599,729.614258 
	C990.936340,788.689880 957.039917,841.824219 912.912231,888.131653 
	C826.522766,978.788452 721.832092,1034.767456 596.302612,1044.537231 
	C330.230988,1065.245361 145.202698,900.626160 82.264244,728.892822 
	C84.065094,728.892822 85.693115,728.892822 87.321136,728.892761 
	C177.811417,728.892090 268.301727,728.908752 358.791901,728.808777 
	C361.562256,728.805725 362.831909,729.703003 364.167084,731.986328 
	C380.897400,760.597351 400.701172,786.880249 424.307404,810.692566 
z"/>
<path fill="#ED1C30" opacity="1.000000" stroke="none" 
	d="
M286.000000,430.004028 
	C298.286346,430.494049 310.308685,429.674438 321.809967,431.746674 
	C345.775177,436.064575 360.864349,454.620544 361.048737,478.971161 
	C361.366730,520.960571 361.444061,562.956360 361.076752,604.944702 
	C360.853271,630.490540 342.128571,649.098999 315.669678,651.085571 
	C307.877319,651.670654 300.046051,651.984497 292.232056,651.994934 
	C236.243057,652.069702 180.253876,652.063477 124.264824,652.013733 
	C109.132866,652.000305 94.786957,649.088135 82.487671,639.524231 
	C69.010521,629.044312 62.000191,615.367981 62.018280,598.164734 
	C62.057171,561.171936 62.467941,524.172119 61.875259,487.188843 
	C61.480156,462.534668 78.340317,442.120972 96.851486,435.570251 
	C105.634720,432.462067 115.264565,430.329590 124.533661,430.244690 
	C178.185333,429.753296 231.843826,430.004303 286.000000,430.004028 
M156.237091,561.131104 
	C157.731674,577.898621 165.078262,586.186462 179.295364,586.307068 
	C202.763382,586.506226 226.235626,586.493835 249.703659,586.290161 
	C262.943909,586.175354 268.583862,580.128784 269.102509,566.882568 
	C269.551270,555.420776 270.310455,543.971191 270.923706,532.515747 
	C271.163635,528.034241 271.975983,523.485413 271.487518,519.082642 
	C270.338257,508.723907 262.879730,495.324432 246.491089,495.522156 
	C223.364746,495.801178 200.230103,495.341034 177.098801,495.283295 
	C166.128098,495.255920 157.831039,501.794739 157.125488,512.828247 
	C156.118637,528.573425 156.466217,544.405212 156.237091,561.131104 
z"/>
<path fill="#ED1D30" opacity="1.000000" stroke="none" 
	d="
M575.306519,458.274780 
	C581.159241,449.732452 586.708374,441.414124 592.554810,433.310272 
	C593.624817,431.827087 595.900391,430.340912 597.626465,430.332764 
	C631.952209,430.170227 666.278931,430.224426 700.605469,430.248169 
	C700.906616,430.248383 701.207703,430.431366 702.514526,430.855103 
	C674.675354,467.689819 647.047668,504.244751 618.841492,541.565063 
	C646.277039,577.788269 674.049438,614.456299 702.378235,651.858948 
	C700.092834,651.858948 698.510010,651.858948 696.927246,651.858948 
	C663.766968,651.858948 630.606262,651.777710 597.447021,651.963684 
	C593.386475,651.986450 591.219788,650.550354 589.091919,647.296448 
	C576.967041,628.755005 564.621277,610.357788 552.336609,591.921021 
	C551.339478,590.424500 550.236572,588.998352 548.871826,587.109009 
	C543.020325,595.684631 537.562012,603.938965 531.841797,612.007690 
	C523.170166,624.239685 514.377197,636.387512 505.464386,648.444397 
	C504.334686,649.972595 502.176758,651.703369 500.486359,651.712524 
	C465.669128,651.901978 430.850647,651.854980 394.844177,651.854980 
	C396.345581,649.672974 397.328522,648.109680 398.442169,646.645874 
	C424.062378,612.968994 449.636017,579.256104 475.419678,545.704773 
	C478.101166,542.215454 478.417572,540.197998 475.563232,536.504517 
	C449.692596,503.028198 424.082855,469.350281 398.415222,435.717255 
	C397.321411,434.284058 396.409332,432.712189 394.999481,430.580261 
	C396.975647,430.422302 398.356232,430.216339 399.736908,430.215607 
	C432.730560,430.197601 465.724365,430.248688 498.717560,430.127319 
	C501.950195,430.115448 503.805908,431.160797 505.600189,433.815491 
	C519.776428,454.789490 534.114624,475.654022 548.910889,497.294952 
	C557.732422,484.254242 566.418762,471.413391 575.306519,458.274780 
z"/>
<path fill="#ED1D31" opacity="1.000000" stroke="none" 
	d="
M920.632324,447.606537 
	C925.329895,441.749298 928.766174,434.056152 934.579651,431.197845 
	C940.382507,428.344727 948.566101,430.232452 955.706360,430.219025 
	C980.862549,430.171783 1006.018982,430.200653 1031.175293,430.200684 
	C1032.938599,430.200714 1034.701782,430.200684 1037.591797,430.200684 
	C1035.688843,432.718872 1034.464844,434.401978 1033.176514,436.034180 
	C999.633789,478.527802 966.044739,520.985046 932.641479,563.587891 
	C930.779785,565.962219 929.565979,569.523560 929.535461,572.547363 
	C929.288452,597.034790 929.396790,621.525818 929.396790,646.015747 
	C929.396790,647.806641 929.396851,649.597473 929.396851,651.619202 
	C897.895569,651.619202 866.987488,651.619202 835.399109,651.619202 
	C835.399109,649.438538 835.399109,647.492432 835.399109,645.546387 
	C835.399109,621.223083 835.504150,596.898682 835.266052,572.577698 
	C835.236267,569.531982 834.122864,565.943359 832.282715,563.551636 
	C802.826965,525.267090 773.160034,487.145172 743.572693,448.961792 
	C739.016296,443.081696 734.616028,437.080658 729.633850,430.458008 
	C731.914490,430.342926 733.324341,430.210236 734.734192,430.209717 
	C765.888062,430.197906 797.042175,430.255798 828.195496,430.124939 
	C831.740234,430.110046 833.941223,431.254456 836.088623,434.048950 
	C850.703857,453.068268 865.495850,471.951752 880.238831,490.872833 
	C881.241943,492.160309 882.309937,493.397247 883.685059,495.067413 
	C896.097168,479.123901 908.255066,463.506805 920.632324,447.606537 
z"/>
<path fill="#FFFEFE" opacity="1.000000" stroke="none" 
	d="
M156.236191,560.665527 
	C156.466217,544.405212 156.118637,528.573425 157.125488,512.828247 
	C157.831039,501.794739 166.128098,495.255920 177.098801,495.283295 
	C200.230103,495.341034 223.364746,495.801178 246.491089,495.522156 
	C262.879730,495.324432 270.338257,508.723907 271.487518,519.082642 
	C271.975983,523.485413 271.163635,528.034241 270.923706,532.515747 
	C270.310455,543.971191 269.551270,555.420776 269.102509,566.882568 
	C268.583862,580.128784 262.943909,586.175354 249.703659,586.290161 
	C226.235626,586.493835 202.763382,586.506226 179.295364,586.307068 
	C165.078262,586.186462 157.731674,577.898621 156.236191,560.665527 
z"/>
</svg>