<svg version="1.1" id="Layer_1" xmlns="http://www.w3.org/2000/svg" xmlns:xlink="http://www.w3.org/1999/xlink" x="0px" y="0px"
	 width="100%" viewBox="0 0 1080 1080" enable-background="new 0 0 1080 1080" xml:space="preserve">
<path fill="#FFFFFF" opacity="1.000000" stroke="none" 
	d="
M1007.000000,1081.000000 
	C671.333313,1081.000000 336.166656,1081.000000 1.000000,1081.000000 
	C1.000000,721.000000 1.000000,361.000000 1.000000,1.000000 
	C361.000000,1.000000 721.000000,1.000000 1081.000000,1.000000 
	C1081.000000,361.000000 1081.000000,721.000000 1081.000000,1081.000000 
	C1056.500000,1081.000000 1032.000000,1081.000000 1007.000000,1081.000000 
M941.279785,529.049255 
	C939.240173,529.174744 937.200623,529.300171 934.404846,529.300476 
	C933.934509,529.476562 933.464233,529.652588 932.335571,529.722534 
	C929.158875,531.585632 925.982117,533.448792 922.337524,535.586426 
	C921.853882,532.712341 921.459778,530.370300 920.972961,527.476990 
	C916.248169,528.391174 911.844116,529.148315 907.496765,530.151062 
	C906.403320,530.403320 905.491577,531.443115 904.496338,532.121033 
	C905.402771,532.957886 906.172363,534.140320 907.242371,534.564026 
	C909.994019,535.653442 911.689941,537.174927 911.638977,540.412109 
	C911.479126,550.565735 911.494568,560.722107 911.348083,570.875977 
	C911.330200,572.118591 911.149414,573.919067 910.348694,574.496338 
	C906.159607,577.516052 901.379272,576.562073 897.142273,574.956970 
	C895.787537,574.443726 895.074585,570.833679 894.993652,568.606934 
	C894.667175,559.628174 894.878723,550.629700 894.543579,541.651489 
	C894.312073,535.448853 890.719910,531.402588 884.830750,529.764954 
	C875.268433,527.106018 867.036499,530.088135 860.114380,536.717651 
	C858.616760,538.151978 857.706116,540.759644 857.543762,542.903931 
	C857.256714,546.694885 859.604614,548.880859 863.407227,548.694397 
	C867.037964,548.516357 868.757324,546.074524 868.493103,542.594055 
	C868.334473,540.504395 867.493958,538.466492 866.618835,535.089294 
	C870.784729,535.089294 874.743835,534.430237 878.368347,535.250366 
	C883.282166,536.362305 884.724426,540.551331 884.727722,547.903076 
	C884.730042,552.980164 880.708740,551.888062 878.113770,552.854919 
	C873.132812,554.710815 867.864441,555.877747 863.039490,558.050415 
	C856.458740,561.013733 854.122742,565.965027 855.510193,572.108948 
	C856.840698,578.000305 861.634399,582.127502 868.448120,581.377075 
	C874.074036,580.757324 879.496582,578.289978 885.311340,576.551025 
	C888.055298,581.542114 891.336121,582.812622 898.187927,580.637390 
	C900.076294,580.037781 901.964539,578.908752 903.848511,578.917908 
	C911.124634,578.953430 918.398193,579.384827 925.675110,579.573242 
	C926.659729,579.598816 927.658325,579.082397 929.450623,578.602722 
	C928.113220,577.433472 927.479675,576.392761 926.776855,576.343628 
	C922.070923,576.014893 921.395630,573.208984 921.535156,569.168274 
	C921.793640,561.683655 921.829346,554.175232 921.534485,546.693359 
	C921.340393,541.768372 923.806458,538.892639 927.670837,536.760742 
	C932.143616,534.293213 936.620911,534.720459 941.223022,537.559998 
	C941.379639,537.619995 941.536255,537.679932 941.879089,538.398865 
	C942.726929,540.216553 943.574768,542.034241 944.321716,544.588501 
	C944.460449,545.060486 944.599243,545.532532 944.513306,546.911133 
	C944.557617,554.071838 944.455933,561.237488 944.700623,568.391296 
	C944.848450,572.713806 944.890808,576.518982 939.053101,576.703369 
	C938.395447,576.724121 937.775635,577.945618 937.138306,578.610352 
	C937.789001,579.195496 938.431824,580.279114 939.091553,580.289551 
	C946.646790,580.409363 954.204590,580.365784 961.761719,580.365784 
	C961.918030,579.829285 962.074280,579.292786 962.230591,578.756287 
	C961.242188,578.007202 960.310303,576.713989 959.255554,576.604553 
	C954.978455,576.160828 954.455750,573.594604 954.538574,569.978943 
	C954.729248,561.655457 954.687683,553.323303 954.566589,544.997131 
	C954.451721,537.103760 950.903381,532.193237 943.396179,529.530029 
	C942.881775,529.498413 942.367310,529.466797 941.279785,529.049255 
M37.095062,557.086487 
	C37.095062,557.086487 37.239277,557.103638 37.907684,556.988953 
	C40.515614,555.829590 42.101925,551.540161 45.752396,555.011108 
	C44.521454,556.683838 43.290512,558.356567 41.536545,560.309143 
	C41.419876,560.674072 41.303211,561.039001 41.007942,562.053101 
	C37.432339,570.274353 33.579647,578.390320 30.397682,586.761230 
	C28.799444,590.965759 28.421057,595.634094 27.487274,600.110596 
	C32.708450,601.446411 35.402016,601.134277 36.224785,595.300964 
	C38.075558,582.179199 42.881222,569.973877 50.299248,558.913513 
	C53.684795,553.865662 57.294796,548.968323 61.310249,543.593201 
	C61.882484,542.944214 62.454716,542.295227 63.613537,541.634766 
	C64.303223,541.077332 64.992912,540.519958 66.132278,539.428284 
	C67.737686,538.093079 69.343102,536.757874 71.524078,535.401245 
	C72.353844,534.618958 73.183609,533.836670 74.669090,532.858154 
	C78.609055,530.486023 82.549019,528.113892 86.488983,525.741821 
	C86.745308,526.143005 87.001640,526.544250 87.257965,526.945496 
	C83.661102,530.896057 80.064232,534.846680 75.887276,539.033875 
	C68.310547,547.601868 61.926750,556.880920 58.104343,568.556396 
	C56.542824,575.089661 54.981304,581.622925 52.989159,588.801392 
	C52.511803,592.505554 52.034447,596.209717 51.522549,600.181946 
	C56.545532,600.181946 60.799236,600.181946 65.930832,600.480347 
	C70.962708,600.384766 75.994576,600.289185 81.912392,600.494263 
	C87.633057,600.385010 93.353729,600.275757 99.948509,600.462952 
	C104.657532,600.366516 109.366562,600.270081 114.955849,600.462463 
	C122.976021,600.361816 130.996185,600.261169 139.665680,600.157471 
	C139.773163,599.779175 139.880646,599.400879 140.238388,598.110657 
	C140.251801,577.113892 140.269150,556.117126 140.277344,535.120361 
	C140.283661,518.955933 140.359161,502.790466 140.150833,486.628723 
	C140.130478,485.049866 138.599564,482.477661 137.301453,482.133606 
	C134.368332,481.356140 131.142136,481.684479 127.135307,481.269287 
	C119.437653,481.379120 111.740005,481.488953 103.188545,481.296997 
	C100.790077,481.392792 98.391602,481.488586 95.108147,481.274811 
	C89.748459,481.383453 84.388771,481.492096 78.298820,481.296051 
	C77.529175,481.398163 76.759521,481.500244 75.154022,481.311890 
	C73.110329,481.420990 71.066635,481.530121 68.135506,481.322571 
	C60.766567,481.440613 53.397629,481.558655 45.159779,481.340668 
	C41.450279,481.451782 37.740780,481.562897 33.191608,481.339874 
	C30.806643,481.436707 28.421679,481.533539 25.297525,481.311737 
	C21.196777,480.537994 20.724018,482.773499 20.736530,486.190247 
	C20.843767,515.476074 20.804674,544.762451 20.824053,574.048645 
	C20.825010,575.496399 20.962608,576.943970 21.044836,578.553223 
	C25.410866,572.808411 29.567118,567.339661 34.441872,561.861084 
	C35.331974,560.317627 36.222076,558.774170 37.095062,557.086487 
M811.116821,562.506287 
	C810.939697,553.450439 804.911255,549.057556 797.047729,545.639832 
	C799.045044,544.219666 800.679626,543.158081 802.204285,541.956848 
	C811.399231,534.712341 810.079895,521.968140 799.447388,517.120850 
	C796.334778,515.701843 792.760437,514.744263 789.358093,514.614441 
	C778.714233,514.208313 768.051331,514.247742 757.396057,514.265930 
	C756.176025,514.268005 754.957581,515.226501 753.738403,515.741577 
	C754.825623,516.484009 755.879456,517.803589 757.005859,517.868835 
	C761.838379,518.148499 762.845642,520.722229 762.764893,525.130981 
	C762.517761,538.617920 762.584961,552.113098 762.710754,565.603333 
	C762.760254,570.915588 763.493958,576.309509 755.537598,576.129395 
	C754.953003,576.116150 754.099548,577.624817 753.855957,578.553101 
	C753.771240,578.875916 755.162476,580.057678 755.866089,580.045776 
	C769.171448,579.821594 782.559631,580.283875 795.751099,578.896362 
	C805.875427,577.831421 809.790222,572.613708 811.116821,562.506287 
M1010.704102,574.074341 
	C1010.584167,563.932190 1010.406616,553.790283 1010.358704,543.647827 
	C1010.298462,530.884216 1010.344238,518.120056 1010.344238,504.639343 
	C1004.176941,505.520874 997.973755,506.407532 991.770569,507.294189 
	C991.758118,507.883423 991.745728,508.472626 991.733276,509.061829 
	C993.391785,509.623413 995.163086,509.979370 996.675110,510.808228 
	C998.011780,511.540955 1000.013184,512.745544 1000.076111,513.836609 
	C1000.413208,519.680115 1000.235107,525.553223 1000.235107,532.210510 
	C992.965942,527.877502 986.215881,527.413391 979.333496,530.179504 
	C964.345581,536.203430 958.566040,556.405396 967.477234,571.451965 
	C973.538452,581.686401 986.962219,584.388184 996.519836,577.283752 
	C997.538940,576.526306 998.492126,575.680420 999.972961,574.468689 
	C1000.269409,577.109863 1000.497864,579.145081 1000.802246,581.856506 
	C1006.693176,580.861450 1012.302979,579.913818 1017.912781,578.966248 
	C1017.909424,578.391541 1017.906067,577.816833 1017.902710,577.242126 
	C1015.676880,576.436157 1013.451050,575.630188 1010.704102,574.074341 
M731.108521,553.543945 
	C731.036987,550.051025 731.159241,546.541260 730.857239,543.068359 
	C729.980225,532.981934 724.122986,527.241516 714.075317,528.148865 
	C708.852356,528.620544 703.853210,531.571777 698.493591,533.496033 
	C698.320801,532.351624 697.994507,530.190430 697.552795,527.264404 
	C691.708435,528.479614 686.177246,529.629700 680.646118,530.779785 
	C680.367126,531.448914 680.088074,532.118042 679.809021,532.787170 
	C680.712341,533.169800 681.582886,533.695557 682.524414,533.911133 
	C687.725891,535.101929 688.417297,538.708923 688.264587,543.358521 
	C687.985962,551.840576 688.011658,560.343445 688.264587,568.827148 
	C688.380859,572.725647 687.651794,575.270691 683.257629,575.777588 
	C682.351685,575.882019 681.596497,577.293762 680.771851,578.102966 
	C681.744141,578.510864 682.710022,579.252991 683.689819,579.271851 
	C689.681519,579.387451 695.677795,579.408630 701.668823,579.283630 
	C702.796021,579.260071 703.906555,578.435608 705.024780,577.980713 
	C703.986206,577.195312 703.046875,575.975769 701.889221,575.711182 
	C699.138367,575.082397 698.023132,573.699524 698.061768,570.851929 
	C698.178955,562.195801 697.963562,553.532837 698.219666,544.882690 
	C698.277832,542.920288 699.264160,540.575195 700.607178,539.139709 
	C704.253662,535.242249 708.883606,533.558472 714.207214,535.273743 
	C719.604065,537.012634 720.744507,541.554260 720.830566,546.428833 
	C720.974487,554.584473 720.750000,562.747498 720.942993,570.901123 
	C721.017456,574.048828 719.914856,575.428406 716.828979,575.813232 
	C715.564880,575.970947 714.418762,577.074829 713.218933,577.748291 
	C713.376160,578.248413 713.533325,578.748535 713.690552,579.248657 
	C721.812622,579.364197 729.937805,579.587585 738.115784,578.376160 
	C737.454163,577.011719 736.749268,576.070007 735.956177,575.988708 
	C731.527954,575.534668 730.820557,572.857971 731.041443,569.012573 
	C731.317810,564.200134 731.107849,559.359680 731.108521,553.543945 
M177.052826,521.518494 
	C177.963531,520.791931 178.820694,519.982788 179.793488,519.351990 
	C186.921829,514.729919 194.473724,514.773376 202.338516,517.154785 
	C209.356857,519.279907 210.453430,525.296814 211.977570,531.111633 
	C212.230743,532.077576 212.238678,533.266296 212.829025,533.942688 
	C213.479904,534.688354 214.671631,534.961914 216.419388,535.837952 
	C215.864380,527.294067 215.385361,519.919861 214.987503,513.795227 
	C209.958084,513.113525 205.813416,512.306580 201.634811,512.047913 
	C196.504211,511.730316 191.269043,511.274841 186.212433,511.921631 
	C168.994812,514.123901 157.237946,526.842773 155.958282,544.016357 
	C154.752838,560.193787 164.295242,574.493225 179.461594,578.782104 
	C189.522873,581.627441 199.600662,580.807129 209.489288,577.732178 
	C210.873886,577.301636 212.725143,576.014160 213.010300,574.804871 
	C214.406143,568.885803 215.344742,562.859009 216.444977,556.870239 
	C215.903320,556.562195 215.361664,556.254150 214.820007,555.946106 
	C213.850586,557.216003 212.721420,558.395447 211.941666,559.772766 
	C209.594650,563.918457 208.330826,569.272278 204.936203,572.114868 
	C195.921494,579.663696 181.681122,576.837219 174.920639,567.112366 
	C166.304672,554.718384 167.059158,533.779663 177.052826,521.518494 
M286.646057,559.496094 
	C286.648743,562.327393 286.491486,565.170044 286.691772,567.987305 
	C286.989227,572.170349 286.114349,575.243103 281.140564,575.476440 
	C280.029999,575.528503 278.937286,575.962341 277.836365,576.220398 
	C278.398041,577.074158 278.959717,577.927917 279.521393,578.781677 
	C286.914673,578.781677 294.308350,578.813171 301.700470,578.720764 
	C302.279785,578.713501 302.848358,577.842407 303.421906,577.372803 
	C302.628967,576.712097 301.892792,575.573914 301.033508,575.471802 
	C296.887085,574.979004 296.173676,572.526733 296.284546,568.848022 
	C296.515198,561.193787 296.324829,553.527771 296.373535,545.867004 
	C296.415375,539.285950 301.158264,534.630249 308.115723,534.230164 
	C314.489655,533.863647 318.564911,537.284851 318.991455,544.509155 
	C319.500946,553.138062 319.142883,561.814880 319.384125,570.464722 
	C319.465027,573.365845 318.418762,574.686584 315.648132,575.263123 
	C314.218964,575.560547 312.944183,576.599854 311.599640,577.303955 
	C311.763763,577.747742 311.927856,578.191467 312.091980,578.635193 
	C320.173431,578.635193 328.254913,578.635193 336.336395,578.635193 
	C336.891296,577.919128 337.446167,577.203125 338.001068,576.487061 
	C336.884918,576.195496 335.779388,575.707214 334.650757,575.646179 
	C329.599182,575.373047 329.150848,572.215759 329.260468,568.073547 
	C329.476257,559.920227 329.647034,551.733765 329.162659,543.601135 
	C328.397705,530.757385 316.925385,523.883362 305.220886,529.145874 
	C302.186890,530.510010 299.662476,533.007629 296.660889,535.158936 
	C296.459045,532.664124 296.275940,530.400635 296.010345,527.117615 
	C290.058594,528.371094 284.517792,529.538025 278.976990,530.704895 
	C279.869751,532.699768 280.571808,533.523132 281.433167,533.755249 
	C286.063385,535.002930 287.010559,538.146606 286.740570,542.513489 
	C286.412323,547.822937 286.652466,553.167542 286.646057,559.496094 
M548.874634,543.658203 
	C549.898071,548.546997 547.435547,550.160461 542.954834,551.251526 
	C537.022522,552.695923 531.120300,554.729492 525.628479,557.385193 
	C520.230530,559.995422 518.517151,564.719849 519.546692,570.376099 
	C520.468018,575.437866 524.074646,578.757141 529.871582,579.795532 
	C537.157715,581.100525 543.277649,578.694519 548.453308,573.569397 
	C553.123596,581.476318 562.858887,582.404724 567.360229,575.324219 
	C566.598572,575.006287 565.858643,574.400330 565.177002,574.459961 
	C559.967407,574.915588 558.581055,572.068542 558.630859,567.490295 
	C558.723083,559.002991 558.666687,550.512817 558.562195,542.025146 
	C558.466919,534.278748 554.942383,529.732483 547.362183,528.451477 
	C543.669373,527.827454 539.303955,527.299255 536.080383,528.681213 
	C531.082581,530.823730 526.449036,534.258057 522.438660,537.981995 
	C521.292908,539.045898 522.077942,543.536682 523.419617,545.438965 
	C524.258972,546.628967 528.620361,546.898438 529.906616,545.811768 
	C531.497437,544.467712 531.817688,541.326477 532.136658,538.889648 
	C532.305786,537.598145 531.309875,536.154053 530.856567,534.827454 
	C539.905579,530.026123 547.088318,533.296143 548.874634,543.658203 
M271.803375,567.347046 
	C277.820496,554.214172 275.091095,539.452637 265.347992,532.434265 
	C253.703323,524.046143 237.258423,526.772827 229.031860,538.455688 
	C221.064453,549.770569 224.236176,568.895081 235.275864,576.104919 
	C247.478546,584.074280 263.387756,580.503418 271.803375,567.347046 
M651.504883,580.361755 
	C653.649902,580.133545 655.836914,580.099426 657.932861,579.644836 
	C669.301941,577.179321 677.008423,566.467896 676.805054,553.570007 
	C676.597229,540.386902 669.268250,530.684021 657.720154,528.303040 
	C642.511536,525.167419 629.242004,534.108948 626.882874,549.082397 
	C624.171631,566.290894 633.647095,578.766357 651.504883,580.361755 
M416.159943,562.410461 
	C416.888458,564.442566 417.409698,566.580200 418.381775,568.488220 
	C422.365509,576.307617 428.789368,580.432251 437.610413,580.530151 
	C445.948883,580.622742 452.445496,577.239441 456.629608,569.884155 
	C457.088226,569.077881 457.065033,567.997498 457.400238,566.402283 
	C446.999512,574.012024 439.085266,574.876526 432.175079,569.607178 
	C426.985260,565.649597 424.264648,556.568054 426.252533,550.842041 
	C435.564789,550.842041 444.715729,550.942749 453.859497,550.732727 
	C455.220978,550.701538 457.412170,549.470398 457.752167,548.349304 
	C459.950104,541.102295 455.847961,532.780518 448.893524,529.613953 
	C437.634796,524.487488 424.151154,529.188477 418.546234,540.200012 
	C415.078186,547.013245 414.384521,554.163391 416.159943,562.410461 
M356.660889,532.886414 
	C364.040894,530.451782 368.918915,532.970947 371.300537,540.333923 
	C371.812866,541.917786 372.685181,543.385132 373.391693,544.906189 
	C373.886169,544.736877 374.380615,544.567627 374.875092,544.398315 
	C374.875092,538.971558 374.875092,533.544739 374.875092,529.113403 
	C371.007599,528.690613 367.832825,528.008362 364.675262,528.080566 
	C360.422821,528.177673 355.931915,528.117249 351.997772,529.457947 
	C346.071472,531.477478 342.555084,536.092224 342.403290,542.707825 
	C342.249878,549.393738 345.820801,553.636780 351.594391,556.240906 
	C354.926819,557.743958 358.401672,558.933167 361.820923,560.241516 
	C365.996460,561.839172 367.824432,564.962036 367.183960,569.265381 
	C366.524170,573.698547 363.445526,575.741943 359.178802,576.120544 
	C353.936646,576.585693 349.760895,574.184204 347.535004,569.358521 
	C346.561798,567.248596 345.972107,564.957214 344.940674,562.881165 
	C344.602478,562.200439 343.362823,561.521301 342.643616,561.621094 
	C342.094147,561.697388 341.337372,562.994385 341.321198,563.761963 
	C341.206970,569.180298 341.260529,574.602051 341.260529,578.817566 
	C346.631958,579.403870 350.801819,580.435303 354.884125,580.161499 
	C360.229980,579.803101 366.112701,579.588623 370.688965,577.227539 
	C380.707367,572.058838 380.131012,558.839722 370.112823,553.618958 
	C366.440247,551.705078 362.431610,550.441956 358.598511,548.829102 
	C350.843781,545.566284 349.761444,539.165710 356.660889,532.886414 
M1060.472656,563.235046 
	C1059.201660,558.000671 1055.328369,555.233704 1050.770874,553.242432 
	C1047.264404,551.710449 1043.613770,550.510559 1040.092407,549.010193 
	C1035.907837,547.227295 1034.750854,543.756653 1035.415894,539.570801 
	C1036.081909,535.378906 1038.858765,533.253357 1042.900146,532.696533 
	C1048.123657,531.976868 1052.312256,535.134705 1054.341309,541.003418 
	C1054.911133,542.651733 1055.906616,544.152771 1056.706787,545.721375 
	C1057.144165,545.483093 1057.581665,545.244812 1058.019043,545.006531 
	C1058.019043,539.588745 1058.019043,534.170959 1058.019043,529.768982 
	C1054.441406,529.609680 1051.626831,529.713806 1048.885620,529.314087 
	C1043.302856,528.500061 1037.956055,528.652893 1032.937744,531.629822 
	C1023.043030,537.499268 1022.671448,550.085815 1032.481812,556.124512 
	C1035.977417,558.276184 1040.066650,559.471924 1043.904297,561.057373 
	C1049.679565,563.443298 1051.920044,567.414856 1050.150635,572.225769 
	C1048.618286,576.392639 1043.658081,578.339844 1038.358765,577.003418 
	C1032.963257,575.642639 1030.803833,571.495117 1029.036133,566.814697 
	C1028.415894,565.172180 1027.199951,563.754700 1026.256104,562.234436 
	C1025.811768,562.479065 1025.367310,562.723633 1024.922974,562.968262 
	C1024.922974,568.552185 1024.841553,574.139221 1025.051025,579.715393 
	C1025.071533,580.264648 1027.662842,581.288574 1027.736572,581.181335 
	C1029.791870,578.192749 1032.176636,580.456665 1034.452148,580.542542 
	C1039.231934,580.722839 1044.173828,581.340027 1048.777832,580.420105 
	C1057.370483,578.703064 1061.107300,572.948853 1060.472656,563.235046 
M467.391541,505.251404 
	C465.116486,505.829376 462.841431,506.407318 460.566376,506.985291 
	C461.650330,508.995056 463.136414,509.446564 463.982147,510.442108 
	C465.345306,512.046631 467.224335,513.991821 467.259460,515.824341 
	C467.588348,532.977417 467.624573,550.137207 467.612305,567.294922 
	C467.609558,571.144653 468.225037,575.677979 462.132202,575.904480 
	C461.573853,575.925232 460.939789,577.208740 460.611694,578.015991 
	C460.519196,578.243591 461.385681,579.241394 461.818787,579.245789 
	C469.536835,579.323303 477.255920,579.302002 484.974762,579.302002 
	C485.470245,578.489746 485.965729,577.677490 486.461212,576.865234 
	C485.380829,576.534790 484.311859,575.966919 483.218048,575.914185 
	C477.767120,575.651428 477.718506,572.078369 477.749969,567.907349 
	C477.883118,550.248291 477.800873,532.587524 477.797638,514.927429 
	C477.796967,511.340637 477.797546,507.753815 477.797546,503.647858 
	C474.393127,504.161682 471.294037,504.629425 467.391541,505.251404 
M491.326874,507.515778 
	C491.642975,508.071228 491.862366,509.017303 492.289764,509.123077 
	C497.955048,510.525208 498.324921,514.630310 498.244415,519.504517 
	C497.972595,535.969849 497.889587,552.440613 497.982300,568.907898 
	C498.003479,572.675964 497.117218,574.934326 493.098877,575.455750 
	C492.151276,575.578735 491.324860,576.635742 490.442719,577.263062 
	C490.608643,577.617432 490.774567,577.971802 490.940491,578.326172 
	C499.007416,578.326172 507.074341,578.326172 516.654175,578.326172 
	C514.795837,576.712158 514.099609,575.577759 513.299866,575.499390 
	C508.329926,575.012329 507.981262,571.921814 508.029114,567.786743 
	C508.229309,550.485474 508.126129,533.180725 508.133392,515.877258 
	C508.135010,511.944855 508.133636,508.012482 508.133636,503.108185 
	C502.390991,504.407745 496.989075,505.630219 491.326874,507.515778 
M851.725220,539.027222 
	C852.092346,536.577209 853.613892,533.020813 852.565735,531.927185 
	C850.838318,530.124756 847.422058,529.169739 844.768799,529.265869 
	C842.584045,529.345276 840.440308,531.413147 838.343140,532.704834 
	C837.213989,533.400330 836.220947,534.316772 834.648560,535.534729 
	C834.105652,532.738342 833.746460,530.888245 833.331482,528.750916 
	C827.254333,529.372986 821.527405,529.931824 815.453186,533.466919 
	C825.538574,535.100220 823.327026,542.171326 823.383911,548.129211 
	C823.449036,554.959473 823.260376,561.794556 823.449158,568.620178 
	C823.558533,572.576843 823.542236,576.025757 818.318970,576.402771 
	C817.613464,576.453613 816.984985,577.570740 816.320801,578.194214 
	C817.173828,578.768188 818.018677,579.825867 818.881165,579.840393 
	C826.542786,579.969482 834.208252,579.964905 841.870178,579.843628 
	C842.752319,579.829712 843.619385,578.862854 844.493408,578.337769 
	C843.646851,577.718445 842.882202,576.848267 841.934448,576.538879 
	C840.527649,576.079590 838.697937,576.445496 837.582031,575.681030 
	C836.092102,574.660400 834.134460,572.931030 834.076843,571.440491 
	C833.742310,562.789734 833.548645,554.095154 834.140442,545.472595 
	C834.299072,543.162598 836.956787,540.178040 839.223816,539.111877 
	C841.239441,538.164001 844.914795,538.610413 846.747559,539.954712 
	C848.984497,541.595520 849.856262,540.853149 851.725220,539.027222 
M588.297974,530.398743 
	C586.020081,530.398743 583.742188,530.398743 581.122131,530.398743 
	C581.122131,526.707520 581.304504,523.702820 581.047668,520.736206 
	C580.912537,519.175842 580.009338,517.681946 579.452881,516.158081 
	C578.211792,517.425049 576.519043,518.482300 575.814697,519.998657 
	C573.739685,524.465698 572.878052,529.678467 566.972107,531.263794 
	C566.419434,531.412231 565.958374,534.420837 566.554565,535.485779 
	C566.984924,536.254395 569.241028,536.000916 571.184875,536.273743 
	C571.184875,538.248352 571.174988,540.043396 571.186523,541.838379 
	C571.245422,551.001709 571.050842,560.176575 571.459961,569.324402 
	C571.751160,575.837402 575.891968,579.609314 582.308899,580.297302 
	C589.996948,581.121582 596.611084,577.698914 598.567627,571.844055 
	C598.617126,571.695984 598.183105,571.386230 598.143250,571.341431 
	C595.378052,572.223145 592.781189,573.479614 590.068726,573.823486 
	C585.030945,574.462097 581.507935,572.238892 581.366577,567.848450 
	C581.025940,557.269653 581.256226,546.672485 581.256226,535.590942 
	C585.080322,535.590942 588.410706,535.851135 591.667542,535.474731 
	C593.162903,535.301941 595.510498,534.088440 595.741821,532.984436 
	C596.414490,529.774170 593.611572,530.501221 591.743103,530.398499 
	C590.912415,530.352783 590.077087,530.393738 588.297974,530.398743 
M412.048889,531.122009 
	C407.330933,530.734985 402.612976,530.347900 397.366333,529.917480 
	C397.366333,526.890808 397.533356,523.928589 397.299896,520.998352 
	C397.172241,519.396179 396.367218,517.848083 395.867645,516.275574 
	C394.593323,517.495361 392.760223,518.485779 392.147705,519.977356 
	C390.183624,524.760315 388.998840,529.933350 382.915466,531.448547 
	C382.316864,531.597656 381.794098,533.374634 381.863556,534.351501 
	C381.901031,534.878967 383.215302,535.473572 384.048950,535.746460 
	C385.090149,536.087280 386.229492,536.128113 387.656647,536.349792 
	C387.656647,546.916992 387.591675,557.228882 387.678986,567.539551 
	C387.739441,574.674622 391.022888,578.684448 397.540802,579.968201 
	C404.907684,581.419250 412.511169,578.136414 414.943634,572.392822 
	C415.067627,572.100098 414.607391,571.559998 414.297852,570.861328 
	C412.735748,571.674927 411.349060,572.543579 409.855713,573.149231 
	C403.813141,575.599792 397.859955,573.094055 397.628998,567.429443 
	C397.204163,557.009338 397.507782,546.559570 397.507782,535.580933 
	C401.556732,535.580933 405.191742,535.423889 408.806030,535.630249 
	C411.746796,535.798096 412.786041,534.638733 412.048889,531.122009 
M608.219849,547.536865 
	C608.211914,554.361023 608.037903,561.190613 608.258606,568.007385 
	C608.390442,572.078796 608.090088,575.319763 602.960266,575.671204 
	C602.194519,575.723694 601.514587,577.029602 600.794922,577.755615 
	C601.729126,578.213867 602.656799,579.052612 603.598633,579.068848 
	C609.921387,579.177979 616.248535,579.173096 622.570435,579.034546 
	C623.472046,579.014771 624.353455,578.072998 625.244141,577.557861 
	C624.460938,576.857117 623.722900,575.616089 622.886963,575.546204 
	C618.520874,575.181396 618.241882,572.487854 618.289490,568.941101 
	C618.454651,556.626526 618.431091,544.307495 618.274475,531.992737 
	C618.256226,530.556335 616.788025,527.840881 616.283630,527.908081 
	C611.040405,528.606323 605.856995,529.753418 600.656982,530.775940 
	C600.683105,531.329895 600.709167,531.883850 600.735291,532.437805 
	C601.605164,533.055908 602.392029,533.970154 603.359131,534.241333 
	C607.719360,535.464172 609.023926,538.363586 608.394165,542.567993 
	C608.198181,543.876038 608.270569,545.224304 608.219849,547.536865 
M607.105957,508.466614 
	C605.995422,512.834412 607.320251,516.528259 611.801697,517.131958 
	C614.009888,517.429504 617.537903,515.447876 618.812744,513.444092 
	C620.871399,510.208282 619.687378,506.574738 616.009216,504.686554 
	C612.225525,502.744263 609.345947,504.243805 607.105957,508.466614 
z"/>
<path fill="#3C3A39" opacity="1.000000" stroke="none" 
	d="
M941.008911,537.104736 
	C936.620911,534.720459 932.143616,534.293213 927.670837,536.760742 
	C923.806458,538.892639 921.340393,541.768372 921.534485,546.693359 
	C921.829346,554.175232 921.793640,561.683655 921.535156,569.168274 
	C921.395630,573.208984 922.070923,576.014893 926.776855,576.343628 
	C927.479675,576.392761 928.113220,577.433472 929.450623,578.602722 
	C927.658325,579.082397 926.659729,579.598816 925.675110,579.573242 
	C918.398193,579.384827 911.124634,578.953430 903.848511,578.917908 
	C901.964539,578.908752 900.076294,580.037781 898.187927,580.637390 
	C891.336121,582.812622 888.055298,581.542114 885.311340,576.551025 
	C879.496582,578.289978 874.074036,580.757324 868.448120,581.377075 
	C861.634399,582.127502 856.840698,578.000305 855.510193,572.108948 
	C854.122742,565.965027 856.458740,561.013733 863.039490,558.050415 
	C867.864441,555.877747 873.132812,554.710815 878.113770,552.854919 
	C880.708740,551.888062 884.730042,552.980164 884.727722,547.903076 
	C884.724426,540.551331 883.282166,536.362305 878.368347,535.250366 
	C874.743835,534.430237 870.784729,535.089294 866.618835,535.089294 
	C867.493958,538.466492 868.334473,540.504395 868.493103,542.594055 
	C868.757324,546.074524 867.037964,548.516357 863.407227,548.694397 
	C859.604614,548.880859 857.256714,546.694885 857.543762,542.903931 
	C857.706116,540.759644 858.616760,538.151978 860.114380,536.717651 
	C867.036499,530.088135 875.268433,527.106018 884.830750,529.764954 
	C890.719910,531.402588 894.312073,535.448853 894.543579,541.651489 
	C894.878723,550.629700 894.667175,559.628174 894.993652,568.606934 
	C895.074585,570.833679 895.787537,574.443726 897.142273,574.956970 
	C901.379272,576.562073 906.159607,577.516052 910.348694,574.496338 
	C911.149414,573.919067 911.330200,572.118591 911.348083,570.875977 
	C911.494568,560.722107 911.479126,550.565735 911.638977,540.412109 
	C911.689941,537.174927 909.994019,535.653442 907.242371,534.564026 
	C906.172363,534.140320 905.402771,532.957886 904.496338,532.121033 
	C905.491577,531.443115 906.403320,530.403320 907.496765,530.151062 
	C911.844116,529.148315 916.248169,528.391174 920.972961,527.476990 
	C921.459778,530.370300 921.853882,532.712341 922.337524,535.586426 
	C925.982117,533.448792 929.158875,531.585632 932.666504,530.135132 
	C933.915710,531.729858 934.652344,533.144897 935.796570,534.037476 
	C937.372620,535.266724 939.256775,536.101135 941.008911,537.104736 
M872.499207,558.734314 
	C872.047668,558.940796 871.595276,559.145386 871.144836,559.354126 
	C866.947327,561.299194 864.548523,564.347778 865.421082,569.185913 
	C866.155640,573.259399 869.036011,574.898193 872.866821,575.186401 
	C877.287659,575.518921 884.186829,572.455811 884.599182,569.300476 
	C885.181213,564.846985 884.746582,560.260559 884.746582,554.955933 
	C880.408264,556.267090 876.814453,557.353210 872.499207,558.734314 
M893.984253,547.604370 
	C893.823608,546.539917 893.662903,545.475525 893.306885,543.116699 
	C891.134766,545.244080 889.725464,546.624329 888.316101,548.004578 
	C889.829895,549.381287 891.343628,550.757935 893.634155,552.841064 
	C893.831238,550.333923 893.907715,549.360901 893.984253,547.604370 
z"/>
<path fill="#184B84" opacity="1.000000" stroke="none" 
	d="
M79.029083,481.600708 
	C84.388771,481.492096 89.748459,481.383453 95.558502,481.807404 
	C96.228317,484.752167 96.516930,487.160492 96.651161,489.577393 
	C96.856895,493.281830 95.895432,497.498322 97.363289,500.574768 
	C99.297424,504.628418 98.674408,507.268707 95.894821,510.363586 
	C96.922935,511.518402 98.048683,512.455688 99.128357,513.840454 
	C99.973236,519.859131 95.684433,522.162903 91.408577,524.551453 
	C100.386124,529.444092 101.653671,530.695374 99.756302,537.587524 
	C96.318687,550.074463 96.406906,562.663330 96.974632,575.372559 
	C97.229790,581.084534 96.812836,586.853577 97.442993,592.514038 
	C98.041595,597.890869 97.553406,598.816650 92.011559,599.045105 
	C88.340317,599.196472 84.687508,599.795166 81.026451,600.193542 
	C75.994576,600.289185 70.962708,600.384766 65.483063,600.133179 
	C65.014992,599.522156 65.001907,599.258057 65.243729,598.992310 
	C65.491425,598.990967 65.986824,598.987793 66.451447,598.993896 
	C69.410973,599.000427 71.919067,598.837769 74.397728,599.038513 
	C78.315361,599.355835 80.136528,598.156372 80.101349,593.793335 
	C80.048782,587.274048 80.643806,580.746826 81.038483,574.227539 
	C81.267715,570.440918 81.754272,566.668213 81.925842,562.880249 
	C82.139702,558.158630 81.847229,553.396484 82.332947,548.709778 
	C82.790497,544.294922 80.993759,540.700745 76.467377,538.797302 
	C80.064232,534.846680 83.661102,530.896057 87.257965,526.945496 
	C87.001640,526.544250 86.745308,526.143005 86.488983,525.741821 
	C82.549019,528.113892 78.609055,530.486023 74.007057,532.918945 
	C72.896667,533.011475 72.448311,533.043335 72.038773,532.708984 
	C73.112747,531.374817 74.041077,530.245972 75.205627,529.472961 
	C77.521812,527.935608 79.968010,526.594177 81.690163,525.570312 
	C80.599518,521.516479 79.236610,518.568848 79.110527,515.569214 
	C78.784081,507.802917 79.000343,500.013641 79.004868,492.233551 
	C79.006927,488.689270 79.020645,485.144989 79.029083,481.600708 
z"/>
<path fill="#373535" opacity="1.000000" stroke="none" 
	d="
M811.114380,562.896484 
	C809.790222,572.613708 805.875427,577.831421 795.751099,578.896362 
	C782.559631,580.283875 769.171448,579.821594 755.866089,580.045776 
	C755.162476,580.057678 753.771240,578.875916 753.855957,578.553101 
	C754.099548,577.624817 754.953003,576.116150 755.537598,576.129395 
	C763.493958,576.309509 762.760254,570.915588 762.710754,565.603333 
	C762.584961,552.113098 762.517761,538.617920 762.764893,525.130981 
	C762.845642,520.722229 761.838379,518.148499 757.005859,517.868835 
	C755.879456,517.803589 754.825623,516.484009 753.738403,515.741577 
	C754.957581,515.226501 756.176025,514.268005 757.396057,514.265930 
	C768.051331,514.247742 778.714233,514.208313 789.358093,514.614441 
	C792.760437,514.744263 796.334778,515.701843 799.447388,517.120850 
	C810.079895,521.968140 811.399231,534.712341 802.204285,541.956848 
	C800.679626,543.158081 799.045044,544.219666 797.047729,545.639832 
	C804.911255,549.057556 810.939697,553.450439 811.114380,562.896484 
M798.879395,564.138855 
	C798.839417,551.940430 787.321045,544.799683 774.397827,548.933472 
	C774.397827,557.661133 774.397827,566.374634 774.397827,574.978943 
	C787.863586,578.686584 796.074158,575.222351 798.879395,564.138855 
M796.854736,528.928040 
	C794.770935,520.426025 784.273865,515.282166 775.894226,518.781189 
	C775.078308,519.121826 774.160400,520.417725 774.144348,521.286011 
	C774.006226,528.735291 774.065063,536.188293 774.065063,543.509583 
	C788.951721,546.523926 796.668518,541.722351 796.854736,528.928040 
z"/>
<path fill="#383636" opacity="1.000000" stroke="none" 
	d="
M1010.964661,574.449280 
	C1013.451050,575.630188 1015.676880,576.436157 1017.902710,577.242126 
	C1017.906067,577.816833 1017.909424,578.391541 1017.912781,578.966248 
	C1012.302979,579.913818 1006.693176,580.861450 1000.802246,581.856506 
	C1000.497864,579.145081 1000.269409,577.109863 999.972961,574.468689 
	C998.492126,575.680420 997.538940,576.526306 996.519836,577.283752 
	C986.962219,584.388184 973.538452,581.686401 967.477234,571.451965 
	C958.566040,556.405396 964.345581,536.203430 979.333496,530.179504 
	C986.215881,527.413391 992.965942,527.877502 1000.235107,532.210510 
	C1000.235107,525.553223 1000.413208,519.680115 1000.076111,513.836609 
	C1000.013184,512.745544 998.011780,511.540955 996.675110,510.808228 
	C995.163086,509.979370 993.391785,509.623413 991.733276,509.061829 
	C991.745728,508.472626 991.758118,507.883423 991.770569,507.294189 
	C997.973755,506.407532 1004.176941,505.520874 1010.344238,504.639343 
	C1010.344238,518.120056 1010.298462,530.884216 1010.358704,543.647827 
	C1010.406616,553.790283 1010.584167,563.932190 1010.964661,574.449280 
M975.790649,564.139893 
	C977.894897,572.668335 989.775085,577.518677 997.214783,572.114258 
	C998.796143,570.965576 1000.204834,568.492737 1000.292542,566.566162 
	C1000.640259,558.929016 1000.433350,551.266541 1000.429871,543.613464 
	C1000.426270,535.653870 997.808167,533.249390 989.695557,533.855103 
	C983.647888,534.306641 979.468628,537.550659 976.911438,542.890869 
	C973.747559,549.498047 973.691467,556.376892 975.790649,564.139893 
z"/>
<path fill="#1F2E60" opacity="1.000000" stroke="none" 
	d="
M139.016357,600.160522 
	C130.996185,600.261169 122.976021,600.361816 114.693741,600.010376 
	C116.209793,599.372437 117.986404,599.045044 119.766365,599.025696 
	C126.805893,598.949158 126.988541,598.815430 126.994644,591.690002 
	C127.005875,578.574768 126.936729,565.458984 127.036896,552.344543 
	C127.065712,548.570801 127.937889,544.781555 127.749374,541.033386 
	C127.485718,535.791443 126.590172,530.581238 126.087524,525.148865 
	C125.148087,522.787964 124.334770,520.460388 122.969040,518.522156 
	C120.599983,515.160034 120.533127,512.544128 123.921860,509.697723 
	C125.690407,508.212219 126.639748,505.751434 127.972107,503.259155 
	C129.199814,496.235260 127.528397,488.837250 134.503662,484.253357 
	C131.692978,483.084351 129.864059,482.323700 128.035141,481.563019 
	C131.142136,481.684479 134.368332,481.356140 137.301453,482.133606 
	C138.599564,482.477661 140.130478,485.049866 140.150833,486.628723 
	C140.359161,502.790466 140.283661,518.955933 140.277344,535.120361 
	C140.269150,556.117126 140.251801,577.113892 139.882568,598.689331 
	C139.356598,599.565491 139.186478,599.862976 139.016357,600.160522 
z"/>
<path fill="#383636" opacity="1.000000" stroke="none" 
	d="
M731.108154,554.037659 
	C731.107849,559.359680 731.317810,564.200134 731.041443,569.012573 
	C730.820557,572.857971 731.527954,575.534668 735.956177,575.988708 
	C736.749268,576.070007 737.454163,577.011719 738.115784,578.376160 
	C729.937805,579.587585 721.812622,579.364197 713.690552,579.248657 
	C713.533325,578.748535 713.376160,578.248413 713.218933,577.748291 
	C714.418762,577.074829 715.564880,575.970947 716.828979,575.813232 
	C719.914856,575.428406 721.017456,574.048828 720.942993,570.901123 
	C720.750000,562.747498 720.974487,554.584473 720.830566,546.428833 
	C720.744507,541.554260 719.604065,537.012634 714.207214,535.273743 
	C708.883606,533.558472 704.253662,535.242249 700.607178,539.139709 
	C699.264160,540.575195 698.277832,542.920288 698.219666,544.882690 
	C697.963562,553.532837 698.178955,562.195801 698.061768,570.851929 
	C698.023132,573.699524 699.138367,575.082397 701.889221,575.711182 
	C703.046875,575.975769 703.986206,577.195312 705.024780,577.980713 
	C703.906555,578.435608 702.796021,579.260071 701.668823,579.283630 
	C695.677795,579.408630 689.681519,579.387451 683.689819,579.271851 
	C682.710022,579.252991 681.744141,578.510864 680.771851,578.102905 
	C681.596497,577.293762 682.351685,575.882019 683.257629,575.777588 
	C687.651794,575.270691 688.380859,572.725647 688.264587,568.827148 
	C688.011658,560.343445 687.985962,551.840576 688.264587,543.358521 
	C688.417297,538.708923 687.725891,535.101929 682.524414,533.911133 
	C681.582886,533.695557 680.712341,533.169800 679.809021,532.787170 
	C680.088074,532.118042 680.367126,531.448914 680.646118,530.779785 
	C686.177246,529.629700 691.708435,528.479614 697.552795,527.264404 
	C697.994507,530.190430 698.320801,532.351624 698.493591,533.496033 
	C703.853210,531.571777 708.852356,528.620544 714.075317,528.148865 
	C724.122986,527.241516 729.980225,532.981934 730.857239,543.068359 
	C731.159241,546.541260 731.036987,550.051025 731.108154,554.037659 
z"/>
<path fill="#393737" opacity="1.000000" stroke="none" 
	d="
M176.798370,521.791504 
	C167.059158,533.779663 166.304672,554.718384 174.920639,567.112366 
	C181.681122,576.837219 195.921494,579.663696 204.936203,572.114868 
	C208.330826,569.272278 209.594650,563.918457 211.941666,559.772766 
	C212.721420,558.395447 213.850586,557.216003 214.820007,555.946106 
	C215.361664,556.254150 215.903320,556.562195 216.444977,556.870239 
	C215.344742,562.859009 214.406143,568.885803 213.010300,574.804871 
	C212.725143,576.014160 210.873886,577.301636 209.489288,577.732178 
	C199.600662,580.807129 189.522873,581.627441 179.461594,578.782104 
	C164.295242,574.493225 154.752838,560.193787 155.958282,544.016357 
	C157.237946,526.842773 168.994812,514.123901 186.212433,511.921631 
	C191.269043,511.274841 196.504211,511.730316 201.634811,512.047913 
	C205.813416,512.306580 209.958084,513.113525 214.987503,513.795227 
	C215.385361,519.919861 215.864380,527.294067 216.419388,535.837952 
	C214.671631,534.961914 213.479904,534.688354 212.829025,533.942688 
	C212.238678,533.266296 212.230743,532.077576 211.977570,531.111633 
	C210.453430,525.296814 209.356857,519.279907 202.338516,517.154785 
	C194.473724,514.773376 186.921829,514.729919 179.793488,519.351990 
	C178.820694,519.982788 177.963531,520.791931 176.798370,521.791504 
z"/>
<path fill="#373535" opacity="1.000000" stroke="none" 
	d="
M286.646393,558.996521 
	C286.652466,553.167542 286.412323,547.822937 286.740570,542.513489 
	C287.010559,538.146606 286.063385,535.002930 281.433167,533.755249 
	C280.571808,533.523132 279.869751,532.699768 278.976990,530.704895 
	C284.517792,529.538025 290.058594,528.371094 296.010345,527.117615 
	C296.275940,530.400635 296.459045,532.664124 296.660889,535.158936 
	C299.662476,533.007629 302.186890,530.510010 305.220886,529.145874 
	C316.925385,523.883362 328.397705,530.757385 329.162659,543.601135 
	C329.647034,551.733765 329.476257,559.920227 329.260468,568.073547 
	C329.150848,572.215759 329.599182,575.373047 334.650757,575.646179 
	C335.779388,575.707214 336.884918,576.195496 338.001068,576.487061 
	C337.446167,577.203125 336.891296,577.919128 336.336395,578.635193 
	C328.254913,578.635193 320.173431,578.635193 312.091980,578.635193 
	C311.927856,578.191467 311.763763,577.747742 311.599640,577.303955 
	C312.944183,576.599854 314.218964,575.560547 315.648132,575.263123 
	C318.418762,574.686584 319.465027,573.365845 319.384125,570.464722 
	C319.142883,561.814880 319.500946,553.138062 318.991455,544.509155 
	C318.564911,537.284851 314.489655,533.863647 308.115723,534.230164 
	C301.158264,534.630249 296.415375,539.285950 296.373535,545.867004 
	C296.324829,553.527771 296.515198,561.193787 296.284546,568.848022 
	C296.173676,572.526733 296.887085,574.979004 301.033508,575.471802 
	C301.892792,575.573914 302.628967,576.712097 303.421906,577.372803 
	C302.848358,577.842407 302.279785,578.713501 301.700470,578.720764 
	C294.308350,578.813171 286.914673,578.781677 279.521393,578.781677 
	C278.959717,577.927917 278.398041,577.074158 277.836365,576.220398 
	C278.937286,575.962341 280.029999,575.528503 281.140564,575.476440 
	C286.114349,575.243103 286.989227,572.170349 286.691772,567.987305 
	C286.491486,565.170044 286.648743,562.327393 286.646393,558.996521 
z"/>
<path fill="#383636" opacity="1.000000" stroke="none" 
	d="
M548.848389,543.197754 
	C547.088318,533.296143 539.905579,530.026123 530.856567,534.827454 
	C531.309875,536.154053 532.305786,537.598145 532.136658,538.889648 
	C531.817688,541.326477 531.497437,544.467712 529.906616,545.811768 
	C528.620361,546.898438 524.258972,546.628967 523.419617,545.438965 
	C522.077942,543.536682 521.292908,539.045898 522.438660,537.981995 
	C526.449036,534.258057 531.082581,530.823730 536.080383,528.681213 
	C539.303955,527.299255 543.669373,527.827454 547.362183,528.451477 
	C554.942383,529.732483 558.466919,534.278748 558.562195,542.025146 
	C558.666687,550.512817 558.723083,559.002991 558.630859,567.490295 
	C558.581055,572.068542 559.967407,574.915588 565.177002,574.459961 
	C565.858643,574.400330 566.598572,575.006287 567.360229,575.324219 
	C562.858887,582.404724 553.123596,581.476318 548.453308,573.569397 
	C543.277649,578.694519 537.157715,581.100525 529.871582,579.795532 
	C524.074646,578.757141 520.468018,575.437866 519.546692,570.376099 
	C518.517151,564.719849 520.230530,559.995422 525.628479,557.385193 
	C531.120300,554.729492 537.022522,552.695923 542.954834,551.251526 
	C547.435547,550.160461 549.898071,548.546997 548.848389,543.197754 
M529.698547,570.437439 
	C533.805969,574.679382 538.637939,575.273926 544.061157,572.204712 
	C549.201477,569.295593 550.481201,563.479797 547.813782,554.162354 
	C544.993103,554.955261 542.144226,555.718567 539.320435,556.565674 
	C537.892944,556.994080 536.458069,557.463562 535.117920,558.105286 
	C529.614319,560.740723 528.251770,563.545349 529.698547,570.437439 
z"/>
<path fill="#373535" opacity="1.000000" stroke="none" 
	d="
M271.625000,567.666626 
	C263.387756,580.503418 247.478546,584.074280 235.275864,576.104919 
	C224.236176,568.895081 221.064453,549.770569 229.031860,538.455688 
	C237.258423,526.772827 253.703323,524.046143 265.347992,532.434265 
	C275.091095,539.452637 277.820496,554.214172 271.625000,567.666626 
M235.597992,555.371521 
	C237.064316,560.417297 237.637451,565.978516 240.188156,570.398499 
	C245.073654,578.864380 256.425262,578.333374 260.685333,569.504395 
	C265.550262,559.421753 265.510101,548.916016 260.354706,538.780701 
	C258.170685,534.487000 254.497314,532.020935 249.514008,532.064514 
	C244.522659,532.108154 240.546280,534.550598 238.940033,539.040283 
	C237.184830,543.946350 236.639709,549.285278 235.597992,555.371521 
z"/>
<path fill="#1477B5" opacity="1.000000" stroke="none" 
	d="
M33.723377,561.870850 
	C29.567118,567.339661 25.410866,572.808411 21.044836,578.553223 
	C20.962608,576.943970 20.825010,575.496399 20.824053,574.048645 
	C20.804674,544.762451 20.843767,515.476074 20.736530,486.190247 
	C20.724018,482.773499 21.196777,480.537994 25.819054,481.790710 
	C28.894485,482.512299 31.448387,482.754913 34.001144,482.998779 
	C34.000000,483.000000 34.002136,482.997559 33.990246,483.416840 
	C33.984234,489.574310 34.120205,495.316071 33.962959,501.049774 
	C33.767689,508.169922 33.227112,515.280518 33.029190,522.400696 
	C32.869740,528.136902 32.449959,533.949341 33.153381,539.602539 
	C33.847252,545.178955 35.806942,550.597839 37.210915,556.340515 
	C37.220123,556.764709 37.229702,556.934204 37.239277,557.103638 
	C37.239277,557.103638 37.095062,557.086487 36.784859,557.259644 
	C35.557560,558.912170 34.640469,560.391541 33.723377,561.870850 
z"/>
<path fill="#383636" opacity="1.000000" stroke="none" 
	d="
M651.069336,580.357422 
	C633.647095,578.766357 624.171631,566.290894 626.882874,549.082397 
	C629.242004,534.108948 642.511536,525.167419 657.720154,528.303040 
	C669.268250,530.684021 676.597229,540.386902 676.805054,553.570007 
	C677.008423,566.467896 669.301941,577.179321 657.932861,579.644836 
	C655.836914,580.099426 653.649902,580.133545 651.069336,580.357422 
M639.809753,540.705811 
	C636.682068,550.248596 636.408813,559.715210 641.121643,568.831543 
	C643.553589,573.535828 647.291321,576.792114 653.041260,576.321533 
	C658.698853,575.858521 662.165833,572.277954 663.880249,567.259338 
	C666.694946,559.019958 666.990845,550.593750 664.104675,542.264160 
	C662.164856,536.665894 658.446899,532.644531 652.332092,532.112366 
	C646.502991,531.604980 642.694763,535.030884 639.809753,540.705811 
z"/>
<path fill="#1E376C" opacity="1.000000" stroke="none" 
	d="
M125.964981,525.357483 
	C126.590172,530.581238 127.485718,535.791443 127.749374,541.033386 
	C127.937889,544.781555 127.065712,548.570801 127.036896,552.344543 
	C126.936729,565.458984 127.005875,578.574768 126.994644,591.690002 
	C126.988541,598.815430 126.805893,598.949158 119.766365,599.025696 
	C117.986404,599.045044 116.209793,599.372437 114.253616,599.865967 
	C109.366562,600.270081 104.657532,600.366516 99.690666,600.008240 
	C102.203270,599.367188 104.973801,599.033752 107.744156,599.035217 
	C110.608383,599.036743 112.027069,597.998474 112.018936,594.966370 
	C111.968758,576.238159 112.209198,557.505005 111.803833,538.785400 
	C111.724998,535.144897 109.227554,531.556763 107.961243,527.621277 
	C114.359428,520.029297 114.360725,520.026428 122.857925,523.862488 
	C123.905136,524.335266 124.929848,524.857910 125.964981,525.357483 
z"/>
<path fill="#1A4077" opacity="1.000000" stroke="none" 
	d="
M107.845718,527.944458 
	C109.227554,531.556763 111.724998,535.144897 111.803833,538.785400 
	C112.209198,557.505005 111.968758,576.238159 112.018936,594.966370 
	C112.027069,597.998474 110.608383,599.036743 107.744156,599.035217 
	C104.973801,599.033752 102.203270,599.367188 99.253609,599.859985 
	C93.353729,600.275757 87.633057,600.385010 81.469421,600.343872 
	C84.687508,599.795166 88.340317,599.196472 92.011559,599.045105 
	C97.553406,598.816650 98.041595,597.890869 97.442993,592.514038 
	C96.812836,586.853577 97.229790,581.084534 96.974632,575.372559 
	C96.406906,562.663330 96.318687,550.074463 99.756302,537.587524 
	C101.653671,530.695374 100.386124,529.444092 91.408577,524.551453 
	C95.684433,522.162903 99.973236,519.859131 99.474716,514.004944 
	C104.690598,515.484863 108.094681,517.929199 105.192245,523.843079 
	C104.735886,524.772949 104.759880,526.242981 105.183388,527.183289 
	C105.428024,527.726501 106.916855,527.709351 107.845718,527.944458 
z"/>
<path fill="#393737" opacity="1.000000" stroke="none" 
	d="
M416.067535,561.998474 
	C414.384521,554.163391 415.078186,547.013245 418.546234,540.200012 
	C424.151154,529.188477 437.634796,524.487488 448.893524,529.613953 
	C455.847961,532.780518 459.950104,541.102295 457.752167,548.349304 
	C457.412170,549.470398 455.220978,550.701538 453.859497,550.732727 
	C444.715729,550.942749 435.564789,550.842041 426.252533,550.842041 
	C424.264648,556.568054 426.985260,565.649597 432.175079,569.607178 
	C439.085266,574.876526 446.999512,574.012024 457.400238,566.402283 
	C457.065033,567.997498 457.088226,569.077881 456.629608,569.884155 
	C452.445496,577.239441 445.948883,580.622742 437.610413,580.530151 
	C428.789368,580.432251 422.365509,576.307617 418.381775,568.488220 
	C417.409698,566.580200 416.888458,564.442566 416.067535,561.998474 
M431.867004,534.175171 
	C428.118896,537.231384 426.085144,541.108398 425.839233,545.819397 
	C432.437958,545.819397 438.682831,545.980591 444.902344,545.656250 
	C445.905487,545.603943 447.568542,543.417725 447.614105,542.170105 
	C447.930878,533.495972 441.251678,529.864258 431.867004,534.175171 
z"/>
<path fill="#393737" opacity="1.000000" stroke="none" 
	d="
M356.302795,533.085205 
	C349.761444,539.165710 350.843781,545.566284 358.598511,548.829102 
	C362.431610,550.441956 366.440247,551.705078 370.112823,553.618958 
	C380.131012,558.839722 380.707367,572.058838 370.688965,577.227539 
	C366.112701,579.588623 360.229980,579.803101 354.884125,580.161499 
	C350.801819,580.435303 346.631958,579.403870 341.260529,578.817566 
	C341.260529,574.602051 341.206970,569.180298 341.321198,563.761963 
	C341.337372,562.994385 342.094147,561.697388 342.643616,561.621094 
	C343.362823,561.521301 344.602478,562.200439 344.940674,562.881165 
	C345.972107,564.957214 346.561798,567.248596 347.535004,569.358521 
	C349.760895,574.184204 353.936646,576.585693 359.178802,576.120544 
	C363.445526,575.741943 366.524170,573.698547 367.183960,569.265381 
	C367.824432,564.962036 365.996460,561.839172 361.820923,560.241516 
	C358.401672,558.933167 354.926819,557.743958 351.594391,556.240906 
	C345.820801,553.636780 342.249878,549.393738 342.403290,542.707825 
	C342.555084,536.092224 346.071472,531.477478 351.997772,529.457947 
	C355.931915,528.117249 360.422821,528.177673 364.675262,528.080566 
	C367.832825,528.008362 371.007599,528.690613 374.875092,529.113403 
	C374.875092,533.544739 374.875092,538.971558 374.875092,544.398315 
	C374.380615,544.567627 373.886169,544.736877 373.391693,544.906189 
	C372.685181,543.385132 371.812866,541.917786 371.300537,540.333923 
	C368.918915,532.970947 364.040894,530.451782 356.302795,533.085205 
z"/>
<path fill="#393737" opacity="1.000000" stroke="none" 
	d="
M1060.540161,563.639893 
	C1061.107300,572.948853 1057.370483,578.703064 1048.777832,580.420105 
	C1044.173828,581.340027 1039.231934,580.722839 1034.452148,580.542542 
	C1032.176636,580.456665 1029.791870,578.192749 1027.736572,581.181335 
	C1027.662842,581.288574 1025.071533,580.264648 1025.051025,579.715393 
	C1024.841553,574.139221 1024.922974,568.552185 1024.922974,562.968262 
	C1025.367310,562.723633 1025.811768,562.479065 1026.256104,562.234436 
	C1027.199951,563.754700 1028.415894,565.172180 1029.036133,566.814697 
	C1030.803833,571.495117 1032.963257,575.642639 1038.358765,577.003418 
	C1043.658081,578.339844 1048.618286,576.392639 1050.150635,572.225769 
	C1051.920044,567.414856 1049.679565,563.443298 1043.904297,561.057373 
	C1040.066650,559.471924 1035.977417,558.276184 1032.481812,556.124512 
	C1022.671448,550.085815 1023.043030,537.499268 1032.937744,531.629822 
	C1037.956055,528.652893 1043.302856,528.500061 1048.885620,529.314087 
	C1051.626831,529.713806 1054.441406,529.609680 1058.019043,529.768982 
	C1058.019043,534.170959 1058.019043,539.588745 1058.019043,545.006531 
	C1057.581665,545.244812 1057.144165,545.483093 1056.706787,545.721375 
	C1055.906616,544.152771 1054.911133,542.651733 1054.341309,541.003418 
	C1052.312256,535.134705 1048.123657,531.976868 1042.900146,532.696533 
	C1038.858765,533.253357 1036.081909,535.378906 1035.415894,539.570801 
	C1034.750854,543.756653 1035.907837,547.227295 1040.092407,549.010193 
	C1043.613770,550.510559 1047.264404,551.710449 1050.770874,553.242432 
	C1055.328369,555.233704 1059.201660,558.000671 1060.540161,563.639893 
z"/>
<path fill="#1062A3" opacity="1.000000" stroke="none" 
	d="
M34.031281,481.674011 
	C37.740780,481.562897 41.450279,481.451782 45.764526,481.830811 
	C48.796638,482.546844 51.248081,483.110413 53.647125,482.939301 
	C63.272099,482.252899 63.277405,487.149567 62.945805,493.519409 
	C62.494503,502.188629 62.300373,510.871582 62.043251,519.550049 
	C62.019432,520.353882 62.534386,521.186035 62.462448,521.974243 
	C61.977013,527.293152 64.489799,533.634583 57.269459,536.737610 
	C56.435184,537.096130 56.411045,539.339844 55.860512,540.986938 
	C51.574024,544.123413 47.438324,546.982544 43.241688,549.415161 
	C45.842381,543.867981 46.968746,538.547974 45.518024,532.807739 
	C45.297192,531.933960 45.836761,530.895813 45.843418,529.932434 
	C45.950554,514.432678 46.987450,498.880096 43.437870,482.997559 
	C40.220490,482.997559 37.111313,482.997559 34.002136,482.997559 
	C34.002136,482.997559 34.000000,483.000000 34.002823,482.778046 
	C34.012604,482.261993 34.021149,481.967957 34.031281,481.674011 
z"/>
<path fill="#125794" opacity="1.000000" stroke="none" 
	d="
M56.011292,540.709473 
	C56.411045,539.339844 56.435184,537.096130 57.269459,536.737610 
	C64.489799,533.634583 61.977013,527.293152 62.462448,521.974243 
	C62.534386,521.186035 62.019432,520.353882 62.043251,519.550049 
	C62.300373,510.871582 62.494503,502.188629 62.945805,493.519409 
	C63.277405,487.149567 63.272099,482.252899 53.647125,482.939301 
	C51.248081,483.110413 48.796638,482.546844 46.198982,481.998840 
	C53.397629,481.558655 60.766567,481.440613 68.720810,481.786560 
	C71.534027,482.034454 73.761948,481.818390 75.989868,481.602325 
	C76.759521,481.500244 77.529175,481.398163 78.663948,481.448364 
	C79.020645,485.144989 79.006927,488.689270 79.004868,492.233551 
	C79.000343,500.013641 78.784081,507.802917 79.110527,515.569214 
	C79.236610,518.568848 80.599518,521.516479 81.690163,525.570312 
	C79.968010,526.594177 77.521812,527.935608 75.205627,529.472961 
	C74.041077,530.245972 73.112747,531.374817 71.940849,532.949219 
	C71.518913,534.178040 71.233711,534.800415 70.948509,535.422729 
	C69.343102,536.757874 67.737686,538.093079 65.622597,539.689331 
	C64.417603,540.515686 63.722286,541.080933 63.026962,541.646240 
	C62.454716,542.295227 61.882484,542.944214 60.758362,543.919312 
	C59.086704,545.042664 57.966934,545.839905 56.847168,546.637085 
	C56.577820,545.808533 56.308475,544.979980 56.320282,544.017212 
	C56.505932,542.806396 59.521942,541.151062 56.011292,540.709473 
z"/>
<path fill="#383636" opacity="1.000000" stroke="none" 
	d="
M467.793213,505.174286 
	C471.294037,504.629425 474.393127,504.161682 477.797546,503.647858 
	C477.797546,507.753815 477.796967,511.340637 477.797638,514.927429 
	C477.800873,532.587524 477.883118,550.248291 477.749969,567.907349 
	C477.718506,572.078369 477.767120,575.651428 483.218048,575.914185 
	C484.311859,575.966919 485.380829,576.534790 486.461212,576.865234 
	C485.965729,577.677490 485.470245,578.489746 484.974762,579.302002 
	C477.255920,579.302002 469.536835,579.323303 461.818787,579.245789 
	C461.385681,579.241394 460.519196,578.243591 460.611694,578.015991 
	C460.939789,577.208740 461.573853,575.925232 462.132202,575.904480 
	C468.225037,575.677979 467.609558,571.144653 467.612305,567.294922 
	C467.624573,550.137207 467.588348,532.977417 467.259460,515.824341 
	C467.224335,513.991821 465.345306,512.046631 463.982147,510.442108 
	C463.136414,509.446564 461.650330,508.995056 460.566376,506.985291 
	C462.841431,506.407318 465.116486,505.829376 467.793213,505.174286 
z"/>
<path fill="#383636" opacity="1.000000" stroke="none" 
	d="
M491.457001,507.184235 
	C496.989075,505.630219 502.390991,504.407745 508.133636,503.108185 
	C508.133636,508.012482 508.135010,511.944855 508.133392,515.877258 
	C508.126129,533.180725 508.229309,550.485474 508.029114,567.786743 
	C507.981262,571.921814 508.329926,575.012329 513.299866,575.499390 
	C514.099609,575.577759 514.795837,576.712158 516.654175,578.326172 
	C507.074341,578.326172 499.007416,578.326172 490.940491,578.326172 
	C490.774567,577.971802 490.608643,577.617432 490.442719,577.263062 
	C491.324860,576.635742 492.151276,575.578735 493.098877,575.455750 
	C497.117218,574.934326 498.003479,572.675964 497.982300,568.907898 
	C497.889587,552.440613 497.972595,535.969849 498.244415,519.504517 
	C498.324921,514.630310 497.955048,510.525208 492.289764,509.123077 
	C491.862366,509.017303 491.642975,508.071228 491.457001,507.184235 
z"/>
<path fill="#3C3A39" opacity="1.000000" stroke="none" 
	d="
M851.479553,539.271606 
	C849.856262,540.853149 848.984497,541.595520 846.747559,539.954712 
	C844.914795,538.610413 841.239441,538.164001 839.223816,539.111877 
	C836.956787,540.178040 834.299072,543.162598 834.140442,545.472595 
	C833.548645,554.095154 833.742310,562.789734 834.076843,571.440491 
	C834.134460,572.931030 836.092102,574.660400 837.582031,575.681030 
	C838.697937,576.445496 840.527649,576.079590 841.934448,576.538879 
	C842.882202,576.848267 843.646851,577.718445 844.493408,578.337769 
	C843.619385,578.862854 842.752319,579.829712 841.870178,579.843628 
	C834.208252,579.964905 826.542786,579.969482 818.881165,579.840393 
	C818.018677,579.825867 817.173828,578.768188 816.320801,578.194214 
	C816.984985,577.570740 817.613464,576.453613 818.318970,576.402771 
	C823.542236,576.025757 823.558533,572.576843 823.449158,568.620178 
	C823.260376,561.794556 823.449036,554.959473 823.383911,548.129211 
	C823.327026,542.171326 825.538574,535.100220 815.453186,533.466919 
	C821.527405,529.931824 827.254333,529.372986 833.331482,528.750916 
	C833.746460,530.888245 834.105652,532.738342 834.648560,535.534729 
	C836.220947,534.316772 837.213989,533.400330 838.343140,532.704834 
	C840.440308,531.413147 842.584045,529.345276 844.768799,529.265869 
	C847.422058,529.169739 850.838318,530.124756 852.565735,531.927185 
	C853.613892,533.020813 852.092346,536.577209 851.479553,539.271606 
z"/>
<path fill="#393737" opacity="1.000000" stroke="none" 
	d="
M588.770874,530.397095 
	C590.077087,530.393738 590.912415,530.352783 591.743103,530.398499 
	C593.611572,530.501221 596.414490,529.774170 595.741821,532.984436 
	C595.510498,534.088440 593.162903,535.301941 591.667542,535.474731 
	C588.410706,535.851135 585.080322,535.590942 581.256226,535.590942 
	C581.256226,546.672485 581.025940,557.269653 581.366577,567.848450 
	C581.507935,572.238892 585.030945,574.462097 590.068726,573.823486 
	C592.781189,573.479614 595.378052,572.223145 598.143250,571.341431 
	C598.183105,571.386230 598.617126,571.695984 598.567627,571.844055 
	C596.611084,577.698914 589.996948,581.121582 582.308899,580.297302 
	C575.891968,579.609314 571.751160,575.837402 571.459961,569.324402 
	C571.050842,560.176575 571.245422,551.001709 571.186523,541.838379 
	C571.174988,540.043396 571.184875,538.248352 571.184875,536.273743 
	C569.241028,536.000916 566.984924,536.254395 566.554565,535.485779 
	C565.958374,534.420837 566.419434,531.412231 566.972107,531.263794 
	C572.878052,529.678467 573.739685,524.465698 575.814697,519.998657 
	C576.519043,518.482300 578.211792,517.425049 579.452881,516.158081 
	C580.009338,517.681946 580.912537,519.175842 581.047668,520.736206 
	C581.304504,523.702820 581.122131,526.707520 581.122131,530.398743 
	C583.742188,530.398743 586.020081,530.398743 588.770874,530.397095 
z"/>
<path fill="#373535" opacity="1.000000" stroke="none" 
	d="
M412.179596,531.487549 
	C412.786041,534.638733 411.746796,535.798096 408.806030,535.630249 
	C405.191742,535.423889 401.556732,535.580933 397.507782,535.580933 
	C397.507782,546.559570 397.204163,557.009338 397.628998,567.429443 
	C397.859955,573.094055 403.813141,575.599792 409.855713,573.149231 
	C411.349060,572.543579 412.735748,571.674927 414.297852,570.861328 
	C414.607391,571.559998 415.067627,572.100098 414.943634,572.392822 
	C412.511169,578.136414 404.907684,581.419250 397.540802,579.968201 
	C391.022888,578.684448 387.739441,574.674622 387.678986,567.539551 
	C387.591675,557.228882 387.656647,546.916992 387.656647,536.349792 
	C386.229492,536.128113 385.090149,536.087280 384.048950,535.746460 
	C383.215302,535.473572 381.901031,534.878967 381.863556,534.351501 
	C381.794098,533.374634 382.316864,531.597656 382.915466,531.448547 
	C388.998840,529.933350 390.183624,524.760315 392.147705,519.977356 
	C392.760223,518.485779 394.593323,517.495361 395.867645,516.275574 
	C396.367218,517.848083 397.172241,519.396179 397.299896,520.998352 
	C397.533356,523.928589 397.366333,526.890808 397.366333,529.917480 
	C402.612976,530.347900 407.330933,530.734985 412.179596,531.487549 
z"/>
<path fill="#185891" opacity="1.000000" stroke="none" 
	d="
M76.177322,538.915588 
	C80.993759,540.700745 82.790497,544.294922 82.332947,548.709778 
	C81.847229,553.396484 82.139702,558.158630 81.925842,562.880249 
	C81.754272,566.668213 81.267715,570.440918 81.038483,574.227539 
	C80.643806,580.746826 80.048782,587.274048 80.101349,593.793335 
	C80.136528,598.156372 78.315361,599.355835 74.397728,599.038513 
	C71.919067,598.837769 69.410973,599.000427 66.455162,598.566284 
	C68.427681,581.319946 67.927788,562.522766 63.877007,558.403259 
	C65.116425,564.032959 65.805168,568.957520 58.622768,567.995911 
	C61.926750,556.880920 68.310547,547.601868 76.177322,538.915588 
z"/>
<path fill="#383636" opacity="1.000000" stroke="none" 
	d="
M608.219971,547.045532 
	C608.270569,545.224304 608.198181,543.876038 608.394165,542.567993 
	C609.023926,538.363586 607.719360,535.464172 603.359131,534.241333 
	C602.392029,533.970154 601.605164,533.055908 600.735291,532.437805 
	C600.709167,531.883850 600.683105,531.329895 600.656982,530.775940 
	C605.856995,529.753418 611.040405,528.606323 616.283630,527.908081 
	C616.788025,527.840881 618.256226,530.556335 618.274475,531.992737 
	C618.431091,544.307495 618.454651,556.626526 618.289490,568.941101 
	C618.241882,572.487854 618.520874,575.181396 622.886963,575.546204 
	C623.722900,575.616089 624.460938,576.857117 625.244141,577.557861 
	C624.353455,578.072998 623.472046,579.014771 622.570435,579.034546 
	C616.248535,579.173096 609.921387,579.177979 603.598633,579.068848 
	C602.656799,579.052612 601.729126,578.213867 600.794922,577.755615 
	C601.514587,577.029602 602.194519,575.723694 602.960266,575.671204 
	C608.090088,575.319763 608.390442,572.078796 608.258606,568.007385 
	C608.037903,561.190613 608.211914,554.361023 608.219971,547.045532 
z"/>
<path fill="#3C3A39" opacity="1.000000" stroke="none" 
	d="
M944.041199,529.977905 
	C950.903381,532.193237 954.451721,537.103760 954.566589,544.997131 
	C954.687683,553.323303 954.729248,561.655457 954.538574,569.978943 
	C954.455750,573.594604 954.978455,576.160828 959.255554,576.604553 
	C960.310303,576.713989 961.242188,578.007202 962.230591,578.756287 
	C962.074280,579.292786 961.918030,579.829285 961.761719,580.365784 
	C954.204590,580.365784 946.646790,580.409363 939.091553,580.289551 
	C938.431824,580.279114 937.789001,579.195496 937.138306,578.610352 
	C937.775635,577.945618 938.395447,576.724121 939.053101,576.703369 
	C944.890808,576.518982 944.848450,572.713806 944.700623,568.391296 
	C944.455933,561.237488 944.557617,554.071838 944.925171,546.438843 
	C945.842651,545.317200 946.348328,544.667908 946.854004,544.018677 
	C946.043579,543.963074 945.233093,543.907532 944.422607,543.851929 
	C943.574768,542.034241 942.726929,540.216553 941.936157,537.707520 
	C942.854065,534.721985 948.276917,533.755066 944.041199,529.977905 
z"/>
<path fill="#2779AE" opacity="1.000000" stroke="none" 
	d="
M56.039131,544.151428 
	C56.308475,544.979980 56.577820,545.808533 56.847168,546.637085 
	C57.966934,545.839905 59.086704,545.042664 60.504745,544.124084 
	C57.294796,548.968323 53.684795,553.865662 50.299248,558.913513 
	C42.881222,569.973877 38.075558,582.179199 36.224785,595.300964 
	C35.402016,601.134277 32.708450,601.446411 27.487274,600.110596 
	C28.421057,595.634094 28.799444,590.965759 30.397682,586.761230 
	C33.579647,578.390320 37.432339,570.274353 41.344742,561.575073 
	C41.807545,560.741089 41.933552,560.385193 42.059563,560.029297 
	C43.290512,558.356567 44.521454,556.683838 46.145760,554.565430 
	C49.705791,550.796936 52.872463,547.474182 56.039131,544.151428 
z"/>
<path fill="#1062A3" opacity="1.000000" stroke="none" 
	d="
M58.363556,568.276123 
	C65.805168,568.957520 65.116425,564.032959 63.877007,558.403259 
	C67.927788,562.522766 68.427681,581.319946 65.990540,598.560181 
	C65.986824,598.987793 65.491425,598.990967 64.782501,598.990295 
	C54.740379,598.998962 54.746315,598.998474 53.940498,589.504150 
	C53.901398,589.043457 53.599373,588.604980 53.419785,588.156189 
	C54.981304,581.622925 56.542824,575.089661 58.363556,568.276123 
z"/>
<path fill="#1E376C" opacity="1.000000" stroke="none" 
	d="
M127.585220,481.416138 
	C129.864059,482.323700 131.692978,483.084351 134.503662,484.253357 
	C127.528397,488.837250 129.199814,496.235260 127.641495,503.389374 
	C115.549324,506.619537 115.549324,506.619537 111.751060,497.149658 
	C112.962448,495.786316 114.457672,494.482452 114.436447,493.203735 
	C114.384048,490.047211 113.636223,486.902222 113.158852,483.691498 
	C110.340912,483.044647 107.191635,482.321716 104.042351,481.598785 
	C111.740005,481.488953 119.437653,481.379120 127.585220,481.416138 
z"/>
<path fill="#1A4077" opacity="1.000000" stroke="none" 
	d="
M103.615448,481.447876 
	C107.191635,482.321716 110.340912,483.044647 113.158852,483.691498 
	C113.636223,486.902222 114.384048,490.047211 114.436447,493.203735 
	C114.457672,494.482452 112.962448,495.786316 111.496826,496.946350 
	C110.130089,497.559204 108.940712,498.219055 108.791664,499.062714 
	C107.168999,508.247711 107.213959,508.258759 97.969246,509.941223 
	C97.319412,510.059479 96.651802,510.080048 95.992455,510.146057 
	C98.674408,507.268707 99.297424,504.628418 97.363289,500.574768 
	C95.895432,497.498322 96.856895,493.281830 96.651161,489.577393 
	C96.516930,487.160492 96.228317,484.752167 96.000992,481.962189 
	C98.391602,481.488586 100.790077,481.392792 103.615448,481.447876 
z"/>
<path fill="#383636" opacity="1.000000" stroke="none" 
	d="
M607.248901,508.143860 
	C609.345947,504.243805 612.225525,502.744263 616.009216,504.686554 
	C619.687378,506.574738 620.871399,510.208282 618.812744,513.444092 
	C617.537903,515.447876 614.009888,517.429504 611.801697,517.131958 
	C607.320251,516.528259 605.995422,512.834412 607.248901,508.143860 
z"/>
<path fill="#E6ECF1" opacity="1.000000" stroke="none" 
	d="
M56.320282,544.017212 
	C52.872463,547.474182 49.705791,550.796936 46.271637,554.233032 
	C42.101925,551.540161 40.515614,555.829590 37.573479,557.046265 
	C37.229702,556.934204 37.220123,556.764709 37.473358,556.174011 
	C39.112621,554.251526 40.489071,552.750244 42.205479,551.142700 
	C42.783409,550.640381 43.021378,550.244324 43.264648,549.830566 
	C43.269951,549.812744 43.302616,549.841614 43.302620,549.841614 
	C47.438324,546.982544 51.574024,544.123413 55.860508,540.986938 
	C59.521942,541.151062 56.505932,542.806396 56.320282,544.017212 
z"/>
<path fill="#373535" opacity="1.000000" stroke="none" 
	d="
M943.718689,529.753967 
	C948.276917,533.755066 942.854065,534.721985 941.843079,537.378052 
	C941.536255,537.679932 941.379639,537.619995 941.115967,537.332397 
	C939.256775,536.101135 937.372620,535.266724 935.796570,534.037476 
	C934.652344,533.144897 933.915710,531.729858 932.995667,530.188232 
	C933.464233,529.652588 933.934509,529.476562 935.069458,529.556763 
	C937.773743,529.687073 939.813293,529.561096 941.852905,529.435120 
	C942.367310,529.466797 942.881775,529.498413 943.718689,529.753967 
z"/>
<path fill="#185891" opacity="1.000000" stroke="none" 
	d="
M53.204472,588.478760 
	C53.599373,588.604980 53.901398,589.043457 53.940498,589.504150 
	C54.746315,598.998474 54.740379,598.998962 64.534805,598.991577 
	C65.001907,599.258057 65.014992,599.522156 65.044113,599.983948 
	C60.799236,600.181946 56.545532,600.181946 51.522549,600.181946 
	C52.034447,596.209717 52.511803,592.505554 53.204472,588.478760 
z"/>
<path fill="#0C6CAD" opacity="1.000000" stroke="none" 
	d="
M33.611443,481.506927 
	C34.021149,481.967957 34.012604,482.261993 34.003967,482.776794 
	C31.448387,482.754913 28.894485,482.512299 26.188648,481.950043 
	C28.421679,481.533539 30.806643,481.436707 33.611443,481.506927 
z"/>
<path fill="#3C3A39" opacity="1.000000" stroke="none" 
	d="
M941.566345,529.242188 
	C939.813293,529.561096 937.773743,529.687073 935.447571,529.619324 
	C937.200623,529.300171 939.240173,529.174744 941.566345,529.242188 
z"/>
<path fill="#184B84" opacity="1.000000" stroke="none" 
	d="
M75.571945,481.457092 
	C73.761948,481.818390 71.534027,482.034454 69.164528,481.944885 
	C71.066635,481.530121 73.110329,481.420990 75.571945,481.457092 
z"/>
<path fill="#E6ECF1" opacity="1.000000" stroke="none" 
	d="
M34.082626,561.865967 
	C34.640469,560.391541 35.557560,558.912170 36.793411,557.331787 
	C36.222076,558.774170 35.331974,560.317627 34.082626,561.865967 
z"/>
<path fill="#373535" opacity="1.000000" stroke="none" 
	d="
M944.372192,544.220215 
	C945.233093,543.907532 946.043579,543.963074 946.854004,544.018677 
	C946.348328,544.667908 945.842651,545.317200 945.037476,545.985535 
	C944.599243,545.532532 944.460449,545.060486 944.372192,544.220215 
z"/>
<path fill="#2779AE" opacity="1.000000" stroke="none" 
	d="
M71.236298,535.411987 
	C71.233711,534.800415 71.518913,534.178040 71.902023,533.315430 
	C72.448311,533.043335 72.896667,533.011475 73.679199,533.017029 
	C73.183609,533.836670 72.353844,534.618958 71.236298,535.411987 
z"/>
<path fill="#2779AE" opacity="1.000000" stroke="none" 
	d="
M63.320255,541.640503 
	C63.722286,541.080933 64.417603,540.515686 65.397758,539.956482 
	C64.992912,540.519958 64.303223,541.077332 63.320255,541.640503 
z"/>
<path fill="#E6ECF1" opacity="1.000000" stroke="none" 
	d="
M41.798050,560.169189 
	C41.933552,560.385193 41.807545,560.741089 41.434040,561.250488 
	C41.303211,561.039001 41.419876,560.674072 41.798050,560.169189 
z"/>
<path fill="#1E376C" opacity="1.000000" stroke="none" 
	d="
M139.341019,600.158997 
	C139.186478,599.862976 139.356598,599.565491 139.757416,599.145264 
	C139.880646,599.400879 139.773163,599.779175 139.341019,600.158997 
z"/>
<path fill="#F2F1F2" opacity="1.000000" stroke="none" 
	d="
M872.859924,558.586792 
	C876.814453,557.353210 880.408264,556.267090 884.746582,554.955933 
	C884.746582,560.260559 885.181213,564.846985 884.599182,569.300476 
	C884.186829,572.455811 877.287659,575.518921 872.866821,575.186401 
	C869.036011,574.898193 866.155640,573.259399 865.421082,569.185913 
	C864.548523,564.347778 866.947327,561.299194 871.144836,559.354126 
	C871.595276,559.145386 872.047668,558.940796 872.859924,558.586792 
z"/>
<path fill="#383636" opacity="1.000000" stroke="none" 
	d="
M893.984253,547.996094 
	C893.907715,549.360901 893.831238,550.333923 893.634155,552.841064 
	C891.343628,550.757935 889.829895,549.381287 888.316162,548.004639 
	C889.725464,546.624329 891.134766,545.244080 893.306885,543.116699 
	C893.662903,545.475525 893.823608,546.539917 893.984253,547.996094 
z"/>
<path fill="#E6ECF1" opacity="1.000000" stroke="none" 
	d="
M95.894821,510.363586 
	C96.651802,510.080048 97.319412,510.059479 97.969246,509.941223 
	C107.213959,508.258759 107.168999,508.247711 108.791664,499.062714 
	C108.940712,498.219055 110.130089,497.559204 111.090614,497.017303 
	C115.549324,506.619537 115.549324,506.619537 127.628494,503.861389 
	C126.639748,505.751434 125.690407,508.212219 123.921860,509.697723 
	C120.533127,512.544128 120.599983,515.160034 122.969040,518.522156 
	C124.334770,520.460388 125.148087,522.787964 126.087524,525.148865 
	C124.929848,524.857910 123.905136,524.335266 122.857925,523.862488 
	C114.360725,520.026428 114.359428,520.029297 107.961243,527.621277 
	C106.916855,527.709351 105.428024,527.726501 105.183388,527.183289 
	C104.759880,526.242981 104.735886,524.772949 105.192245,523.843079 
	C108.094681,517.929199 104.690598,515.484863 99.520798,513.557373 
	C98.048683,512.455688 96.922935,511.518402 95.894821,510.363586 
z"/>
<path fill="#F9F8F8" opacity="1.000000" stroke="none" 
	d="
M798.821899,564.543213 
	C796.074158,575.222351 787.863586,578.686584 774.397827,574.978943 
	C774.397827,566.374634 774.397827,557.661133 774.397827,548.933472 
	C787.321045,544.799683 798.839417,551.940430 798.821899,564.543213 
z"/>
<path fill="#F9F8F8" opacity="1.000000" stroke="none" 
	d="
M796.899902,529.338867 
	C796.668518,541.722351 788.951721,546.523926 774.065063,543.509583 
	C774.065063,536.188293 774.006226,528.735291 774.144348,521.286011 
	C774.160400,520.417725 775.078308,519.121826 775.894226,518.781189 
	C784.273865,515.282166 794.770935,520.426025 796.899902,529.338867 
z"/>
<path fill="#F9F8F8" opacity="1.000000" stroke="none" 
	d="
M975.652344,563.747437 
	C973.691467,556.376892 973.747559,549.498047 976.911438,542.890869 
	C979.468628,537.550659 983.647888,534.306641 989.695557,533.855103 
	C997.808167,533.249390 1000.426270,535.653870 1000.429871,543.613464 
	C1000.433350,551.266541 1000.640259,558.929016 1000.292542,566.566162 
	C1000.204834,568.492737 998.796143,570.965576 997.214783,572.114258 
	C989.775085,577.518677 977.894897,572.668335 975.652344,563.747437 
z"/>
<path fill="#F2F1F2" opacity="1.000000" stroke="none" 
	d="
M529.527954,570.068848 
	C528.251770,563.545349 529.614319,560.740723 535.117920,558.105286 
	C536.458069,557.463562 537.892944,556.994080 539.320435,556.565674 
	C542.144226,555.718567 544.993103,554.955261 547.813782,554.162354 
	C550.481201,563.479797 549.201477,569.295593 544.061157,572.204712 
	C538.637939,575.273926 533.805969,574.679382 529.527954,570.068848 
z"/>
<path fill="#F9F8F8" opacity="1.000000" stroke="none" 
	d="
M235.582581,554.903564 
	C236.639709,549.285278 237.184830,543.946350 238.940033,539.040283 
	C240.546280,534.550598 244.522659,532.108154 249.514008,532.064514 
	C254.497314,532.020935 258.170685,534.487000 260.354706,538.780701 
	C265.510101,548.916016 265.550262,559.421753 260.685333,569.504395 
	C256.425262,578.333374 245.073654,578.864380 240.188156,570.398499 
	C237.637451,565.978516 237.064316,560.417297 235.582581,554.903564 
z"/>
<path fill="#0C6CAD" opacity="1.000000" stroke="none" 
	d="
M43.241684,549.415161 
	C43.302616,549.841614 43.269951,549.812744 42.970016,549.998718 
	C42.401897,550.539429 42.133713,550.894165 41.865524,551.248901 
	C40.489071,552.750244 39.112621,554.251526 37.473732,555.919373 
	C35.806942,550.597839 33.847252,545.178955 33.153381,539.602539 
	C32.449959,533.949341 32.869740,528.136902 33.029190,522.400696 
	C33.227112,515.280518 33.767689,508.169922 33.962959,501.049774 
	C34.120205,495.316071 33.984234,489.574310 33.990246,483.416840 
	C37.111313,482.997559 40.220490,482.997559 43.437870,482.997559 
	C46.987450,498.880096 45.950554,514.432678 45.843418,529.932434 
	C45.836761,530.895813 45.297192,531.933960 45.518024,532.807739 
	C46.968746,538.547974 45.842381,543.867981 43.241684,549.415161 
z"/>
<path fill="#F9F8F8" opacity="1.000000" stroke="none" 
	d="
M639.974792,540.353943 
	C642.694763,535.030884 646.502991,531.604980 652.332092,532.112366 
	C658.446899,532.644531 662.164856,536.665894 664.104675,542.264160 
	C666.990845,550.593750 666.694946,559.019958 663.880249,567.259338 
	C662.165833,572.277954 658.698853,575.858521 653.041260,576.321533 
	C647.291321,576.792114 643.553589,573.535828 641.121643,568.831543 
	C636.408813,559.715210 636.682068,550.248596 639.974792,540.353943 
z"/>
<path fill="#F2F1F2" opacity="1.000000" stroke="none" 
	d="
M432.190887,533.970825 
	C441.251678,529.864258 447.930878,533.495972 447.614105,542.170105 
	C447.568542,543.417725 445.905487,545.603943 444.902344,545.656250 
	C438.682831,545.980591 432.437958,545.819397 425.839233,545.819397 
	C426.085144,541.108398 428.118896,537.231384 432.190887,533.970825 
z"/>
<path fill="#1062A3" opacity="1.000000" stroke="none" 
	d="
M42.205482,551.142700 
	C42.133713,550.894165 42.401897,550.539429 42.964714,550.016479 
	C43.021378,550.244324 42.783409,550.640381 42.205482,551.142700 
z"/>
</svg>