<svg version="1.1" id="Layer_1" xmlns="http://www.w3.org/2000/svg" xmlns:xlink="http://www.w3.org/1999/xlink" x="0px" y="0px"
	 width="100%" viewBox="0 0 1080 1080" enable-background="new 0 0 1080 1080" xml:space="preserve">
<path fill="#FFFFFF" opacity="1.000000" stroke="none" 
	d="
M575.000000,1081.000000 
	C383.355408,1081.000000 192.210785,1081.000000 1.066180,1081.000000 
	C1.044121,1080.855469 1.002723,1080.710815 1.002722,1080.566284 
	C0.999993,720.774475 1.000000,360.982635 1.000000,1.095402 
	C360.894836,1.095402 720.789673,1.095402 1080.842285,1.095402 
	C1080.842285,360.999939 1080.842285,720.999939 1080.842285,1081.000000 
	C912.460022,1081.000000 743.980042,1081.000000 575.000000,1081.000000 
M362.458618,632.827209 
	C362.644379,632.551331 362.830139,632.275513 363.705994,631.940735 
	C367.491760,627.965332 371.277527,623.989929 375.657227,619.720703 
	C379.112946,614.824524 382.568665,609.928406 386.630981,604.706360 
	C390.425140,596.138367 394.219269,587.570435 398.566589,578.535767 
	C404.295013,563.645203 404.883667,548.034790 403.732300,532.497986 
	C403.190430,525.185913 401.066467,517.604675 395.393158,511.877960 
	C384.751740,501.136383 374.213013,490.292694 363.521912,479.601135 
	C362.327667,478.406830 360.423523,477.922333 358.959442,477.029419 
	C358.959442,477.029419 358.886841,477.144745 358.949615,476.384827 
	C357.681671,475.238983 356.413757,474.093109 354.552521,472.632507 
	C351.333405,469.504730 348.114258,466.376984 344.903412,462.527466 
	C343.840851,461.092255 342.934998,459.501740 341.690887,458.246429 
	C331.862396,448.329285 322.271667,438.143433 311.950104,428.764008 
	C307.714661,424.915161 302.141266,422.041382 296.683472,420.137390 
	C284.939392,416.040466 272.765594,417.659180 260.849731,419.696289 
	C254.444427,420.791351 248.258057,423.166962 241.198563,424.999023 
	C233.457230,428.657562 225.715912,432.316132 217.279053,436.072418 
	C211.519165,440.380951 205.759277,444.689453 199.397263,449.281006 
	C196.247757,452.498749 193.098251,455.716492 189.363068,459.260132 
	C186.562912,462.688049 183.311493,465.845367 181.058853,469.601654 
	C176.703415,476.864319 172.911026,484.464600 168.398392,492.417206 
	C165.639191,502.291107 162.879990,512.165039 159.922501,522.834473 
	C156.904816,541.584900 158.060150,560.005066 164.302734,578.750244 
	C178.510483,619.235535 205.647247,646.377380 247.647369,659.256470 
	C258.746796,660.770691 269.846222,662.284851 281.871307,663.973206 
	C303.872101,664.143372 324.239868,658.482239 343.661316,646.944763 
	C348.507050,643.308167 353.352753,639.671509 358.670807,635.827209 
	C359.108704,635.559570 359.546600,635.291870 360.618958,634.939697 
	C361.098816,634.299255 361.578674,633.658875 362.005463,632.995178 
	C362.005463,632.995178 362.004333,633.053101 362.458618,632.827209 
M934.366333,523.073303 
	C933.752625,523.866394 932.484497,525.174622 932.635193,525.365967 
	C933.406677,526.346191 934.543823,527.038635 935.553162,527.831665 
	C936.050781,527.088928 936.548340,526.346191 937.266541,525.205505 
	C937.434082,524.781616 937.601685,524.357727 938.344971,523.988647 
	C938.537659,523.996155 938.730286,524.003601 939.238342,524.473999 
	C939.493958,524.971558 939.749573,525.469116 940.109558,526.663269 
	C942.606384,527.667358 945.422241,525.542053 946.013672,522.464905 
	C946.961853,517.531433 943.682739,514.915161 940.174255,513.463196 
	C935.916138,511.700897 933.778687,515.518311 930.944580,518.671021 
	C932.783081,518.815308 933.914062,518.904053 935.163452,519.790344 
	C935.124023,520.862183 935.084595,521.934082 934.366333,523.073303 
M860.921082,574.427307 
	C860.921082,577.008667 860.921082,579.590088 860.921082,582.178955 
	C866.963928,582.178955 872.226257,582.178955 877.777954,582.178955 
	C877.777954,568.674011 877.777954,555.480042 877.777954,540.850037 
	C879.090454,542.909180 879.701538,543.803223 880.248169,544.735168 
	C886.900330,556.077881 893.502930,567.450134 900.237671,578.743530 
	C901.098938,580.187805 902.557129,582.180908 903.872742,582.289124 
	C908.932800,582.705078 914.047302,582.457703 919.183533,582.457703 
	C919.183533,558.936462 919.183533,536.173462 919.183533,513.277283 
	C913.614807,513.277283 908.352478,513.277283 902.915283,513.277283 
	C902.915283,527.196106 902.915283,540.877319 902.915283,555.736084 
	C901.612854,553.740601 900.885010,552.732788 900.266602,551.661682 
	C893.525146,539.985657 886.859863,528.264771 879.999817,516.659058 
	C879.111511,515.156372 877.324829,513.349365 875.810913,513.206848 
	C871.068481,512.760315 866.257446,513.042725 860.921936,513.042725 
	C860.921936,533.538452 860.921936,553.491577 860.921082,574.427307 
M599.185303,557.984009 
	C601.008484,559.001038 603.548096,559.565369 604.527527,561.115479 
	C608.253113,567.012268 611.425171,573.256165 614.927063,579.299072 
	C615.620544,580.495728 616.814758,582.212708 617.850830,582.265625 
	C623.546204,582.556396 629.264160,582.404419 635.818909,582.404419 
	C632.771484,577.097534 630.299438,572.789001 627.823730,568.482544 
	C625.294312,564.082886 622.761230,559.685364 620.777588,556.238708 
	C624.788513,552.399536 629.090027,549.684998 631.429260,545.791443 
	C639.900269,531.691711 629.754028,514.253723 612.545532,513.279114 
	C602.253418,512.696289 591.906250,513.081482 581.583862,513.035889 
	C579.330688,513.025879 577.077454,513.034424 574.760864,513.034424 
	C574.760864,536.515076 574.760864,559.248169 574.760864,582.213074 
	C580.598083,582.213074 586.126587,582.213074 592.051514,582.213074 
	C592.051514,574.055054 592.051514,566.283325 592.051514,557.983704 
	C594.392456,557.983704 596.340210,557.983704 599.185303,557.984009 
M800.916626,559.204529 
	C800.269531,553.813782 798.831482,548.378174 799.134094,543.041321 
	C799.842590,530.545898 808.544434,523.018799 820.035339,525.398071 
	C825.008240,526.427795 829.395996,530.283569 835.209412,533.496704 
	C837.900635,531.868469 842.062134,529.350830 846.246948,526.818970 
	C833.869141,508.379028 807.091797,504.958984 792.250244,519.885742 
	C781.124268,531.075500 779.379639,544.966980 782.997131,559.775085 
	C786.831909,575.472717 798.486267,584.805237 814.516113,583.801086 
	C820.795959,583.407715 826.906738,580.313660 833.001282,578.477661 
	C833.111572,579.153992 833.366150,580.714722 833.584839,582.055725 
	C838.224304,582.055725 842.437134,582.055725 846.550537,582.055725 
	C846.550537,569.203857 846.550537,556.794434 846.550537,544.290649 
	C836.452148,544.290649 826.705566,544.290649 816.837341,544.290649 
	C816.837341,548.609436 816.837341,552.658875 816.837341,557.010986 
	C822.014099,557.010986 826.817993,557.010986 831.816895,557.010986 
	C831.919312,562.612549 829.115845,566.004272 824.718811,568.294739 
	C817.039795,572.294739 805.207153,569.774780 800.916626,559.204529 
M719.393738,513.058960 
	C710.122742,510.265625 700.960938,510.441956 692.107483,514.516663 
	C682.940796,518.735413 678.443420,526.967651 679.602295,536.799377 
	C680.562134,544.942200 686.589294,550.933350 696.297424,552.980042 
	C701.987000,554.179626 707.781067,554.875671 713.495728,555.967590 
	C717.281616,556.690979 721.586304,557.398926 721.407654,562.549561 
	C721.236450,567.485107 717.147217,568.869141 713.184265,569.930420 
	C711.921204,570.268677 710.540222,570.210815 709.210693,570.249573 
	C701.123169,570.485840 694.444824,567.132568 688.681580,561.760254 
	C684.260071,564.604736 680.133850,567.259277 675.999390,569.919067 
	C688.161682,587.274536 716.113647,586.624146 727.825806,579.569336 
	C735.862488,574.728455 740.353943,565.729248 738.789246,556.644287 
	C737.257874,547.752625 731.168274,543.443176 722.721008,541.856628 
	C715.704773,540.538879 708.633484,539.427490 701.726318,537.674072 
	C699.905029,537.211792 697.604736,534.862854 697.336670,533.104065 
	C697.061951,531.301636 698.552429,528.006409 700.076843,527.403320 
	C703.454712,526.067017 707.634827,524.847046 710.946960,525.694214 
	C716.221863,527.043274 721.055786,530.116272 726.738037,532.769226 
	C729.926208,530.443115 733.898682,527.544739 739.297607,523.605591 
	C732.279419,519.800964 726.226807,516.519775 719.393738,513.058960 
M543.491394,539.101440 
	C537.547119,539.101440 531.602905,539.101440 525.582458,539.101440 
	C525.582458,534.678528 525.582458,530.830017 525.582458,526.527771 
	C536.936523,526.527771 547.863281,526.527771 558.998779,526.527771 
	C558.998779,521.832458 558.998779,517.602234 558.998779,513.309692 
	C541.916382,513.309692 525.167847,513.309692 508.288452,513.309692 
	C508.288452,536.443115 508.288452,559.295471 508.288452,582.097595 
	C526.512207,582.097595 544.378479,582.097595 562.256470,582.097595 
	C562.256470,577.531311 562.256470,573.422546 562.256470,568.783813 
	C549.902344,568.783813 537.825317,568.783813 525.603882,568.783813 
	C525.603882,563.073486 525.603882,557.903503 525.603882,552.212036 
	C536.291687,552.212036 546.534119,552.212036 556.747375,552.212036 
	C556.747375,547.604248 556.747375,543.537537 556.747375,539.101562 
	C552.423706,539.101562 548.455444,539.101562 543.491394,539.101440 
M480.267059,575.945679 
	C487.520905,555.153137 494.774719,534.360596 502.142151,513.242432 
	C500.167419,513.153442 498.850677,513.052246 497.533234,513.041199 
	C483.518890,512.923584 483.590637,512.947754 479.773346,526.467041 
	C476.554016,537.868591 473.142365,549.215759 469.482025,561.728149 
	C468.669037,559.330017 468.207703,558.115662 467.843628,556.872742 
	C463.875458,543.325623 459.972778,529.758789 455.881866,516.249023 
	C455.503510,514.999451 454.005707,513.253906 452.939484,513.189087 
	C447.715302,512.871399 442.461273,513.045044 436.803925,513.045044 
	C437.177826,514.533142 437.318237,515.327026 437.575409,516.081055 
	C443.847717,534.472534 450.079193,552.878174 456.434448,571.241028 
	C460.344452,582.538513 460.440155,582.232910 472.260986,582.630005 
	C477.049377,582.790894 479.433319,581.292175 480.267059,575.945679 
M664.672241,554.500000 
	C664.672241,540.765747 664.672241,527.031494 664.672241,513.350220 
	C658.400024,513.350220 652.980713,513.350220 647.338562,513.350220 
	C647.338562,536.410950 647.338562,559.151917 647.338562,582.174194 
	C653.089783,582.174194 658.650879,582.174194 664.671875,582.174194 
	C664.671875,573.078552 664.671875,564.289246 664.672241,554.500000 
M769.424561,518.772583 
	C769.424561,516.982239 769.424561,515.191895 769.424561,513.341187 
	C763.356506,513.341187 757.936523,513.341187 752.281738,513.341187 
	C752.281738,536.404663 752.281738,559.157349 752.281738,582.073120 
	C758.038147,582.073120 763.574219,582.073120 769.423889,582.073120 
	C769.423889,561.012939 769.423889,540.366333 769.424561,518.772583 
z"/>
<path fill="#0164A4" opacity="1.000000" stroke="none" 
	d="
M344.895142,463.249207 
	C348.114258,466.376984 351.333405,469.504730 354.950928,473.090790 
	C356.528534,474.747620 357.707672,475.946198 358.886841,477.144745 
	C358.886841,477.144745 358.959442,477.029419 359.001648,477.397278 
	C378.895538,503.027100 385.294250,531.481018 379.100708,563.201050 
	C376.173828,571.295166 373.387146,579.077515 370.351074,587.072021 
	C366.305267,593.158997 362.508850,599.033813 358.419556,605.051086 
	C350.103638,614.714905 340.457123,622.294617 329.546143,628.849121 
	C320.732330,632.163269 312.277191,635.419312 303.398499,638.711304 
	C297.239777,639.459900 291.520935,640.578125 285.766418,640.809448 
	C268.426025,641.506226 251.840988,638.035278 235.900330,630.562744 
	C234.681351,629.507385 233.637329,628.687561 232.497147,628.035950 
	C210.846161,615.662720 196.005692,597.562805 187.212189,574.341553 
	C186.639740,572.829895 185.718552,571.450195 185.028595,569.587280 
	C183.914886,557.412231 182.732193,545.659058 181.648178,533.481812 
	C182.648193,527.654785 183.359680,522.211792 184.488785,516.856873 
	C187.170654,504.137817 193.616959,493.064514 200.285980,481.753571 
	C206.019241,475.667114 211.576355,469.858368 217.445435,463.926025 
	C223.233215,460.092072 228.708984,456.381714 234.538528,452.540833 
	C242.939545,449.318146 250.986801,446.225952 259.465271,443.117065 
	C275.626465,440.083588 291.268494,440.159729 306.853577,444.181396 
	C320.919891,447.811157 333.301392,454.725739 344.895142,463.249207 
M282.287018,536.308838 
	C276.419220,526.259705 270.048889,516.461670 264.858246,506.074158 
	C261.330292,499.013947 256.938721,496.511230 249.051208,497.066833 
	C237.703400,497.866119 226.257370,497.270935 213.933456,497.270935 
	C236.651093,536.627686 258.885498,575.147278 281.491180,614.310059 
	C288.626648,601.965759 295.305298,590.136780 302.303040,578.499756 
	C304.045868,575.601501 303.763550,573.563843 302.141937,570.850891 
	C296.087128,560.720947 290.234100,550.469604 284.385162,540.218323 
	C283.650238,538.930176 283.390381,537.370911 283.862000,535.857788 
	C297.516724,535.868286 311.172607,535.786743 324.825195,535.962646 
	C327.745880,536.000305 329.307861,534.985291 330.652557,532.509827 
	C334.063660,526.230042 337.727051,520.087280 341.292694,513.891541 
	C344.316681,508.637054 347.345276,503.385193 350.856812,497.290344 
	C335.360199,497.290344 320.939819,497.257111 306.520660,497.370697 
	C305.629364,497.377747 304.402100,498.342651 303.912689,499.195587 
	C296.885284,511.442841 289.957855,523.747437 282.287018,536.308838 
z"/>
<path fill="#707174" opacity="1.000000" stroke="none" 
	d="
M860.921509,573.936035 
	C860.921936,553.491577 860.921936,533.538452 860.921936,513.042725 
	C866.257446,513.042725 871.068481,512.760315 875.810913,513.206848 
	C877.324829,513.349365 879.111511,515.156372 879.999817,516.659058 
	C886.859863,528.264771 893.525146,539.985657 900.266602,551.661682 
	C900.885010,552.732788 901.612854,553.740601 902.915283,555.736084 
	C902.915283,540.877319 902.915283,527.196106 902.915283,513.277283 
	C908.352478,513.277283 913.614807,513.277283 919.183533,513.277283 
	C919.183533,536.173462 919.183533,558.936462 919.183533,582.457703 
	C914.047302,582.457703 908.932800,582.705078 903.872742,582.289124 
	C902.557129,582.180908 901.098938,580.187805 900.237671,578.743530 
	C893.502930,567.450134 886.900330,556.077881 880.248169,544.735168 
	C879.701538,543.803223 879.090454,542.909180 877.777954,540.850037 
	C877.777954,555.480042 877.777954,568.674011 877.777954,582.178955 
	C872.226257,582.178955 866.963928,582.178955 860.921082,582.178955 
	C860.921082,579.590088 860.921082,577.008667 860.921509,573.936035 
z"/>
<path fill="#707174" opacity="1.000000" stroke="none" 
	d="
M598.736694,557.983887 
	C596.340210,557.983704 594.392456,557.983704 592.051514,557.983704 
	C592.051514,566.283325 592.051514,574.055054 592.051514,582.213074 
	C586.126587,582.213074 580.598083,582.213074 574.760864,582.213074 
	C574.760864,559.248169 574.760864,536.515076 574.760864,513.034424 
	C577.077454,513.034424 579.330688,513.025879 581.583862,513.035889 
	C591.906250,513.081482 602.253418,512.696289 612.545532,513.279114 
	C629.754028,514.253723 639.900269,531.691711 631.429260,545.791443 
	C629.090027,549.684998 624.788513,552.399536 620.777588,556.238708 
	C622.761230,559.685364 625.294312,564.082886 627.823730,568.482544 
	C630.299438,572.789001 632.771484,577.097534 635.818909,582.404419 
	C629.264160,582.404419 623.546204,582.556396 617.850830,582.265625 
	C616.814758,582.212708 615.620544,580.495728 614.927063,579.299072 
	C611.425171,573.256165 608.253113,567.012268 604.527527,561.115479 
	C603.548096,559.565369 601.008484,559.001038 598.736694,557.983887 
M612.180420,526.937622 
	C605.523315,526.508850 598.866211,526.080078 592.329590,525.659119 
	C592.329590,532.703308 592.329590,538.590515 592.329590,544.861877 
	C597.487122,544.861877 602.272644,544.882324 607.057861,544.855957 
	C611.479370,544.831604 614.787903,543.016357 616.212769,538.651428 
	C617.677979,534.163086 617.089233,530.152954 612.180420,526.937622 
z"/>
<path fill="#707174" opacity="1.000000" stroke="none" 
	d="
M801.067444,559.561584 
	C805.207153,569.774780 817.039795,572.294739 824.718811,568.294739 
	C829.115845,566.004272 831.919312,562.612549 831.816895,557.010986 
	C826.817993,557.010986 822.014099,557.010986 816.837341,557.010986 
	C816.837341,552.658875 816.837341,548.609436 816.837341,544.290649 
	C826.705566,544.290649 836.452148,544.290649 846.550537,544.290649 
	C846.550537,556.794434 846.550537,569.203857 846.550537,582.055725 
	C842.437134,582.055725 838.224304,582.055725 833.584839,582.055725 
	C833.366150,580.714722 833.111572,579.153992 833.001282,578.477661 
	C826.906738,580.313660 820.795959,583.407715 814.516113,583.801086 
	C798.486267,584.805237 786.831909,575.472717 782.997131,559.775085 
	C779.379639,544.966980 781.124268,531.075500 792.250244,519.885742 
	C807.091797,504.958984 833.869141,508.379028 846.246948,526.818970 
	C842.062134,529.350830 837.900635,531.868469 835.209412,533.496704 
	C829.395996,530.283569 825.008240,526.427795 820.035339,525.398071 
	C808.544434,523.018799 799.842590,530.545898 799.134094,543.041321 
	C798.831482,548.378174 800.269531,553.813782 801.067444,559.561584 
z"/>
<path fill="#707174" opacity="1.000000" stroke="none" 
	d="
M719.783936,513.148743 
	C726.226807,516.519775 732.279419,519.800964 739.297607,523.605591 
	C733.898682,527.544739 729.926208,530.443115 726.738037,532.769226 
	C721.055786,530.116272 716.221863,527.043274 710.946960,525.694214 
	C707.634827,524.847046 703.454712,526.067017 700.076843,527.403320 
	C698.552429,528.006409 697.061951,531.301636 697.336670,533.104065 
	C697.604736,534.862854 699.905029,537.211792 701.726318,537.674072 
	C708.633484,539.427490 715.704773,540.538879 722.721008,541.856628 
	C731.168274,543.443176 737.257874,547.752625 738.789246,556.644287 
	C740.353943,565.729248 735.862488,574.728455 727.825806,579.569336 
	C716.113647,586.624146 688.161682,587.274536 675.999390,569.919067 
	C680.133850,567.259277 684.260071,564.604736 688.681580,561.760254 
	C694.444824,567.132568 701.123169,570.485840 709.210693,570.249573 
	C710.540222,570.210815 711.921204,570.268677 713.184265,569.930420 
	C717.147217,568.869141 721.236450,567.485107 721.407654,562.549561 
	C721.586304,557.398926 717.281616,556.690979 713.495728,555.967590 
	C707.781067,554.875671 701.987000,554.179626 696.297424,552.980042 
	C686.589294,550.933350 680.562134,544.942200 679.602295,536.799377 
	C678.443420,526.967651 682.940796,518.735413 692.107483,514.516663 
	C700.960938,510.441956 710.122742,510.265625 719.783936,513.148743 
z"/>
<path fill="#707174" opacity="1.000000" stroke="none" 
	d="
M543.989258,539.101501 
	C548.455444,539.101562 552.423706,539.101562 556.747375,539.101562 
	C556.747375,543.537537 556.747375,547.604248 556.747375,552.212036 
	C546.534119,552.212036 536.291687,552.212036 525.603882,552.212036 
	C525.603882,557.903503 525.603882,563.073486 525.603882,568.783813 
	C537.825317,568.783813 549.902344,568.783813 562.256470,568.783813 
	C562.256470,573.422546 562.256470,577.531311 562.256470,582.097595 
	C544.378479,582.097595 526.512207,582.097595 508.288452,582.097595 
	C508.288452,559.295471 508.288452,536.443115 508.288452,513.309692 
	C525.167847,513.309692 541.916382,513.309692 558.998779,513.309692 
	C558.998779,517.602234 558.998779,521.832458 558.998779,526.527771 
	C547.863281,526.527771 536.936523,526.527771 525.582458,526.527771 
	C525.582458,530.830017 525.582458,534.678528 525.582458,539.101440 
	C531.602905,539.101440 537.547119,539.101440 543.989258,539.101501 
z"/>
<path fill="#707174" opacity="1.000000" stroke="none" 
	d="
M480.152588,576.321411 
	C479.433319,581.292175 477.049377,582.790894 472.260986,582.630005 
	C460.440155,582.232910 460.344452,582.538513 456.434448,571.241028 
	C450.079193,552.878174 443.847717,534.472534 437.575409,516.081055 
	C437.318237,515.327026 437.177826,514.533142 436.803925,513.045044 
	C442.461273,513.045044 447.715302,512.871399 452.939484,513.189087 
	C454.005707,513.253906 455.503510,514.999451 455.881866,516.249023 
	C459.972778,529.758789 463.875458,543.325623 467.843628,556.872742 
	C468.207703,558.115662 468.669037,559.330017 469.482025,561.728149 
	C473.142365,549.215759 476.554016,537.868591 479.773346,526.467041 
	C483.590637,512.947754 483.518890,512.923584 497.533234,513.041199 
	C498.850677,513.052246 500.167419,513.153442 502.142151,513.242432 
	C494.774719,534.360596 487.520905,555.153137 480.152588,576.321411 
z"/>
<path fill="#909293" opacity="1.000000" stroke="none" 
	d="
M184.959579,570.009155 
	C185.718552,571.450195 186.639740,572.829895 187.212189,574.341553 
	C196.005692,597.562805 210.846161,615.662720 232.497147,628.035950 
	C233.637329,628.687561 234.681351,629.507385 235.893677,630.937866 
	C236.322830,632.545532 236.375778,633.695374 236.972595,634.347839 
	C244.008896,642.040833 250.945663,649.861877 262.365692,650.974548 
	C265.296448,651.260071 268.364990,651.855713 270.997375,653.098572 
	C275.623047,655.282593 279.673950,658.339111 280.945648,663.799072 
	C269.846222,662.284851 258.746796,660.770691 247.318726,658.689087 
	C246.831085,657.153564 247.020844,655.844299 246.459152,655.269958 
	C240.801910,649.484985 235.631516,642.976196 229.151459,638.294067 
	C214.711365,627.860535 201.434952,616.475037 190.416885,602.332275 
	C184.440582,594.661194 177.217743,587.939636 170.324493,581.021667 
	C168.822739,579.514526 166.327896,578.996887 164.290451,578.023560 
	C158.060150,560.005066 156.904816,541.584900 160.368042,522.472290 
	C163.955429,523.765808 167.620285,524.821716 167.979660,529.330994 
	C168.581863,536.887268 169.226486,544.442261 170.010452,551.981506 
	C170.975952,561.266357 177.289642,566.226257 184.959579,570.009155 
z"/>
<path fill="#F2F3F4" opacity="1.000000" stroke="none" 
	d="
M344.899292,462.888336 
	C333.301392,454.725739 320.919891,447.811157 306.853577,444.181396 
	C291.268494,440.159729 275.626465,440.083588 259.452820,442.742798 
	C258.239044,440.990143 257.752655,439.295013 256.649567,438.252106 
	C251.855362,433.719299 246.881500,429.376556 241.972900,424.964783 
	C248.258057,423.166962 254.444427,420.791351 260.849731,419.696289 
	C272.765594,417.659180 284.939392,416.040466 296.683472,420.137390 
	C302.141266,422.041382 307.714661,424.915161 311.950104,428.764008 
	C322.271667,438.143433 331.862396,448.329285 341.690887,458.246429 
	C342.934998,459.501740 343.840851,461.092255 344.899292,462.888336 
z"/>
<path fill="#F2F3F4" opacity="1.000000" stroke="none" 
	d="
M379.240875,562.889404 
	C385.294250,531.481018 378.895538,503.027100 358.946228,477.436890 
	C360.423523,477.922333 362.327667,478.406830 363.521912,479.601135 
	C374.213013,490.292694 384.751740,501.136383 395.393158,511.877960 
	C401.066467,517.604675 403.190430,525.185913 403.732300,532.497986 
	C404.883667,548.034790 404.295013,563.645203 397.952698,578.721436 
	C392.958008,574.503845 388.655945,570.017334 384.147949,565.748230 
	C382.809845,564.481079 380.892700,563.825317 379.240875,562.889404 
z"/>
<path fill="#A6A9AB" opacity="1.000000" stroke="none" 
	d="
M281.408478,663.886108 
	C279.673950,658.339111 275.623047,655.282593 270.997375,653.098572 
	C268.364990,651.855713 265.296448,651.260071 262.365692,650.974548 
	C250.945663,649.861877 244.008896,642.040833 236.972595,634.347839 
	C236.375778,633.695374 236.322830,632.545532 236.023865,631.251648 
	C251.840988,638.035278 268.426025,641.506226 285.766418,640.809448 
	C291.520935,640.578125 297.239777,639.459900 303.468445,639.082031 
	C307.515137,643.530640 311.068268,647.644348 315.089783,652.300293 
	C322.597870,649.956787 330.126953,647.529968 337.712067,645.293213 
	C339.600342,644.736450 342.358124,642.575195 342.941376,646.870972 
	C324.239868,658.482239 303.872101,664.143372 281.408478,663.886108 
z"/>
<path fill="#868889" opacity="1.000000" stroke="none" 
	d="
M164.296600,578.386902 
	C166.327896,578.996887 168.822739,579.514526 170.324493,581.021667 
	C177.217743,587.939636 184.440582,594.661194 190.416885,602.332275 
	C201.434952,616.475037 214.711365,627.860535 229.151459,638.294067 
	C235.631516,642.976196 240.801910,649.484985 246.459152,655.269958 
	C247.020844,655.844299 246.831085,657.153564 246.987122,658.492920 
	C205.647247,646.377380 178.510483,619.235535 164.296600,578.386902 
z"/>
<path fill="#707174" opacity="1.000000" stroke="none" 
	d="
M664.672058,555.000000 
	C664.671875,564.289246 664.671875,573.078552 664.671875,582.174194 
	C658.650879,582.174194 653.089783,582.174194 647.338562,582.174194 
	C647.338562,559.151917 647.338562,536.410950 647.338562,513.350220 
	C652.980713,513.350220 658.400024,513.350220 664.672241,513.350220 
	C664.672241,527.031494 664.672241,540.765747 664.672058,555.000000 
z"/>
<path fill="#707174" opacity="1.000000" stroke="none" 
	d="
M769.424194,519.246094 
	C769.423889,540.366333 769.423889,561.012939 769.423889,582.073120 
	C763.574219,582.073120 758.038147,582.073120 752.281738,582.073120 
	C752.281738,559.157349 752.281738,536.404663 752.281738,513.341187 
	C757.936523,513.341187 763.356506,513.341187 769.424561,513.341187 
	C769.424561,515.191895 769.424561,516.982239 769.424194,519.246094 
z"/>
<path fill="#C0C2C2" opacity="1.000000" stroke="none" 
	d="
M200.109802,482.031250 
	C193.616959,493.064514 187.170654,504.137817 184.488785,516.856873 
	C183.359680,522.211792 182.648193,527.654785 181.318344,533.489563 
	C178.371765,531.887451 175.967041,529.689209 173.309906,527.856934 
	C168.971863,524.865601 168.400665,520.601440 169.107101,516.003906 
	C170.006256,510.152313 170.961258,504.283386 172.403015,498.550415 
	C173.323929,494.888489 172.705826,492.736176 168.885239,491.924957 
	C172.911026,484.464600 176.703415,476.864319 181.058853,469.601654 
	C183.311493,465.845367 186.562912,462.688049 189.907318,459.298767 
	C189.461594,461.278778 188.341797,463.167511 187.525711,465.179443 
	C186.948471,466.602600 185.977402,468.993378 186.561157,469.580109 
	C190.883011,473.923889 195.550751,477.923492 200.109802,482.031250 
z"/>
<path fill="#D3D5D5" opacity="1.000000" stroke="none" 
	d="
M329.904785,628.791016 
	C340.457123,622.294617 350.103638,614.714905 358.784302,605.098206 
	C364.649048,610.006714 369.856171,615.010620 375.063293,620.014526 
	C371.277527,623.989929 367.491760,627.965332 363.134399,632.083740 
	C362.376617,632.502197 362.190460,632.777649 362.004333,633.053101 
	C362.004333,633.053101 362.005463,632.995178 361.701019,633.037354 
	C360.925873,633.727783 360.455200,634.376038 359.984497,635.024170 
	C359.546600,635.291870 359.108704,635.559570 358.037659,635.917725 
	C354.178497,637.525085 350.997620,639.150391 347.709961,640.519226 
	C345.647736,641.377930 342.237946,643.053711 341.471710,642.297302 
	C337.268066,638.147705 333.694641,633.359741 329.904785,628.791016 
z"/>
<path fill="#A6A9AB" opacity="1.000000" stroke="none" 
	d="
M168.641815,492.171082 
	C172.705826,492.736176 173.323929,494.888489 172.403015,498.550415 
	C170.961258,504.283386 170.006256,510.152313 169.107101,516.003906 
	C168.400665,520.601440 168.971863,524.865601 173.309906,527.856934 
	C175.967041,529.689209 178.371765,531.887451 181.219666,533.913574 
	C182.732193,545.659058 183.914886,557.412231 185.028595,569.587280 
	C177.289642,566.226257 170.975952,561.266357 170.010452,551.981506 
	C169.226486,544.442261 168.581863,536.887268 167.979660,529.330994 
	C167.620285,524.821716 163.955429,523.765808 160.467194,522.074585 
	C162.879990,512.165039 165.639191,502.291107 168.641815,492.171082 
z"/>
<path fill="#EAEAEC" opacity="1.000000" stroke="none" 
	d="
M241.585724,424.981903 
	C246.881500,429.376556 251.855362,433.719299 256.649567,438.252106 
	C257.752655,439.295013 258.239044,440.990143 259.021606,442.759460 
	C250.986801,446.225952 242.939545,449.318146 234.425751,452.175293 
	C228.631012,446.618378 223.302795,441.296539 217.974594,435.974701 
	C225.715912,432.316132 233.457230,428.657562 241.585724,424.981903 
z"/>
<path fill="#EAEAEC" opacity="1.000000" stroke="none" 
	d="
M379.100708,563.201050 
	C380.892700,563.825317 382.809845,564.481079 384.147949,565.748230 
	C388.655945,570.017334 392.958008,574.503845 397.676117,578.954834 
	C394.219269,587.570435 390.425140,596.138367 386.314941,604.500610 
	C380.866089,598.483154 375.733276,592.671570 370.600464,586.859924 
	C373.387146,579.077515 376.173828,571.295166 379.100708,563.201050 
z"/>
<path fill="#D3D5D5" opacity="1.000000" stroke="none" 
	d="
M200.285980,481.753571 
	C195.550751,477.923492 190.883011,473.923889 186.561157,469.580109 
	C185.977402,468.993378 186.948471,466.602600 187.525711,465.179443 
	C188.341797,463.167511 189.461594,461.278778 190.200165,459.135803 
	C193.098251,455.716492 196.247757,452.498749 199.845428,449.442902 
	C204.061157,453.102722 207.771729,456.665070 211.622482,460.068848 
	C213.312195,461.562408 215.287704,462.732574 217.133453,464.049622 
	C211.576355,469.858368 206.019241,475.667114 200.285980,481.753571 
z"/>
<path fill="#C0C2C2" opacity="1.000000" stroke="none" 
	d="
M329.546143,628.849121 
	C333.694641,633.359741 337.268066,638.147705 341.471710,642.297302 
	C342.237946,643.053711 345.647736,641.377930 347.709961,640.519226 
	C350.997620,639.150391 354.178497,637.525085 357.801514,636.021545 
	C353.352753,639.671509 348.507050,643.308167 343.301331,646.907837 
	C342.358124,642.575195 339.600342,644.736450 337.712067,645.293213 
	C330.126953,647.529968 322.597870,649.956787 315.089783,652.300293 
	C311.068268,647.644348 307.515137,643.530640 303.891998,639.046143 
	C312.277191,635.419312 320.732330,632.163269 329.546143,628.849121 
z"/>
<path fill="#E0E1E2" opacity="1.000000" stroke="none" 
	d="
M217.445435,463.926025 
	C215.287704,462.732574 213.312195,461.562408 211.622482,460.068848 
	C207.771729,456.665070 204.061157,453.102722 200.146484,449.301392 
	C205.759277,444.689453 211.519165,440.380951 217.626831,436.023560 
	C223.302795,441.296539 228.631012,446.618378 234.071991,452.305786 
	C228.708984,456.381714 223.233215,460.092072 217.445435,463.926025 
z"/>
<path fill="#E0E1E2" opacity="1.000000" stroke="none" 
	d="
M370.351074,587.072021 
	C375.733276,592.671570 380.866089,598.483154 386.011627,604.663513 
	C382.568665,609.928406 379.112946,614.824524 375.360260,619.867615 
	C369.856171,615.010620 364.649048,610.006714 359.077148,604.955750 
	C362.508850,599.033813 366.305267,593.158997 370.351074,587.072021 
z"/>
<path fill="#F2F3F4" opacity="1.000000" stroke="none" 
	d="
M935.045044,518.992798 
	C933.914062,518.904053 932.783081,518.815308 930.944580,518.671021 
	C933.778687,515.518311 935.916138,511.700897 940.174255,513.463196 
	C943.682739,514.915161 946.961853,517.531433 946.013672,522.464905 
	C945.422241,525.542053 942.606384,527.667358 940.431396,526.169983 
	C941.048401,523.943787 941.718689,522.167480 941.524780,520.491150 
	C941.357483,519.044250 940.541321,517.025085 939.417969,516.477478 
	C937.383423,515.485718 935.136963,515.785522 935.045044,518.992798 
z"/>
<path fill="#868889" opacity="1.000000" stroke="none" 
	d="
M935.104248,519.391602 
	C935.136963,515.785522 937.383423,515.485718 939.417969,516.477478 
	C940.541321,517.025085 941.357483,519.044250 941.524780,520.491150 
	C941.718689,522.167480 941.048401,523.943787 940.379211,525.821655 
	C939.749573,525.469116 939.493958,524.971558 939.027100,523.968140 
	C938.466919,523.619385 938.118042,523.776550 937.769287,523.933716 
	C937.601685,524.357727 937.434082,524.781616 936.883728,525.298462 
	C936.015625,524.596313 935.530396,523.801147 935.045166,523.005920 
	C935.084595,521.934082 935.124023,520.862183 935.104248,519.391602 
z"/>
<path fill="#F2F3F4" opacity="1.000000" stroke="none" 
	d="
M934.705750,523.039612 
	C935.530396,523.801147 936.015625,524.596313 936.773438,525.497437 
	C936.548340,526.346191 936.050781,527.088928 935.553162,527.831665 
	C934.543823,527.038635 933.406677,526.346191 932.635193,525.365967 
	C932.484497,525.174622 933.752625,523.866394 934.705750,523.039612 
z"/>
<path fill="#F2F3F4" opacity="1.000000" stroke="none" 
	d="
M358.918213,476.764771 
	C357.707672,475.946198 356.528534,474.747620 355.247589,473.248169 
	C356.413757,474.093109 357.681671,475.238983 358.918213,476.764771 
z"/>
<path fill="#C0C2C2" opacity="1.000000" stroke="none" 
	d="
M360.301758,634.981934 
	C360.455200,634.376038 360.925873,633.727783 361.727539,633.048950 
	C361.578674,633.658875 361.098816,634.299255 360.301758,634.981934 
z"/>
<path fill="#F2F3F4" opacity="1.000000" stroke="none" 
	d="
M938.057129,523.961182 
	C938.118042,523.776550 938.466919,523.619385 938.869385,523.736694 
	C938.730286,524.003601 938.537659,523.996155 938.057129,523.961182 
z"/>
<path fill="#C0C2C2" opacity="1.000000" stroke="none" 
	d="
M362.231445,632.940186 
	C362.190460,632.777649 362.376617,632.502197 362.789337,632.113220 
	C362.830139,632.275513 362.644379,632.551331 362.231445,632.940186 
z"/>
<path fill="#FCFDFE" opacity="1.000000" stroke="none" 
	d="
M282.910370,535.937317 
	C283.390381,537.370911 283.650238,538.930176 284.385162,540.218323 
	C290.234100,550.469604 296.087128,560.720947 302.141937,570.850891 
	C303.763550,573.563843 304.045868,575.601501 302.303040,578.499756 
	C295.305298,590.136780 288.626648,601.965759 281.491180,614.310059 
	C258.885498,575.147278 236.651093,536.627686 213.933456,497.270935 
	C226.257370,497.270935 237.703400,497.866119 249.051208,497.066833 
	C256.938721,496.511230 261.330292,499.013947 264.858246,506.074158 
	C270.048889,516.461670 276.419220,526.259705 282.626190,536.145020 
	C282.965363,535.981140 282.910370,535.937317 282.910370,535.937317 
z"/>
<path fill="#FCFDFE" opacity="1.000000" stroke="none" 
	d="
M282.985901,536.009705 
	C289.957855,523.747437 296.885284,511.442841 303.912689,499.195587 
	C304.402100,498.342651 305.629364,497.377747 306.520660,497.370697 
	C320.939819,497.257111 335.360199,497.290344 350.856812,497.290344 
	C347.345276,503.385193 344.316681,508.637054 341.292694,513.891541 
	C337.727051,520.087280 334.063660,526.230042 330.652557,532.509827 
	C329.307861,534.985291 327.745880,536.000305 324.825195,535.962646 
	C311.172607,535.786743 297.516724,535.868286 283.386169,535.897583 
	C282.910370,535.937317 282.965363,535.981140 282.985901,536.009705 
z"/>
<path fill="#FCFDFE" opacity="1.000000" stroke="none" 
	d="
M612.563843,527.075073 
	C617.089233,530.152954 617.677979,534.163086 616.212769,538.651428 
	C614.787903,543.016357 611.479370,544.831604 607.057861,544.855957 
	C602.272644,544.882324 597.487122,544.861877 592.329590,544.861877 
	C592.329590,538.590515 592.329590,532.703308 592.329590,525.659119 
	C598.866211,526.080078 605.523315,526.508850 612.563843,527.075073 
z"/>
</svg>