<svg version="1.1" id="Layer_1" xmlns="http://www.w3.org/2000/svg" xmlns:xlink="http://www.w3.org/1999/xlink" x="0px" y="0px"
	 width="100%" viewBox="0 0 1080 1080" enable-background="new 0 0 1080 1080" xml:space="preserve">
<path fill="#FFFFFF" opacity="1.000000" stroke="none" 
	d="
M597.000000,1081.000000 
	C398.022919,1081.000000 199.545807,1081.000000 1.068722,1081.000000 
	C1.045820,1080.856201 1.002836,1080.712524 1.002835,1080.568726 
	C0.999977,720.776917 1.000000,360.985138 1.000000,1.000000 
	C180.914734,1.000000 360.829529,1.000000 540.744324,1.000000 
	C720.723572,1.000000 900.702759,1.000000 1080.841064,1.000000 
	C1080.841064,360.999939 1080.841064,720.999939 1080.841064,1081.000000 
	C919.795105,1081.000000 758.647522,1081.000000 597.000000,1081.000000 
M794.738892,920.974487 
	C806.410461,912.488525 818.566284,904.583740 829.627502,895.365479 
	C842.620178,884.537476 854.662048,872.568604 867.706726,860.769348 
	C872.177368,855.864380 876.647949,850.959351 881.764709,845.920898 
	C887.306824,839.604492 893.020020,833.428101 898.338379,826.928589 
	C902.796143,821.480713 906.793091,815.655640 911.542969,809.622192 
	C915.363037,804.231995 919.485229,799.027527 922.938538,793.411682 
	C929.503723,782.735229 935.686279,771.823486 942.634949,760.689331 
	C943.131836,760.035950 943.768555,759.447205 944.105103,758.719604 
	C952.373047,740.847290 960.950745,723.106812 968.713379,705.016724 
	C972.872620,695.324097 975.619019,685.025269 979.495300,674.665649 
	C979.660645,674.108032 979.825989,673.550354 980.079224,672.230225 
	C980.721313,669.487122 981.363403,666.744019 982.558899,663.534973 
	C983.393799,660.850159 984.470276,658.214233 985.023987,655.472595 
	C988.388855,638.812927 992.100342,622.203369 994.771484,605.429810 
	C996.871521,592.242371 998.163025,578.870789 998.879333,565.530823 
	C1000.068298,543.388428 997.935486,521.328369 996.127319,499.267670 
	C995.707825,494.149353 994.354553,489.877289 990.806091,486.325958 
	C953.867432,449.357452 916.921753,412.395844 879.896729,375.513947 
	C878.638977,374.261078 876.525696,373.867096 874.339294,372.727356 
	C874.154358,372.178589 873.969482,371.629822 874.347717,370.725708 
	C873.486450,369.514557 872.625183,368.303406 871.229797,366.676178 
	C844.888916,317.338715 809.668274,275.465363 764.505188,242.470993 
	C747.519409,230.061859 728.898438,219.891113 711.008423,207.997726 
	C709.868896,206.028870 709.089233,203.701477 707.537170,202.143692 
	C670.746155,165.217056 633.912476,128.332397 596.915405,91.612617 
	C594.621704,89.336136 591.056763,87.603401 587.854309,87.112885 
	C576.612305,85.390984 565.292603,83.519577 553.960449,83.202209 
	C538.370605,82.765602 522.645264,82.722130 507.154999,84.275406 
	C486.815369,86.314941 466.611023,89.849815 446.425720,93.206184 
	C438.839172,94.467651 431.468872,97.029640 423.211365,99.017990 
	C416.058655,101.050819 408.702271,102.554893 401.791687,105.216400 
	C381.700775,112.954102 361.706268,120.959747 341.856262,129.294525 
	C335.918732,131.787613 330.580872,135.708969 324.253143,139.058411 
	C323.342865,139.446442 322.369080,139.729843 321.531860,140.238174 
	C308.563141,148.112137 295.526978,155.880661 282.708221,163.992523 
	C278.789154,166.472565 275.478546,169.914093 271.204041,173.022079 
	C259.459595,182.648239 247.715134,192.274399 235.294662,202.035934 
	C231.178802,206.003967 227.062927,209.972000 222.363464,214.256210 
	C209.471848,228.504990 196.138382,242.385315 183.842346,257.130737 
	C175.499588,267.135376 168.613037,278.354279 160.521149,289.413116 
	C155.917953,296.887390 150.937500,304.159393 146.796417,311.881500 
	C139.891525,324.757355 133.524033,337.921448 126.408142,351.431061 
	C123.477440,358.275543 120.209595,364.998627 117.691383,371.991638 
	C113.419327,383.855072 109.620110,395.888763 105.183418,408.422546 
	C100.601151,428.629425 96.018890,448.836334 91.153786,469.851624 
	C90.930328,471.324463 90.702629,472.796692 90.484055,474.270264 
	C86.758194,499.389526 85.119598,524.628601 86.017906,550.919250 
	C86.119202,553.937012 86.220497,556.954712 86.142052,560.812988 
	C86.418297,563.212463 86.694550,565.611877 86.893784,568.917847 
	C87.071701,571.933533 87.249611,574.949158 87.232719,578.664490 
	C87.485939,579.777344 87.739151,580.890137 87.914436,582.894409 
	C88.142372,585.248657 88.370308,587.602905 88.348969,590.488831 
	C88.552269,590.997375 88.755569,591.505920 88.912231,592.894653 
	C91.276375,606.929565 93.640518,620.964539 96.004410,635.791565 
	C97.291954,641.407654 98.273628,647.115540 99.926697,652.621887 
	C104.202141,666.863403 108.773773,681.015930 113.319420,695.999268 
	C121.744583,715.109070 129.204941,734.717407 138.773422,753.236511 
	C169.102402,811.936157 211.040939,861.185486 263.334381,901.480164 
	C277.066406,912.061340 291.530823,921.770813 306.184387,931.050781 
	C316.816040,937.783691 328.070221,943.671387 339.485718,948.994751 
	C354.661316,956.071533 370.263672,962.233154 386.143066,969.259338 
	C392.230469,971.374939 398.218750,973.857971 404.425079,975.532715 
	C419.238678,979.530273 434.155182,983.146545 449.567871,987.472412 
	C461.379089,989.313660 473.190338,991.154907 485.381042,993.426147 
	C485.925232,993.404236 486.469452,993.382263 487.839325,993.657288 
	C489.890930,993.776428 491.942566,993.895630 494.451355,994.481628 
	C495.305573,994.495728 496.159821,994.509888 497.879913,994.761902 
	C500.576904,994.865723 503.273926,994.969543 506.631683,995.567627 
	C522.084595,995.916504 537.537476,996.265320 553.872864,996.843079 
	C565.792908,996.139099 577.749817,995.803894 589.621582,994.616882 
	C599.470764,993.632080 609.219666,991.643921 619.879578,990.150146 
	C638.253845,985.777588 656.628113,981.405029 675.796509,977.044373 
	C694.514038,969.963928 713.231567,962.883484 732.640442,955.660828 
	C736.372681,953.849304 740.225769,952.248596 743.816528,950.190247 
	C760.601807,940.568481 777.314697,930.820435 794.738892,920.974487 
z"/>
<path fill="#0164A4" opacity="1.000000" stroke="none" 
	d="
M873.784546,371.081055 
	C873.969482,371.629822 874.154358,372.178589 874.608643,373.263092 
	C878.531982,381.817780 882.425110,389.737518 885.799561,397.872375 
	C902.532593,438.211365 911.762146,480.247620 913.703613,523.862976 
	C914.734009,547.011292 913.730347,570.076050 909.987549,593.401733 
	C907.356384,614.449646 902.629150,634.618958 895.954712,654.262390 
	C891.166687,668.354065 885.407410,682.115723 879.799683,696.235107 
	C878.288391,698.991577 877.189392,701.610901 875.807495,704.071289 
	C868.154419,717.697449 860.432617,731.284973 852.453369,745.058777 
	C842.123779,758.517944 832.075073,771.804016 821.715820,785.206848 
	C817.789368,789.237244 814.338196,793.320312 810.524719,797.031067 
	C801.134705,806.167969 791.578125,815.133667 781.763000,824.244385 
	C768.240112,834.081055 755.042725,843.841553 741.506226,853.716797 
	C730.094360,860.186584 719.021667,866.541565 707.585693,872.927612 
	C699.453796,876.540039 691.685242,880.121460 683.539673,883.747437 
	C674.107178,887.177002 665.051636,890.561890 655.602661,893.926636 
	C639.137573,897.922668 623.066040,901.938782 606.567749,905.918945 
	C596.445740,907.144958 586.750427,908.406982 576.753296,909.523071 
	C575.652710,909.610535 574.853882,909.843872 573.607666,910.045044 
	C570.788208,910.165039 568.416138,910.317200 565.598145,910.351929 
	C561.466492,910.558960 557.780762,910.883484 553.641846,911.144348 
	C550.470032,911.196716 547.751343,911.312805 544.577881,911.300903 
	C539.390747,911.164368 534.658386,911.155762 529.638550,910.879395 
	C526.559448,910.591675 523.767822,910.571716 520.541016,910.432739 
	C517.383606,910.251343 514.661377,910.189026 511.670044,909.878296 
	C509.923645,909.584656 508.446289,909.539429 506.532227,909.378418 
	C497.398315,908.208252 488.701111,907.153809 479.630920,905.959412 
	C463.355560,902.127991 447.419586,898.572571 431.569580,894.668335 
	C426.314880,893.373962 421.281128,891.182617 415.890228,889.184204 
	C397.003815,880.275085 378.251465,871.831909 359.799286,862.776978 
	C351.648163,858.777100 344.105804,853.536621 336.092590,848.575073 
	C299.669220,823.394043 268.208069,793.539795 242.430222,757.869995 
	C235.338058,748.056274 228.867935,737.792908 222.059174,727.391296 
	C208.788208,703.581970 197.445114,679.280579 189.361893,653.540039 
	C186.685349,645.016724 184.192734,636.435547 181.555450,627.452820 
	C180.846436,623.697937 180.197983,620.371094 179.625702,616.762817 
	C179.433655,616.001831 179.165451,615.522217 178.921112,614.661865 
	C178.812943,613.534119 178.680893,612.787048 178.637756,611.715881 
	C178.410294,610.624146 178.093964,609.856506 177.814987,608.700195 
	C177.687607,607.555908 177.522858,606.800354 177.491318,605.731201 
	C177.316437,604.651978 177.008377,603.886414 176.745575,602.774353 
	C176.549698,601.287415 176.308548,600.147034 176.234619,598.829346 
	C176.183075,598.134399 175.964310,597.616760 175.773224,596.688843 
	C174.839661,587.582275 173.592453,578.905823 172.989212,570.184753 
	C172.225677,559.146179 171.986038,548.071411 171.627289,536.552673 
	C171.840652,529.402161 171.947174,522.711121 172.284454,515.734497 
	C172.550003,513.963501 172.584778,512.478210 172.725723,510.548889 
	C173.954636,499.756927 175.077393,489.408966 176.410126,478.739319 
	C177.426743,473.616547 178.233368,468.815430 179.263885,463.833923 
	C179.556976,463.098755 179.626175,462.543945 179.821594,461.594513 
	C182.744400,450.168549 185.540955,439.137207 188.574036,427.852417 
	C194.041916,413.794250 199.273254,399.989563 204.739151,385.944275 
	C211.954407,372.453949 218.935104,359.204193 226.200623,345.771088 
	C228.192245,342.938416 229.780090,340.202911 231.626068,337.654358 
	C240.470673,325.443573 249.385147,313.283386 258.561462,300.946136 
	C270.947510,288.210602 283.046906,275.634155 295.454895,262.936523 
	C309.201660,252.271088 322.639801,241.726852 336.423279,231.115341 
	C339.290588,229.454407 341.739014,227.727356 344.346710,226.289001 
	C359.561859,217.896469 374.814362,209.571640 390.420837,201.170029 
	C406.224121,195.440140 421.353363,188.618698 437.173767,184.372559 
	C457.831238,178.828171 479.035889,175.322647 500.427002,171.002686 
	C506.153229,170.622894 511.453400,170.122086 516.762512,169.746887 
	C563.594177,166.437210 609.569702,171.335693 654.163208,185.999161 
	C673.512451,192.361679 692.093140,201.061615 711.022888,208.699890 
	C728.898438,219.891113 747.519409,230.061859 764.505188,242.470993 
	C809.668274,275.465363 844.888916,317.338715 871.512939,367.215210 
	C872.458923,368.863190 873.121704,369.972137 873.784546,371.081055 
M479.236816,702.283203 
	C500.256165,738.679626 521.275513,775.076050 542.673096,812.127380 
	C544.076843,809.931213 545.003479,808.599243 545.812195,807.199158 
	C572.216858,761.486023 598.565857,715.740540 625.094788,670.099670 
	C627.083069,666.678955 626.768921,664.305847 624.906067,661.086609 
	C571.023376,567.970703 517.211975,474.813446 463.524200,381.585022 
	C461.774811,378.547241 459.817108,378.036072 456.776947,378.039673 
	C403.615448,378.102478 350.453857,378.083527 297.292267,378.093964 
	C295.883575,378.094238 294.474884,378.224762 292.220856,378.336456 
	C354.703522,486.574982 416.783630,594.116150 479.236816,702.283203 
M784.304199,405.817535 
	C789.471191,396.833832 794.638184,387.850098 800.083252,378.382904 
	C798.359985,378.213867 797.723083,378.096802 797.086121,378.096680 
	C742.439453,378.087128 687.792664,378.055023 633.146545,378.225433 
	C631.358887,378.230988 628.833923,379.872681 627.901733,381.477295 
	C601.725708,426.536316 575.708557,471.687531 549.684143,516.834534 
	C549.007141,518.008972 548.541809,519.305298 547.819763,520.891907 
	C549.398926,520.996338 550.221558,521.098267 551.044189,521.098389 
	C605.357666,521.105774 659.671143,521.071289 713.984375,521.187866 
	C717.262146,521.194885 718.629272,519.686157 720.052307,517.213074 
	C741.309631,480.271057 762.634155,443.367645 784.304199,405.817535 
z"/>
<path fill="#F5F6F6" opacity="1.000000" stroke="none" 
	d="
M910.095947,592.992126 
	C913.730347,570.076050 914.734009,547.011292 913.703613,523.862976 
	C911.762146,480.247620 902.532593,438.211365 885.799561,397.872375 
	C882.425110,389.737518 878.531982,381.817780 874.844604,373.435791 
	C876.525696,373.867096 878.638977,374.261078 879.896729,375.513947 
	C916.921753,412.395844 953.867432,449.357452 990.806091,486.325958 
	C994.354553,489.877289 995.707825,494.149353 996.127319,499.267670 
	C997.935486,521.328369 1000.068298,543.388428 998.879333,565.530823 
	C998.163025,578.870789 996.871521,592.242371 994.771484,605.429810 
	C992.100342,622.203369 988.388855,638.812927 985.023987,655.472595 
	C984.470276,658.214233 983.393799,660.850159 981.978455,663.615112 
	C979.622314,661.320251 978.100952,658.692627 976.031494,656.609375 
	C956.183899,636.630066 936.272522,616.713684 916.278442,596.881042 
	C914.591614,595.207703 912.174011,594.270996 910.095947,592.992126 
z"/>
<path fill="#F5F6F6" opacity="1.000000" stroke="none" 
	d="
M711.015625,208.348816 
	C692.093140,201.061615 673.512451,192.361679 654.163208,185.999161 
	C609.569702,171.335693 563.594177,166.437210 516.762512,169.746887 
	C511.453400,170.122086 506.153229,170.622894 500.423492,170.641525 
	C498.835754,168.482178 497.918640,166.503174 496.473694,165.048477 
	C479.354279,147.813248 462.167847,130.644485 444.972168,113.485161 
	C438.865845,107.391777 433.562073,100.103157 424.000000,98.998734 
	C431.468872,97.029640 438.839172,94.467651 446.425720,93.206184 
	C466.611023,89.849815 486.815369,86.314941 507.154999,84.275406 
	C522.645264,82.722130 538.370605,82.765602 553.960449,83.202209 
	C565.292603,83.519577 576.612305,85.390984 587.854309,87.112885 
	C591.056763,87.603401 594.621704,89.336136 596.915405,91.612617 
	C633.912476,128.332397 670.746155,165.217056 707.537170,202.143692 
	C709.089233,203.701477 709.868896,206.028870 711.015625,208.348816 
z"/>
<path fill="#838587" opacity="1.000000" stroke="none" 
	d="
M385.682678,968.787964 
	C370.263672,962.233154 354.661316,956.071533 339.485718,948.994751 
	C328.070221,943.671387 316.816040,937.783691 306.184387,931.050781 
	C291.530823,921.770813 277.066406,912.061340 263.334381,901.480164 
	C211.040939,861.185486 169.102402,811.936157 138.773422,753.236511 
	C129.204941,734.717407 121.744583,715.109070 113.660675,695.495850 
	C116.401505,695.895630 119.427528,696.159485 121.103409,697.801392 
	C137.277496,713.647583 153.282578,729.667847 169.222992,745.750366 
	C193.585510,770.330261 217.806366,795.050720 242.199203,819.600342 
	C250.326569,827.779907 258.925049,835.490295 267.089325,843.634521 
	C306.460602,882.909302 345.731506,922.284668 385.138153,961.523865 
	C387.757935,964.132385 388.395081,966.142395 385.682678,968.787964 
z"/>
<path fill="#ECEDED" opacity="1.000000" stroke="none" 
	d="
M423.605682,99.008362 
	C433.562073,100.103157 438.865845,107.391777 444.972168,113.485161 
	C462.167847,130.644485 479.354279,147.813248 496.473694,165.048477 
	C497.918640,166.503174 498.835754,168.482178 500.001587,170.578751 
	C479.035889,175.322647 457.831238,178.828171 437.173767,184.372559 
	C421.353363,188.618698 406.224121,195.440140 390.406433,200.784836 
	C388.172516,198.291168 386.450043,195.998917 384.446228,193.986832 
	C367.243408,176.712891 350.057220,159.420776 332.653412,142.350891 
	C330.785370,140.518677 327.562622,140.067688 324.968292,138.975967 
	C330.580872,135.708969 335.918732,131.787613 341.856262,129.294525 
	C361.706268,120.959747 381.700775,112.954102 401.791687,105.216400 
	C408.702271,102.554893 416.058655,101.050819 423.605682,99.008362 
z"/>
<path fill="#ECEDED" opacity="1.000000" stroke="none" 
	d="
M909.987549,593.401733 
	C912.174011,594.270996 914.591614,595.207703 916.278442,596.881042 
	C936.272522,616.713684 956.183899,636.630066 976.031494,656.609375 
	C978.100952,658.692627 979.622314,661.320251 981.701782,663.848145 
	C981.363403,666.744019 980.721313,669.487122 979.743530,672.645142 
	C979.272827,673.706726 979.137878,674.353333 979.002930,675.000000 
	C975.619019,685.025269 972.872620,695.324097 968.713379,705.016724 
	C960.950745,723.106812 952.373047,740.847290 944.105103,758.719604 
	C943.768555,759.447205 943.131836,760.035950 942.024780,760.702026 
	C937.101257,756.134705 932.737671,751.600769 928.483643,746.966248 
	C912.641602,729.707703 893.769714,715.328064 880.081421,696.024536 
	C885.407410,682.115723 891.166687,668.354065 895.954712,654.262390 
	C902.629150,634.618958 907.356384,614.449646 909.987549,593.401733 
z"/>
<path fill="#898B8D" opacity="1.000000" stroke="none" 
	d="
M385.912872,969.023682 
	C388.395081,966.142395 387.757935,964.132385 385.138153,961.523865 
	C345.731506,922.284668 306.460602,882.909302 267.089325,843.634521 
	C258.925049,835.490295 250.326569,827.779907 242.199203,819.600342 
	C217.806366,795.050720 193.585510,770.330261 169.222992,745.750366 
	C153.282578,729.667847 137.277496,713.647583 121.103409,697.801392 
	C119.427528,696.159485 116.401505,695.895630 113.614532,695.098206 
	C108.773773,681.015930 104.202141,666.863403 99.926697,652.621887 
	C98.273628,647.115540 97.291954,641.407654 96.386063,635.399536 
	C98.604073,635.930725 100.811218,636.472534 102.216354,637.839050 
	C111.040375,646.420654 119.811295,655.064819 128.359909,663.919800 
	C140.112106,676.093140 151.631653,688.490845 163.318146,700.728210 
	C164.281967,701.737427 165.759644,702.255920 167.139160,703.320679 
	C170.474838,709.660095 173.405701,715.840454 176.917740,721.670654 
	C185.298050,735.582397 193.430527,749.689392 202.647980,763.037476 
	C211.291504,775.554565 220.797165,787.541016 230.663589,799.130920 
	C240.814331,811.054810 251.497665,822.583069 262.628296,833.596924 
	C271.563385,842.438416 281.082611,850.825684 291.112793,858.393738 
	C308.025513,871.154846 325.164062,883.701477 342.944000,895.199585 
	C355.671936,903.430603 369.602783,909.801575 383.050934,917.346802 
	C384.070343,918.126648 385.035767,918.562134 386.298859,919.019653 
	C387.065552,919.360291 387.534607,919.678894 388.050629,920.335266 
	C399.762817,931.979675 411.480591,943.232849 423.076355,954.610413 
	C432.099426,963.463684 440.957489,972.484985 449.917877,981.402588 
	C452.251831,983.725342 453.396118,985.731934 449.030121,986.916809 
	C434.155182,983.146545 419.238678,979.530273 404.425079,975.532715 
	C398.218750,973.857971 392.230469,971.374939 385.912872,969.023682 
z"/>
<path fill="#9EA0A1" opacity="1.000000" stroke="none" 
	d="
M181.616028,627.880859 
	C184.192734,636.435547 186.685349,645.016724 189.361893,653.540039 
	C197.445114,679.280579 208.788208,703.581970 222.020493,727.760986 
	C220.105499,733.434937 218.564651,728.912476 217.655807,728.013000 
	C199.222488,709.771545 180.804398,691.511597 162.643433,673.000122 
	C158.061279,668.329529 154.400253,662.759155 150.254471,657.652100 
	C149.686584,656.952576 148.760712,656.543579 147.723999,655.755249 
	C146.152176,651.070740 144.807800,646.644531 143.571045,642.188477 
	C139.996582,629.309509 136.894104,616.278442 132.746170,603.588257 
	C130.490494,596.687317 127.647270,589.361816 123.027634,583.980164 
	C113.759041,573.182739 103.167488,563.507446 92.923462,553.573730 
	C91.165901,551.869385 88.425186,551.178894 86.138641,550.020081 
	C85.119598,524.628601 86.758194,499.389526 90.484055,474.270264 
	C90.702629,472.796692 90.930328,471.324463 91.624878,469.444763 
	C93.698471,469.829773 95.746170,470.232697 96.832275,471.475769 
	C104.731361,480.516510 115.691025,486.880920 120.637741,498.522644 
	C120.765060,498.822266 121.524612,498.853241 121.991028,499.477234 
	C122.087090,510.076233 121.738861,520.236267 122.394257,530.331177 
	C123.119728,541.505493 125.095779,552.596619 125.887558,563.769348 
	C126.396065,570.944885 129.097458,577.156616 133.729263,581.999268 
	C147.742996,596.651062 162.262665,610.820496 176.679245,625.082825 
	C177.977203,626.366882 179.954315,626.964478 181.616028,627.880859 
z"/>
<path fill="#E4E4E5" opacity="1.000000" stroke="none" 
	d="
M324.610718,139.017181 
	C327.562622,140.067688 330.785370,140.518677 332.653412,142.350891 
	C350.057220,159.420776 367.243408,176.712891 384.446228,193.986832 
	C386.450043,195.998917 388.172516,198.291168 390.039825,200.838730 
	C374.814362,209.571640 359.561859,217.896469 344.346710,226.289001 
	C341.739014,227.727356 339.290588,229.454407 336.245392,230.821686 
	C334.101013,229.183090 332.391144,227.859818 330.872284,226.345016 
	C314.522339,210.038925 298.158112,193.746567 281.916138,177.333328 
	C279.052460,174.439423 276.061493,172.512283 271.889282,172.915283 
	C275.478546,169.914093 278.789154,166.472565 282.708221,163.992523 
	C295.526978,155.880661 308.563141,148.112137 321.531860,140.238174 
	C322.369080,139.729843 323.342865,139.446442 324.610718,139.017181 
z"/>
<path fill="#E4E4E5" opacity="1.000000" stroke="none" 
	d="
M879.799622,696.235107 
	C893.769714,715.328064 912.641602,729.707703 928.483643,746.966248 
	C932.737671,751.600769 937.101257,756.134705 941.721191,760.862061 
	C935.686279,771.823486 929.503723,782.735229 922.938538,793.411682 
	C919.485229,799.027527 915.363037,804.231995 910.998840,809.579834 
	C908.843628,806.732300 907.730042,803.440674 905.540405,801.201111 
	C891.689697,787.034363 877.588013,773.113159 863.597717,759.082520 
	C859.359924,754.832397 854.366394,751.138733 852.734253,744.885742 
	C860.432617,731.284973 868.154419,717.697449 875.807495,704.071289 
	C877.189392,701.610901 878.288391,698.991577 879.799622,696.235107 
z"/>
<path fill="#DDDDDE" opacity="1.000000" stroke="none" 
	d="
M271.546661,172.968689 
	C276.061493,172.512283 279.052460,174.439423 281.916138,177.333328 
	C298.158112,193.746567 314.522339,210.038925 330.872284,226.345016 
	C332.391144,227.859818 334.101013,229.183090 335.900085,230.888947 
	C322.639801,241.726852 309.201660,252.271088 295.032776,262.917603 
	C290.875214,263.505676 288.433899,262.064148 286.025116,259.623383 
	C271.207550,244.608917 256.367706,229.611023 241.237930,214.913681 
	C237.339355,211.126526 235.170303,207.279404 235.970673,201.900558 
	C247.715134,192.274399 259.459595,182.648239 271.546661,172.968689 
z"/>
<path fill="#D6D7D8" opacity="1.000000" stroke="none" 
	d="
M782.088562,824.168213 
	C791.578125,815.133667 801.134705,806.167969 810.524719,797.031067 
	C814.338196,793.320312 817.789368,789.237244 821.718689,785.570435 
	C823.352661,788.043213 824.289673,790.647461 826.054016,792.435425 
	C841.503540,808.091370 857.065735,823.636963 872.689209,839.119629 
	C875.262573,841.669800 878.297180,843.754578 881.118652,846.054321 
	C876.647949,850.959351 872.177368,855.864380 867.202148,860.673584 
	C865.139343,861.214783 863.406860,861.598511 862.051819,862.530762 
	C854.656006,867.618774 847.353088,872.841736 839.588501,878.011719 
	C835.980957,877.007202 832.310120,876.692383 829.747192,874.842529 
	C826.363342,872.400146 823.968750,868.631775 820.937622,865.647949 
	C810.628113,855.499451 800.082764,845.585815 789.943848,835.271545 
	C786.806824,832.080261 784.678650,827.897156 782.088562,824.168213 
z"/>
<path fill="#D6D7D8" opacity="1.000000" stroke="none" 
	d="
M235.632660,201.968246 
	C235.170303,207.279404 237.339355,211.126526 241.237930,214.913681 
	C256.367706,229.611023 271.207550,244.608917 286.025116,259.623383 
	C288.433899,262.064148 290.875214,263.505676 294.724182,263.038818 
	C283.046906,275.634155 270.947510,288.210602 258.178925,300.939056 
	C254.622238,302.618011 252.707855,301.310516 250.632004,299.211029 
	C237.114777,285.539520 223.468155,271.996094 209.896210,258.378510 
	C205.949615,254.418625 200.234741,251.121689 204.018402,243.622955 
	C209.892593,235.156189 215.792587,227.087204 221.495865,218.881485 
	C222.425354,217.544159 222.485260,215.602432 222.947083,213.940033 
	C227.062927,209.972000 231.178802,206.003967 235.632660,201.968246 
z"/>
<path fill="#DDDDDE" opacity="1.000000" stroke="none" 
	d="
M881.441650,845.987671 
	C878.297180,843.754578 875.262573,841.669800 872.689209,839.119629 
	C857.065735,823.636963 841.503540,808.091370 826.054016,792.435425 
	C824.289673,790.647461 823.352661,788.043213 822.029175,785.453735 
	C832.075073,771.804016 842.123779,758.517944 852.453369,745.058838 
	C854.366394,751.138733 859.359924,754.832397 863.597717,759.082520 
	C877.588013,773.113159 891.689697,787.034363 905.540405,801.201111 
	C907.730042,803.440674 908.843628,806.732300 910.724365,809.767517 
	C906.793091,815.655640 902.796143,821.480713 898.338379,826.928589 
	C893.020020,833.428101 887.306824,839.604492 881.441650,845.987671 
z"/>
<path fill="#929495" opacity="1.000000" stroke="none" 
	d="
M86.078278,550.469666 
	C88.425186,551.178894 91.165901,551.869385 92.923462,553.573730 
	C103.167488,563.507446 113.759041,573.182739 123.027634,583.980164 
	C127.647270,589.361816 130.490494,596.687317 132.746170,603.588257 
	C136.894104,616.278442 139.996582,629.309509 143.571045,642.188477 
	C144.807800,646.644531 146.152176,651.070740 147.728943,656.135986 
	C150.079681,662.332092 151.972931,667.976013 154.256531,673.457397 
	C158.380798,683.356995 162.738403,693.159424 166.998566,703.002441 
	C165.759644,702.255920 164.281967,701.737427 163.318146,700.728210 
	C151.631653,688.490845 140.112106,676.093140 128.359909,663.919800 
	C119.811295,655.064819 111.040375,646.420654 102.216354,637.839050 
	C100.811218,636.472534 98.604073,635.930725 96.386185,635.003540 
	C93.640518,620.964539 91.276375,606.929565 89.158493,592.322876 
	C89.135918,591.153137 88.867096,590.555176 88.598259,589.957153 
	C88.370308,587.602905 88.142372,585.248657 88.215530,582.247009 
	C88.153580,580.388000 87.790550,579.176453 87.427521,577.964844 
	C87.249611,574.949158 87.071701,571.933533 87.224884,568.202637 
	C87.144592,564.982422 86.733192,562.477417 86.321800,559.972473 
	C86.220497,556.954712 86.119202,553.937012 86.078278,550.469666 
z"/>
<path fill="#929495" opacity="1.000000" stroke="none" 
	d="
M449.299011,987.194580 
	C453.396118,985.731934 452.251831,983.725342 449.917877,981.402588 
	C440.957489,972.484985 432.099426,963.463684 423.076355,954.610413 
	C411.480591,943.232849 399.762817,931.979675 388.421875,920.375671 
	C390.732758,920.829102 392.722961,921.570496 394.705322,922.332336 
	C400.473145,924.548828 406.237793,926.773560 412.335144,929.143433 
	C427.019989,934.184875 441.376648,939.068420 455.723907,943.979370 
	C458.502625,944.930481 461.244690,945.988708 464.052002,947.337036 
	C480.156982,961.625183 494.460693,977.292786 509.806458,992.356201 
	C507.776154,993.794556 506.873566,994.433960 505.970947,995.073364 
	C503.273926,994.969543 500.576904,994.865723 497.364746,994.361389 
	C495.897766,993.978882 494.945953,993.996826 493.994171,994.014771 
	C491.942566,993.895630 489.890930,993.776428 487.350739,993.279419 
	C486.241943,992.933105 485.621765,992.964661 485.001556,992.996094 
	C473.190338,991.154907 461.379089,989.313660 449.299011,987.194580 
z"/>
<path fill="#979A9C" opacity="1.000000" stroke="none" 
	d="
M506.301331,995.320557 
	C506.873566,994.433960 507.776154,993.794556 509.806458,992.356201 
	C494.460693,977.292786 480.156982,961.625183 464.460602,947.338013 
	C468.216888,947.662964 471.612915,948.326355 475.411133,948.999390 
	C490.540588,951.675110 505.267853,954.341248 520.062866,957.365601 
	C537.788574,963.986755 546.562988,980.462097 560.380371,991.504333 
	C557.390808,993.571472 555.190613,995.092834 552.990356,996.614197 
	C537.537476,996.265320 522.084595,995.916504 506.301331,995.320557 
z"/>
<path fill="#9EA0A1" opacity="1.000000" stroke="none" 
	d="
M553.431641,996.728638 
	C555.190613,995.092834 557.390808,993.571472 560.380371,991.504333 
	C546.562988,980.462097 537.788574,963.986755 520.481934,957.362793 
	C523.557678,957.331238 526.282166,957.660706 529.455688,957.992188 
	C544.103943,958.996765 558.294006,960.171509 572.506226,960.931519 
	C579.981689,961.331177 587.495911,961.005493 595.028992,961.351440 
	C601.817810,968.738403 608.691711,975.671265 615.242371,982.897095 
	C617.004150,984.840332 617.783020,987.674805 619.013000,990.100220 
	C609.219666,991.643921 599.470764,993.632080 589.621582,994.616882 
	C577.749817,995.803894 565.792908,996.139099 553.431641,996.728638 
z"/>
<path fill="#A5A7A7" opacity="1.000000" stroke="none" 
	d="
M121.989326,499.009521 
	C121.524612,498.853241 120.765060,498.822266 120.637741,498.522644 
	C115.691025,486.880920 104.731361,480.516510 96.832275,471.475769 
	C95.746170,470.232697 93.698471,469.829773 91.766296,469.040527 
	C96.018890,448.836334 100.601151,428.629425 105.813065,408.156128 
	C109.760292,406.358337 112.224548,407.354309 114.623611,410.029938 
	C118.928436,414.831085 123.539070,419.358032 128.016968,424.416138 
	C128.010101,426.220703 128.008194,427.608704 127.842590,429.366272 
	C127.094070,434.613342 126.365486,439.478668 125.950729,444.370605 
	C124.577179,460.571686 123.316765,476.782379 122.008797,493.419037 
	C121.999542,495.568970 121.994431,497.289246 121.989326,499.009521 
z"/>
<path fill="#A5A7A7" opacity="1.000000" stroke="none" 
	d="
M619.446289,990.125122 
	C617.783020,987.674805 617.004150,984.840332 615.242371,982.897095 
	C608.691711,975.671265 601.817810,968.738403 595.365845,961.347778 
	C596.115479,960.994141 596.564514,960.988342 597.434814,960.974243 
	C616.905640,958.978088 635.955261,956.990295 655.360352,955.038574 
	C661.447144,959.853394 667.126221,964.696960 672.933472,969.381653 
	C675.583618,971.519531 676.415588,973.912354 675.002319,977.032349 
	C656.628113,981.405029 638.253845,985.777588 619.446289,990.125122 
z"/>
<path fill="#ABACAD" opacity="1.000000" stroke="none" 
	d="
M675.399414,977.038330 
	C676.415588,973.912354 675.583618,971.519531 672.933472,969.381653 
	C667.126221,964.696960 661.447144,959.853394 655.359131,954.789795 
	C655.002441,954.504883 655.000000,954.007324 655.425781,954.004150 
	C663.159058,952.626587 670.527222,951.510376 677.758179,949.810425 
	C686.239075,947.816711 694.600647,945.315308 703.423828,943.023865 
	C708.553406,942.003113 713.273071,940.992615 718.316895,940.126953 
	C727.201721,943.437805 732.032715,949.075867 731.949097,955.803101 
	C713.231567,962.883484 694.514038,969.963928 675.399414,977.038330 
z"/>
<path fill="#ABACAD" opacity="1.000000" stroke="none" 
	d="
M128.021927,423.999573 
	C123.539070,419.358032 118.928436,414.831085 114.623611,410.029938 
	C112.224548,407.354309 109.760292,406.358337 106.032425,407.870300 
	C109.620110,395.888763 113.419327,383.855072 117.691383,371.991638 
	C120.209595,364.998627 123.477440,358.275543 127.057617,351.211365 
	C129.413895,351.769897 131.526230,352.150818 132.751160,353.401123 
	C136.357391,357.082123 139.611740,361.107880 142.992355,365.387787 
	C141.647202,371.182312 140.313538,376.587708 138.705231,382.228363 
	C137.273956,386.417969 135.965149,390.335297 134.990768,394.334076 
	C132.586121,404.202667 130.334854,414.108643 128.021927,423.999573 
z"/>
<path fill="#BABBBC" opacity="1.000000" stroke="none" 
	d="
M143.003830,364.998688 
	C139.611740,361.107880 136.357391,357.082123 132.751160,353.401123 
	C131.526230,352.150818 129.413895,351.769897 127.318680,350.977936 
	C133.524033,337.921448 139.891525,324.757355 146.796417,311.881500 
	C150.937500,304.159393 155.917953,296.887390 161.192078,289.212555 
	C167.932770,288.214996 168.743805,293.436127 170.962952,297.356506 
	C169.595093,300.334167 168.121948,302.891968 166.967148,305.586182 
	C162.918472,315.032074 158.979446,324.524963 154.713394,334.216064 
	C153.964981,335.487274 153.445221,336.521545 153.047852,337.600830 
	C149.687180,346.728790 146.348862,355.864990 143.003830,364.998688 
z"/>
<path fill="#BABBBC" opacity="1.000000" stroke="none" 
	d="
M732.294800,955.731934 
	C732.032715,949.075867 727.201721,943.437805 718.387451,939.764954 
	C718.943604,938.817566 719.717346,938.284729 720.569153,937.951599 
	C725.704468,935.943970 730.857666,933.982056 736.388062,931.959473 
	C743.514160,929.277710 750.257080,926.641296 757.371582,923.963562 
	C766.828735,919.947266 775.914368,915.972412 785.254639,912.277893 
	C792.984680,913.692322 793.835083,914.544250 794.053406,921.117554 
	C777.314697,930.820435 760.601807,940.568481 743.816528,950.190247 
	C740.225769,952.248596 736.372681,953.849304 732.294800,955.731934 
z"/>
<path fill="#C0C2C3" opacity="1.000000" stroke="none" 
	d="
M171.003647,296.999237 
	C168.743805,293.436127 167.932770,288.214996 161.469116,289.021057 
	C168.613037,278.354279 175.499588,267.135376 183.842346,257.130737 
	C196.138382,242.385315 209.471848,228.504990 222.655273,214.098129 
	C222.485260,215.602432 222.425354,217.544159 221.495865,218.881485 
	C215.792587,227.087204 209.892593,235.156189 203.678284,243.680511 
	C193.866013,259.726898 184.433533,275.363464 174.730682,291.192139 
	C173.308075,293.255920 172.155853,295.127594 171.003647,296.999237 
z"/>
<path fill="#C0C2C3" opacity="1.000000" stroke="none" 
	d="
M794.396118,921.046021 
	C793.835083,914.544250 792.984680,913.692322 785.416748,911.967163 
	C788.549500,909.586670 791.774780,907.797241 795.353638,905.967712 
	C806.545654,899.580139 817.464355,893.364319 828.181946,886.819275 
	C832.360535,884.267395 836.086182,880.973938 840.018188,878.018311 
	C847.353088,872.841736 854.656006,867.618774 862.051819,862.530762 
	C863.406860,861.598511 865.139343,861.214783 866.906982,860.836243 
	C854.662048,872.568604 842.620178,884.537476 829.627502,895.365479 
	C818.566284,904.583740 806.410461,912.488525 794.396118,921.046021 
z"/>
<path fill="#9EA0A1" opacity="1.000000" stroke="none" 
	d="
M86.231926,560.392700 
	C86.733192,562.477417 87.144592,564.982422 87.263390,567.749390 
	C86.694550,565.611877 86.418297,563.212463 86.231926,560.392700 
z"/>
<path fill="#9EA0A1" opacity="1.000000" stroke="none" 
	d="
M87.330116,578.314697 
	C87.790550,579.176453 88.153580,580.388000 88.254494,581.801270 
	C87.739151,580.890137 87.485939,579.777344 87.330116,578.314697 
z"/>
<path fill="#F5F6F6" opacity="1.000000" stroke="none" 
	d="
M874.066101,370.903381 
	C873.121704,369.972137 872.458923,368.863190 871.780029,367.423248 
	C872.625183,368.303406 873.486450,369.514557 874.066101,370.903381 
z"/>
<path fill="#979A9C" opacity="1.000000" stroke="none" 
	d="
M494.222778,994.248169 
	C494.945953,993.996826 495.897766,993.978882 496.931793,994.242432 
	C496.159821,994.509888 495.305573,994.495728 494.222778,994.248169 
z"/>
<path fill="#F5F6F6" opacity="1.000000" stroke="none" 
	d="
M979.249146,674.832825 
	C979.137878,674.353333 979.272827,673.706726 979.699585,673.026367 
	C979.825989,673.550354 979.660645,674.108032 979.249146,674.832825 
z"/>
<path fill="#9EA0A1" opacity="1.000000" stroke="none" 
	d="
M88.473618,590.223022 
	C88.867096,590.555176 89.135918,591.153137 89.181808,591.882812 
	C88.755569,591.505920 88.552269,590.997375 88.473618,590.223022 
z"/>
<path fill="#979A9C" opacity="1.000000" stroke="none" 
	d="
M485.191284,993.211182 
	C485.621765,992.964661 486.241943,992.933105 486.937897,993.130981 
	C486.469452,993.382263 485.925232,993.404236 485.191284,993.211182 
z"/>
<path fill="#FEFEFF" opacity="1.000000" stroke="none" 
	d="
M479.050293,701.970276 
	C416.783630,594.116150 354.703522,486.574982 292.220856,378.336456 
	C294.474884,378.224762 295.883575,378.094238 297.292267,378.093964 
	C350.453857,378.083527 403.615448,378.102478 456.776947,378.039673 
	C459.817108,378.036072 461.774811,378.547241 463.524200,381.585022 
	C517.211975,474.813446 571.023376,567.970703 624.906067,661.086609 
	C626.768921,664.305847 627.083069,666.678955 625.094788,670.099670 
	C598.565857,715.740540 572.216858,761.486023 545.812195,807.199158 
	C545.003479,808.599243 544.076843,809.931213 542.673096,812.127380 
	C521.275513,775.076050 500.256165,738.679626 479.050293,701.970276 
z"/>
<path fill="#FEFEFF" opacity="1.000000" stroke="none" 
	d="
M784.123474,406.136353 
	C762.634155,443.367645 741.309631,480.271057 720.052307,517.213074 
	C718.629272,519.686157 717.262146,521.194885 713.984375,521.187866 
	C659.671143,521.071289 605.357666,521.105774 551.044189,521.098389 
	C550.221558,521.098267 549.398926,520.996338 547.819763,520.891907 
	C548.541809,519.305298 549.007141,518.008972 549.684143,516.834534 
	C575.708557,471.687531 601.725708,426.536316 627.901733,381.477295 
	C628.833923,379.872681 631.358887,378.230988 633.146545,378.225433 
	C687.792664,378.055023 742.439453,378.087128 797.086121,378.096680 
	C797.723083,378.096802 798.359985,378.213867 800.083252,378.382904 
	C794.638184,387.850098 789.471191,396.833832 784.123474,406.136353 
z"/>
<path fill="#979A9C" opacity="1.000000" stroke="none" 
	d="
M412.003662,928.995117 
	C406.237793,926.773560 400.473145,924.548828 394.705322,922.332336 
	C392.722961,921.570496 390.732758,920.829102 388.374908,920.037964 
	C387.534607,919.678894 387.065552,919.360291 386.157654,918.730469 
	C384.811493,917.947021 383.904205,917.474731 382.996918,917.002441 
	C369.602783,909.801575 355.671936,903.430603 342.944000,895.199585 
	C325.164062,883.701477 308.025513,871.154846 291.112793,858.393738 
	C281.082611,850.825684 271.563385,842.438416 262.628296,833.596924 
	C251.497665,822.583069 240.814331,811.054810 230.663589,799.130920 
	C220.797165,787.541016 211.291504,775.554565 202.647980,763.037476 
	C193.430527,749.689392 185.298050,735.582397 176.917740,721.670654 
	C173.405701,715.840454 170.474838,709.660095 167.139160,703.320679 
	C162.738403,693.159424 158.380798,683.356995 154.256531,673.457397 
	C151.972931,667.976013 150.079681,662.332092 148.005539,656.380737 
	C148.760712,656.543579 149.686584,656.952576 150.254471,657.652100 
	C154.400253,662.759155 158.061279,668.329529 162.643433,673.000122 
	C180.804398,691.511597 199.222488,709.771545 217.655807,728.013000 
	C218.564651,728.912476 220.105499,733.434937 222.073700,728.105591 
	C228.867935,737.792908 235.338058,748.056274 242.430222,757.869995 
	C268.208069,793.539795 299.669220,823.394043 335.728455,848.653809 
	C335.497833,850.299438 334.849548,852.159851 335.460693,852.781067 
	C357.907196,875.595459 380.446442,898.319031 403.060669,920.967468 
	C405.019348,922.929199 407.654816,924.198242 409.823425,925.975159 
	C410.751678,926.735901 411.288788,927.973999 412.003662,928.995117 
z"/>
<path fill="#CFD0D1" opacity="1.000000" stroke="none" 
	d="
M175.001068,291.000000 
	C184.433533,275.363464 193.866013,259.726898 203.638580,244.032776 
	C200.234741,251.121689 205.949615,254.418625 209.896210,258.378510 
	C223.468155,271.996094 237.114777,285.539520 250.632004,299.211029 
	C252.707855,301.310516 254.622238,302.618011 257.892273,301.098145 
	C249.385147,313.283386 240.470673,325.443573 231.626068,337.654358 
	C229.780090,340.202911 228.192245,342.938416 225.886780,345.631805 
	C223.252609,344.344513 220.925903,343.308533 219.228165,341.634613 
	C206.821945,329.402435 194.578674,317.005188 182.200668,304.744141 
	C178.305878,300.886169 173.780289,297.483215 175.001068,291.000000 
z"/>
<path fill="#CFD0D1" opacity="1.000000" stroke="none" 
	d="
M839.588501,878.011719 
	C836.086182,880.973938 832.360535,884.267395 828.181946,886.819275 
	C817.464355,893.364319 806.545654,899.580139 795.099854,905.686279 
	C789.356079,905.196533 785.254639,903.225281 782.683838,898.538818 
	C782.315735,897.867859 781.433105,897.496948 780.854614,896.920959 
	C774.924133,891.015808 768.984131,885.119995 763.093323,879.175415 
	C757.551086,873.582458 751.872314,868.105103 746.647156,862.226990 
	C744.513123,859.826233 743.414856,856.504639 741.845337,853.602051 
	C755.042725,843.841553 768.240112,834.081055 781.763000,824.244385 
	C784.678650,827.897156 786.806824,832.080261 789.943848,835.271545 
	C800.082764,845.585815 810.628113,855.499451 820.937622,865.647949 
	C823.968750,868.631775 826.363342,872.400146 829.747192,874.842529 
	C832.310120,876.692383 835.980957,877.007202 839.588501,878.011719 
z"/>
<path fill="#ABACAD" opacity="1.000000" stroke="none" 
	d="
M121.991028,499.477234 
	C121.994431,497.289246 121.999542,495.568970 122.374947,493.494934 
	C124.417435,496.791382 125.272926,501.230560 127.904137,503.954285 
	C138.911789,515.348633 150.473541,526.206482 161.788239,537.305786 
	C167.390045,542.800903 167.346848,542.844910 171.520432,537.012207 
	C171.986038,548.071411 172.225677,559.146179 172.989212,570.184753 
	C173.592453,578.905823 174.839661,587.582275 175.582214,596.851013 
	C175.598145,597.951172 175.832764,598.478882 176.067383,599.006592 
	C176.308548,600.147034 176.549698,601.287415 176.550049,602.963074 
	C176.658890,604.347107 177.008499,605.195984 177.358124,606.044800 
	C177.522858,606.800354 177.687607,607.555908 177.602600,608.891235 
	C177.751526,610.327393 178.150192,611.183716 178.548859,612.040039 
	C178.680893,612.787048 178.812943,613.534119 178.715027,614.811035 
	C178.839890,615.908752 179.194717,616.476501 179.549545,617.044250 
	C180.197983,620.371094 180.846436,623.697937 181.555450,627.452820 
	C179.954315,626.964478 177.977203,626.366882 176.679245,625.082825 
	C162.262665,610.820496 147.742996,596.651062 133.729263,581.999268 
	C129.097458,577.156616 126.396065,570.944885 125.887558,563.769348 
	C125.095779,552.596619 123.119728,541.505493 122.394257,530.331177 
	C121.738861,520.236267 122.087090,510.076233 121.991028,499.477234 
z"/>
<path fill="#B2B4B5" opacity="1.000000" stroke="none" 
	d="
M171.627289,536.552673 
	C167.346848,542.844910 167.390045,542.800903 161.788239,537.305786 
	C150.473541,526.206482 138.911789,515.348633 127.904137,503.954285 
	C125.272926,501.230560 124.417435,496.791382 122.379089,493.065308 
	C123.316765,476.782379 124.577179,460.571686 125.950729,444.370605 
	C126.365486,439.478668 127.094070,434.613342 128.204895,429.436859 
	C130.132385,435.779572 135.199234,439.999756 139.467010,444.550568 
	C147.851379,453.490875 156.618500,462.082489 165.445755,470.591736 
	C168.714508,473.742706 172.597351,476.256592 176.200134,479.061005 
	C175.077393,489.408966 173.954636,499.756927 172.404175,510.647827 
	C172.002197,512.800598 172.027954,514.410339 172.053696,516.020142 
	C171.947174,522.711121 171.840652,529.402161 171.627289,536.552673 
z"/>
<path fill="#B2B4B5" opacity="1.000000" stroke="none" 
	d="
M655.000000,954.007324 
	C655.000000,954.007324 655.002441,954.504883 655.003662,954.753662 
	C635.955261,956.990295 616.905640,958.978088 597.357300,960.608521 
	C592.949646,958.377441 588.262207,957.325256 585.267029,954.487183 
	C572.690491,942.570190 560.562012,930.175781 548.433960,917.795166 
	C546.817993,916.145447 546.143188,913.573669 545.032593,911.428894 
	C547.751343,911.312805 550.470032,911.196716 553.943115,911.400085 
	C558.479614,911.302856 562.261841,910.886108 566.044067,910.469360 
	C568.416138,910.317200 570.788208,910.165039 573.776550,910.273560 
	C575.280273,910.245850 576.167664,909.957397 577.055115,909.668945 
	C586.750427,908.406982 596.445740,907.144958 606.603088,906.275146 
	C608.335754,908.570862 609.340698,910.736572 610.919434,912.336060 
	C622.722595,924.294128 634.572083,936.208679 646.576233,947.964111 
	C649.016602,950.353882 652.173401,952.011963 655.000000,954.007324 
z"/>
<path fill="#C7C9C9" opacity="1.000000" stroke="none" 
	d="
M174.730667,291.192139 
	C173.780289,297.483215 178.305878,300.886169 182.200668,304.744141 
	C194.578674,317.005188 206.821945,329.402435 219.228165,341.634613 
	C220.925903,343.308533 223.252609,344.344513 225.601959,345.815125 
	C218.935104,359.204193 211.954407,372.453949 204.346283,385.875305 
	C201.662704,384.714691 199.312012,383.682648 197.598618,382.001190 
	C187.145538,371.742950 176.813629,361.360657 166.490936,350.970428 
	C161.600586,346.048096 155.446091,341.945679 154.998779,334.000000 
	C158.979446,324.524963 162.918472,315.032074 166.967148,305.586182 
	C168.121948,302.891968 169.595093,300.334167 170.962952,297.356506 
	C172.155853,295.127594 173.308075,293.255920 174.730667,291.192139 
z"/>
<path fill="#ABACAD" opacity="1.000000" stroke="none" 
	d="
M544.577881,911.300903 
	C546.143188,913.573669 546.817993,916.145447 548.433960,917.795166 
	C560.562012,930.175781 572.690491,942.570190 585.267029,954.487183 
	C588.262207,957.325256 592.949646,958.377441 596.936157,960.616821 
	C596.564514,960.988342 596.115479,960.994141 595.329529,961.003662 
	C587.495911,961.005493 579.981689,961.331177 572.506226,960.931519 
	C558.294006,960.171509 544.103943,958.996765 529.413574,957.638794 
	C527.053894,955.794006 525.026978,954.464050 523.341980,952.789978 
	C509.629272,939.166626 495.932800,925.525757 482.387146,911.737183 
	C481.057434,910.383789 480.773315,908.003174 480.003876,906.099365 
	C488.701111,907.153809 497.398315,908.208252 506.644104,909.679016 
	C508.774780,910.105774 510.356934,910.116150 511.939087,910.126648 
	C514.661377,910.189026 517.383606,910.251343 520.688477,910.751465 
	C524.156006,911.175171 527.040955,911.161194 529.925964,911.147217 
	C534.658386,911.155762 539.390747,911.164368 544.577881,911.300903 
z"/>
<path fill="#9EA0A1" opacity="1.000000" stroke="none" 
	d="
M412.335144,929.143433 
	C411.288788,927.973999 410.751678,926.735901 409.823425,925.975159 
	C407.654816,924.198242 405.019348,922.929199 403.060669,920.967468 
	C380.446442,898.319031 357.907196,875.595459 335.460693,852.781067 
	C334.849548,852.159851 335.497833,850.299438 335.922974,848.938110 
	C344.105804,853.536621 351.648163,858.777100 359.799286,862.776978 
	C378.251465,871.831909 397.003815,880.275085 415.855347,889.599365 
	C417.087036,892.023621 417.769958,894.136414 419.160645,895.555664 
	C428.817627,905.410583 438.464935,915.284912 448.427063,924.827637 
	C456.648651,932.703064 463.407166,942.311707 474.194397,947.276978 
	C474.635284,947.479919 474.744934,948.402466 475.008911,948.989746 
	C471.612915,948.326355 468.216888,947.662964 464.412292,946.998535 
	C461.244690,945.988708 458.502625,944.930481 455.723907,943.979370 
	C441.376648,939.068420 427.019989,934.184875 412.335144,929.143433 
z"/>
<path fill="#BABBBC" opacity="1.000000" stroke="none" 
	d="
M176.410110,478.739319 
	C172.597351,476.256592 168.714508,473.742706 165.445755,470.591736 
	C156.618500,462.082489 147.851379,453.490875 139.467010,444.550568 
	C135.199234,439.999756 130.132385,435.779572 128.368591,429.067322 
	C128.008194,427.608704 128.010101,426.220703 128.016968,424.416138 
	C130.334854,414.108643 132.586121,404.202667 134.990768,394.334076 
	C135.965149,390.335297 137.273956,386.417969 139.008423,382.378296 
	C140.728394,383.699249 141.758316,385.217255 143.030060,386.494507 
	C156.049347,399.570221 169.050369,412.665619 182.236420,425.571655 
	C183.697388,427.001556 186.276810,427.288757 188.337524,428.105896 
	C185.540955,439.137207 182.744400,450.168549 179.551712,461.643188 
	C179.117050,462.729095 179.078537,463.371735 179.040009,464.014343 
	C178.233368,468.815430 177.426743,473.616547 176.410110,478.739319 
z"/>
<path fill="#C0C2C3" opacity="1.000000" stroke="none" 
	d="
M188.574051,427.852417 
	C186.276810,427.288757 183.697388,427.001556 182.236420,425.571655 
	C169.050369,412.665619 156.049347,399.570221 143.030060,386.494507 
	C141.758316,385.217255 140.728394,383.699249 139.283051,382.143066 
	C140.313538,376.587708 141.647202,371.182312 142.992340,365.387787 
	C146.348862,355.864990 149.687180,346.728790 153.047852,337.600830 
	C153.445221,336.521545 153.964981,335.487274 154.713394,334.216064 
	C155.446091,341.945679 161.600586,346.048096 166.490936,350.970428 
	C176.813629,361.360657 187.145538,371.742950 197.598618,382.001190 
	C199.312012,383.682648 201.662704,384.714691 204.111725,386.115845 
	C199.273254,399.989563 194.041916,413.794250 188.574051,427.852417 
z"/>
<path fill="#BABBBC" opacity="1.000000" stroke="none" 
	d="
M655.425781,954.004150 
	C652.173401,952.011963 649.016602,950.353882 646.576233,947.964111 
	C634.572083,936.208679 622.722595,924.294128 610.919434,912.336060 
	C609.340698,910.736572 608.335754,908.570862 607.029785,906.311157 
	C623.066040,901.938782 639.137573,897.922668 655.604126,894.312927 
	C656.910339,896.557190 657.440125,898.762329 658.796814,900.171265 
	C665.818665,907.463379 672.957275,914.649780 680.237610,921.684326 
	C687.720215,928.914246 695.413147,935.926575 703.013977,943.034119 
	C694.600647,945.315308 686.239075,947.816711 677.758179,949.810425 
	C670.527222,951.510376 663.159058,952.626587 655.425781,954.004150 
z"/>
<path fill="#C7C9C9" opacity="1.000000" stroke="none" 
	d="
M741.506226,853.716797 
	C743.414856,856.504639 744.513123,859.826233 746.647156,862.226990 
	C751.872314,868.105103 757.551086,873.582458 763.093323,879.175415 
	C768.984131,885.119995 774.924133,891.015808 780.854614,896.920959 
	C781.433105,897.496948 782.315735,897.867859 782.683838,898.538818 
	C785.254639,903.225281 789.356079,905.196533 794.746155,905.726440 
	C791.774780,907.797241 788.549500,909.586670 785.162109,911.686829 
	C775.914368,915.972412 766.828735,919.947266 757.323975,923.627258 
	C742.045288,908.497314 727.160400,893.687683 712.360962,878.793091 
	C710.647583,877.068726 709.408081,874.873474 707.948975,872.896606 
	C719.021667,866.541565 730.094360,860.186584 741.506226,853.716797 
z"/>
<path fill="#A5A7A7" opacity="1.000000" stroke="none" 
	d="
M475.411133,948.999390 
	C474.744934,948.402466 474.635284,947.479919 474.194397,947.276978 
	C463.407166,942.311707 456.648651,932.703064 448.427063,924.827637 
	C438.464935,915.284912 428.817627,905.410583 419.160645,895.555664 
	C417.769958,894.136414 417.087036,892.023621 416.111481,889.816528 
	C421.281128,891.182617 426.314880,893.373962 431.569580,894.668335 
	C447.419586,898.572571 463.355560,902.127991 479.630920,905.959412 
	C480.773315,908.003174 481.057434,910.383789 482.387146,911.737183 
	C495.932800,925.525757 509.629272,939.166626 523.341980,952.789978 
	C525.026978,954.464050 527.053894,955.794006 528.964478,957.636841 
	C526.282166,957.660706 523.557678,957.331238 520.414185,957.004517 
	C505.267853,954.341248 490.540588,951.675110 475.411133,948.999390 
z"/>
<path fill="#C0C2C3" opacity="1.000000" stroke="none" 
	d="
M703.423828,943.023865 
	C695.413147,935.926575 687.720215,928.914246 680.237610,921.684326 
	C672.957275,914.649780 665.818665,907.463379 658.796814,900.171265 
	C657.440125,898.762329 656.910339,896.557190 655.997620,894.333008 
	C665.051636,890.561890 674.107178,887.177002 683.566711,884.137451 
	C685.073608,886.248047 685.895874,888.290466 687.323242,889.735046 
	C699.833801,902.396667 712.532410,914.873169 724.983215,927.592590 
	C728.150208,930.827942 731.505981,932.586853 736.004883,932.004883 
	C730.857666,933.982056 725.704468,935.943970 720.569153,937.951599 
	C719.717346,938.284729 718.943604,938.817566 718.063232,939.620117 
	C713.273071,940.992615 708.553406,942.003113 703.423828,943.023865 
z"/>
<path fill="#C3C5C6" opacity="1.000000" stroke="none" 
	d="
M736.388062,931.959473 
	C731.505981,932.586853 728.150208,930.827942 724.983215,927.592590 
	C712.532410,914.873169 699.833801,902.396667 687.323242,889.735046 
	C685.895874,888.290466 685.073608,886.248047 683.943726,884.092834 
	C691.685242,880.121460 699.453796,876.540039 707.585693,872.927612 
	C709.408081,874.873474 710.647583,877.068726 712.360962,878.793091 
	C727.160400,893.687683 742.045288,908.497314 756.952393,923.668640 
	C750.257080,926.641296 743.514160,929.277710 736.388062,931.959473 
z"/>
<path fill="#979A9C" opacity="1.000000" stroke="none" 
	d="
M565.598145,910.351929 
	C562.261841,910.886108 558.479614,911.302856 554.396179,911.463806 
	C557.780762,910.883484 561.466492,910.558960 565.598145,910.351929 
z"/>
<path fill="#979A9C" opacity="1.000000" stroke="none" 
	d="
M529.638550,910.879395 
	C527.040955,911.161194 524.156006,911.175171 521.123535,910.870422 
	C523.767822,910.571716 526.559448,910.591675 529.638550,910.879395 
z"/>
<path fill="#ABACAD" opacity="1.000000" stroke="none" 
	d="
M172.284454,515.734497 
	C172.027954,514.410339 172.002197,512.800598 172.298004,511.091858 
	C172.584778,512.478210 172.550003,513.963501 172.284454,515.734497 
z"/>
<path fill="#979A9C" opacity="1.000000" stroke="none" 
	d="
M511.670044,909.878235 
	C510.356934,910.116150 508.774780,910.105774 507.080780,909.794739 
	C508.446289,909.539429 509.923645,909.584656 511.670044,909.878235 
z"/>
<path fill="#979A9C" opacity="1.000000" stroke="none" 
	d="
M576.753296,909.523071 
	C576.167664,909.957397 575.280273,910.245850 574.223938,910.305786 
	C574.853882,909.843872 575.652710,909.610535 576.753296,909.523071 
z"/>
<path fill="#979A9C" opacity="1.000000" stroke="none" 
	d="
M178.637756,611.715881 
	C178.150192,611.183716 177.751526,610.327393 177.565247,609.280029 
	C178.093964,609.856506 178.410294,610.624146 178.637756,611.715881 
z"/>
<path fill="#979A9C" opacity="1.000000" stroke="none" 
	d="
M177.491318,605.731201 
	C177.008499,605.195984 176.658890,604.347107 176.504791,603.309570 
	C177.008377,603.886414 177.316437,604.651978 177.491318,605.731201 
z"/>
<path fill="#979A9C" opacity="1.000000" stroke="none" 
	d="
M179.625702,616.762817 
	C179.194717,616.476501 178.839890,615.908752 178.691162,615.191833 
	C179.165451,615.522217 179.433655,616.001831 179.625702,616.762817 
z"/>
<path fill="#979A9C" opacity="1.000000" stroke="none" 
	d="
M176.234619,598.829346 
	C175.832764,598.478882 175.598145,597.951172 175.554535,597.261230 
	C175.964310,597.616760 176.183075,598.134399 176.234619,598.829346 
z"/>
<path fill="#B2B4B5" opacity="1.000000" stroke="none" 
	d="
M179.263885,463.833923 
	C179.078537,463.371735 179.117050,462.729095 179.425476,462.037842 
	C179.626175,462.543945 179.556976,463.098755 179.263885,463.833923 
z"/>
<path fill="#929495" opacity="1.000000" stroke="none" 
	d="
M383.050903,917.346863 
	C383.904205,917.474731 384.811493,917.947021 385.859985,918.708496 
	C385.035767,918.562134 384.070343,918.126648 383.050903,917.346863 
z"/>
</svg>